<svg width="42" height="43" viewBox="0 0 42 43" fill="none" xmlns="http://www.w3.org/2000/svg">
<path fill-rule="evenodd" clip-rule="evenodd" d="M28.8051 35.0424C28.9369 35.0424 29.7611 36.1931 29.9242 36.3928L33.215 40.687H12.9296C13.2172 40.4872 24.3034 36.5853 24.8031 36.4204C25.4684 36.2009 26.1084 35.9764 26.7507 35.7221C27.0624 35.5988 28.5671 35.0424 28.8051 35.0424H28.8051ZM1.55226 40.687L5.4954 30.3423C5.62957 29.9995 6.02509 29.0835 6.05033 28.7804C6.83909 28.7804 7.65477 28.7586 8.43908 28.773C9.02888 28.7838 8.94404 28.8782 9.21469 29.2321L13.4334 34.7151C13.8434 35.2646 15.9074 37.7491 16.0165 38.2175C15.686 38.245 10.5867 40.1298 9.74429 40.4122C8.95372 40.6772 8.95767 40.6884 7.90245 40.6871L1.55222 40.687H1.55226ZM30.1281 34.5132L33.578 33.2887C34.1998 33.081 34.7572 32.8657 35.3435 32.6729L37.0957 32.0437L40.3589 40.687H34.8025C34.6237 40.349 34.483 40.2336 34.2479 39.9186C34.0434 39.6448 33.8902 39.426 33.6763 39.1672L31.9124 36.8741C31.681 36.5942 31.5252 36.3589 31.295 36.0804L30.1281 34.5132V34.5132ZM10.5484 28.7804H15.9284C16.3742 29.6231 17.6485 31.3354 18.2389 32.2027C18.8401 33.0856 19.4914 33.8229 20.1233 34.64C21.0625 35.8545 21.2665 35.303 22.3783 33.9074L24.8359 30.544C25.2175 29.9675 25.649 29.4112 25.9829 28.7804H35.8609C35.8891 29.1189 36.1089 29.5095 36.224 29.8284C36.3359 30.1386 36.5361 30.5321 36.5665 30.8972C36.1941 30.9839 35.7456 31.1413 35.3689 31.2871L31.7919 32.561C30.9714 32.8325 30.231 33.1439 29.3893 33.4217L24.5716 35.1306C23.7888 35.4429 22.9743 35.6662 22.1645 35.9867L17.3395 37.6883L13.5098 32.6983C12.9121 31.9328 10.9273 29.5015 10.5484 28.7804ZM20.25 1.35118C22.7527 1.35118 24.3612 1.52918 26.4947 2.95605C27.8696 3.87559 28.8447 4.83727 29.705 6.27231C30.062 6.86778 30.4737 7.72613 30.69 8.46236C31.1374 9.98491 30.9709 9.89137 31.1384 11.2831C31.2952 12.5857 30.717 15.6009 30.3157 16.8851C28.7165 22.0028 26.6565 25.492 23.7594 29.8203L20.8674 33.6313C20.7989 33.3749 19.7673 32.1149 19.5308 31.7928L16.8806 27.9164C16.0242 26.6406 14.6535 24.2015 13.9586 22.8124C11.5313 17.9599 9.22934 11.1961 12.1717 6.32605C13.7831 3.65898 17.0351 1.35118 20.25 1.35118ZM9.49001 11.141C9.49001 15.1473 10.5834 18.8391 12.3136 22.3408C13.1754 24.0851 14.0466 25.9209 15.1346 27.5457L6.13706 27.5442C5.26705 27.5346 5.211 27.5288 4.93877 28.1981C4.57873 29.0832 4.25469 29.957 3.94393 30.8193C3.62863 31.694 3.28123 32.5471 2.93713 33.4286C2.58194 34.3386 2.29205 35.138 1.9426 36.0501C1.59422 36.9595 1.25985 37.7996 0.945147 38.6687C0.466797 39.9897 -0.757467 42.01 0.670298 42.01H41.2409C42.623 42.01 41.5115 40.0254 40.989 38.734C39.6413 35.4028 38.3347 31.6278 36.9971 28.2616C36.6109 27.2897 36.3921 27.5456 34.0969 27.5456C31.6568 27.5456 29.2167 27.5456 26.7766 27.5456C27.4863 26.4857 28.0819 25.2499 28.6887 24.1659C30.8769 20.2566 32.4212 15.7204 32.4212 11.141C32.4212 8.94242 31.5267 6.53246 30.3556 4.91603C29.5537 3.80905 28.6705 2.93316 27.5841 2.13112L25.8055 1.08743C20.8645 -1.11573 15.879 0.111917 12.245 4.01786C11.7076 4.59545 10.9172 5.84959 10.5774 6.58367C10.0252 7.77644 9.49001 9.44164 9.49001 11.141V11.141Z" fill="#F2F2F2"/>
<path fill-rule="evenodd" clip-rule="evenodd" d="M16.9867 11.4937C16.9867 8.63906 19.982 6.73145 22.5444 7.87635C26.4678 9.62932 25.1768 15.4626 20.9556 15.4626C18.7943 15.4626 16.9867 13.6523 16.9867 11.4937ZM15.752 11.1409C15.752 12.7516 16.078 14.1812 17.34 15.2857C21.3391 18.7855 26.1593 15.3499 26.1593 11.8464V11.1409C26.1593 8.71744 23.7318 6.29004 21.3084 6.29004C19.6223 6.29004 18.4936 6.59047 17.273 7.81105C16.5411 8.54295 15.752 9.7181 15.752 11.1409V11.1409Z" fill="#F2F2F2"/>
</svg>
