<svg class="icon-book" width="73" height="73" viewBox="0 0 73 73" fill="none" xmlns="http://www.w3.org/2000/svg">
  <path fill-rule="evenodd" clip-rule="evenodd" d="M35.4202 66.4623L35.9279 66.3707L37.0702 66.3859L37.5819 66.4423L37.5796 70.3324L35.4172 70.3953L35.4202 66.4623V66.4623ZM39.7349 67.5992L39.7399 66.3849C45.9309 66.3849 52.1226 66.3849 58.3144 66.3849C69.529 66.3849 68.6795 67.5891 68.6795 62.5848V15.8926L69.7606 15.8903L70.8402 15.9089L70.8399 68.7806L39.7397 68.8062L39.7349 67.5991V67.5992ZM2.15655 67.4881L2.15955 15.9214L4.32042 15.8883V62.4255C4.32042 67.6046 3.37728 66.3849 14.6855 66.3849C20.8773 66.3849 27.069 66.3849 33.2607 66.3849L33.265 67.5992L33.259 68.806L2.15999 68.8053L2.15655 67.4881V67.4881ZM39.6139 62.7021C40.9987 61.2982 42.8808 61.5659 45.0546 61.5659L61.3089 61.565C62.7419 61.5546 63.1769 61.611 63.6327 62.6406L64.9136 63.9421L38.6386 63.976C38.7553 63.4929 39.2572 62.9579 39.6139 62.7021V62.7021ZM9.36721 62.6453C10.0423 61.0907 12.2254 61.5659 14.8281 61.5659H27.8027C30.0164 61.5659 31.9772 61.2749 33.3907 62.7065C33.7488 62.9476 34.2506 63.4942 34.3824 63.976H7.98437L9.36721 62.6453ZM66.5066 15.3743L66.5202 62.1744C65.9957 61.7247 65.6166 61.2504 65.1251 60.7107C64.3443 59.8532 64.3461 60.0951 64.3589 58.4478L64.3584 22.6086C64.3496 21.0685 64.4547 21.1944 64.9103 19.9472C65.4685 18.419 65.9771 16.8146 66.5065 15.3743H66.5066ZM6.49816 62.1746L6.47945 15.3663C6.94113 14.9027 8.13172 14.053 8.60786 13.7952C8.78617 15.7158 8.63926 48.3252 8.63926 51.9151C8.63926 54.038 8.62857 56.1644 8.64003 58.2868C8.64931 60.0104 8.79016 59.7164 7.9492 60.6345C7.44337 61.1867 7.02577 61.7226 6.49816 62.1746V62.1746ZM10.7991 57.9492L10.7978 12.6754C16.371 12.6754 21.9443 12.6754 27.5175 12.6754C30.2579 12.6754 32.8628 12.2179 34.4896 14.19C35.7495 15.7174 35.4211 15.128 35.4209 17.8359L35.4236 59.4388L35.4114 61.3043C34.2908 60.6671 33.5852 59.3085 30.791 59.1674C28.6351 59.0584 26.274 59.1553 24.0956 59.1553C19.6633 59.1553 15.2309 59.1553 10.7985 59.1553L10.7991 57.9492L10.7991 57.9492ZM60.7447 28.4236C61.141 27.7663 61.0981 27.9835 61.484 27.5868C61.8252 27.2361 61.8263 26.9949 62.1656 26.6015L62.2019 59.1553C57.769 59.1553 53.3367 59.1553 48.9043 59.1553C45.1805 59.1553 41.2365 58.491 38.6082 60.4812C38.1661 60.8159 38.0388 61.0608 37.5977 61.3065L37.575 59.32C37.6875 45.6956 37.5791 31.8368 37.5791 18.1544C37.5791 16.3556 37.0942 14.5586 39.8579 13.1424C41.426 12.3388 47.8819 12.6513 49.7806 12.6824L47.4169 16.3336C46.5993 17.6909 46.957 20.1826 46.3379 21.4817C45.7916 21.0419 44.6804 19.6713 43.9315 21.5122L43.0134 23.9923C42.7885 24.5683 42.9171 24.5121 42.4883 24.7372C41.3648 24.7372 40.4113 24.5335 40.1609 25.5839C39.8613 26.8406 40.7248 27.1356 41.7074 27.1497C41.5976 28.3293 40.0662 30.8914 40.0579 32.0092C40.0538 32.5558 41.2272 36.6486 41.4551 37.4236C41.1809 37.6785 39.9715 37.6177 40.1259 38.966C40.2548 40.0909 41.1463 39.9619 42.1427 40.0391C42.3778 40.7306 43.1515 43.4393 43.1527 44.0385C41.9005 44.0385 40.2423 43.6869 40.1225 45.1078C39.9845 46.7442 41.5196 46.3905 42.7517 46.4722L41.7843 50.4693C39.352 50.478 39.8796 52.72 41.2024 52.8733L56.6035 52.8805C57.2443 52.8808 58.3635 53.0148 58.9138 52.7426C59.5293 52.4381 59.7814 51.3866 59.1749 50.7914C58.5918 50.2191 55.3044 50.4723 54.3223 50.4723C50.8975 50.4723 47.4728 50.4723 44.0481 50.4723L45.0234 46.5097C47.1786 46.1077 57.5389 46.7766 58.7839 46.377C59.8111 46.0473 59.7627 44.3995 58.7244 44.102C58.0966 43.9222 50.0939 44.1356 48.4124 44.0161C48.7892 43.9307 51.1998 42.7686 51.8626 42.4782C57.4009 40.052 50.7961 40.0393 57.8926 40.0205C58.9915 40.0176 59.9815 39.4909 59.3498 38.2038C58.926 37.2531 57.6516 37.7339 56.5105 37.5488C59.0929 33.0577 61.8589 31.4215 58.4917 30.3735C58.8761 29.9345 60.2659 28.5247 60.7448 28.4237L60.7447 28.4236ZM55.0351 31.1345C55.2211 31.7006 55.2785 31.6432 55.5812 31.9817L57.1155 32.5336C55.7917 34.6016 54.3229 36.7173 52.97 38.7811C52.511 39.4813 52.4783 39.6294 51.6266 39.9874C51.0623 40.2247 50.4563 40.5029 49.8866 40.7489C48.8043 41.2162 47.3753 41.9545 46.2483 42.2454L46.584 41.2117C47.2699 37.6636 52.0261 26.3678 53.4859 23.2766C54.8194 20.453 56.216 17.7518 57.6712 15.2032C58.9817 12.9078 60.1874 11.2746 61.18 9.56729C61.6146 8.81976 61.4266 7.83623 60.644 7.59144C59.628 7.27374 58.6306 9.32989 57.8416 10.6208C52.6169 19.1697 49.4944 25.9919 46.0609 35.6801C45.6537 36.8291 44.9888 39.3539 44.5184 40.2564C44.0982 39.206 42.1826 32.42 42.4069 31.6197L45.4029 23.959C48.5074 28.2884 48.5627 21.7445 48.8713 19.568C49.2163 17.1345 49.3856 17.3979 50.4658 15.7597C51.4843 14.215 53.8222 11.2629 55.1564 9.85249C57.1178 7.77899 61.9299 3.71869 64.1752 3.35168C64.553 3.04488 65.2852 2.74354 65.8152 2.75461C66.5824 8.486 64.4835 14.6989 62.7921 19.3348C62.3066 20.6657 60.4985 25.3593 59.7248 26.0977C58.892 26.8923 58.0568 27.5961 57.1954 28.3717C55.6344 29.7771 55.115 29.8979 55.0352 31.1345H55.0351ZM36.4999 12.8991C35.6017 12.2274 34.4326 10.1919 31.2246 10.1919H9.83788C9.09254 10.1919 6.27633 12.5497 5.57004 13.069C4.18246 14.0893 0 12.2687 0 14.6509V70.0696C0 71.161 0.884563 71.3436 1.85351 71.3436H33.2207C33.2635 73.4889 35.3939 72.936 38.2109 72.936C39.2182 72.936 39.7571 72.4587 39.7793 71.3436H71.1465C72.1154 71.3436 73 71.161 73 70.0696V14.6509C73 12.9148 70.6021 13.396 68.5706 13.3875C67.6608 13.3837 67.7242 13.236 67.1543 12.8991C67.8343 9.63883 68.6826 5.16604 67.8418 1.62078C67.6834 0.952636 67.5249 0 66.7265 0C64.3678 0 60.2087 2.58887 58.4642 3.83C55.5511 5.90267 54.3479 7.58594 52.1599 9.84695C51.7747 10.245 51.8889 10.19 51.1975 10.2053C50.782 10.2145 50.3248 10.1923 49.9024 10.192C47.4944 10.1901 41.6168 9.95281 39.692 10.5721C39.0119 10.791 38.4723 11.097 37.9625 11.507C37.3682 11.9848 37.0028 12.5232 36.5 12.8992L36.4999 12.8991Z" fill="#4F4F4F"/>
  <path fill-rule="evenodd" clip-rule="evenodd" d="M46.584 41.2116C46.7585 41.4672 46.584 41.5408 47.2261 41.1495L49.3006 39.7799C49.9837 39.3443 50.0042 39.2292 50.4364 38.6567C50.8353 38.1282 51.1356 37.8761 51.56 37.368L54.6705 33.5086C55.1493 32.9891 55.5153 32.8546 55.5812 31.9817C55.2785 31.6431 55.2211 31.7005 55.0351 31.1345C53.3311 30.3392 55.3442 28.9875 56.0345 28.348C56.6098 27.8151 58.0476 26.6731 58.3887 26.0409C59.2795 24.3901 60.5193 21.2998 61.2259 19.3354C62.121 16.8471 62.8671 14.5766 63.5139 11.862C63.7756 10.7637 65.1018 3.89765 64.1752 3.35164C61.9298 3.71869 57.1178 7.77895 55.1564 9.85245C53.8222 11.2629 51.4843 14.2149 50.4657 15.7596C49.3856 17.3978 49.2163 17.1344 48.8713 19.568C48.5627 21.7445 48.5074 28.2884 45.4028 23.9589L42.4069 31.6196C42.1826 32.4199 44.0982 39.206 44.5183 40.2563C44.9887 39.3539 45.6537 36.8291 46.0609 35.6801C49.4944 25.9918 52.6169 19.1696 57.8416 10.6208C58.6306 9.32981 59.628 7.27366 60.6439 7.5914C61.4267 7.8362 61.6145 8.81972 61.1799 9.56725C60.1874 11.2746 58.9817 12.9078 57.6712 15.2031C56.216 17.7517 54.8193 20.453 53.4859 23.2765C52.0261 26.3677 47.2699 37.6636 46.584 41.2116V41.2116Z" fill="#F2994A"/>
  <path fill-rule="evenodd" clip-rule="evenodd" d="M2.15656 67.4881C3.2553 67.8088 8.32938 67.5992 9.83784 67.5992C12.4518 67.5992 15.0657 67.5992 17.6797 67.5992C22.8748 67.5992 28.0699 67.5992 33.265 67.5992L33.2607 66.3848C27.069 66.3848 20.8773 66.3848 14.6855 66.3848C3.37729 66.3848 4.32043 67.6045 4.32043 62.4255V15.8883L2.15955 15.9214L2.15656 67.4881V67.4881Z" fill="#F2994A"/>
  <path fill-rule="evenodd" clip-rule="evenodd" d="M39.7349 67.5992C46.0706 67.5992 52.4064 67.5992 58.7421 67.5992C69.8607 67.5992 69.7618 68.8533 69.7606 63.8588V15.8904L68.6795 15.8926V62.5848C68.6795 67.5892 69.5289 66.3849 58.3143 66.3849C52.1226 66.3849 45.9309 66.3849 39.7399 66.3849L39.7349 67.5993L39.7349 67.5992Z" fill="#F2994A"/>
  <path fill-rule="evenodd" clip-rule="evenodd" d="M14.0883 31.3122C13.4369 31.6844 13.2155 32.7469 13.8143 33.3036C14.3611 33.812 20.7339 33.5794 21.6718 33.5794C23.0885 33.5794 31.7772 33.7686 32.3577 33.428C32.9894 33.0574 33.0131 32.0835 32.6212 31.574C32.1516 30.9634 31.0073 31.1699 30.2265 31.171C27.7787 31.1745 14.6188 31.0092 14.0883 31.3122V31.3122Z" fill="#4F4F4F"/>
  <path fill-rule="evenodd" clip-rule="evenodd" d="M14.302 24.8104C13.5776 25.0602 13.1199 25.8794 13.7154 26.7143C14.1454 27.3173 15.3063 27.1474 16.1113 27.1459C18.6047 27.1415 31.6991 27.2967 32.3013 27.0118C32.8584 26.7484 33.1017 25.792 32.6566 25.1602C32.2415 24.5709 31.1611 24.7353 30.3693 24.7369C27.8316 24.7421 14.95 24.587 14.302 24.8105L14.302 24.8104Z" fill="#4F4F4F"/>
  <path fill-rule="evenodd" clip-rule="evenodd" d="M32.7687 52.2336C33.1577 51.4319 32.6177 50.6168 31.9281 50.4943L18.3925 50.4721C17.2785 50.4721 14.0901 50.0992 13.6204 51.0589C12.5054 53.3366 16.098 52.8803 17.2519 52.8803H28.0878C29.3795 52.8803 32.2192 53.3664 32.7687 52.2336V52.2336Z" fill="#4F4F4F"/>
  <path fill-rule="evenodd" clip-rule="evenodd" d="M32.7837 39.3344C33.1349 38.5095 32.6642 37.746 31.9184 37.6267L18.3925 37.6048C17.2184 37.6048 14.027 37.2698 13.6155 38.1536C13.1613 39.1291 13.7741 39.9082 14.5344 40.0038L28.0877 40.0131C29.3799 40.0131 32.2826 40.5113 32.7837 39.3345L32.7837 39.3344Z" fill="#4F4F4F"/>
  <path fill-rule="evenodd" clip-rule="evenodd" d="M31.3671 46.4471C32.2848 46.4471 32.8848 46.2448 32.8821 45.2321C32.8795 44.2539 32.2601 44.0384 31.3671 44.0384H14.9707C12.9387 44.0384 12.8756 46.4472 14.9707 46.4472H31.3671V46.4471Z" fill="#4F4F4F"/>
  <path fill-rule="evenodd" clip-rule="evenodd" d="M64.1752 3.35163C65.1018 3.89764 63.7756 10.7637 63.5139 11.862C62.8671 14.5766 62.121 16.8471 61.2259 19.3354C60.5193 21.2998 59.2795 24.3901 58.3887 26.0409C58.0476 26.6731 56.6098 27.8151 56.0345 28.348C55.3442 28.9875 53.3311 30.3392 55.0351 31.1345C55.1149 29.8978 55.6343 29.7771 57.1953 28.3716C58.0567 27.596 58.8919 26.8923 59.7247 26.0976C60.4984 25.3592 62.3065 20.6656 62.792 19.3347C64.4834 14.6988 66.5823 8.48587 65.8151 2.75452C65.2851 2.74345 64.5529 3.04484 64.1751 3.35159L64.1752 3.35163Z" fill="white"/>
  <path fill-rule="evenodd" clip-rule="evenodd" d="M17.1079 18.4224C16.0246 18.9571 16.2474 20.5777 17.532 20.7081L29.2947 20.6119C30.2062 20.2354 30.2742 18.4465 28.8066 18.3082L17.108 18.4224L17.1079 18.4224Z" fill="#4F4F4F"/>
  <path fill-rule="evenodd" clip-rule="evenodd" d="M46.584 41.2116L46.2483 42.2454C47.3753 41.9544 48.8043 41.2162 49.8865 40.7488C50.4562 40.5029 51.0623 40.2247 51.6266 39.9874C52.4782 39.6294 52.5109 39.4812 52.9699 38.7811C54.3229 36.7173 55.7917 34.6015 57.1155 32.5336L55.5811 31.9817C55.5152 32.8547 55.1491 32.9891 54.6704 33.5087L51.5599 37.368C51.1355 37.8762 50.8352 38.1283 50.4363 38.6567C50.0041 39.2293 49.9835 39.3444 49.3005 39.78L47.226 41.1495C46.5839 41.5408 46.7584 41.4673 46.5839 41.2117L46.584 41.2116Z" fill="white"/>
  <path fill-rule="evenodd" clip-rule="evenodd" d="M35.4172 70.3954L37.5797 70.3325L37.5819 66.4424L37.0702 66.3859L35.9279 66.3707L35.4202 66.4623L35.4172 70.3954Z" fill="#F2994A"/>
</svg>
