<svg width="28" height="22" viewBox="0 0 28 22" fill="none" xmlns="http://www.w3.org/2000/svg">
<path d="M25.8626 17.3839C26.154 18.0223 26.5912 18.6607 27.077 19.2991C27.3685 19.7902 27.6114 20.0357 27.7085 20.0848C27.8543 20.2812 27.9514 20.4777 28 20.6741C28 20.9196 28 21.1161 27.9028 21.3125C27.8057 21.5089 27.7085 21.7054 27.5142 21.8036C27.3199 21.9509 27.077 22 26.8827 22C24.7453 22 22.7536 21.3616 20.8105 20.0848C19.8389 20.3304 18.8673 20.4286 17.8958 20.4286C15.8069 20.4286 13.9124 19.9866 12.2607 19.1027C10.5605 18.2188 9.34604 17.0893 8.56879 15.6161C8.08301 15.567 7.64581 15.4688 7.20861 15.3705C5.26548 16.6473 3.27379 17.2857 1.13635 17.2857C0.893462 17.2857 0.69915 17.2366 0.504838 17.0893C0.310526 16.9911 0.21337 16.7946 0.116213 16.5982C0.0190574 16.4018 -0.0295206 16.2054 0.0190574 15.9598C0.0676354 15.7634 0.164791 15.567 0.310526 15.4196C0.45626 15.2723 0.69915 14.9777 0.990618 14.5848C1.42782 13.9464 1.81644 13.308 2.15649 12.6696C0.69915 11.2946 0.0190574 9.67411 0.0190574 7.85714C0.0190574 6.48214 0.45626 5.15625 1.37924 3.92857C2.25365 2.75 3.4681 1.76786 5.02259 1.08036C6.57709 0.392857 8.27732 0 10.1233 0C12.1636 0 14.0581 0.441964 15.7583 1.32589C17.41 2.20982 18.673 3.38839 19.4503 4.8125C21.0048 5.00893 22.4621 5.5 23.7737 6.23661C25.0853 6.97321 26.1055 7.90625 26.8827 8.98661C27.6114 10.1161 28 11.2946 28 12.5714C28 14.3884 27.2713 16.0089 25.8626 17.3839ZM6.91714 13.7009L7.54865 13.8482C8.37448 14.0446 9.24888 14.1429 10.1233 14.1429C11.6778 14.1429 13.0865 13.8973 14.3982 13.308C15.7098 12.7679 16.7299 12.0312 17.5071 11.0491C18.2844 10.067 18.673 9.03571 18.673 7.85714C18.673 6.72768 18.2844 5.69643 17.5071 4.71429C16.7299 3.73214 15.7098 2.99554 14.3982 2.40625C13.0865 1.86607 11.6778 1.57143 10.1233 1.57143C8.56879 1.57143 7.11145 1.86607 5.79984 2.40625C4.48824 2.99554 3.4681 3.73214 2.69085 4.71429C1.9136 5.69643 1.57355 6.72768 1.57355 7.85714C1.57355 9.23214 2.10791 10.4598 3.27379 11.5402L4.05103 12.375L3.56525 13.4062C3.17663 14.192 2.69085 14.9286 2.10791 15.6652C3.56525 15.5179 5.02259 14.9777 6.38278 14.0446L6.91714 13.7009ZM21.6363 18.7589C22.9965 19.692 24.4052 20.2321 25.9111 20.3795C25.3282 19.6429 24.8424 18.8571 24.4538 18.0714L23.968 17.0893L24.7453 16.2545C25.8626 15.1741 26.4455 13.9464 26.4455 12.5714C26.4455 11.1473 25.814 9.87054 24.6481 8.74107C23.4337 7.61161 21.9277 6.875 20.0818 6.48214C20.1789 6.97321 20.2275 7.46429 20.2275 7.85714C20.2275 9.23214 19.7903 10.558 18.9159 11.7366C18.0415 12.9152 16.8271 13.8973 15.3697 14.5848C13.8638 15.2723 12.2607 15.6652 10.5119 15.7143C11.2406 16.6964 12.2607 17.433 13.5723 18.0223C14.8839 18.6116 16.3413 18.8571 17.8958 18.8571C18.7702 18.8571 19.596 18.7589 20.4704 18.5625L21.1019 18.4152L21.6363 18.7589ZM19.7903 5.64732H19.8389H19.7903Z" fill="#F2994A"/>
</svg>
