<svg width="40" height="40" viewBox="0 0 40 40" fill="none" xmlns="http://www.w3.org/2000/svg">
<path d="M20 0C25.5232 0 30.5222 2.23937 34.1414 5.85859C37.7606 9.4778 40 14.4788 40 20C40 25.5232 37.7606 30.5222 34.1414 34.1414C30.5222 37.7606 25.5212 40 20 40C14.4768 40 9.4778 37.7606 5.85859 34.1414C2.23937 30.5222 0 25.5212 0 20C0 14.4768 2.23937 9.4778 5.85859 5.85859C9.4778 2.23937 14.4788 0 20 0V0ZM27.3166 18.5935H29.4511V33.4191H27.3166V18.5935V18.5935ZM21.4923 21.1721H23.6268V33.4191H21.4923V21.1721V21.1721ZM15.8681 22.8607H18.0027V33.4191H15.8681V22.8607V22.8607ZM10 24.8828H12.1346V33.4172H10V24.8828V24.8828ZM13.1694 20.4574C13.2171 19.7751 12.9198 18.462 12.2508 18.0827C11.7534 17.6672 10.3755 17.5758 9.72746 17.5434C9.6093 17.5376 8.93272 17.511 8.87936 17.4747C8.77644 17.328 8.70783 16.6133 8.68877 16.4094C8.66019 16.0892 8.62398 15.7728 8.62207 15.4526C8.62207 15.4031 8.62969 15.3593 8.6335 15.3135C9.26815 15.0543 10.2192 14.9514 10.8996 14.7132C11.1092 14.6388 11.4961 14.5531 11.6447 14.3911L12.0316 13.8403C12.1517 13.6249 12.2965 13.2666 12.3518 13.0208C12.4986 12.3537 12.4624 11.8296 12.064 11.2426C11.6771 10.6728 10.9929 10.1849 10.6423 9.56547C10.5927 9.4778 10.5527 9.37107 10.5012 9.30246L11.7743 7.77968C11.9973 7.80255 12.207 7.97408 12.4033 8.08843C12.6263 8.21993 12.8378 8.34382 13.057 8.47341C13.1694 8.53821 13.2666 8.58205 13.3829 8.65066C13.6745 8.82218 14.0461 9.07376 14.3549 9.14808C14.8104 9.25672 15.1306 9.23575 15.5651 9.04517C15.9005 8.89842 16.4532 8.5992 16.7486 8.24471C16.9354 8.02173 17.0307 7.62531 17.0669 7.40804C17.1393 6.99447 17.1984 6.57709 17.2213 6.1559C17.2289 6.00915 17.2441 5.88717 17.2537 5.74042C17.2689 5.46979 17.2689 5.17439 17.3261 4.90947C17.7797 4.77606 19.2377 4.59501 19.5273 4.73032C19.6817 5.25634 19.7999 5.77092 19.9581 6.30646C20.0648 6.66667 20.3392 7.61387 20.6709 7.89213C20.8691 8.05603 21.1035 8.12083 21.3208 8.23709C21.5361 8.35144 21.7572 8.4353 21.9783 8.48294C23.4629 8.80503 24.1681 7.36993 25.2716 6.6781C25.384 6.60759 25.4698 6.53707 25.5956 6.64189L26.9888 7.80637C27.1374 7.93025 26.8782 8.31523 26.8077 8.44101C26.6895 8.65638 26.558 8.86792 26.4265 9.09472C26.1864 9.50638 25.8853 9.98856 25.7385 10.3945C25.6566 10.6232 25.6165 10.8005 25.6356 11.0215C25.6661 11.3532 25.6794 11.5132 25.8891 11.8811L27.1088 11.74C26.9411 11.5914 26.8954 11.4523 26.8363 11.1549C26.6991 10.4784 27.5624 9.54831 27.8769 8.98228C28.1532 8.48485 28.2409 8.05031 28.0999 7.58719C27.9512 7.09929 27.5967 6.80008 27.1965 6.49895C27.1107 6.43415 27.0917 6.44368 26.9945 6.36364C26.8706 6.26263 26.7467 6.15399 26.6228 6.05108C26.4151 5.87764 26.1273 5.66609 25.8891 5.52697C25.5975 5.35735 25.1401 5.38212 24.8618 5.5708C24.0842 6.09872 23.4382 7.01925 22.5805 7.35468C22.1936 7.50715 21.7572 7.25557 21.4294 6.98304C21.2636 6.84582 21.1664 6.39222 21.1206 6.2207C20.7376 4.79512 20.7242 3.43434 19.0452 3.57919L18.3267 3.6154C18.1647 3.60968 18.0293 3.65352 17.8674 3.66876C17.5395 3.69735 17.2346 3.7469 16.9221 3.85744C16.2607 4.09186 16.1845 4.97427 16.1216 5.55174C16.1083 5.67181 16.1006 5.75948 16.0911 5.88146C16.0663 6.2531 16.0091 7.30322 15.809 7.5567C15.6604 7.74347 15.3917 7.92072 15.1763 7.97599C14.9762 8.02744 14.717 7.99886 14.5016 7.92072C13.3943 7.51668 12.3099 6.12731 11.0768 6.92014C10.8062 7.09358 10.1963 7.93215 9.90852 8.2752C9.69697 8.52868 9.5426 8.74214 9.44349 8.98799C8.86983 10.3926 11.3646 11.4618 11.2941 12.4833C11.2731 12.7825 11.0921 13.3105 10.8214 13.4686C10.5279 13.6402 10.1772 13.6954 9.85134 13.7717C9.29865 13.9013 8.74404 14.0252 8.22946 14.2767C7.98361 14.3968 7.81589 14.5302 7.65961 14.8027C7.4595 15.1534 7.51286 15.4545 7.51477 15.8128C7.51668 16.3617 7.54908 16.9297 7.66152 17.4671C7.73585 17.8216 7.74538 17.9836 8.03316 18.2237C8.4696 18.5897 8.86602 18.5782 9.34439 18.6545C9.4778 18.6754 9.64361 18.6926 9.77892 18.704C10.1105 18.7307 11.275 18.7879 11.5056 18.9785C12.0126 19.4016 12.0431 20.2573 11.9802 20.6651L13.1694 20.4612V20.4574ZM18.3877 19.0375C17.9036 18.9156 17.511 18.7231 17.1641 18.4334C16.6019 17.9626 16.2779 17.6444 15.9729 16.9754C15.7843 16.5618 15.6775 16.1426 15.6394 15.7156C15.5632 14.8599 15.7976 13.8003 16.3922 13.0875C16.8687 12.5176 17.2136 12.1974 17.8845 11.9059C18.3819 11.6905 18.6888 11.639 19.1976 11.5895C20.2516 11.4885 21.4808 11.9992 22.2279 12.8226C22.7864 13.4382 23.1485 14.2539 23.2133 15.0715C23.219 15.1458 23.2133 15.1572 23.2133 15.2258C23.2114 15.2906 23.2228 15.3307 23.2247 15.3974C23.2285 15.8929 23.1161 16.4227 22.9007 16.9144L24.2901 16.093C24.3777 15.4507 24.3453 14.7208 24.1795 14.1433C23.9222 13.2438 23.4858 12.3899 22.6796 11.7172C21.9992 11.1473 21.477 10.8462 20.6918 10.6346C20.2687 10.5203 19.8723 10.4746 19.4397 10.4688C18.7269 10.4612 18.0503 10.6175 17.3985 10.9015C17.1241 11.0196 16.8877 11.1549 16.6133 11.3417C15.8186 11.8868 15.0734 12.8302 14.7761 13.7488C14.7246 13.9051 14.696 14.0194 14.6465 14.1719C14.5416 14.5035 14.5054 15.0772 14.4978 15.4221L14.6179 16.4418C14.6331 16.5275 14.6446 16.558 14.6655 16.6438C14.8656 17.4366 15.4012 18.4124 16.093 18.9899C16.3408 19.1957 16.5657 19.3749 16.7944 19.5293L18.3838 19.0356L18.3877 19.0375ZM32.5996 11.599L26.1063 12.2603L27.8197 14.2958C27.1317 14.7913 26.4303 15.2887 25.6832 15.7862C24.6083 16.5028 23.4896 17.1851 22.2851 17.8026C21.0921 18.4124 19.7942 18.9708 18.481 19.4492C17.1336 19.939 15.7747 20.345 14.4959 20.6385C13.2419 20.9262 12.0621 21.1073 10.9224 21.2331C9.7732 21.3608 8.65638 21.4351 7.53955 21.5075L7.63865 23.0951C8.77454 23.0208 9.91233 22.9445 11.0959 22.813C12.2889 22.6815 13.5258 22.4909 14.8504 22.186C16.1883 21.8792 17.612 21.4542 19.0223 20.9396C20.3869 20.4422 21.7458 19.859 23.0055 19.2129C24.2901 18.5554 25.4545 17.8445 26.558 17.1088C27.3204 16.6 28.0808 16.0587 28.8412 15.5098L30.6404 17.6463L32.5977 11.5952L32.5996 11.599ZM33.0131 6.98304C29.6817 3.65352 25.081 1.59139 19.9981 1.59139C14.9152 1.59139 10.3126 3.65161 6.98304 6.98304C3.65352 10.3145 1.59139 14.9152 1.59139 19.9981C1.59139 25.081 3.65161 29.6836 6.98304 33.0131C10.3145 36.3427 14.9152 38.4048 19.9981 38.4048C25.081 38.4048 29.6836 36.3446 33.0131 33.0131C36.3427 29.6817 38.4048 25.081 38.4048 19.9981C38.4048 14.9152 36.3446 10.3126 33.0131 6.98304V6.98304Z" fill="#2B2A29"/>
</svg>
