<svg width="85" height="85" viewBox="0 0 85 85" fill="none" xmlns="http://www.w3.org/2000/svg">
<circle cx="42.5" cy="42.5" r="42.5" fill="white"/>
<path d="M42.5592 27.8359C34.9877 27.8359 28.9542 33.9877 28.9542 41.4408C28.9542 49.0123 34.9877 55.0458 42.5592 55.0458C50.0123 55.0458 56.1641 49.0123 56.1641 41.4408C56.1641 33.9877 50.0123 27.8359 42.5592 27.8359ZM42.5592 50.3136C37.7087 50.3136 33.6864 46.4096 33.6864 41.4408C33.6864 36.5904 37.5904 32.6864 42.5592 32.6864C47.4096 32.6864 51.3136 36.5904 51.3136 41.4408C51.3136 46.4096 47.4096 50.3136 42.5592 50.3136ZM59.8315 27.3627C59.8315 25.5882 58.4118 24.1685 56.6373 24.1685C54.8627 24.1685 53.4431 25.5882 53.4431 27.3627C53.4431 29.1373 54.8627 30.5569 56.6373 30.5569C58.4118 30.5569 59.8315 29.1373 59.8315 27.3627ZM68.8225 30.5569C68.5859 26.298 67.6395 22.5123 64.5636 19.4364C61.4877 16.3605 57.702 15.4141 53.4431 15.1775C49.0658 14.9408 35.9342 14.9408 31.5569 15.1775C27.298 15.4141 23.6306 16.3605 20.4364 19.4364C17.3605 22.5123 16.4141 26.298 16.1775 30.5569C15.9408 34.9342 15.9408 48.0658 16.1775 52.4431C16.4141 56.702 17.3605 60.3694 20.4364 63.5636C23.6306 66.6395 27.298 67.5859 31.5569 67.8225C35.9342 68.0592 49.0658 68.0592 53.4431 67.8225C57.702 67.5859 61.4877 66.6395 64.5636 63.5636C67.6395 60.3694 68.5859 56.702 68.8225 52.4431C69.0592 48.0658 69.0592 34.9342 68.8225 30.5569ZM63.144 57.0569C62.3158 59.423 60.423 61.1975 58.1752 62.144C54.6261 63.5636 46.3449 63.2087 42.5592 63.2087C38.6551 63.2087 30.3739 63.5636 26.9431 62.144C24.577 61.1975 22.8025 59.423 21.856 57.0569C20.4364 53.6261 20.7913 45.3449 20.7913 41.4408C20.7913 37.6551 20.4364 29.3739 21.856 25.8248C22.8025 23.577 24.577 21.8025 26.9431 20.856C30.3739 19.4364 38.6551 19.7913 42.5592 19.7913C46.3449 19.7913 54.6261 19.4364 58.1752 20.856C60.423 21.6842 62.1975 23.577 63.144 25.8248C64.5636 29.3739 64.2087 37.6551 64.2087 41.4408C64.2087 45.3449 64.5636 53.6261 63.144 57.0569Z" fill="#404855"/>
</svg>
