<svg class="icon-manufacture" width="73" height="73" viewBox="0 0 73 73" fill="none" xmlns="http://www.w3.org/2000/svg">
  <path fill-rule="evenodd" clip-rule="evenodd" d="M63.5641 63.5808H70.6268V70.6454H63.5641V63.5808ZM56.5014 70.6456H42.376L37.6675 70.6454V60.49C38.3314 60.3126 38.62 59.7025 39.1032 59.2768L41.3025 57.3558C41.5906 57.1148 41.7758 56.8935 42.0427 56.6244L49.4384 50.0402C50.0243 50.3502 50.792 51.1723 51.6022 51.8497L57.419 57.217C58.0576 57.808 60.768 60.3718 61.2096 60.49V70.6454L56.5012 70.6456H56.5014ZM7.0627 61.2259H35.3133V70.6454H7.0627V61.2259ZM61.2099 23.5484H65.9183C65.9183 25.8892 66.5817 32.3742 66.6586 35.1708L67.0737 42.2614C67.2614 43.9372 67.0795 45.3728 67.3275 47.0118C67.58 48.6815 67.3468 50.0853 67.5769 51.7664L68.1253 61.2259H63.5639C63.5639 58.7242 63.6655 59.6767 60.9551 57.0652C60.4691 56.5969 59.9726 56.3584 59.5427 55.828C59.059 55.2313 59.5847 52.4624 59.5966 51.0761C59.6057 50.0259 59.7363 49.4457 59.7437 48.5741C59.7666 45.9019 60.3106 41.0902 60.3321 38.5661C60.3655 34.662 61.2096 27.1475 61.2096 23.5486L61.2099 23.5484ZM9.26989 58.8711L12.3804 56.2426C13.451 55.3753 14.4236 54.5202 15.4952 53.6184L20.232 49.673C20.8379 49.2919 22.0668 49.4516 22.9537 49.4519C30.7029 49.4521 38.4522 49.4519 46.2017 49.4519L36.4625 58.4016C36.0189 58.8076 36.2338 58.841 35.4718 58.8825C34.5716 58.9315 33.4456 58.8713 32.5179 58.8713C24.7686 58.8713 17.0191 58.8713 9.26989 58.8713V58.8711ZM4.70847 59.7541V70.6451H2.35423V32.9676H18.8339V47.3909C18.8339 47.8778 15.9115 50.1572 15.3875 50.5667C13.0256 52.4127 10.4327 54.7881 8.15531 56.5785C7.51054 57.0855 7.04217 57.5375 6.38976 58.0504C5.93261 58.4097 4.70847 59.3042 4.70847 59.7538V59.7541ZM42.376 42.387H51.7929V48.7157C51.4129 48.4612 50.0961 47.0968 49.733 47.0968H42.376V42.387V42.387ZM25.8963 42.387H35.3133V47.0968H25.8963V42.387ZM42.376 35.3225H51.7929V40.0322H42.376V35.3225ZM25.8963 35.3225H35.3133V40.0322H25.8963V35.3225ZM42.376 31.0542C42.376 27.5948 45.444 28.2579 48.9973 28.2579C52.15 28.2579 51.7929 30.8632 51.7929 32.9676H42.376V31.0542ZM25.8963 31.0542C25.8963 27.5948 28.9643 28.2579 32.5177 28.2579C35.6704 28.2579 35.3133 30.8632 35.3133 32.9676H25.8963V31.0542V31.0542ZM4.70847 14.1287H16.4796V30.6127H4.70847V14.1287ZM31.7819 25.0198C31.7819 22.7356 33.324 21.193 35.6076 21.193H42.0816C45.153 21.193 45.9073 23.3994 45.9073 25.9028H44.4359C42.1652 25.9028 40.0217 28.0468 40.0217 30.3181V47.0963H37.6675V30.1707C37.6675 28.2263 35.6188 25.9025 33.2534 25.9025H31.7819V25.0195V25.0198ZM2.94267 7.06411H18.2452C18.1927 7.69497 17.7188 8.86547 17.5283 9.43759C17.2739 10.2017 16.9525 11.0069 16.774 11.7736H4.41437C4.23581 11.0066 3.91449 10.2015 3.66002 9.43759C3.43992 8.77689 3.03912 7.81245 2.94315 7.06411H2.94267ZM2.35423 2.35438H18.8339V4.70925H2.35423V2.35438V2.35438ZM0 5.88668C0 7.04859 2.35423 12.5215 2.35423 13.6872V30.6127H0V73H72.9808V61.2257H70.6266L70.3377 56.2163C70.3162 53.6919 69.772 48.8802 69.7493 46.2083C69.7166 42.3818 68.9004 35.1692 68.8665 31.1961C68.8455 28.7505 68.2726 23.5969 68.2726 21.1933H58.8556C58.8556 23.8968 58.4083 26.6131 58.4183 29.2923L58.1278 33.2696C58.0115 34.6866 58.0815 35.9583 57.9652 37.3753L56.943 53.4254L54.6943 51.4065C53.822 50.5708 54.1474 50.0316 54.1474 47.5385C54.1474 42.9692 54.3386 34.1727 54.1517 30.1672C54.051 28.0095 51.9977 25.9035 49.7333 25.9035H48.2618V24.2845C48.2618 21.5694 45.5321 18.8389 42.8176 18.8389H34.8721C32.1577 18.8389 29.4279 21.5694 29.4279 24.2845V25.9035H27.9565C25.6858 25.9035 23.5423 28.0475 23.5423 30.3188V47.097H21.1881V30.613H18.8339V13.6874C18.8339 12.9708 19.7534 10.5594 19.9921 9.84209C21.693 4.73671 21.1879 6.18969 21.1879 0H0V5.88715V5.88668Z" fill="#4F4F4F"/>
  <path fill-rule="evenodd" clip-rule="evenodd" d="M42.3761 70.6459H56.5015V58.8713H42.3761V70.6459Z" fill="#F2994A"/>
  <path fill-rule="evenodd" clip-rule="evenodd" d="M11.7711 47.0965H9.41706L9.4173 44.7424H11.7713L11.7711 47.0965ZM9.39868 40.0327H11.7711L11.7713 42.3868H9.4173L9.39844 40.0327H9.39868ZM4.70859 37.6771V40.0327H7.06258L7.13659 42.3868H4.70883V44.7424H7.06306L7.06282 47.0965H4.70883V49.4521H7.06282V51.8067H9.41777V49.4521H11.7718L11.7715 47.0965L14.1265 47.0968V44.7422H16.4805V42.3866H14.1265L14.1262 40.0324H16.4805V37.6769H14.1265V35.3222H11.7715L11.7718 37.6769H9.41777V35.3222H7.06282L7.09982 37.6769H4.70883L4.70859 37.6771Z" fill="#F2994A"/>
  <path fill-rule="evenodd" clip-rule="evenodd" d="M45.9077 6.77023C45.9077 7.90086 45.9215 8.33305 46.4961 9.41951C42.7547 10.2913 42.6265 14.8816 45.7095 16.2405C46.8747 16.7542 54.2167 16.4841 56.0601 16.4841C59.7251 16.4841 60.0328 16.2023 60.0328 18.839H62.3871C62.3871 17.0892 62.5215 15.3824 60.231 14.3728C59.0672 13.8599 51.8711 14.1292 50.0275 14.1292C48.4409 14.1292 45.9077 14.534 45.9077 12.9518C45.9077 12.3704 46.5758 11.7744 47.2318 11.7744H55.3244V9.41951H51.0573C47.4266 9.41951 47.3063 4.70978 51.0573 4.70978H51.793V2.35492H50.3216C48.0509 2.35492 45.9074 4.49894 45.9074 6.77023H45.9077Z" fill="#4F4F4F"/>
  <path fill-rule="evenodd" clip-rule="evenodd" d="M7.06299 28.2582H14.1257V16.4841H7.06299V28.2582Z" fill="#F2994A"/>
  <path fill-rule="evenodd" clip-rule="evenodd" d="M58.8557 4.70978C62.6331 4.70978 62.387 6.28311 62.387 9.41951H67.8312C70.956 9.41951 71.2728 12.6519 69.49 13.7281C68.3607 14.4098 67.8243 13.7477 66.3254 14.6837C64.5901 15.767 64.7412 17.2577 64.7412 18.839H67.0955C67.0955 15.2527 68.259 17.3853 70.808 15.7821C74.8786 13.2219 72.7853 7.06464 68.5669 7.06464H64.7412C64.7412 4.44211 62.6489 2.35492 60.3271 2.35492H58.8557V4.70978V4.70978Z" fill="#4F4F4F"/>
  <path fill-rule="evenodd" clip-rule="evenodd" d="M4.7088 42.3873H7.13749L7.06346 40.0327H4.7088V42.3873Z" fill="#4F4F4F"/>
  <path fill-rule="evenodd" clip-rule="evenodd" d="M9.41743 42.3873H11.7723L11.7718 40.0327H9.3988L9.41743 42.3873Z" fill="#4F4F4F"/>
  <path fill-rule="evenodd" clip-rule="evenodd" d="M54.1473 4.71005H56.5024V2.35492H54.1473V4.71005Z" fill="#4F4F4F"/>
  <path fill-rule="evenodd" clip-rule="evenodd" d="M16.4808 37.6776V35.3227H14.1259V37.6776H16.4808Z" fill="#4F4F4F"/>
  <path fill-rule="evenodd" clip-rule="evenodd" d="M14.1259 47.0973H16.4808V44.7424H14.1259V47.0973Z" fill="#4F4F4F"/>
  <path fill-rule="evenodd" clip-rule="evenodd" d="M7.06346 51.807V49.4521H4.7088V51.807H7.06346Z" fill="#4F4F4F"/>
  <path fill-rule="evenodd" clip-rule="evenodd" d="M9.41736 51.807H11.7723V49.4521H9.41736V51.807Z" fill="#4F4F4F"/>
  <path fill-rule="evenodd" clip-rule="evenodd" d="M11.7718 35.3227H9.41736V37.6776H11.7723L11.7718 35.3227Z" fill="#4F4F4F"/>
  <path fill-rule="evenodd" clip-rule="evenodd" d="M16.4808 42.3873V40.0327H14.1257L14.1259 42.3873H16.4808Z" fill="#4F4F4F"/>
  <path fill-rule="evenodd" clip-rule="evenodd" d="M4.7088 47.0968H7.06346L7.06393 44.7424H4.7088V47.0968Z" fill="#4F4F4F"/>
  <path fill-rule="evenodd" clip-rule="evenodd" d="M11.7718 47.0968L11.7723 44.7424H9.41738L9.41714 47.0968H11.7718Z" fill="#4F4F4F"/>
  <path fill-rule="evenodd" clip-rule="evenodd" d="M4.7088 37.6776H7.10071L7.06346 35.3227H4.78235L4.7088 37.6776Z" fill="#4F4F4F"/>
</svg>
