<svg width="85" height="85" viewBox="0 0 85 85" fill="none" xmlns="http://www.w3.org/2000/svg">
<circle cx="42.5" cy="42.5" r="42.5" fill="white"/>
<path d="M42.5242 15C46.3086 15 49.7348 16.5682 52.2149 19.1037C54.6949 21.6392 56.2288 25.142 56.2288 29.0111C56.2288 32.8802 54.6949 36.3829 52.2149 38.9184C49.7348 41.4539 46.3086 43.0221 42.5242 43.0221C38.7397 43.0221 35.3135 41.4539 32.8335 38.9184C30.3534 36.3829 28.8195 32.8802 28.8195 29.0111C28.8195 25.142 30.3534 21.6392 32.8335 19.1037C35.3135 16.5682 38.7397 15 42.5242 15V15ZM55.6511 62.5076C57.0924 64.0223 57.0582 66.4446 55.5786 67.9161C54.097 69.3896 51.7277 69.3547 50.2884 67.842L42.3812 59.542L34.4741 67.842C33.0328 69.3567 30.6634 69.3896 29.1838 67.9161C27.7023 66.4425 27.6701 64.0202 29.1114 62.5076L36.9622 54.2672C36.469 54.1581 35.9758 54.0326 35.4866 53.8947C33.2039 53.2464 31.0056 52.2853 28.9604 51.0279C27.0521 49.861 26.43 47.3317 27.5714 45.3806C28.7128 43.4296 31.1868 42.7937 33.0952 43.9606C34.5204 44.8373 36.0483 45.5062 37.6325 45.9548C39.1906 46.3973 40.8352 46.6237 42.5242 46.6237C44.205 46.6237 45.8416 46.3994 47.3896 45.9631C48.9699 45.5165 50.4897 44.8538 51.9048 43.9894C53.8132 42.8225 56.2872 43.4584 57.4286 45.4095C58.57 47.3605 57.9479 49.8898 56.0396 51.0567C53.9944 52.3059 51.8062 53.2608 49.5355 53.9009C48.9759 54.0594 48.4123 54.1973 47.8486 54.3187L55.6511 62.5076ZM46.4999 24.9444C45.4833 23.9051 44.0762 23.2609 42.5242 23.2609C40.9721 23.2609 39.565 23.9051 38.5484 24.9444C37.5319 25.9837 36.9018 27.4223 36.9018 29.009C36.9018 30.5958 37.5319 32.0343 38.5484 33.0736C39.565 34.1129 40.9721 34.7571 42.5242 34.7571C44.0762 34.7571 45.4833 34.1129 46.4999 33.0736C47.5165 32.0343 48.1465 30.5958 48.1465 29.009C48.1465 27.4223 47.5165 25.9837 46.4999 24.9444Z" fill="#404855"/>
</svg>
