<svg class="icon-politics" width="73" height="73" viewBox="0 0 73 73" fill="none" xmlns="http://www.w3.org/2000/svg">
<path fill-rule="evenodd" clip-rule="evenodd" d="M58.8183 7.03591H63.5238V22.2809H58.8183V7.03591V7.03591ZM54.1128 18.9094C54.5728 18.9476 54.6352 19.056 55.1421 19.056H56.4655V22.2809H54.1128V18.9094V18.9094ZM47.0546 11.7267H51.7601V22.2809H47.0546V11.7267V11.7267ZM42.3491 19.056H43.6726C44.1795 19.056 44.2419 18.9476 44.7019 18.9094V22.2809H42.3492V19.056H42.3491ZM35.2909 2.34518H39.9964V22.2809H35.2909V2.34518ZM26.027 24.5507C27.258 25.0897 28.2953 25.8198 29.3661 24.6263C28.6867 24.1927 28.6244 24.1917 28.2327 23.4537C28.9862 22.034 31.9505 20.897 32.9382 20.8151V22.2809H30.5855V24.0537L31.0307 23.9126L31.909 24.6245L68.2292 24.6263V22.281H65.8765V20.8151C66.6255 20.8772 67.9464 21.4786 68.574 21.7907C69.5727 22.2874 70.0787 22.5055 70.582 23.4537C69.9793 24.5892 68.766 25.1318 67.4397 25.5982C63.7091 26.9104 57.4309 28.0224 53.5267 27.9998C51.6061 27.9886 50.1806 28.2075 48.2262 28.1493C45.4132 28.0654 40.8557 27.7275 38.2102 27.2865L33.6404 26.3854C33.9698 26.9499 36.3277 29.2875 36.9085 29.5745L45.5834 30.4906L59.2866 29.9307C60.831 29.7411 61.9857 29.5184 63.4385 29.2322C65.2719 28.871 68.034 28.129 69.6895 27.2548C70.0232 27.0787 70.1232 26.9317 70.5819 26.8252C70.5819 28.633 70.5819 30.441 70.5819 32.2489C70.5819 34.844 71.0204 35.4907 69.2545 36.4959C64.4973 39.2037 56.327 39.5629 50.5844 39.8721C49.0105 39.9568 47.1017 39.7548 45.1372 39.7306C44.4917 39.7227 44.3945 39.6488 43.945 39.5998C43.4683 39.5477 42.9955 39.6075 42.5176 39.5568C41.7989 39.4803 40.8105 39.285 39.9975 39.285V41.777C41.4279 41.777 42.6159 42.0754 43.9651 42.0717L48.231 42.2167C49.6527 42.2167 51.0757 42.2105 52.4973 42.2186C56.2921 42.2403 63.9995 41.1524 67.5128 39.8901L70.5819 38.552C70.5819 40.5554 70.5818 42.5587 70.5819 44.562C70.582 47.536 70.7258 47.4971 68.574 48.5704C66.1363 49.7863 62.1257 50.6016 58.9389 50.9856C56.6411 51.2624 49.5894 51.8387 47.5359 51.5581L41.883 51.1832C39.9238 50.9745 38.1864 50.8188 36.4615 50.4254L37.1849 52.043L36.4601 52.9174L42.8521 53.7352C43.6034 53.8461 44.5496 53.817 45.1831 53.9035C46.263 54.051 50.6647 53.9359 52.3491 53.9445C53.3771 53.9498 53.8254 53.7987 54.697 53.793C57.9939 53.7717 64.0894 52.7686 67.1832 51.7282C67.7574 51.5351 68.2751 51.3234 68.8678 51.0622C69.1914 50.9196 69.419 50.8514 69.6894 50.7086C70.0231 50.5324 70.1231 50.3854 70.5818 50.2789C70.5818 52.6717 70.5632 55.0719 70.584 57.4638C70.6034 59.6974 69.7791 59.8572 66.8034 61.0243C65.9645 61.3534 64.9953 61.5658 64.0538 61.8015C61.2595 62.5009 57.262 62.935 54.3991 63.1709C53.1297 63.2754 48.5889 63.4147 47.4336 63.2404C46.6695 63.1251 42.221 63.0109 40.5394 62.7837C38.9501 62.5689 32.6252 61.5676 31.4644 60.8364C30.9571 60.5169 30.5981 58.6409 30.5853 58.0134C30.1902 57.7683 29.682 57.5202 29.1804 57.2536C28.6404 56.9665 28.2646 56.5965 27.7933 56.8754C27.8044 57.5254 28.636 60.5351 28.8504 61.39C29.2184 62.8572 29.6435 64.4504 29.9971 65.9638C29.3804 65.8205 28.3535 65.3375 27.7704 65.1052C27.0995 64.838 26.088 64.3556 25.4387 64.2048C25.0533 64.7785 23.3696 67.1422 22.9389 67.4297C22.6912 66.3699 22.4752 65.1998 22.233 64.1756C22.0446 63.379 21.7389 61.5405 21.4684 60.9809H18.5275C18.3201 61.41 17.9172 63.5388 17.7801 64.1927C17.5603 65.2415 17.3054 66.3668 17.057 67.4296C16.6263 67.1421 14.9426 64.7784 14.5572 64.2047C13.5342 64.4423 11.0377 65.7224 9.99878 65.9638L11.6753 59.2796C11.8524 58.573 12.1881 57.5721 12.2054 56.8754C11.7967 56.6349 11.908 56.6904 11.398 56.9407C11.1572 57.0589 10.9492 57.1926 10.7266 57.31C10.2846 57.5431 9.7728 57.7978 9.41064 58.0177C9.39743 58.6598 6.70798 69.4266 6.46971 69.9217C7.55928 69.8312 12.6516 67.4083 13.822 67.1365C13.9622 67.6601 17.0423 71.5418 17.661 72.3979C17.9162 72.751 17.8946 72.8707 18.3804 73C18.3804 71.7219 19.8509 67.0841 19.8509 65.6707H20.1449C20.1449 66.519 21.0471 70.0227 21.2845 71.1311C21.4309 71.815 21.6154 72.2811 21.6154 73C22.1541 72.8566 21.9557 72.914 22.2749 72.4849C22.5025 72.1789 22.611 72.0183 22.8336 71.7225C23.3549 71.0298 26.0414 67.6306 26.1738 67.1366C27.3346 67.4062 32.4298 69.8308 33.526 69.9218C33.2554 69.3594 32.903 67.5834 32.7028 66.7846C32.4222 65.6654 32.1579 64.6853 31.9086 63.6185L36.8451 64.7075C41.6332 65.5007 49.3702 66.0716 54.1341 65.5456L59.6739 65.0581C63.0953 64.6465 71.2661 63.1527 72.7346 59.7548C73.1752 58.7354 72.9343 38.4837 72.9343 35.6205C72.9343 31.5927 73.0264 27.4609 72.9413 23.4469C72.9035 21.6663 71.5585 20.7071 70.3748 19.9953C69.5967 19.5274 66.9252 18.3466 65.8761 18.3233V4.69073H56.4652V16.7108C55.6825 16.6459 55.1204 16.5643 54.1124 16.5643V9.38153H44.7015V16.5643C43.1708 16.5643 43.0129 16.6961 42.3488 16.7108V0H32.9379V18.3233C31.7852 18.3489 28.9862 19.6356 28.1709 20.1675C26.6112 21.1852 25.5557 22.0689 26.0268 24.5508L26.027 24.5507Z" fill="#4F4F4F"/>
<path fill-rule="evenodd" clip-rule="evenodd" d="M18.3323 28.2766C25.9391 27.2942 31.8929 32.8006 32.8096 39.2652C33.8868 46.862 28.2512 52.914 21.7957 53.811C14.1526 54.8731 8.05172 49.2621 7.18 42.8023C6.14401 35.1262 11.7672 29.1245 18.3323 28.2766V28.2766ZM9.41092 58.0176C9.77308 57.7978 10.2849 57.5431 10.7268 57.3099C10.9494 57.1925 11.1575 57.0588 11.3983 56.9406C11.9083 56.6903 11.797 56.6348 12.2057 56.8753C13.4771 57.5484 14.3201 57.4288 14.654 58.0984C14.8947 58.5813 15.1531 60.0786 15.5868 60.9797L18.5278 60.9808H21.4687L24.4096 60.9796C24.815 60.1374 24.9383 59.0235 25.2994 58.2021C25.5667 57.594 25.336 57.9439 25.7075 57.7294C25.8157 57.6668 26.2408 57.5185 26.4462 57.4396C26.8632 57.2795 27.389 57.087 27.7936 56.8753C28.2648 56.5964 28.6407 56.9664 29.1807 57.2535C29.6822 57.5201 30.1904 57.7681 30.5855 58.0133C30.8929 58.2341 30.6431 58.0932 31.0267 58.1946L36.4602 52.9175L37.185 52.043L36.4617 50.4255C36.2014 49.9127 36.0485 49.577 35.7322 49.1062L36.6056 47.0451C37.1341 45.7262 38.0161 46.3888 39.9965 45.4415L39.9976 41.7769V39.2849L39.9964 36.6463C39.2289 36.2792 37.3865 35.8644 37.1072 35.7153C36.8171 35.5604 36.8977 35.6308 36.736 35.3525C36.6107 35.137 36.4146 34.5356 36.2784 34.1958C35.7558 32.8916 35.5932 33.3672 36.2208 32.1516C36.5146 31.5824 37.0701 30.6168 37.2026 30.05C37.0666 29.8549 37.0298 29.7835 36.9086 29.5744C36.3277 29.2874 33.9698 26.9498 33.6405 26.3853L31.909 24.6245L31.0307 23.9125L30.5855 24.0536L29.3662 24.6262C28.2954 25.8197 27.2581 25.0896 26.0271 24.5505C25.4553 24.1187 25.5044 24.7304 25.0287 22.9829C24.8576 22.3542 24.6518 21.6112 24.4096 21.1081H15.5868C15.2691 21.7683 15.0708 22.6663 14.8383 23.4403C14.466 24.6798 14.3284 24.3341 13.1277 24.8136C11.8209 25.3354 12.2988 25.4983 11.0781 24.872C10.5071 24.5791 9.53845 24.0253 8.96987 23.8933L2.75759 30.0137C2.94963 30.7163 3.90074 32.4403 4.26438 32.9817C3.71055 34.025 3.42148 35.371 2.9845 35.6637C2.50055 35.9879 0.686604 36.3179 0 36.6463V45.4416C2.9987 46.8759 2.66308 45.2593 3.71808 47.8921C4.24068 49.1963 4.40321 48.7206 3.77568 49.9362C3.48185 50.5055 2.92636 51.4711 2.79389 52.0379L8.93345 58.2308C9.41277 58.0774 9.06604 58.2304 9.41092 58.0175V58.0176Z" fill="#F2994A"/>
<path fill-rule="evenodd" clip-rule="evenodd" d="M9.41088 41.044C9.41088 30.3585 24.3895 25.9931 29.6077 36.7416C31.5059 40.6514 30.4419 45.5166 27.4633 48.4858C24.4848 51.455 19.6044 52.5158 15.6824 50.6235C11.9858 48.84 9.41094 45.3515 9.41094 41.044H9.41088ZM18.3322 28.2766C11.7671 29.1245 6.14397 35.1262 7.17996 42.8023C8.05175 49.262 14.1525 54.873 21.7957 53.811C28.2512 52.914 33.8868 46.862 32.8096 39.2652C31.8929 32.8005 25.939 27.2942 18.3322 28.2766Z" fill="#4F4F4F"/>
<path fill-rule="evenodd" clip-rule="evenodd" d="M16.5056 45.1848L13.7865 42.5455L12.0899 44.1547L16.4329 48.5559L27.9752 37.1226L26.2063 35.4413L16.5056 45.1848Z" fill="#4F4F4F"/>
<path fill-rule="evenodd" clip-rule="evenodd" d="M56.7597 46.6143C60.1584 46.6143 59.1558 46.2565 58.9655 43.9757C55.7681 43.9757 56.7597 44.3356 56.7597 46.6143Z" fill="#4F4F4F"/>
<path fill-rule="evenodd" clip-rule="evenodd" d="M56.7597 58.3412C57.1709 58.3412 58.9387 58.2496 59.134 58.0578C59.398 57.7987 59.0044 56.1698 58.9655 55.7026C55.7681 55.7026 56.7597 56.0625 56.7597 58.3412V58.3412Z" fill="#4F4F4F"/>
<path fill-rule="evenodd" clip-rule="evenodd" d="M56.7597 34.8873C57.4444 34.8873 58.6865 34.7273 59.2595 34.5942C59.2595 33.8388 59.024 32.9512 58.9655 32.2488C55.7681 32.2488 56.7597 32.6087 56.7597 34.8874V34.8873Z" fill="#4F4F4F" stroke="#4F4F4F" stroke-width="0.076184" stroke-miterlimit="22.9256"/>
<path fill-rule="evenodd" clip-rule="evenodd" d="M61.171 55.4095C61.4539 58.798 61.7637 57.4977 63.9649 57.3151C63.9649 56.5928 63.6755 55.6189 63.5237 54.9697C63.0006 54.9697 61.4954 55.2543 61.171 55.4095V55.4095Z" fill="#4F4F4F"/>
<path fill-rule="evenodd" clip-rule="evenodd" d="M61.171 31.9556C61.4539 35.3441 61.7637 34.0438 63.9649 33.8613C63.9649 33.139 63.6755 32.1651 63.5237 31.5159C63.0006 31.5159 61.4954 31.8005 61.171 31.9556V31.9556Z" fill="#4F4F4F"/>
<path fill-rule="evenodd" clip-rule="evenodd" d="M61.171 43.6826C61.2058 44.0993 61.2815 44.31 61.3583 44.8156C61.6492 46.7311 61.6416 45.781 63.965 45.5883C63.965 44.866 63.6755 43.8921 63.5238 43.2429C63.0007 43.2429 61.4955 43.5275 61.1711 43.6826L61.171 43.6826Z" fill="#4F4F4F"/>
<path fill-rule="evenodd" clip-rule="evenodd" d="M65.5824 42.6564C65.7844 43.076 66.1976 44.4884 66.3176 45.0018C67.0525 44.6503 67.9288 44.5135 68.6704 44.1223C68.5276 43.5117 68.0597 42.4352 67.7881 41.9234C67.094 42.0846 66.3735 42.4726 65.5823 42.6564L65.5824 42.6564Z" fill="#4F4F4F" stroke="#4F4F4F" stroke-width="0.076184" stroke-miterlimit="22.9256"/>
<path fill-rule="evenodd" clip-rule="evenodd" d="M65.5824 54.3834C65.7844 54.803 66.1976 56.2154 66.3176 56.7288C67.0525 56.3773 67.9288 56.2404 68.6704 55.8492C68.5276 55.2386 68.0597 54.1622 67.7881 53.6504C67.094 53.8116 66.3735 54.1996 65.5823 54.3833L65.5824 54.3834Z" fill="#4F4F4F"/>
<path fill-rule="evenodd" clip-rule="evenodd" d="M65.5824 30.9296C65.7844 31.3491 66.1976 32.7615 66.3176 33.2749C67.0525 32.9234 67.9288 32.7866 68.6704 32.3954C68.5276 31.7848 68.0597 30.7083 67.7881 30.1965C67.094 30.3577 66.3735 30.7458 65.5823 30.9295L65.5824 30.9296Z" fill="#4F4F4F"/>
</svg>
