<svg width="73" height="70" viewBox="0 0 73 70" fill="none" xmlns="http://www.w3.org/2000/svg">
<path d="M20.7944 0H46.6158H47.7009V1.08512V6.62144V6.75431L47.6566 6.90932C46.9479 9.63319 46.3722 13.4422 45.9514 17.9598C45.5528 22.3224 45.3313 27.3716 45.3313 32.7971C45.3313 38.2227 45.5528 43.2719 45.9514 47.6345C46.35 52.1521 46.9479 55.9611 47.6566 58.685L47.7009 58.84V58.9728V65.0849V66.1701H46.6158H20.7944V63.9998H45.5306V59.1057C44.822 56.2933 44.2241 52.4178 43.8033 47.8559C43.4047 43.3826 43.1611 38.2449 43.1611 32.8414C43.1611 27.438 43.3825 22.3003 43.8033 17.8269C44.2241 13.265 44.7998 9.38959 45.5306 6.57714V2.25882H20.7944V0.0885811V0Z" fill="black"/>
<path d="M26.9729 0H1.15152H0.0664062V1.08512V6.62144V6.75431L0.110697 6.90932C0.819345 9.63319 1.39512 13.4422 1.81588 17.9598C2.2145 22.3224 2.43595 27.3716 2.43595 32.7971C2.43595 38.2227 2.2145 43.2719 1.81588 47.6345C1.41727 52.1521 0.819345 55.9611 0.110697 58.685L0.0664062 58.84V58.9728V65.0849V66.1701H1.15152H26.9729V63.9998H2.23664V59.1057C2.94529 56.2933 3.54321 52.4178 3.96397 47.8559C4.36259 43.3826 4.60619 38.2449 4.60619 32.8414C4.60619 27.438 4.38473 22.3003 3.96397 17.8269C3.54321 13.265 2.96744 9.38959 2.23664 6.57714V2.25882H26.9729V0.0885811V0Z" fill="black"/>
<path d="M33.1957 7.5737C33.7828 7.5737 34.2587 7.09779 34.2587 6.51073C34.2587 5.92366 33.7828 5.44775 33.1957 5.44775C32.6087 5.44775 32.1328 5.92366 32.1328 6.51073C32.1328 7.09779 32.6087 7.5737 33.1957 7.5737Z" fill="#151515"/>
<path d="M2.23664 7.64014C1.61657 7.64014 1.08508 7.1308 1.08508 6.48859C1.08508 5.86852 1.59442 5.33704 2.23664 5.33704H29.3424C29.9625 5.33704 30.494 5.84638 30.494 6.48859C30.494 7.10866 29.9847 7.64014 29.3424 7.64014H2.23664Z" fill="black"/>
<path d="M42.2753 60.2351C42.8624 60.2351 43.3383 59.7592 43.3383 59.1721C43.3383 58.585 42.8624 58.1091 42.2753 58.1091C41.6883 58.1091 41.2123 58.585 41.2123 59.1721C41.2123 59.7592 41.6883 60.2351 42.2753 60.2351Z" fill="#151515"/>
<path d="M2.23664 60.3015C1.61657 60.3015 1.08508 59.7922 1.08508 59.15C1.08508 58.5299 1.59442 57.9984 2.23664 57.9984H38.6435C39.2635 57.9984 39.795 58.5078 39.795 59.15C39.795 59.77 39.2857 60.3015 38.6435 60.3015H2.23664Z" fill="black"/>
<path d="M3.21106 20.9051C5.1377 20.5729 7.10863 20.2186 9.27886 19.8643C11.2276 19.5321 13.0436 19.2442 14.5937 19.0228C16.166 18.8013 17.4726 18.6463 18.7349 18.5799C20.0193 18.5134 21.193 18.5356 22.4996 18.6684C23.784 18.8013 25.157 19.0671 26.5079 19.3328C27.7702 19.5985 29.0989 19.9307 30.2726 20.2408L31.092 20.4401C32.8857 20.9051 34.303 21.2594 35.7646 21.4587C36.6061 21.5695 37.4919 21.6138 38.3556 21.6138C39.1528 21.6138 39.9279 21.5473 40.5923 21.4145C41.2345 21.3037 41.8324 21.1044 42.3639 20.883C42.9397 20.6394 43.449 20.3958 43.9584 20.13L44.9992 22.1452C44.4234 22.4331 43.8255 22.7432 43.2276 22.9868C42.5853 23.2525 41.8546 23.474 41.013 23.629C40.2158 23.784 39.3078 23.8504 38.3777 23.8504C37.4255 23.8504 36.429 23.8061 35.4989 23.6733C33.8823 23.474 32.4207 23.0975 30.5383 22.6103L29.7189 22.411C28.6338 22.1452 27.3937 21.8352 26.0428 21.5252C24.7584 21.2594 23.4518 21.0158 22.2781 20.883C21.1044 20.7501 20.0193 20.7279 18.8678 20.7944C17.7162 20.8608 16.4539 21.0158 14.9259 21.2151C13.3757 21.4366 11.582 21.7245 9.67748 22.0567C7.99444 22.3446 5.8242 22.721 3.63182 23.0975L3.2332 20.8608L3.21106 20.9051Z" fill="black"/>
<path d="M3.21106 44.5784C5.15984 44.2463 7.08648 43.8919 9.27886 43.5376C11.2276 43.2054 13.0436 42.9176 14.5937 42.6961C16.166 42.4746 17.4726 42.3196 18.7349 42.2532C20.0193 42.1868 21.193 42.2089 22.4996 42.3418C23.784 42.4746 25.157 42.7404 26.5079 43.0061C27.7702 43.2719 29.0989 43.6041 30.2726 43.9141L31.092 44.1355C32.8857 44.6006 34.2809 44.9549 35.7425 45.1542C36.584 45.265 37.4698 45.3092 38.3335 45.3092C39.1307 45.3092 39.9058 45.2428 40.5701 45.1099C41.2123 44.9992 41.8103 44.7999 42.3417 44.5784C42.9175 44.3349 43.4269 44.0913 43.9362 43.8255L44.977 45.8407C44.4013 46.1286 43.8033 46.4387 43.2054 46.6823C42.5632 46.948 41.8324 47.1694 40.9909 47.3245C40.1937 47.4795 39.2857 47.5459 38.3556 47.5459C37.4034 47.5459 36.4068 47.5016 35.4767 47.3688C33.8601 47.1694 32.3985 46.793 30.5383 46.3058L29.7189 46.0843C28.6338 45.8186 27.3937 45.5086 26.0428 45.1985C24.7584 44.9328 23.4518 44.6892 22.2781 44.5563C21.1044 44.4234 20.0193 44.4013 18.8678 44.4677C17.7162 44.5342 16.4539 44.6892 14.9259 44.9106C13.3757 45.1321 11.582 45.42 9.67748 45.7521C7.99444 46.04 5.8242 46.4165 3.63182 46.793L3.2332 44.5563L3.21106 44.5784Z" fill="black"/>
<path fill-rule="evenodd" clip-rule="evenodd" d="M45.6193 18.4027H51.7978H71.4628H72.5479V19.4878V25.0241V25.157L72.5036 25.312C71.795 28.0359 71.2192 31.8449 70.7984 36.3625C70.577 38.7321 70.422 41.3231 70.3112 44.0691C70.422 46.8151 70.577 49.4061 70.7984 51.7756C71.197 56.2933 71.795 60.1022 72.5036 62.8261L72.5479 62.9811V63.114V68.6503V69.7354H71.4628H51.7978H45.6193H25.9543H24.8691V68.6503V63.114V62.9811L24.9134 62.8261C25.6221 60.1022 26.1979 56.2933 26.6186 51.7756C26.8401 49.4061 26.9951 46.8151 27.1058 44.0691C26.9951 41.3231 26.8401 38.7321 26.6186 36.3625C26.22 31.8449 25.6221 28.0359 24.9134 25.312L24.8691 25.157V25.0241V19.4878V18.4027H25.9543H45.6193Z" fill="white"/>
<path d="M45.6193 18.4027H51.7978H71.4628H72.5479V19.4878V25.0241V25.157L72.5036 25.312C71.795 28.0359 71.2192 31.8449 70.7984 36.3625C70.577 38.7321 70.422 41.3231 70.3112 44.0691C70.422 46.8151 70.577 49.4061 70.7984 51.7756C71.197 56.2933 71.795 60.1022 72.5036 62.8261L72.5479 62.9811V63.114V68.6503V69.7354H71.4628H51.7978H45.6193H25.9543H24.8691V68.6503V63.114V62.9811L24.9134 62.8261C25.6221 60.1022 26.1979 56.2933 26.6186 51.7756C26.8401 49.4061 26.9951 46.8151 27.1058 44.0691C26.9951 41.3231 26.8401 38.7321 26.6186 36.3625C26.22 31.8449 25.6221 28.0359 24.9134 25.312L24.8691 25.157V25.0241V19.4878V18.4027H25.9543H45.6193ZM68.141 44.0469C68.2517 41.2566 68.4067 38.6213 68.6282 36.1632C69.049 31.6013 69.6247 27.7259 70.3555 24.9134V20.5951H51.7756H27.0394V24.9134C27.748 27.7259 28.3459 31.6013 28.7667 36.1632C28.9882 38.6213 29.1653 41.2788 29.2539 44.0469C29.1432 46.8372 28.9882 49.4725 28.7667 51.9306C28.3459 56.4926 27.7702 60.368 27.0394 63.1804V67.4988H51.7756H70.3555V63.1804C69.6469 60.368 69.049 56.4926 68.6282 51.9306C68.4067 49.4725 68.2296 46.8151 68.141 44.0469Z" fill="black"/>
<path d="M57.9985 25.9764C58.5855 25.9764 59.0614 25.5005 59.0614 24.9134C59.0614 24.3264 58.5855 23.8505 57.9985 23.8505C57.4114 23.8505 56.9355 24.3264 56.9355 24.9134C56.9355 25.5005 57.4114 25.9764 57.9985 25.9764Z" fill="#151515"/>
<path d="M27.0394 26.0429C26.4193 26.0429 25.8878 25.5335 25.8878 24.8913C25.8878 24.2712 26.3972 23.7397 27.0394 23.7397H54.1452C54.7652 23.7397 55.2967 24.2491 55.2967 24.8913C55.2967 25.5114 54.7874 26.0429 54.1452 26.0429H27.0394Z" fill="black"/>
<path d="M67.078 63.8005C67.6651 63.8005 68.141 63.3246 68.141 62.7375C68.141 62.1505 67.6651 61.6746 67.078 61.6746C66.4909 61.6746 66.015 62.1505 66.015 62.7375C66.015 63.3246 66.4909 63.8005 67.078 63.8005Z" fill="#151515"/>
<path d="M27.0394 63.867C26.4193 63.867 25.8878 63.3576 25.8878 62.7154C25.8878 62.0953 26.3972 61.5638 27.0394 61.5638H63.4462C64.0663 61.5638 64.5977 62.0732 64.5977 62.7154C64.5977 63.3355 64.0884 63.867 63.4462 63.867H27.0394Z" fill="black"/>
<path d="M28.0359 39.3078C32.1549 38.5992 36.2518 37.8684 39.3964 37.4255C40.9687 37.204 42.2753 37.049 43.5597 36.9826C44.822 36.9161 46.0178 36.9383 47.3244 37.0711C48.6088 37.204 49.9818 37.4476 51.3327 37.7355C52.595 38.0012 53.9237 38.3334 55.0974 38.6435L55.9168 38.8649C57.7105 39.33 59.1057 39.6843 60.5673 39.8836C61.4088 39.9943 62.2946 40.0386 63.1583 40.0386C63.9555 40.0386 64.7306 39.9722 65.395 39.8393C66.0372 39.7286 66.6351 39.5293 67.1666 39.3078C67.7424 39.0642 68.2517 38.8206 68.761 38.5549L69.8019 40.5701C69.2261 40.858 68.6282 41.168 68.0302 41.4116C67.388 41.6774 66.6572 41.8988 65.8157 42.0538C65.0185 42.2088 64.1105 42.2753 63.1804 42.2753C62.2282 42.2753 61.2316 42.231 60.3015 42.0981C58.6849 41.8988 57.2234 41.5223 55.3631 41.0352L54.5438 40.8137C53.4587 40.548 52.2185 40.2379 50.8677 39.9279C49.5832 39.6621 48.2767 39.4185 47.103 39.2857C45.9293 39.1528 44.8441 39.1307 43.6926 39.1971C42.541 39.2635 41.2788 39.4185 39.7507 39.6179C36.7168 40.0608 32.5757 40.7694 28.4566 41.5002L28.058 39.2635L28.0359 39.3078Z" fill="black"/>
<path d="M28.0359 48.9853H28.0802C32.1771 48.2767 36.2518 47.5459 39.3964 47.103C40.9687 46.8815 42.2753 46.7265 43.5597 46.6601C44.822 46.5936 46.0178 46.6158 47.3244 46.7486C48.6088 46.8815 49.9818 47.1473 51.3327 47.413C52.595 47.6787 53.9237 48.0109 55.0974 48.321L55.9168 48.5424C57.7105 49.0075 59.1057 49.3618 60.5673 49.5611C61.4088 49.6718 62.2946 49.7161 63.1583 49.7161C63.9555 49.7161 64.7306 49.6497 65.395 49.5168C66.0372 49.4061 66.6351 49.2068 67.1666 48.9853C67.7424 48.7417 68.2517 48.4981 68.761 48.2324L69.8019 50.2476C69.2261 50.5355 68.6282 50.8455 68.0302 51.0891C67.388 51.3549 66.6572 51.5763 65.8157 51.7313C65.0185 51.8863 64.1105 51.9528 63.1804 51.9528C62.2282 51.9528 61.2316 51.9085 60.3015 51.7756C58.6849 51.5763 57.2234 51.1998 55.3631 50.7126L54.5438 50.4912C53.4587 50.2254 52.2185 49.9154 50.8677 49.6054C49.5832 49.3396 48.2767 49.096 47.103 48.9632C45.9293 48.8303 44.8441 48.8081 43.6926 48.8746C42.541 48.941 41.2788 49.096 39.7507 49.3175C36.7168 49.7604 32.62 50.469 28.5009 51.1777H28.4345L28.058 48.941L28.0359 48.9853Z" fill="black"/>
<path d="M14.1951 54.7431C11.3605 54.7431 8.79167 53.968 6.62144 52.6172C4.60622 51.3549 2.94532 49.6054 1.79377 47.5238C0.642213 45.4421 0 43.0283 0 40.4594C0 37.4477 0.885811 34.1923 2.87888 30.9812C9.54461 20.2408 13.1543 9.1903 13.1543 9.14601C13.3093 8.68095 13.7301 8.39307 14.1951 8.39307C14.6602 8.39307 15.0809 8.68095 15.2359 9.14601C15.2359 9.16815 18.8456 20.2408 25.5113 30.9812C27.5044 34.1923 28.3902 37.4255 28.3902 40.4594C28.3902 43.0283 27.748 45.4421 26.5965 47.5238C25.4449 49.6054 23.784 51.3549 21.7688 52.6172C19.5986 53.968 17.0297 54.7431 14.1951 54.7431ZM14.1951 12.7335C12.6671 16.8083 9.45603 24.5591 4.73909 32.1549C2.98961 34.9895 2.19238 37.8463 2.19238 40.4816C2.19238 42.6739 2.74601 44.7335 3.69826 46.5051C4.67265 48.2545 6.0678 49.7383 7.77299 50.8013C9.5889 51.9307 11.7813 52.595 14.1951 52.595C16.609 52.595 18.8013 51.9528 20.6172 50.8013C22.3224 49.7383 23.7176 48.2767 24.692 46.5051C25.6664 44.7335 26.1979 42.6961 26.1979 40.4816C26.1979 37.8463 25.4228 34.9895 23.6511 32.1549C18.9342 24.5591 15.7231 16.8083 14.1951 12.7335Z" fill="#151515"/>
<path fill-rule="evenodd" clip-rule="evenodd" d="M7.77299 50.7791C9.5889 51.9086 11.7813 52.5729 14.1951 52.5729C16.609 52.5729 18.8013 51.9307 20.6172 50.7791C22.3224 49.7162 23.7176 48.2546 24.692 46.483C25.6664 44.7113 26.1979 42.674 26.1979 40.4594C26.1979 37.8242 25.4228 34.9674 23.6511 32.1328C18.9342 24.537 15.7231 16.7862 14.1951 12.7114C12.6671 16.7862 9.45603 24.537 4.73909 32.1328C2.98961 34.9674 2.19238 37.8242 2.19238 40.4594C2.19238 42.6518 2.74601 44.7113 3.69826 46.483C4.67265 48.2324 6.0678 49.7162 7.77299 50.7791Z" fill="white"/>
<path d="M5.51417 35.0781C5.75777 34.5023 6.42213 34.2144 6.99791 34.4359C7.57368 34.6795 7.86157 35.3438 7.64012 35.9196C7.02005 37.4476 6.86504 39.0642 7.08649 40.5923C7.33009 42.1203 7.9723 43.5819 9.01313 44.7999C9.98752 45.9293 11.2055 46.7708 12.5785 47.2801C13.9515 47.7895 15.4574 47.9445 16.9854 47.7009C17.6055 47.6123 18.1813 48.0331 18.292 48.6531C18.3806 49.2732 17.9598 49.849 17.3397 49.9597C15.4353 50.2697 13.5308 50.0704 11.8034 49.4282C10.0761 48.8082 8.50379 47.723 7.2858 46.2836C5.97923 44.7334 5.15985 42.8954 4.84982 40.9466C4.53978 39.0199 4.76124 36.9826 5.53632 35.0781H5.51417Z" fill="#151515"/>
<path d="M7.37084 31.1954C7.90679 30.8851 8.59274 31.0681 8.90295 31.6041C9.21316 32.14 9.03017 32.826 8.49422 33.1362C7.95827 33.4464 7.27233 33.2634 6.96212 32.7275C6.6519 32.1915 6.8349 31.5056 7.37084 31.1954Z" fill="#151515"/>
</svg>
