<svg width="73" height="70" viewBox="0 0 73 70" fill="none" xmlns="http://www.w3.org/2000/svg">
<path d="M2.32534 48.9609C4.23069 49.8916 6.24202 50.6312 8.31786 51.1703C10.9052 51.8408 13.5869 52.2025 16.2895 52.2324C18.992 52.2025 21.6737 51.8431 24.2611 51.1703C26.3369 50.6312 28.3459 49.8916 30.2536 48.9609L30.1614 63.7797C28.1132 64.8741 25.9567 65.7219 23.7381 66.3094C21.3189 66.9499 18.8169 67.2771 16.2918 67.2771C13.7667 67.2771 11.2669 66.9499 8.84546 66.3094C6.62447 65.7219 4.468 64.8741 2.42211 63.7797L2.32995 48.9585L2.32534 48.9609ZM16.2872 49.9101C13.7644 49.8801 11.2784 49.5484 8.89615 48.9309C6.8134 48.3895 4.80207 47.6315 2.90593 46.6661L16.2872 27.7255L29.6684 46.6661C27.7722 47.6315 25.7609 48.3895 23.6782 48.9309C21.2982 49.5484 18.81 49.8801 16.2872 49.9101ZM32.5713 47.2168C32.5898 46.961 32.5229 46.6961 32.364 46.468L17.2341 25.053C17.0106 24.735 16.6535 24.5622 16.2918 24.5599H16.2872H16.2825C15.9208 24.5622 15.5637 24.7327 15.3402 25.053L0.210334 46.468C0.0513627 46.6938 -0.0154512 46.9587 0.00298021 47.2168L0.111265 64.4709C0.113569 64.7865 0.240285 65.0722 0.445335 65.2796L0.452246 65.2865L0.46607 65.3003L0.53058 65.3579L0.535188 65.3625C0.599698 65.4155 0.67112 65.4616 0.747149 65.5008C3.13863 66.844 5.65913 67.8669 8.25335 68.5512C10.8775 69.2446 13.5777 69.5995 16.2895 69.5995C19.0012 69.5995 21.7014 69.2446 24.3256 68.5512C26.9198 67.8669 29.4403 66.844 31.8318 65.5008C31.9078 65.4616 31.9792 65.4155 32.0437 65.3625L32.0483 65.3579C32.3041 65.1483 32.4653 64.828 32.4677 64.4732L32.5759 47.2191L32.5713 47.2168Z" fill="#151515"/>
<path fill-rule="evenodd" clip-rule="evenodd" d="M30.1591 63.782L30.2513 48.9631C21.3904 53.2876 11.1863 53.2853 2.32535 48.9631L2.41751 63.7843C11.1356 68.4452 21.4387 68.4452 30.1568 63.7843L30.1591 63.782Z" fill="white"/>
<path fill-rule="evenodd" clip-rule="evenodd" d="M29.6684 46.6684L16.2872 27.7278L2.90593 46.6684C7.02996 48.7696 11.6217 49.8593 16.2872 49.9123C20.9503 49.8593 25.5443 48.7696 29.6684 46.6684Z" fill="white"/>
<path d="M22.3281 47.0809C23.701 47.0809 24.814 45.9679 24.814 44.5949C24.814 43.222 23.701 42.109 22.3281 42.109C20.9551 42.109 19.8421 43.222 19.8421 44.5949C19.8421 45.9679 20.9551 47.0809 22.3281 47.0809Z" fill="#151515"/>
<path d="M16.2457 36.2708C16.9023 36.2708 17.4345 35.7386 17.4345 35.082C17.4345 34.4254 16.9023 33.8932 16.2457 33.8932C15.5891 33.8932 15.0569 34.4254 15.0569 35.082C15.0569 35.7386 15.5891 36.2708 16.2457 36.2708Z" fill="#151515"/>
<path d="M11.2323 45.3184C12.1701 45.3184 12.9303 44.5581 12.9303 43.6204C12.9303 42.6826 12.1701 41.9224 11.2323 41.9224C10.2946 41.9224 9.53433 42.6826 9.53433 43.6204C9.53433 44.5581 10.2946 45.3184 11.2323 45.3184Z" fill="#151515"/>
<path d="M42.0428 48.9609C43.9481 49.8916 45.9595 50.6312 48.0353 51.1703C50.6226 51.8408 53.3044 52.2025 56.0069 52.2324C58.7094 52.2025 61.3912 51.8431 63.9785 51.1703C66.0543 50.6312 68.0634 49.8916 69.971 48.9609L69.8789 63.7797C67.8307 64.8741 65.6742 65.7219 63.4555 66.3094C61.0364 66.9499 58.5343 67.2771 56.0092 67.2771C53.4841 67.2771 50.982 66.9499 48.5629 66.3094C46.3419 65.7219 44.1854 64.8741 42.1395 63.7797L42.0474 48.9585L42.0428 48.9609ZM56.0046 49.9101C53.4818 49.8801 50.9958 49.5484 48.6136 48.9309C46.5308 48.3895 44.5195 47.6315 42.6234 46.6661L56.0046 27.7255L69.3858 46.6661C67.4897 47.6315 65.4784 48.3895 63.3956 48.9309C61.0156 49.5484 58.5274 49.8801 56.0046 49.9101ZM72.2888 47.2168C72.3072 46.961 72.2404 46.6961 72.0814 46.468L56.9515 25.053C56.728 24.735 56.3709 24.5622 56.0092 24.5599H56.0046H56C55.6383 24.5622 55.2812 24.7327 55.0577 25.053L39.9278 46.468C39.7688 46.6938 39.702 46.9587 39.7204 47.2168L39.8287 64.4709C39.831 64.7865 39.9577 65.0722 40.1628 65.2796L40.1697 65.2865L40.1835 65.3003L40.248 65.3579L40.2526 65.3625C40.3171 65.4155 40.3886 65.4616 40.4646 65.5008C42.8561 66.844 45.3766 67.8669 47.9708 68.5512C50.595 69.2446 53.2952 69.5995 56.0069 69.5995C58.7186 69.5995 61.4188 69.2446 64.043 68.5512C66.6372 67.8669 69.1577 66.844 71.5492 65.5008C71.6252 65.4616 71.6967 65.4155 71.7612 65.3625L71.7658 65.3579C72.0215 65.1483 72.1851 64.828 72.1851 64.4732L72.2934 47.2191L72.2888 47.2168Z" fill="#151515"/>
<path fill-rule="evenodd" clip-rule="evenodd" d="M69.8742 63.782L69.9664 48.9631C61.1055 53.2876 50.9014 53.2853 42.0405 48.9631L42.1326 63.7843C50.8507 68.4452 61.1539 68.4452 69.8719 63.7843L69.8742 63.782Z" fill="white"/>
<path fill-rule="evenodd" clip-rule="evenodd" d="M69.3858 46.6684L56.0046 27.7278L42.6234 46.6684C46.7474 48.7696 51.3391 49.8593 56.0046 49.9123C60.6677 49.8593 65.2618 48.7696 69.3858 46.6684Z" fill="white"/>
<path d="M62.0455 47.0809C63.4184 47.0809 64.5314 45.9679 64.5314 44.5949C64.5314 43.222 63.4184 42.109 62.0455 42.109C60.6725 42.109 59.5596 43.222 59.5596 44.5949C59.5596 45.9679 60.6725 47.0809 62.0455 47.0809Z" fill="#151515"/>
<path d="M55.9631 36.2708C56.6197 36.2708 57.1519 35.7386 57.1519 35.082C57.1519 34.4254 56.6197 33.8932 55.9631 33.8932C55.3065 33.8932 54.7743 34.4254 54.7743 35.082C54.7743 35.7386 55.3065 36.2708 55.9631 36.2708Z" fill="#151515"/>
<path d="M50.9475 45.3184C51.8852 45.3184 52.6455 44.5581 52.6455 43.6204C52.6455 42.6826 51.8852 41.9224 50.9475 41.9224C50.0097 41.9224 49.2495 42.6826 49.2495 43.6204C49.2495 44.5581 50.0097 45.3184 50.9475 45.3184Z" fill="#151515"/>
<path d="M22.2705 20.6386C24.1758 19.7078 26.1871 18.9683 28.263 18.4291C30.8503 17.7587 33.5321 17.397 36.2346 17.367C38.9371 17.397 41.6189 17.7564 44.2062 18.4291C46.282 18.9683 48.291 19.7078 50.1987 20.6386L50.1065 5.81973C48.0583 4.72536 45.9019 3.87751 43.6832 3.29001C41.2641 2.64952 38.762 2.32236 36.2369 2.32236C33.7118 2.32236 31.2097 2.64952 28.7906 3.29001C26.5696 3.87751 24.4131 4.72536 22.3672 5.81973L22.2751 20.6409L22.2705 20.6386ZM36.2323 19.6894C33.7095 19.7193 31.2235 20.0511 28.8413 20.6686C26.7585 21.21 24.7472 21.968 22.851 22.9333L36.2323 41.8739L49.6135 22.9333C47.7174 21.968 45.706 21.21 43.6233 20.6686C41.2433 20.0511 38.7551 19.7193 36.2323 19.6894ZM52.5164 22.3827C52.5349 22.6384 52.4681 22.9034 52.3091 23.1315L37.1792 44.5465C36.9557 44.8644 36.5986 45.0372 36.2369 45.0395H36.2323H36.2277C35.8659 45.0372 35.5088 44.8667 35.2854 44.5465L20.1554 23.1315C19.9965 22.9057 19.9297 22.6407 19.9481 22.3827L20.0564 5.12855C20.0587 4.81291 20.1854 4.52722 20.3904 4.31987L20.3974 4.31296L20.4112 4.29913L20.4757 4.24153L20.4803 4.23693C20.5448 4.18394 20.6162 4.13786 20.6923 4.09869C23.0837 2.7555 25.6042 1.73256 28.1985 1.04829C30.8226 0.354805 33.5228 0 36.2346 0C38.9463 0 41.6465 0.354805 44.2707 1.04829C46.8649 1.73256 49.3854 2.7555 51.7769 4.09869C51.8529 4.13555 51.9243 4.18394 51.9888 4.23693L51.9935 4.24153C52.2492 4.45119 52.4105 4.77144 52.4128 5.12624L52.521 22.3804L52.5164 22.3827Z" fill="#151515"/>
<path fill-rule="evenodd" clip-rule="evenodd" d="M50.1042 5.81972L50.1964 20.6386C41.3355 16.3141 31.1314 16.3164 22.2705 20.6386L22.3626 5.81741C31.0807 1.15656 41.3839 1.15656 50.1019 5.81741L50.1042 5.81972Z" fill="white"/>
<path fill-rule="evenodd" clip-rule="evenodd" d="M49.6135 22.9333L36.2323 41.8739L22.851 22.9333C26.9751 20.8321 31.5668 19.7423 36.2323 19.6893C40.8954 19.7423 45.4895 20.8321 49.6135 22.9333Z" fill="white"/>
<path d="M42.2732 27.4928C43.6461 27.4928 44.7591 26.3798 44.7591 25.0068C44.7591 23.6339 43.6461 22.5209 42.2732 22.5209C40.9002 22.5209 39.7872 23.6339 39.7872 25.0068C39.7872 26.3798 40.9002 27.4928 42.2732 27.4928Z" fill="#151515"/>
<path d="M36.1908 35.7086C36.8474 35.7086 37.3796 35.1763 37.3796 34.5198C37.3796 33.8632 36.8474 33.3309 36.1908 33.3309C35.5342 33.3309 35.002 33.8632 35.002 34.5198C35.002 35.1763 35.5342 35.7086 36.1908 35.7086Z" fill="#151515"/>
<path d="M31.1774 27.6794C32.1152 27.6794 32.8754 26.9192 32.8754 25.9814C32.8754 25.0437 32.1152 24.2834 31.1774 24.2834C30.2397 24.2834 29.4794 25.0437 29.4794 25.9814C29.4794 26.9192 30.2397 27.6794 31.1774 27.6794Z" fill="#151515"/>
<path d="M1.02823 61.6947C0.454555 61.4205 0.210338 60.7316 0.484506 60.158C0.758673 59.5843 1.44755 59.3401 2.02123 59.6142C4.80207 60.9436 7.75571 61.8053 10.7577 62.1785C13.7574 62.5517 16.7986 62.4389 19.7592 61.8237C20.3835 61.6947 20.9941 62.0956 21.1254 62.7199C21.2544 63.3443 20.8535 63.9548 20.2292 64.0862C17.0083 64.7566 13.7137 64.881 10.4766 64.4778C7.24193 64.0746 4.04638 63.1439 1.02593 61.697L1.02823 61.6947Z" fill="#151515"/>
<path d="M22.2936 61.6153C22.272 60.9857 22.7648 60.4579 23.3944 60.4363C24.0239 60.4147 24.5518 60.9076 24.5734 61.5371C24.595 62.1667 24.1021 62.6945 23.4726 62.7161C22.843 62.7377 22.3152 62.2448 22.2936 61.6153Z" fill="#151515"/>
<path d="M40.8908 61.6947C40.3171 61.4205 40.0729 60.7316 40.3471 60.158C40.6213 59.5843 41.3101 59.3401 41.8838 59.6142C44.6646 60.9436 47.6183 61.8053 50.6203 62.1785C53.62 62.5517 56.6612 62.4389 59.6218 61.8237C60.2461 61.6947 60.8567 62.0956 60.988 62.7199C61.117 63.3443 60.7161 63.9548 60.0918 64.0862C56.8709 64.7566 53.5762 64.881 50.3392 64.4778C47.1045 64.0746 43.909 63.1439 40.8885 61.697L40.8908 61.6947Z" fill="#151515"/>
<path d="M62.1566 61.6153C62.1351 60.9857 62.6279 60.4579 63.2575 60.4363C63.887 60.4147 64.4148 60.9076 64.4364 61.5371C64.458 62.1667 63.9652 62.6945 63.3356 62.7161C62.7061 62.7377 62.1782 62.2448 62.1566 61.6153Z" fill="#151515"/>
<path d="M21.9272 10.5589C21.3535 10.8331 20.6646 10.5911 20.3905 10.0152C20.1163 9.44148 20.3582 8.75261 20.9342 8.47844C23.9546 7.03388 27.1502 6.10078 30.3849 5.6976C33.6242 5.29441 36.9188 5.41882 40.1374 6.08926C40.7618 6.21828 41.1627 6.83113 41.0314 7.45549C40.9023 8.07986 40.2895 8.48074 39.6651 8.34942C36.7046 7.73427 33.6634 7.62138 30.6637 7.99461C27.6594 8.36785 24.708 9.22722 21.9272 10.5589Z" fill="#151515"/>
<path d="M41.8217 7.99581C41.8001 8.62536 42.293 9.15321 42.9225 9.17479C43.552 9.19638 44.0799 8.70353 44.1015 8.07398C44.1231 7.44443 43.6302 6.91658 43.0007 6.895C42.3711 6.87341 41.8433 7.36626 41.8217 7.99581Z" fill="#151515"/>
</svg>
