<svg width="73" height="70" viewBox="0 0 73 70" fill="none" xmlns="http://www.w3.org/2000/svg">
<path d="M20.8068 0H46.6413H47.7301V1.0888V6.62716V6.75189L47.6913 6.9002C46.9868 9.61714 46.402 13.4246 45.9958 17.9466C45.6047 22.3068 45.3806 27.3649 45.3806 32.7836C45.3806 38.2023 45.6031 43.2603 45.9958 47.6205C46.402 52.1426 46.9868 55.95 47.6913 58.6669L47.7301 58.8152V58.9399V65.0446V66.1334H46.6413H20.8068V63.9541H45.5508V59.0613C44.8362 56.25 44.2446 52.3768 43.835 47.8076C43.4322 43.3226 43.203 38.1989 43.203 32.7836C43.203 27.3682 43.4322 22.2428 43.835 17.7595C44.2446 13.1903 44.8379 9.31713 45.5508 6.50581V2.17928H20.8068V0Z" fill="black"/>
<path d="M26.9772 0H1.14275H0.0539551V1.0888V6.62716V6.75189L0.0927203 6.9002C0.797236 9.61714 1.38208 13.4246 1.78828 17.9466C2.1793 22.3068 2.40346 27.3649 2.40346 32.7836C2.40346 38.2023 2.18098 43.2603 1.78828 47.6205C1.38208 52.1426 0.797236 55.95 0.0927203 58.6669L0.0539551 58.8152V58.9399V65.0446V66.1334H1.14275H26.9772V63.9541H2.23323V59.0613C2.94786 56.25 3.53945 52.3768 3.94901 47.8076C4.35184 43.3226 4.58106 38.1989 4.58106 32.7836C4.58106 27.3682 4.35184 22.2428 3.94901 17.7595C3.53945 13.1903 2.94618 9.31713 2.23323 6.50581V2.17928H26.9772V0Z" fill="black"/>
<path d="M33.1965 7.57772C33.7885 7.57772 34.2685 7.0978 34.2685 6.50578C34.2685 5.91376 33.7885 5.43384 33.1965 5.43384C32.6045 5.43384 32.1246 5.91376 32.1246 6.50578C32.1246 7.0978 32.6045 7.57772 33.1965 7.57772Z" fill="#151515"/>
<path d="M2.23154 7.64684C1.60119 7.64684 1.0905 7.13615 1.0905 6.50579C1.0905 5.87544 1.60119 5.36475 2.23154 5.36475H29.3368C29.9672 5.36475 30.4779 5.87544 30.4779 6.50579C30.4779 7.13615 29.9672 7.64684 29.3368 7.64684H2.23154Z" fill="black"/>
<path d="M42.2777 60.2462C42.8697 60.2462 43.3496 59.7663 43.3496 59.1742C43.3496 58.5822 42.8697 58.1023 42.2777 58.1023C41.6857 58.1023 41.2057 58.5822 41.2057 59.1742C41.2057 59.7663 41.6857 60.2462 42.2777 60.2462Z" fill="#151515"/>
<path d="M2.23154 60.3153C1.60119 60.3153 1.0905 59.8046 1.0905 59.1742C1.0905 58.5439 1.60119 58.0332 2.23154 58.0332H38.6455C39.2759 58.0332 39.7866 58.5439 39.7866 59.1742C39.7866 59.8046 39.2759 60.3153 38.6455 60.3153H2.23154Z" fill="black"/>
<path d="M3.22428 20.8961C5.16254 20.5573 7.11428 20.2168 9.28682 19.8511C11.2369 19.5224 13.0521 19.2292 14.596 19.0067C16.1634 18.7808 17.4848 18.6258 18.7489 18.5584C20.0231 18.4909 21.2147 18.5162 22.5125 18.6561C23.7985 18.7943 25.1755 19.0438 26.5154 19.3303C27.7879 19.6033 29.1076 19.9337 30.2773 20.232L31.0914 20.4427H31.0965C32.8982 20.9079 34.2988 21.2702 35.7651 21.4573C36.6146 21.5652 37.5011 21.6191 38.3489 21.6107C39.1478 21.6023 39.9164 21.5382 40.5889 21.4135C41.2411 21.2938 41.8192 21.1051 42.3569 20.886C42.9401 20.6483 43.4457 20.3904 43.9496 20.1326L44.9845 22.1568C44.403 22.4534 43.8199 22.7517 43.2131 22.9995C42.5608 23.2658 41.8445 23.495 40.9984 23.6518C40.2012 23.7984 39.2995 23.8743 38.3658 23.8844C37.4135 23.8945 36.4241 23.8338 35.4769 23.7141C33.8606 23.5085 32.401 23.131 30.5234 22.6456V22.6439L29.7127 22.4349C28.6357 22.1585 27.3885 21.8484 26.0384 21.5585C24.7575 21.2837 23.4547 21.0478 22.2664 20.9197C21.0917 20.7933 20.0113 20.7697 18.8601 20.8303C17.7006 20.891 16.4365 21.0427 14.9128 21.2618C13.3622 21.4843 11.5689 21.7742 9.65593 22.0961C7.96543 22.381 5.79458 22.7602 3.61193 23.1411L3.21922 20.8927L3.22428 20.8961Z" fill="black"/>
<path d="M3.22427 44.5867C5.16422 44.248 7.10416 43.9075 9.28681 43.5401C11.2369 43.2114 13.0521 42.9181 14.596 42.6973C16.1634 42.4715 17.4831 42.3147 18.7489 42.2473C20.0231 42.1799 21.2147 42.2052 22.5125 42.3451C23.7985 42.4833 25.1755 42.7327 26.5154 43.0193C27.7862 43.2923 29.1076 43.6227 30.2773 43.9227L31.0998 44.135H31.1049C32.9016 44.5985 34.3005 44.9609 35.7651 45.148C36.6146 45.2558 37.5011 45.3098 38.3489 45.3014C39.1478 45.2929 39.9164 45.2289 40.5889 45.1042C41.2411 44.9828 41.8192 44.7957 42.3569 44.5766C42.9401 44.339 43.4457 44.0811 43.9496 43.8232L44.9845 45.8474C44.403 46.1441 43.8199 46.4424 43.2131 46.6902C42.5608 46.9548 41.8428 47.1857 40.9984 47.3424C40.2029 47.4891 39.2995 47.5649 38.3675 47.575C37.4152 47.5851 36.4258 47.5261 35.4786 47.4048C33.8639 47.1992 32.406 46.8216 30.5335 46.3379V46.3362L29.7144 46.1255C28.6357 45.8491 27.3902 45.539 26.0401 45.2491C24.7592 44.9744 23.4563 44.7384 22.2681 44.6103C21.0933 44.4839 20.013 44.4603 18.8618 44.521C17.7022 44.5817 16.4381 44.735 14.9145 44.9525C13.3639 45.1749 11.5706 45.4648 9.65761 45.7868C7.97554 46.0699 5.79457 46.4508 3.61361 46.8334L3.2209 44.585L3.22427 44.5867Z" fill="black"/>
<path fill-rule="evenodd" clip-rule="evenodd" d="M45.6199 18.4067H51.7886H71.4527H72.5415V19.4955V25.0338V25.1586L72.5027 25.3069C71.7982 28.0238 71.2134 31.8312 70.8072 36.355C70.5931 38.7348 70.4296 41.3203 70.3251 44.0608C70.4296 46.8013 70.5931 49.3885 70.8072 51.7666C71.2134 56.2887 71.7999 60.0961 72.5027 62.813L72.5415 62.9614V63.0861V68.6244V69.7132H71.4527H51.7886H45.6199H25.9558H24.8671V68.6228V63.0844V62.9597L24.9058 62.8114C25.6103 60.0944 26.1952 56.287 26.6014 51.7633C26.8154 49.3851 26.9789 46.798 27.0834 44.0574C26.9789 41.3169 26.8154 38.7297 26.6014 36.3516C26.1952 31.8295 25.6086 28.0204 24.9058 25.3035L24.8671 25.1552V25.0305V19.4921V18.4016H25.9558H45.6199V18.4067Z" fill="white"/>
<path d="M45.6199 18.4067H51.7886H71.4527H72.5415V19.4955V25.0338V25.1586L72.5027 25.3069C71.7982 28.0238 71.2134 31.8312 70.8072 36.355C70.5931 38.7348 70.4296 41.3203 70.3251 44.0608C70.4296 46.8013 70.5931 49.3885 70.8072 51.7666C71.2134 56.2887 71.7999 60.0961 72.5027 62.813L72.5415 62.9614V63.0861V68.6244V69.7132H71.4527H51.7886H45.6199H25.9558H24.8671V68.6228V63.0844V62.9597L24.9058 62.8114C25.6103 60.0944 26.1952 56.287 26.6014 51.7633C26.8154 49.3851 26.9789 46.798 27.0834 44.0574C26.9789 41.3169 26.8154 38.7297 26.6014 36.3516C26.1952 31.8295 25.6086 28.0204 24.9058 25.3035L24.8671 25.1552V25.0305V19.4921V18.4016H25.9558H45.6199V18.4067ZM68.1509 44.0591C68.2588 41.2731 68.4273 38.6236 68.6481 36.1645C69.0577 31.5953 69.6493 27.7221 70.3639 24.9108V20.5843H51.7886H27.0446V24.9108C27.7593 27.7221 28.3509 31.5953 28.7604 36.1645C28.9812 38.6219 29.1498 41.2731 29.2576 44.0591C29.1498 46.8452 28.9812 49.4947 28.7604 51.9537C28.3509 56.523 27.7593 60.3961 27.0446 63.2074V67.534H51.7886H70.3639V63.2074C69.6493 60.3961 69.0577 56.523 68.6481 51.9537C68.4273 49.4964 68.2588 46.8452 68.1509 44.0591Z" fill="black"/>
<path d="M58.0096 25.9845C58.6016 25.9845 59.0815 25.5045 59.0815 24.9125C59.0815 24.3205 58.6016 23.8406 58.0096 23.8406C57.4176 23.8406 56.9377 24.3205 56.9377 24.9125C56.9377 25.5045 57.4176 25.9845 58.0096 25.9845Z" fill="#151515"/>
<path d="M27.0446 26.0536C26.4143 26.0536 25.9036 25.5429 25.9036 24.9125C25.9036 24.2822 26.4143 23.7715 27.0446 23.7715H54.1499C54.7803 23.7715 55.291 24.2822 55.291 24.9125C55.291 25.5429 54.7803 26.0536 54.1499 26.0536H27.0446Z" fill="black"/>
<path d="M67.0908 63.8075C67.6828 63.8075 68.1627 63.3275 68.1627 62.7355C68.1627 62.1435 67.6828 61.6636 67.0908 61.6636C66.4988 61.6636 66.0188 62.1435 66.0188 62.7355C66.0188 63.3275 66.4988 63.8075 67.0908 63.8075Z" fill="#151515"/>
<path d="M27.0446 63.8783C26.4143 63.8783 25.9036 63.3676 25.9036 62.7372C25.9036 62.1069 26.4143 61.5962 27.0446 61.5962H63.4586C64.089 61.5962 64.5997 62.1069 64.5997 62.7372C64.5997 63.3676 64.089 63.8783 63.4586 63.8783H27.0446Z" fill="black"/>
<path d="M28.0374 39.3028C32.1498 38.5848 36.2623 37.8651 39.4091 37.4134C40.9782 37.1876 42.2962 37.0308 43.562 36.9651C44.8345 36.8977 46.0278 36.923 47.3256 37.0629C48.6116 37.2011 49.9886 37.4505 51.3285 37.737C52.5993 38.0101 53.9207 38.3404 55.0904 38.6404L55.9112 38.8511H55.9163C57.7147 39.3163 59.1136 39.677 60.5782 39.8641C61.4277 39.9719 62.3142 40.0259 63.162 40.0174C63.9609 40.009 64.7295 39.945 65.402 39.8219C66.0542 39.7006 66.6323 39.5135 67.17 39.2944C67.7532 39.0567 68.2588 38.7972 68.7627 38.541L69.7976 40.5652C69.2161 40.8618 68.633 41.1602 68.0262 41.4079C67.3739 41.6725 66.6559 41.9035 65.8115 42.0602C65.0143 42.2068 64.1126 42.2827 63.1789 42.2928C62.2266 42.3029 61.2372 42.2439 60.2917 42.1226C58.677 41.9169 57.2191 41.5411 55.3449 41.0557V41.054L54.5275 40.8433C53.4488 40.5669 52.2033 40.2568 50.8532 39.9669C49.5706 39.6922 48.2694 39.4562 47.0812 39.3281C45.9064 39.2017 44.8261 39.1781 43.6749 39.2388C42.5153 39.2994 41.2512 39.4511 39.7276 39.6702C36.6887 40.1068 32.5577 40.8298 28.4267 41.5512L28.034 39.3028H28.0374Z" fill="black"/>
<path d="M28.0424 48.9975L28.0964 48.9891V48.9874C32.1886 48.2728 36.2792 47.5564 39.4107 47.1081C40.9799 46.8823 42.2979 46.7255 43.5637 46.6581C44.8362 46.5907 46.0295 46.616 47.3273 46.7559C48.6133 46.8941 49.9903 47.1435 51.3302 47.43C52.601 47.7031 53.9224 48.0334 55.0921 48.3334L55.9146 48.5458H55.9197C57.7163 49.0093 59.1153 49.3717 60.5799 49.5587C61.4294 49.6666 62.3159 49.7205 63.1637 49.7121C63.9626 49.7037 64.7312 49.6396 65.4036 49.5149C66.0559 49.3936 66.634 49.2065 67.1717 48.9874C67.7548 48.7497 68.2605 48.4919 68.7644 48.234L69.7993 50.2582C69.2178 50.5548 68.6346 50.8532 68.0279 51.1009C67.3756 51.3672 66.6576 51.5964 65.8132 51.7532C65.0177 51.8998 64.116 51.9757 63.1822 51.9858C62.23 51.9959 61.2406 51.9352 60.2934 51.8156C58.6787 51.6099 57.2208 51.2324 55.3483 50.7487V50.747L54.5292 50.5363C53.4505 50.2599 52.2049 49.9498 50.8549 49.6599C49.574 49.3851 48.2711 49.1492 47.0829 49.0211C45.9081 48.8947 44.8278 48.8711 43.6766 48.9318C42.517 48.9924 41.2529 49.1441 39.7293 49.3632C36.7039 49.7981 32.5965 50.5161 28.4874 51.2341H28.4823L28.425 51.2442L28.0407 48.9958L28.0424 48.9975Z" fill="black"/>
<path d="M15.2415 41.0625C23.1406 41.0625 29.5442 34.659 29.5442 26.7598C29.5442 18.8607 23.1406 12.4572 15.2415 12.4572C7.34234 12.4572 0.938812 18.8607 0.938812 26.7598C0.938812 34.659 7.34234 41.0625 15.2415 41.0625Z" fill="white"/>
<path d="M15.2415 11.5183C19.45 11.5183 23.2608 13.224 26.0182 15.983C28.7756 18.7404 30.4829 22.5512 30.4829 26.7598C30.4829 30.9683 28.7773 34.7791 26.0182 37.5365C23.2608 40.2939 19.45 42.0012 15.2415 42.0012C11.0329 42.0012 7.22214 40.2956 4.46475 37.5365C1.70568 34.7774 1.52588e-05 30.9683 1.52588e-05 26.7598C1.52588e-05 22.5512 1.70568 18.7404 4.46475 15.983C7.22214 13.2257 11.0329 11.5183 15.2415 11.5183ZM24.6918 17.3095C22.2731 14.8909 18.9326 13.3942 15.2415 13.3942C11.5504 13.3942 8.20981 14.8909 5.7912 17.3095C3.37259 19.7281 1.87591 23.0687 1.87591 26.7598C1.87591 30.4509 3.37259 33.7914 5.7912 36.2101C8.20981 38.6287 11.5504 40.1237 15.2415 40.1237C18.9326 40.1237 22.2731 38.627 24.6918 36.2084C27.1104 33.7898 28.607 30.4492 28.607 26.7581C28.607 23.067 27.1104 19.7264 24.6934 17.3078L24.6918 17.3095Z" fill="black"/>
<path d="M16.6067 44.0676H13.9926C12.6214 44.0676 11.5099 48.7307 11.5099 54.4828C11.5099 60.235 12.6214 64.898 13.9926 64.898H16.6067C17.9778 64.898 19.0894 60.235 19.0894 54.4828C19.0894 48.7307 17.9778 44.0676 16.6067 44.0676Z" fill="white"/>
<path d="M15.3005 43.1305C16.6016 43.1305 17.7831 43.6614 18.6393 44.5176C19.4955 45.3738 20.0265 46.557 20.0265 47.8582V61.1091C20.0265 62.4103 19.4955 63.5935 18.6393 64.4497C17.7831 65.3059 16.5999 65.8368 15.3005 65.8368C13.9993 65.8368 12.8178 65.3059 11.9616 64.4497C11.1054 63.5935 10.5728 62.4103 10.5728 61.1091V47.8582C10.5728 46.557 11.1037 45.3738 11.9616 44.5176C12.8178 43.6614 14.001 43.1305 15.3005 43.1305ZM15.3005 45.0064C14.5167 45.0064 13.8038 45.3266 13.2864 45.8441C12.7689 46.3615 12.4487 47.0744 12.4487 47.8582V61.1091C12.4487 61.8928 12.7689 62.6058 13.2864 63.1232C13.8038 63.6407 14.5167 63.9609 15.3005 63.9609C16.0842 63.9609 16.7971 63.6407 17.3146 63.1232C17.832 62.6058 18.1522 61.8928 18.1522 61.1091V47.8582C18.1522 47.0744 17.832 46.3615 17.3146 45.8441C16.7971 45.3266 16.0842 45.0064 15.3005 45.0064Z" fill="black"/>
<path d="M18.1421 41.0625H12.4588V45.6368H18.1421V41.0625Z" fill="white"/>
<path d="M12.4588 40.1237H18.1421H19.0809V41.0624V45.6367V46.5755H18.1421H12.4588H11.52V45.6367V41.0624V40.1237H12.4588ZM17.2033 41.9996H13.3976V44.6979H17.2033V41.9996Z" fill="black"/>
<path d="M11.1678 24.5435H11.1661C10.3544 24.5435 9.69638 25.3471 9.69638 26.3385V31.415C9.69638 32.4064 10.3544 33.21 11.1661 33.21H11.1678C11.9795 33.21 12.6375 32.4064 12.6375 31.415V26.3385C12.6375 25.3471 11.9795 24.5435 11.1678 24.5435Z" fill="black"/>
<path d="M13.3859 17.5977L13.3834 17.599C12.6611 17.9689 12.4418 18.9838 12.8935 19.8658L15.2089 24.3867C15.6606 25.2687 16.6124 25.6838 17.3347 25.3139L17.3372 25.3126C18.0595 24.9427 18.2788 23.9278 17.8271 23.0457L15.5117 18.5249C15.0599 17.6429 14.1082 17.2278 13.3859 17.5977Z" fill="black"/>
<path d="M22.0679 26.7321L22.0665 26.7297C21.6645 26.0247 20.6407 25.8512 19.7799 26.3421L15.3676 28.8583C14.5068 29.3492 14.1348 30.3186 14.5368 31.0235L14.5382 31.026C14.9403 31.7309 15.964 31.9044 16.8248 31.4135L21.2371 28.8974C22.0979 28.4065 22.4699 27.4371 22.0679 26.7321Z" fill="black"/>
<path d="M8.30925 24.2299C9.07534 24.2299 9.69637 23.6089 9.69637 22.8428C9.69637 22.0767 9.07534 21.4557 8.30925 21.4557C7.54317 21.4557 6.92213 22.0767 6.92213 22.8428C6.92213 23.6089 7.54317 24.2299 8.30925 24.2299Z" fill="black"/>
<path d="M14.992 36.082C15.7851 36.082 16.428 35.439 16.428 34.646C16.428 33.8529 15.7851 33.21 14.992 33.21C14.199 33.21 13.556 33.8529 13.556 34.646C13.556 35.439 14.199 36.082 14.992 36.082Z" fill="black"/>
<path d="M21.1001 23.4934C21.8662 23.4934 22.4872 22.8723 22.4872 22.1062C22.4872 21.3402 21.8662 20.7191 21.1001 20.7191C20.334 20.7191 19.713 21.3402 19.713 22.1062C19.713 22.8723 20.334 23.4934 21.1001 23.4934Z" fill="black"/>
</svg>
