<svg width="73" height="70" viewBox="0 0 73 70" fill="none" xmlns="http://www.w3.org/2000/svg">
<path d="M72.5384 42.9146C72.5588 43.1214 72.5202 43.3372 72.4088 43.5326C69.6756 48.3062 65.6631 52.1823 60.8986 54.8611C56.1409 57.5353 50.6289 59.0212 44.8897 59.0212C37.6464 59.0212 30.9733 56.6946 25.6704 52.7913C23.8504 51.6143 22.185 50.1693 20.7127 48.5062C18.6133 46.1341 16.9093 43.3168 15.7256 40.1904C14.3601 36.8778 13.6125 33.2766 13.6125 29.5095C13.6125 21.3505 17.1229 13.9663 22.7985 8.62246C28.4559 3.29448 36.2695 0 44.892 0C50.663 0 56.2023 1.50183 60.9804 4.20558C65.7608 6.90933 69.7755 10.8241 72.4952 15.6408C72.577 15.7863 72.6179 15.9408 72.627 16.0953V16.1021V16.1225V16.1271V16.1748C72.627 16.2157 72.6224 16.2566 72.6179 16.2952C72.6156 16.6201 72.4611 16.9382 72.1748 17.1359L54.2119 29.514L72.0908 41.9876L72.1044 41.9967L72.1203 42.0081L72.1248 42.0126L72.1407 42.024L72.1476 42.0285L72.1612 42.0399L72.168 42.0467L72.1794 42.0558L72.1862 42.0626L72.1975 42.0717L72.2066 42.0808L72.2157 42.0899L72.2248 42.0989L72.2339 42.1058L72.2453 42.1149L72.2521 42.1217L72.2634 42.133L72.2703 42.1398L72.2816 42.1512L72.2884 42.158L72.2998 42.1694L72.3043 42.1762L72.3157 42.1898L72.3202 42.1944L72.3316 42.208L72.3361 42.2126L72.3475 42.2285L72.3498 42.233L72.3611 42.2489L72.3634 42.2535L72.3748 42.2694L72.377 42.2739L72.3884 42.2898L72.3907 42.2943L72.402 42.3125L72.4043 42.3171L72.4134 42.3352L72.4157 42.3398L72.4248 42.358L72.427 42.3625L72.4361 42.3807L72.4384 42.3852L72.4475 42.4034L72.4497 42.408L72.4588 42.4261L72.4611 42.4307C72.4725 42.4602 72.4838 42.4897 72.4952 42.5193L72.4975 42.5261L72.502 42.5443L72.5111 42.5761L72.5156 42.592C72.5225 42.6238 72.5293 42.6556 72.5361 42.6874L72.5384 42.6988L72.5406 42.7101L72.5429 42.7238V42.7351L72.5452 42.7601L72.5474 42.776V42.7828V42.801V42.8078V42.8283V42.8328V42.8351V42.8396V42.8442V42.8487V42.8555V42.8714V42.876V42.8805V42.8851V42.8896V42.8942V42.8987V42.901V42.9033V42.9078L72.5384 42.9146ZM43.7287 10.8127C44.5625 10.7923 45.2532 11.4534 45.2737 12.2873C45.2918 13.1211 44.6329 13.8118 43.7991 13.8323C42.9653 13.8527 42.2746 13.1916 42.2541 12.3577C42.2337 11.5239 42.8948 10.8332 43.7287 10.8127ZM39.4617 18.9558C40.0457 18.9421 40.5296 19.4034 40.5432 19.9873C40.5569 20.5712 40.0956 21.0552 39.5117 21.0688C38.9278 21.0824 38.4439 20.6212 38.4302 20.0373C38.4166 19.4534 38.8778 18.9694 39.4617 18.9558ZM33.8339 9.47902C35.054 9.44949 36.065 10.4174 36.0946 11.6352C36.1241 12.8553 35.1585 13.8664 33.9384 13.8959C32.7183 13.9254 31.7072 12.9598 31.6777 11.7397C31.6504 10.5196 32.6138 9.50856 33.8339 9.47902ZM22.6326 24.077C22.7235 23.2477 23.4687 22.6501 24.298 22.741C25.1273 22.8319 25.7249 23.5771 25.634 24.4064C25.5431 25.2357 24.7979 25.8333 23.9686 25.7424C23.1393 25.6515 22.5417 24.9063 22.6326 24.077ZM30.1372 29.3868C30.2008 28.8074 30.7234 28.3894 31.3028 28.453C31.8822 28.5166 32.3002 29.0392 32.2366 29.6185C32.173 30.1979 31.6504 30.616 31.071 30.5524C30.4917 30.4887 30.0736 29.9662 30.1372 29.3868ZM19.997 33.7082C20.1311 32.495 21.2217 31.6202 22.4349 31.7543C23.6482 31.8883 24.523 32.9789 24.3889 34.1922C24.2549 35.4055 23.1643 36.2802 21.951 36.1462C20.7377 36.0121 19.863 34.9215 19.997 33.7082ZM43.7287 48.563C44.5625 48.5834 45.2532 47.9222 45.2737 47.0884C45.2941 46.2545 44.6329 45.5638 43.7991 45.5434C42.9653 45.5229 42.2746 46.1841 42.2541 47.018C42.2337 47.8518 42.8948 48.5425 43.7287 48.563ZM39.4617 40.4199C40.0457 40.4335 40.5296 39.9723 40.5432 39.3884C40.5569 38.8045 40.0956 38.3205 39.5117 38.3069C38.9278 38.2933 38.4439 38.7545 38.4302 39.3384C38.4166 39.9223 38.8778 40.4063 39.4617 40.4199ZM33.8339 49.8967C35.054 49.9239 36.065 48.9583 36.0946 47.7382C36.1241 46.5181 35.1585 45.507 33.9384 45.4775C32.7183 45.448 31.7072 46.4136 31.6777 47.6337C31.6504 48.8538 32.6138 49.8648 33.8339 49.8944V49.8967ZM40.441 28.4802H52.0921L68.535 17.1495L56.8952 16.9814L40.4387 28.4802H40.441ZM52.0921 30.5433H40.441L56.7612 41.9467C56.8748 41.9513 56.9907 41.9763 57.102 42.024L68.3146 41.8627L52.0921 30.5455V30.5433ZM57.2769 44.0756C55.1821 47.7677 52.3398 50.7578 49.0476 52.8571C45.8394 54.902 42.2109 56.1039 38.4302 56.2879C40.5092 56.7287 42.6699 56.9605 44.8897 56.9605C50.2722 56.9605 55.4366 55.57 59.8921 53.0662C63.8682 50.8305 67.2785 47.7087 69.7755 43.8939L57.2769 44.0734V44.0756ZM36.6012 30.366L36.5853 30.3547L36.5649 30.3388L36.5444 30.3251L36.5422 30.3229L36.524 30.3092L36.5217 30.307L36.5035 30.2933L36.5013 30.2911L36.4853 30.2774L36.4831 30.2752L36.4672 30.2615L36.4649 30.2593L36.449 30.2456L36.4467 30.2434L36.4331 30.2275L36.4308 30.2252L36.4172 30.2093L36.4149 30.207L36.4013 30.1911L36.399 30.1888L36.3854 30.1706L36.3831 30.1684L36.3695 30.1502L36.3672 30.1479L36.3536 30.1275L36.3377 30.107L36.324 30.0866V30.0843L36.3104 30.0639L36.3081 30.0616L36.2968 30.0434L36.2945 30.0389L36.2831 30.0207L36.2809 30.0161L36.2718 30.0002L36.2695 29.9934L36.2604 29.9775L36.2581 29.9707L36.2513 29.9548L36.2491 29.948L36.2422 29.9321L36.2377 29.923L36.2309 29.9094L36.2218 29.8866L36.2172 29.8776L36.2127 29.8639L36.2082 29.8526L36.2036 29.8412L36.1991 29.8298L36.1945 29.8185L36.19 29.8071L36.1877 29.7958L36.1832 29.7844L36.1809 29.773L36.1786 29.7594L36.1763 29.748L36.1741 29.7344L36.1718 29.7231L36.1695 29.7094L36.1673 29.6981L36.1604 29.6503L36.1582 29.6344V29.6254L36.1559 29.6095V29.6004L36.1536 29.5845V29.5754V29.5595V29.5504V29.5345V29.5254V29.5095V29.5004V29.4845V29.4754V29.4595V29.4504L36.1559 29.4345V29.4254L36.1582 29.4095V29.4004L36.1604 29.3845L36.1673 29.3368L36.1695 29.3254L36.1718 29.3118L36.1741 29.3005L36.1763 29.2868L36.1786 29.2755L36.1809 29.2618L36.1832 29.2505L36.1877 29.2391L36.19 29.2277L36.1945 29.2164L36.1991 29.205L36.2036 29.1937L36.2082 29.1823L36.2127 29.1709L36.2172 29.1573L36.2218 29.1482L36.2309 29.1255L36.2377 29.1119L36.2422 29.1028L36.2491 29.0869L36.2513 29.0801L36.2581 29.0642L36.2604 29.0573L36.2695 29.0414L36.2718 29.0346L36.2809 29.0187L36.2831 29.0142L36.2945 28.996L36.2968 28.9915L36.3081 28.9733L36.3104 28.971L36.324 28.9506V28.9483L36.3377 28.9278L36.3536 28.9074L36.3672 28.8869L36.3695 28.8847L36.3831 28.8665L36.3854 28.8642L36.399 28.846L36.4013 28.8438L36.4149 28.8279L36.4172 28.8256L36.4308 28.8097L36.4331 28.8074L36.4467 28.7915L36.449 28.7892L36.4649 28.7756L36.4672 28.7733L36.4831 28.7597L36.4853 28.7574L36.5013 28.7438L36.5035 28.7415L36.5217 28.7279L36.524 28.7256L36.5422 28.712L36.5444 28.7097L36.5649 28.6961L36.5853 28.6802L36.6012 28.6688L55.0049 15.809C53.085 12.7099 50.5857 10.2015 47.732 8.42933C44.6193 6.49581 41.0795 5.43476 37.4146 5.43476C31.4982 5.43476 26.1361 8.1476 22.2509 12.5349C18.3362 16.9564 15.9141 23.075 15.9141 29.8457C15.9141 33.2175 16.5162 36.4302 17.6023 39.3498C19.0791 42.9669 21.3466 46.2159 24.2072 48.9083C25.0342 49.6876 25.9112 50.4192 26.8337 51.1008C29.9577 53.1093 33.5703 54.2567 37.4146 54.2567C41.1681 54.2567 44.7852 53.148 47.9433 51.1327C50.8493 49.2787 53.3781 46.659 55.2821 43.4258L36.599 30.3706L36.6012 30.366ZM69.7687 15.116C67.2899 11.3353 63.9068 8.22939 59.9648 6.0005C55.4979 3.4717 50.3063 2.06757 44.8897 2.06757C41.702 2.06757 38.6347 2.54698 35.7606 3.43308C36.3059 3.38991 36.858 3.36719 37.4123 3.36719C41.4657 3.36719 45.3759 4.53957 48.8158 6.6753C51.999 8.65427 54.7777 11.4603 56.8816 14.9297L69.7664 15.116H69.7687Z" fill="#151515"/>
<path d="M2.33861 49.2287C4.25168 50.1625 6.27154 50.9055 8.35502 51.4462C10.9542 52.121 13.6466 52.4823 16.3595 52.5118C19.0723 52.4823 21.7647 52.121 24.3639 51.4462C26.4474 50.9055 28.4673 50.1625 30.3803 49.2287L30.2872 64.1106C28.231 65.2103 26.0657 66.0601 23.8368 66.6508C21.408 67.2938 18.8951 67.621 16.3595 67.621C13.8239 67.621 11.3132 67.2915 8.88213 66.6508C6.65324 66.0623 4.48797 65.2103 2.43176 64.1106L2.33861 49.2287ZM16.3595 50.1829C13.8261 50.1534 11.3291 49.8194 8.93666 49.1991C6.8441 48.6561 4.82424 47.895 2.92253 46.9248L16.3595 27.9054L29.7964 46.9248C27.8924 47.895 25.8726 48.6561 23.7823 49.1991C21.3921 49.8194 18.8951 50.1534 16.3595 50.1829ZM32.7115 47.4769C32.7296 47.2202 32.6638 46.9543 32.5024 46.7249L17.3092 25.2198C17.0843 24.8995 16.7275 24.7268 16.3617 24.7268H16.3572H16.3527C15.9891 24.7291 15.6324 24.8995 15.4052 25.2198L0.211963 46.7249C0.0506465 46.9521 -0.0152431 47.2179 0.00293334 47.4769L0.111992 64.8036C0.114264 65.1217 0.241499 65.408 0.448257 65.6147L0.455073 65.6216L0.468705 65.6352L0.532323 65.692L0.536867 65.6965C0.602757 65.7511 0.67319 65.7965 0.75044 65.8351C3.152 67.1825 5.68308 68.2094 8.28685 68.8979C10.9224 69.5954 13.633 69.9498 16.3549 69.9498C19.0769 69.9498 21.7874 69.5931 24.423 68.8979C27.0268 68.2094 29.5601 67.1825 31.9594 65.8351C32.0344 65.7965 32.1071 65.7511 32.173 65.6965L32.1775 65.692C32.4343 65.4807 32.5979 65.1603 32.5979 64.8036L32.7069 47.4769H32.7115Z" fill="#151515"/>
<path fill-rule="evenodd" clip-rule="evenodd" d="M30.2872 64.1106L30.3804 49.2286C21.483 53.5728 11.236 53.5705 2.33862 49.2286L2.43178 64.1106C11.186 68.7911 21.533 68.7911 30.2872 64.1106Z" fill="white"/>
<path fill-rule="evenodd" clip-rule="evenodd" d="M29.7964 46.9248L16.3595 27.9054L2.92255 46.9248C7.06451 49.0333 11.6745 50.1284 16.3595 50.1829C21.0422 50.1284 25.6545 49.0333 29.7964 46.9248Z" fill="white"/>
<path d="M22.4236 47.3405C23.8027 47.3405 24.9206 46.2226 24.9206 44.8435C24.9206 43.4645 23.8027 42.3466 22.4236 42.3466C21.0446 42.3466 19.9266 43.4645 19.9266 44.8435C19.9266 46.2226 21.0446 47.3405 22.4236 47.3405Z" fill="#151515"/>
<path d="M16.3163 36.4847C16.9751 36.4847 17.5091 35.9506 17.5091 35.2918C17.5091 34.633 16.9751 34.099 16.3163 34.099C15.6575 34.099 15.1235 34.633 15.1235 35.2918C15.1235 35.9506 15.6575 36.4847 16.3163 36.4847Z" fill="#151515"/>
<path d="M11.2814 45.5707C12.2238 45.5707 12.9878 44.8068 12.9878 43.8644C12.9878 42.922 12.2238 42.1581 11.2814 42.1581C10.3391 42.1581 9.57513 42.922 9.57513 43.8644C9.57513 44.8068 10.3391 45.5707 11.2814 45.5707Z" fill="#151515"/>
<path d="M1.26845 61.516C0.700436 61.2206 0.477775 60.5185 0.773142 59.9505C1.06851 59.3825 1.77058 59.1598 2.33859 59.4552C5.09687 60.8934 8.03237 61.859 11.0201 62.3362C14.0079 62.8133 17.0661 62.802 20.0675 62.2839C20.6991 62.1771 21.2989 62.602 21.408 63.2336C21.5148 63.8653 21.0899 64.4651 20.4582 64.5742C17.2137 65.1331 13.9034 65.1444 10.6566 64.6264C7.40982 64.1084 4.23576 63.0655 1.26845 61.5182V61.516Z" fill="#151515"/>
<path d="M22.6167 62.1642C22.6167 61.5336 23.1279 61.0224 23.7585 61.0224C24.389 61.0224 24.9002 61.5336 24.9002 62.1642C24.9002 62.7947 24.389 63.3059 23.7585 63.3059C23.1279 63.3059 22.6167 62.7947 22.6167 62.1642Z" fill="#151515"/>
</svg>
