<svg width="72" height="70" viewBox="0 0 72 70" fill="none" xmlns="http://www.w3.org/2000/svg">
<path fill-rule="evenodd" clip-rule="evenodd" d="M18.4082 3.94265C19.9109 3.94265 21.3718 3.9009 22.5823 3.77568C23.3128 3.69219 23.9807 3.56697 24.5651 3.4L24.6068 3.37913C25.1495 3.23303 25.6295 3.02432 26.0678 2.81562C26.9652 2.35645 27.6331 1.73033 27.967 1.41726L27.9879 1.39639C30.1794 -0.607217 30.1794 -0.607217 30.1794 2.3982V4.86097C30.1794 5.77929 30.1794 6.50977 30.075 7.11503C30.0124 7.46983 29.9289 7.76202 29.8246 8.03335C29.8037 8.11683 29.7619 8.17944 29.7202 8.26293C32.7465 10.9761 34.7501 14.7538 35.0423 19.0741C36.1693 20.3263 36.7746 21.7247 36.7746 23.2065C36.7746 23.2274 36.7746 23.2483 36.7746 23.2691V28.4034C36.7746 28.4869 36.7746 28.5703 36.7746 28.6538C36.7746 28.7373 36.7746 28.8208 36.7746 28.9043V34.1637H36.7328C36.5867 35.3116 36.065 36.4178 35.251 37.3987L32.7882 61.4212C32.7882 61.442 32.7882 61.4629 32.7882 61.4629C32.7882 61.4838 32.7882 61.5047 32.7882 61.5255C32.6213 63.7378 31.0142 65.6788 28.2801 67.0146C25.7339 68.2668 22.2275 69.0391 18.3873 69.0391C14.547 69.0391 11.0407 68.2668 8.49447 67.0146C6.26128 65.9084 3.92373 63.9674 3.96548 61.3794L1.52358 37.3987C0.688741 36.3969 0.166967 35.3116 0.0417419 34.1637H0.0208709V33.9342C0 33.7881 0 33.6628 0 33.5167C0 33.3707 0 33.2454 0.0208709 33.0993V28.6538V23.6239C0 23.4778 0 23.3526 0 23.2065C0 21.7038 0.626128 20.3055 1.73229 19.0741C2.27493 10.9344 8.95363 4.67313 16.9889 4.00526C17.0933 3.96352 17.2185 3.94265 17.3437 3.94265C17.6985 3.94265 18.0534 3.94265 18.3873 3.94265H18.4082Z" fill="white"/>
<path d="M18.4082 3.94263C20.537 3.94263 22.5823 4.33917 24.4607 5.04879C24.1477 5.13227 23.8763 5.2575 23.6259 5.44533C23.0624 5.13227 22.3736 5.06966 21.7475 5.29924C20.7666 4.90269 19.6187 5.23662 18.9925 6.1132L18.9508 6.15495C10.9572 5.84188 3.882 11.9988 3.882 20.1802C3.882 23.3317 4.96729 26.2328 6.76219 28.5912C5.71864 28.3825 5.13425 28.1112 4.0281 28.4451C2.54626 26.0241 1.69055 23.2065 1.69055 20.1802C1.69055 11.0387 9.37105 3.9635 18.3873 3.9635L18.4082 3.94263ZM28.0088 6.9063C32.2456 9.80736 35.084 14.5868 35.084 20.1593C35.084 23.2691 34.1866 26.1702 32.6213 28.6329C31.5986 28.5077 30.5342 28.7999 29.7411 29.5513C29.5115 29.5721 29.2819 29.6139 29.0523 29.6765C31.4316 27.172 32.8926 23.8326 32.8926 20.1593C32.8926 15.5677 30.6594 11.6023 27.2574 9.056C27.8627 8.51336 28.1549 7.69939 27.9879 6.9063H28.0088Z" fill="#151515"/>
<path d="M33.3726 17.5505C35.5432 19.1158 36.8163 21.0568 36.8163 23.1856C36.8163 25.9823 34.6457 28.4451 31.1394 30.1565C27.8627 31.7636 23.3754 32.7654 18.429 32.7654C13.4826 32.7654 8.99538 31.7636 5.71864 30.1565C2.21232 28.4451 0.041748 25.9823 0.041748 23.1856C0.041748 20.8272 1.5862 18.7192 4.15332 17.0913C3.58981 18.0096 3.50632 19.0949 3.81939 20.0759C2.79671 21.0359 2.21232 22.1003 2.21232 23.2065C2.21232 25.1057 3.92374 26.8798 6.65783 28.2364C9.64237 29.6973 13.7957 30.6157 18.4082 30.6157C23.0206 30.6157 27.174 29.7182 30.1585 28.2364C32.83 26.9215 36.0441 24.3126 33.9361 21.1611C34.2492 20.0759 34.0405 18.9071 33.3726 18.0096C33.3726 17.8635 33.3726 17.7174 33.3726 17.5713V17.5505Z" fill="#151515"/>
<path d="M6.1778 61.3377C6.38651 62.8821 8.20228 64.4683 9.47541 65.0945C11.7503 66.2006 14.9018 66.8894 18.4082 66.8894C21.9145 66.8894 25.0869 66.2006 27.3409 65.0945C28.7184 64.4266 30.6385 63.0282 30.6385 61.3377C31.4316 60.8368 31.9534 60.1272 32.2247 59.2297C32.6004 59.9185 32.8091 60.6698 32.8091 61.4629C32.6839 63.717 31.0768 65.6997 28.301 67.0563C25.7547 68.3086 22.2484 69.0808 18.4082 69.0808C14.5679 69.0808 11.0616 68.3086 8.51534 67.0563C5.98996 65.8249 3.33936 63.4874 4.13245 60.3776C4.57074 60.649 5.05077 60.8368 5.5308 60.8994C5.73951 60.9829 5.92735 61.0455 6.13606 61.0872C6.11519 61.3168 6.09432 61.129 6.15693 61.3377H6.1778Z" fill="#151515"/>
<path d="M35.8563 30.407C36.4824 31.3879 36.8163 32.4315 36.8163 33.5168C36.8163 36.3135 34.6457 38.7762 31.1394 40.4876C27.8627 42.0947 23.3754 43.0965 18.429 43.0965C13.4826 43.0965 8.99538 42.0947 5.71864 40.4876C2.21232 38.7762 0.041748 36.3135 0.041748 33.5168C0.041748 32.5149 0.31307 31.5549 0.834843 30.6783C0.897456 31.701 1.41923 32.661 2.2332 33.2872C2.04536 35.7708 4.73771 37.5866 6.6787 38.5466C9.66325 40.0076 13.8166 40.9259 18.429 40.9259C23.0415 40.9259 27.1948 40.0285 30.1794 38.5466C32.9135 37.2109 34.604 35.4369 34.6249 33.5585C35.5432 32.7863 36.0024 31.5966 35.8563 30.407Z" fill="#151515"/>
<path d="M2.21232 23.2692V34.1847H0.041748V23.2692H2.21232Z" fill="#151515"/>
<path d="M36.8163 23.2692V34.1847H34.6458V23.2692H36.8163Z" fill="#151515"/>
<path d="M3.65242 36.6265L6.1778 61.3376L4.00722 61.5464L1.48184 36.8352L3.65242 36.6265Z" fill="#151515"/>
<path d="M35.3345 36.8352L32.83 61.5464L30.6594 61.3376L33.1848 36.6265L35.3345 36.8352Z" fill="#151515"/>
<path d="M17.3646 6.11322C16.7594 6.11322 16.2793 5.63319 16.2793 5.02793C16.2793 4.42268 16.7594 3.94265 17.3646 3.94265C19.2221 3.94265 21.1005 3.94265 22.6032 3.77568C23.3337 3.69219 24.0016 3.56697 24.586 3.4L24.6277 3.37913C25.1703 3.23303 25.6504 3.02432 26.0887 2.81562C26.9861 2.35645 27.654 1.73033 27.9879 1.41726L28.0088 1.39639C30.2002 -0.607217 30.2002 -0.607217 30.2002 2.3982V4.86097C30.2002 5.77929 30.2002 6.50977 30.0959 7.11503C30.0333 7.46983 29.9498 7.76202 29.8454 8.03335C29.7411 8.2838 29.6158 8.51338 29.4698 8.7847C29.3445 9.03515 29.1776 9.30647 28.948 9.61954C28.7184 9.9326 28.4471 10.2665 28.0923 10.6005L28.0297 10.6631C27.3827 11.2683 26.5478 11.7901 25.7339 12.3119L25.6504 12.3536C25.1495 12.6249 24.5233 12.458 24.2103 11.978C23.8972 11.4979 24.0224 10.8509 24.4816 10.517C24.5025 10.4961 24.5233 10.4752 24.5651 10.4544C25.3164 9.97434 26.0678 9.51518 26.5478 9.05602L26.5896 9.01428C26.8191 8.80557 26.9861 8.57599 27.1531 8.36728C27.2992 8.15857 27.4244 7.92899 27.5496 7.72028C27.654 7.53244 27.7375 7.36548 27.8001 7.19851C27.8627 7.05241 27.9044 6.92719 27.9253 6.76022C27.9879 6.3428 27.9879 5.67493 27.9879 4.8401V4.17223C27.7166 4.36006 27.4035 4.5479 27.0696 4.71487C26.527 5.00706 25.9008 5.23664 25.1912 5.44535L25.1495 5.46622C24.4607 5.65406 23.6885 5.80016 22.8328 5.90451C21.184 6.09235 19.2639 6.09235 17.3437 6.09235L17.3646 6.11322Z" fill="black"/>
<path d="M33.3935 23.29C35.5641 24.7718 36.8372 26.6293 36.8372 28.6538C36.8372 31.3044 34.6666 33.6628 31.1603 35.2908C27.8836 36.8143 23.3963 37.7744 18.4499 37.7744C13.5035 37.7744 9.01623 36.8352 5.7395 35.2908C2.23318 33.642 0.0626068 31.3044 0.0626068 28.6538C0.0626068 26.4206 1.60706 24.3961 4.17418 22.8517C3.61066 23.7283 3.52718 24.7718 3.84024 25.6901C2.81757 26.6085 2.23318 27.6103 2.23318 28.6747C2.23318 30.4696 3.9446 32.181 6.67869 33.4541C9.66323 34.8525 13.8165 35.7082 18.429 35.7082C23.0415 35.7082 27.1948 34.8525 30.1794 33.4541C32.8508 32.2019 36.065 29.7182 33.957 26.7128C34.2701 25.6901 34.0613 24.5631 33.3935 23.7074C33.3935 23.5822 33.3935 23.4361 33.3935 23.29Z" fill="#151515"/>
<path d="M5.98996 40.3206C5.92735 39.7154 6.38651 39.1936 6.9709 39.131C7.57615 39.0684 8.09793 39.5275 8.16054 40.1119L9.93457 59.1044C9.99718 59.7097 9.53802 60.2315 8.95363 60.2941C8.34838 60.3567 7.8266 59.8975 7.76399 59.3132L5.98996 40.3206Z" fill="black"/>
<path d="M9.26669 62.9865C9.85455 62.9865 10.3311 62.5099 10.3311 61.9221C10.3311 61.3342 9.85455 60.8577 9.26669 60.8577C8.67883 60.8577 8.20227 61.3342 8.20227 61.9221C8.20227 62.5099 8.67883 62.9865 9.26669 62.9865Z" fill="#151515"/>
<path d="M13.7122 29.8225C14.234 30.1356 14.4009 30.8035 14.0879 31.3252C13.7748 31.847 13.1069 32.014 12.5852 31.7009C10.4355 30.4278 8.72404 28.612 7.57614 26.5249C6.42824 24.417 5.86472 22.0377 5.98995 19.5749C6.03169 18.8653 6.11517 18.1766 6.26127 17.4878C6.40737 16.7991 6.61608 16.1312 6.86653 15.4842C7.07524 14.9207 7.72224 14.6494 8.28575 14.8581C8.84927 15.0668 9.12059 15.7138 8.91188 16.2773C8.70317 16.82 8.5362 17.3835 8.41098 17.947C8.28575 18.5314 8.20227 19.0949 8.1814 19.6793C8.07704 21.7246 8.55707 23.7282 9.49626 25.4605C10.4563 27.2137 11.8756 28.7164 13.6913 29.8017L13.7122 29.8225Z" fill="#151515"/>
<path d="M9.14146 14.1067C9.72932 14.1067 10.2059 13.6302 10.2059 13.0423C10.2059 12.4545 9.72932 11.9779 9.14146 11.9779C8.5536 11.9779 8.07704 12.4545 8.07704 13.0423C8.07704 13.6302 8.5536 14.1067 9.14146 14.1067Z" fill="#151515"/>
<path d="M59.2526 40.9885H57.6872C56.8458 40.9885 56.1637 47.0903 56.1637 54.6172V54.6381C56.1637 62.165 56.8458 68.2668 57.6872 68.2668H59.2526C60.094 68.2668 60.7761 62.165 60.7761 54.6381V54.6172C60.7761 47.0903 60.094 40.9885 59.2526 40.9885Z" fill="white"/>
<path d="M58.4803 39.8616C59.4195 39.8616 60.2752 40.2581 60.9014 40.8634C61.5275 41.4895 61.9032 42.3452 61.9032 43.2844V65.9294C61.9032 66.8685 61.5066 67.7243 60.9014 68.3504C60.2752 68.9765 59.4195 69.3522 58.4803 69.3522C57.5411 69.3522 56.6854 68.9556 56.0593 68.3295C55.4332 67.7034 55.0575 66.8477 55.0575 65.9085V43.2635C55.0575 42.3243 55.454 41.4686 56.0593 40.8425C56.6854 40.2164 57.5411 39.8198 58.4803 39.8198V39.8616ZM59.3152 42.4496C59.1065 42.2409 58.8143 42.0948 58.4803 42.0948C58.1464 42.0948 57.8542 42.22 57.6455 42.4287C57.4368 42.6374 57.2907 42.9505 57.2907 43.2635V65.9085C57.2907 66.2424 57.4159 66.5346 57.6455 66.7433C57.8542 66.952 58.1464 67.0773 58.4803 67.0773C58.8143 67.0773 59.1065 66.952 59.3152 66.7224C59.5239 66.5137 59.67 66.2007 59.67 65.8876V43.2427C59.67 42.9087 59.5447 42.6165 59.3152 42.4078V42.4496Z" fill="black"/>
<path d="M62.7171 1.29199H54.2435C49.7942 1.29199 46.1873 10.6923 46.1873 22.2881C46.1873 33.884 49.7942 43.2843 54.2435 43.2843H62.7171C67.1664 43.2843 70.7733 33.884 70.7733 22.2881C70.7733 10.6923 67.1664 1.29199 62.7171 1.29199Z" fill="white"/>
<path d="M58.4803 0.165039C62.1745 0.165039 65.5347 1.66775 67.9557 4.10964C70.3768 6.53067 71.9003 9.89089 71.9003 13.585V30.9914C71.9003 34.6856 70.3976 38.0249 67.9557 40.4668C65.5347 42.8878 62.1745 44.4114 58.4803 44.4114C54.7862 44.4114 51.426 42.9087 49.0049 40.4668C46.5839 38.0458 45.0603 34.6856 45.0603 30.9914V13.585C45.0603 9.89089 46.563 6.53067 49.0049 4.10964C51.426 1.68862 54.7862 0.165039 58.4803 0.165039ZM58.4803 2.4191C55.4123 2.4191 52.6156 3.67135 50.5911 5.69583C48.5666 7.72031 47.3144 10.517 47.3144 13.585V30.9914C47.3144 34.0594 48.5666 36.8561 50.5911 38.8806C52.6156 40.9051 55.4123 42.1573 58.4803 42.1573C61.5484 42.1573 64.3451 40.9051 66.3695 38.8806C68.394 36.8561 69.6463 34.0594 69.6463 30.9914V13.585C69.6463 10.517 68.394 7.72031 66.3695 5.69583C64.3451 3.67135 61.5484 2.4191 58.4803 2.4191Z" fill="black"/>
<path d="M62.7171 8.90991H54.2435C49.7942 8.90991 46.1873 18.3102 46.1873 29.9061C46.1873 41.5019 49.7942 50.9022 54.2435 50.9022H62.7171C67.1664 50.9022 70.7733 41.5019 70.7733 29.9061C70.7733 18.3102 67.1664 8.90991 62.7171 8.90991Z" fill="white"/>
<path d="M58.4803 7.78284C62.1745 7.78284 65.5347 9.28554 67.9557 11.7274C70.3768 14.1485 71.9003 17.5087 71.9003 21.2028V38.6092C71.9003 42.3033 70.3976 45.6636 67.9557 48.0846C65.5347 50.5056 62.1745 52.0292 58.4803 52.0292C54.7862 52.0292 51.426 50.5265 49.0049 48.0846C46.5839 45.6636 45.0603 42.3033 45.0603 38.6092V21.2028C45.0603 17.5087 46.563 14.1485 49.0049 11.7274C51.426 9.30641 54.7862 7.78284 58.4803 7.78284ZM58.4803 10.0369C55.4123 10.0369 52.6156 11.2892 50.5911 13.3136C48.5666 15.3381 47.3144 18.1348 47.3144 21.2028V38.6092C47.3144 41.6772 48.5666 44.4739 50.5911 46.4984C52.6156 48.5229 55.4123 49.7751 58.4803 49.7751C61.5484 49.7751 64.3451 48.5229 66.3695 46.4984C68.394 44.4739 69.6463 41.6772 69.6463 38.6092V21.2028C69.6463 18.1348 68.394 15.3381 66.3695 13.3136C64.3451 11.2892 61.5484 10.0369 58.4803 10.0369Z" fill="black"/>
<path d="M37.1294 68.8095C44.0569 68.8095 49.6728 63.1936 49.6728 56.2661C49.6728 49.3385 44.0569 43.7227 37.1294 43.7227C30.2018 43.7227 24.5859 49.3385 24.5859 56.2661C24.5859 63.1936 30.2018 68.8095 37.1294 68.8095Z" fill="white"/>
<path d="M37.1294 42.7834C40.8444 42.7834 44.2255 44.2862 46.6674 46.7281C49.1093 49.17 50.612 52.5302 50.612 56.2661C50.612 59.9811 49.1093 63.3622 46.6674 65.8041C44.2255 68.246 40.8653 69.7487 37.1294 69.7487C33.4144 69.7487 30.0333 68.246 27.5914 65.8041C25.1495 63.3622 23.6468 60.002 23.6468 56.2661C23.6468 52.551 25.1495 49.17 27.5914 46.7281C30.0333 44.2862 33.3935 42.7834 37.1294 42.7834ZM45.3317 48.0638C43.2237 45.9558 40.3226 44.6618 37.1294 44.6618C33.9361 44.6618 31.0351 45.9558 28.9271 48.0638C26.8191 50.1718 25.5251 53.0728 25.5251 56.2661C25.5251 59.4593 26.8191 62.3604 28.9271 64.4683C31.0351 66.5763 33.9361 67.8703 37.1294 67.8703C40.3226 67.8703 43.2237 66.5763 45.3317 64.4683C47.4396 62.3604 48.7336 59.4593 48.7336 56.2661C48.7336 53.0728 47.4396 50.1718 45.3317 48.0638Z" fill="black"/>
<path d="M34.3744 63.8422C34.7918 64.0926 34.9379 64.6353 34.6875 65.0527C34.437 65.4701 33.8944 65.6162 33.477 65.3658C31.7447 64.3431 30.3672 62.8821 29.4489 61.1916C28.5305 59.501 28.0714 57.5809 28.1757 55.5982C28.1966 55.0347 28.2801 54.4711 28.4053 53.9285C28.5305 53.3859 28.6975 52.8432 28.8854 52.3214C29.0523 51.8623 29.5741 51.6536 30.0124 51.8205C30.4715 51.9875 30.6803 52.5093 30.5133 52.9476C30.3463 53.3859 30.2002 53.845 30.0959 54.3042C29.9915 54.7633 29.9289 55.2434 29.908 55.7025C29.8245 57.3513 30.2002 58.9584 30.9724 60.3567C31.7447 61.776 32.8926 62.9865 34.3535 63.8631L34.3744 63.8422Z" fill="#151515"/>
<path d="M30.7011 51.1944C31.1737 51.1944 31.5568 50.8113 31.5568 50.3387C31.5568 49.8661 31.1737 49.483 30.7011 49.483C30.2285 49.483 29.8454 49.8661 29.8454 50.3387C29.8454 50.8113 30.2285 51.1944 30.7011 51.1944Z" fill="#151515"/>
<path d="M50.4659 19.3245C51.0538 19.3245 51.5303 18.848 51.5303 18.2601C51.5303 17.6722 51.0538 17.1957 50.4659 17.1957C49.878 17.1957 49.4015 17.6722 49.4015 18.2601C49.4015 18.848 49.878 19.3245 50.4659 19.3245Z" fill="#151515"/>
<path d="M49.5267 22.643C49.5267 22.1213 49.9441 21.7039 50.4659 21.7039C50.9877 21.7039 51.4051 22.1213 51.4051 22.643V38.0041C51.4051 38.5258 50.9877 38.9432 50.4659 38.9432C49.9441 38.9432 49.5267 38.5258 49.5267 38.0041V22.643Z" fill="black"/>
<path d="M58.3342 45.1627C58.856 45.1627 59.2734 45.5802 59.2734 46.1019C59.2734 46.6237 58.856 47.0411 58.3342 47.0411C55.9132 47.0411 53.7009 46.0602 52.1147 44.474C50.5285 42.8878 49.5476 40.6755 49.5476 38.2545V37.9831C49.5684 37.4614 49.9859 37.0648 50.5076 37.0648C51.0294 37.0857 51.426 37.5031 51.426 38.0249V38.2336C51.426 40.1537 52.1982 41.8651 53.4504 43.1174C54.7027 44.3696 56.435 45.1419 58.3342 45.1419V45.1627Z" fill="black"/>
</svg>
