<svg width="73" height="70" viewBox="0 0 73 70" fill="none" xmlns="http://www.w3.org/2000/svg">
<path d="M33.8987 44.2388C34.5224 44.2388 35.0279 43.7332 35.0279 43.1096C35.0279 42.4859 34.5224 41.9803 33.8987 41.9803C33.2751 41.9803 32.7695 42.4859 32.7695 43.1096C32.7695 43.7332 33.2751 44.2388 33.8987 44.2388Z" fill="#151515"/>
<path fill-rule="evenodd" clip-rule="evenodd" d="M44.0838 0H50.6377H71.4951H72.6465V1.15136V7.01887V7.15172L72.6022 7.30671C71.8494 10.1851 71.2294 14.237 70.8087 19.0196C70.5873 21.5437 70.4102 24.2893 70.2994 27.1898C70.4102 30.0904 70.5873 32.8359 70.8087 35.3601C71.2294 40.1648 71.8715 44.1946 72.6022 47.073L72.6465 47.2279V47.3608V53.2283V54.3797H71.4951H50.6377H44.0838H23.2265H22.0751V53.2283V47.3608V47.2279L22.1194 47.073C22.8722 44.1946 23.4922 40.1426 23.9129 35.3601C24.1343 32.8359 24.3114 30.0904 24.4221 27.1898C24.3114 24.2893 24.1343 21.5437 23.9129 19.0196C23.4922 14.2149 22.8501 10.1851 22.1194 7.30671L22.0751 7.15172V7.01887V1.15136V0H23.2265H44.0838Z" fill="white"/>
<path d="M44.0838 0H50.6377H71.4951H72.6465V1.15136V7.01887V7.15172L72.6022 7.30671C71.8494 10.1851 71.2294 14.237 70.8087 19.0196C70.5873 21.5437 70.4102 24.2893 70.2994 27.1898C70.4102 30.0904 70.5873 32.8359 70.8087 35.3601C71.2294 40.1648 71.8715 44.1946 72.6022 47.073L72.6465 47.2279V47.3608V53.2283V54.3797H71.4951H50.6377H44.0838H23.2265H22.0751V53.2283V47.3608V47.2279L22.1194 47.073C22.8722 44.1946 23.4922 40.1426 23.9129 35.3601C24.1343 32.8359 24.3114 30.0904 24.4221 27.1898C24.3114 24.2893 24.1343 21.5437 23.9129 19.0196C23.4922 14.2149 22.8501 10.1851 22.1194 7.30671L22.0751 7.15172V7.01887V1.15136V0H23.2265H44.0838ZM67.9967 27.212C68.1074 24.2671 68.2846 21.4552 68.5281 18.8425C68.971 13.9935 69.5909 9.87514 70.3437 6.90817V2.32486H50.6377H24.3779V6.90817C25.1307 9.89728 25.7728 13.9935 26.1935 18.8425C26.437 21.4552 26.6142 24.2671 26.7249 27.212C26.6142 30.1568 26.437 32.9688 26.1935 35.5815C25.7506 40.4305 25.1307 44.5488 24.3779 47.5158V52.0991H50.6377H70.3437V47.5158C69.5909 44.5267 68.9488 40.4305 68.5281 35.5815C68.2846 32.9688 68.1074 30.1568 67.9967 27.212Z" fill="black"/>
<path d="M57.2359 8.03737C57.8596 8.03737 58.3652 7.5318 58.3652 6.90815C58.3652 6.2845 57.8596 5.77893 57.2359 5.77893C56.6123 5.77893 56.1067 6.2845 56.1067 6.90815C56.1067 7.5318 56.6123 8.03737 57.2359 8.03737Z" fill="#151515"/>
<path d="M24.3779 8.10378C23.7136 8.10378 23.1601 7.55025 23.1601 6.886C23.1601 6.22175 23.7136 5.66821 24.3779 5.66821H53.1397C53.804 5.66821 54.3575 6.22175 54.3575 6.886C54.3575 7.55025 53.804 8.10378 53.1397 8.10378H24.3779Z" fill="black"/>
<path d="M66.8675 48.1579C67.4912 48.1579 67.9967 47.6523 67.9967 47.0286C67.9967 46.405 67.4912 45.8994 66.8675 45.8994C66.2439 45.8994 65.7383 46.405 65.7383 47.0286C65.7383 47.6523 66.2439 48.1579 66.8675 48.1579Z" fill="#151515"/>
<path d="M24.3779 48.2465C23.7136 48.2465 23.1601 47.6929 23.1601 47.0287C23.1601 46.3645 23.7136 45.8109 24.3779 45.8109H63.0149C63.6791 45.8109 64.2327 46.3645 64.2327 47.0287C64.2327 47.6929 63.6791 48.2465 63.0149 48.2465H24.3779Z" fill="black"/>
<path d="M25.4185 22.1637C27.4777 21.8095 29.5147 21.4552 31.8617 21.0566C33.9209 20.7024 35.8472 20.3924 37.4857 20.171C39.1463 19.9274 40.5412 19.7724 41.8918 19.6839C43.2425 19.6174 44.5045 19.6396 45.8773 19.7946C47.2501 19.9496 48.7114 20.2153 50.1285 20.5031C51.4791 20.7909 52.874 21.1452 54.114 21.4552L54.9775 21.6766C56.8817 22.1637 58.3651 22.5623 59.9151 22.7394C60.8229 22.8501 61.7528 22.9165 62.6606 22.8944C63.502 22.8944 64.3212 22.828 65.0298 22.6951C65.7161 22.5623 66.3361 22.363 66.9118 22.1416C67.5317 21.898 68.0631 21.6102 68.5945 21.3445L69.7016 23.4922C69.0817 23.8022 68.4617 24.1343 67.8196 24.3779C67.1332 24.6657 66.3582 24.9093 65.4726 25.0643C64.6312 25.2193 63.6791 25.3078 62.6827 25.3078C61.6642 25.3078 60.6236 25.2635 59.6272 25.1307C57.9223 24.9093 56.3724 24.5107 54.3797 24.0015L53.5161 23.7801C52.3648 23.4922 51.0584 23.1601 49.6192 22.8501C48.2686 22.5623 46.8737 22.3187 45.6116 22.1637C44.3717 22.0309 43.2203 22.0087 42.0025 22.0752C40.7626 22.1416 39.4341 22.2966 37.8178 22.5401C36.1793 22.7837 34.2751 23.0937 32.2381 23.4258C30.4668 23.7136 28.1419 24.1343 25.8171 24.5329L25.3964 22.1416L25.4185 22.1637Z" fill="black"/>
<path d="M25.4407 32.4595H25.4849C29.8247 31.7067 34.1644 30.9317 37.5078 30.4668C39.1684 30.2232 40.5633 30.0682 41.914 29.9796C43.2646 29.9132 44.5267 29.9354 45.8995 30.0904C47.2722 30.2453 48.7336 30.511 50.1506 30.7989C51.5013 31.0867 52.8962 31.441 54.1361 31.751L54.9996 31.9724C56.9038 32.4595 58.3873 32.8359 59.9372 33.0352C60.845 33.1459 61.775 33.2123 62.6828 33.1902C63.5241 33.1902 64.3434 33.1237 65.0519 32.9909C65.7383 32.858 66.3583 32.6588 66.9339 32.4374C67.5539 32.1938 68.0853 31.906 68.6167 31.6403L69.7238 33.788C69.1038 34.098 68.4838 34.4301 67.8417 34.6737C67.1554 34.9615 66.3804 35.205 65.4947 35.36C64.6534 35.515 63.7013 35.6036 62.7049 35.6036C61.6864 35.6036 60.6457 35.5593 59.6494 35.4265C57.9445 35.205 56.3946 34.8065 54.4018 34.2972L53.5383 34.0758C52.3869 33.788 51.0806 33.4559 49.6414 33.1459C48.2907 32.858 46.8958 32.6145 45.6338 32.4595C44.3938 32.3266 43.2425 32.3045 42.0247 32.3709C40.7848 32.4374 39.4563 32.5923 37.8399 32.8359C34.6294 33.3009 30.2675 34.0537 25.9056 34.8286H25.8613L25.4628 32.4374L25.4407 32.4595Z" fill="black"/>
<path fill-rule="evenodd" clip-rule="evenodd" d="M6.31034 18.1118C9.94156 16.3405 14.9234 15.2334 20.4145 15.2334C23.7358 15.2334 26.8799 15.632 29.6475 16.3627C30.8653 15.5656 32.3267 15.0563 33.5887 14.7685L33.7437 14.7463C36.445 14.1706 41.2276 14.2149 41.9804 17.6247V17.6469C42.2682 19.4403 40.9397 20.9017 39.3898 21.8981C40.2312 23.0273 40.7405 24.2672 40.8069 25.5736H40.829V30.5554C40.829 32.1053 40.2091 33.5667 39.102 34.873L36.3786 61.5536C36.2015 64.0113 34.4301 66.1812 31.3746 67.6868C28.5405 69.0817 24.6657 69.9452 20.3924 69.9452C16.1412 69.9452 12.2443 69.0817 9.41016 67.6868C6.93031 66.469 4.36189 64.3213 4.40617 61.4429L1.68276 34.8287C0.774955 33.7438 0.199274 32.526 0.0442831 31.2639H0.0221416V30.9982C0 30.8432 0 30.6883 0 30.5333C0 30.3783 0 30.2233 0.0221416 30.0683V26.3928C0 26.2378 0 26.0828 0 25.9278V25.8171C0.0442831 22.7616 2.45771 20.0603 6.2882 18.1783L6.31034 18.1118Z" fill="white"/>
<path d="M40.8069 25.5514H40.829V30.5333C40.829 32.0832 40.2091 33.5445 39.102 34.8509L36.3786 61.5315C36.2015 63.9892 34.4301 66.1591 31.3746 67.6647C28.5405 69.0596 24.6657 69.9231 20.3924 69.9231C16.1412 69.9231 12.2443 69.0596 9.41016 67.6647C6.93031 66.4469 4.36189 64.2992 4.40617 61.4208L1.68276 34.8066C0.774955 33.7217 0.199274 32.5039 0.0442831 31.2418H0.0221416V30.9761C0 30.8211 0 30.6661 0 30.5111C0 30.3562 0 30.2012 0.0221416 30.0462V26.3707C0 26.2157 0 26.0607 0 25.9057V25.795C0.0442831 22.7395 2.45771 20.0382 6.2882 18.1562C9.91942 16.3848 14.9013 15.2778 20.3924 15.2778C23.7136 15.2778 26.8577 15.6763 29.6254 16.407C30.8432 15.6099 32.3045 15.1006 33.5666 14.8128L33.7216 14.7906C36.4229 14.215 41.2054 14.2592 41.9583 17.669V17.6912C42.2461 19.4847 40.9176 20.946 39.3677 21.9424C40.2091 23.0716 40.7183 24.3115 40.7848 25.6179L40.8069 25.5514ZM10.2515 60.7787C10.9158 60.7787 11.4472 61.3101 11.4472 61.9743C11.4472 62.6385 10.9158 63.1699 10.2515 63.1699C9.5873 63.1699 9.0559 62.6385 9.0559 61.9743C9.0559 61.3101 9.5873 60.7787 10.2515 60.7787ZM9.18875 39.3899L11.0044 58.8523C11.0708 59.5166 10.5837 60.0923 9.91942 60.1587C9.25517 60.2251 8.67949 59.738 8.61307 59.0738L6.68675 38.3714C6.57604 38.3271 6.46534 38.2607 6.33249 38.2164C5.62396 37.8621 4.98185 37.5079 4.36189 37.1093L6.79746 61.0222V61.0665L6.8196 61.3101C7.06316 63.015 9.0559 64.7641 10.473 65.4727C12.975 66.7126 16.4955 67.4654 20.3924 67.4654C24.2893 67.4654 27.7877 66.7126 30.3118 65.4727C31.8396 64.7199 33.9652 63.1699 33.9652 61.3101L36.4229 37.1315C35.825 37.5079 35.1829 37.8843 34.4965 38.2164C30.8653 39.9877 25.8835 41.0948 20.3924 41.0948C16.2298 41.0948 12.3771 40.4527 9.1666 39.3678L9.18875 39.3899ZM33.6773 27.1013C34.1644 26.6364 34.9172 26.6585 35.3822 27.1235C35.8472 27.6106 35.825 28.3634 35.3601 28.8284C34.0759 30.0683 31.9281 31.0647 29.2711 31.7289C26.7249 32.371 23.6472 32.7474 20.4367 32.7474C16.1191 32.7474 12.2 32.0832 9.3216 31.0204C6.08893 29.8248 4.09619 28.0313 4.09619 25.9278C4.09619 25.2415 4.3176 24.5551 4.73829 23.913C5.1147 23.3373 5.6461 22.8059 6.35463 22.3188C6.90817 21.9424 7.66098 22.0752 8.03739 22.6066C8.41379 23.1602 8.28094 23.913 7.74955 24.2894C7.30671 24.5994 6.97459 24.9315 6.75318 25.2415C6.59818 25.485 6.50962 25.7064 6.50962 25.9278C6.50962 26.9242 7.90454 27.9427 10.1408 28.762C12.7314 29.7362 16.3626 30.334 20.3924 30.334C23.4036 30.334 26.2599 30.0019 28.629 29.3819C30.8875 28.8062 32.6588 28.0092 33.633 27.0792L33.6773 27.1013ZM9.91942 20.5917C10.5837 20.5917 11.1151 21.1231 11.1151 21.7874C11.1151 22.4516 10.5837 22.983 9.91942 22.983C9.25517 22.983 8.72377 22.4516 8.72377 21.7874C8.72377 21.1231 9.25517 20.5917 9.91942 20.5917ZM32.9909 17.4255L32.9466 17.4476L32.9024 17.4698L32.8581 17.4919H32.8359H32.8138L32.7695 17.5141L32.7252 17.5362H32.7031L32.6809 17.5583L32.6367 17.5805H32.6145L32.5702 17.6026L32.526 17.6248H32.5038L32.4374 17.6469L32.3931 17.669H32.371L32.3267 17.6912L32.3045 17.7133H32.2824L32.2381 17.7355L32.1938 17.7576H32.1717L32.1495 17.7798L32.1053 17.8019L32.061 17.824L32.0167 17.8462L31.9946 17.8683H31.9724L31.9281 17.8905L31.8838 17.9126H31.8617L31.8396 17.9347L31.8174 17.9569H31.7953L31.751 17.979L31.6846 18.0012L31.6624 18.0233L31.6181 18.0455L31.5739 18.0676L31.5296 18.0897L31.5074 18.1119H31.4853L31.441 18.134L31.3967 18.1562H31.3746L31.3524 18.1783L31.3082 18.2004L31.2639 18.2226L31.1975 18.2669L31.1753 18.289L31.131 18.3111L31.0867 18.3333H31.0646L31.0425 18.3554L31.0203 18.3776H30.9982L30.9539 18.3997L30.8432 18.4883L30.7989 18.5104L30.7768 18.5326L30.7546 18.5547L30.7325 18.5768C30.6882 18.6211 30.6439 18.6433 30.5775 18.6876L30.5332 18.7097C30.4889 18.754 30.4225 18.7983 30.3782 18.8425L30.3561 18.8647L30.3339 18.8868C30.3118 18.909 30.2675 18.9533 30.2454 18.9754H30.2232C29.3818 18.7318 28.5405 18.5104 27.6991 18.3333V18.3554L27.7212 18.3333C25.5071 17.8683 23.0715 17.6248 20.5252 17.6248C15.4105 17.6248 10.8051 18.6211 7.48385 20.2596C6.19964 20.8796 5.13684 21.6102 4.3176 22.3631V22.3852C3.18838 23.448 2.54628 24.6215 2.54628 25.8393H2.56842V26.1714C2.67913 27.2563 3.29909 28.3191 4.3176 29.2712V29.2934C5.13684 30.0683 6.19964 30.7768 7.48385 31.3968C10.7829 33.0131 15.4105 34.0317 20.5252 34.0317C25.6399 34.0317 30.2454 33.0353 33.5666 31.3968C35.0944 30.644 36.7993 29.5148 37.7514 28.0977C38.2385 27.367 38.482 26.6807 38.5042 25.9943V25.95V25.8836C38.5042 25.1529 38.2828 24.3558 37.7514 23.5587C37.6185 23.3594 37.4414 23.138 37.2864 22.9387C36.6221 22.2302 35.8693 21.6102 35.0501 21.0788H35.0722H35.1165H35.1387L35.2715 21.0567L35.3822 21.0346H35.4044L35.4486 21.0124H35.4708H35.5151L35.5815 20.9903L35.6258 20.9681H35.6479H35.6922H35.7143H35.7586H35.8029H35.825H35.8693H35.8915L35.9357 20.946H35.9579H36.0022H36.0465H36.0686L36.1129 20.9239H36.135H36.1572L36.2015 20.9017H36.2236L36.2679 20.8796L36.3122 20.8574H36.3343L36.3786 20.8353H36.4007H36.4229L36.4671 20.8131H36.4893L36.5336 20.791L36.5779 20.7689H36.6L36.6443 20.7467H36.6664H36.6886L36.7328 20.7246H36.755H36.7771L36.8214 20.7024L36.8436 20.6803L36.8657 20.6582L36.91 20.636H36.9321H36.9543L36.9985 20.6139H37.0207L37.0871 20.5917L37.1093 20.5696L37.1314 20.5474L37.1757 20.5253H37.1978L37.2421 20.5032H37.2642H37.2864L37.3307 20.481L37.3528 20.4589L37.375 20.4367L37.4192 20.4146H37.4414L37.4635 20.3925L37.5078 20.3703C37.5964 20.326 37.6849 20.2817 37.7956 20.2153C38.1499 20.016 38.5042 19.7946 38.8142 19.5289C40.1869 18.3997 40.0098 17.6026 38.2828 17.1598C37.1978 16.8719 35.7808 16.8719 34.2309 17.2262C33.8544 17.3148 33.478 17.4033 33.0795 17.5362L32.9909 17.4255ZM38.3713 30.9983C37.3528 31.9725 36.0686 32.8582 34.5408 33.5888C30.9096 35.3601 25.9278 36.4672 20.4367 36.4672C14.9677 36.4672 9.9637 35.3601 6.33249 33.5888C4.80472 32.836 3.49837 31.9725 2.502 30.9983C2.83412 33.3453 5.46897 35.0945 7.39528 36.0465C10.6944 37.6629 15.322 38.6814 20.4367 38.6814C25.5514 38.6814 30.1568 37.685 33.478 36.0465C36.2679 34.6738 38.1056 32.9024 38.3713 30.9983Z" fill="#151515"/>
</svg>
