<svg class="icon-roket" width="73" height="73" viewBox="0 0 73 73" fill="none" xmlns="http://www.w3.org/2000/svg">
<path fill-rule="evenodd" clip-rule="evenodd" d="M30.9072 32.8206V32.2319C32.3577 32.2642 35.3785 33.6787 40.3864 32.5859C42.3318 32.1614 41.8165 31.7391 42.2399 33.5565C37.9123 35.8464 35.092 35.8487 30.7601 33.5565C30.837 33.2264 30.9072 33.2182 30.9072 32.8207V32.8206ZM32.0847 8.24198C32.8127 8.43637 35.335 10.27 39.0608 9.03664C40.1482 8.67671 40.602 8.32565 40.9153 8.24198C43.0318 12.2419 43.6019 18.6217 44.0019 23.2581L44.5948 28.6997C39.4832 31.1523 33.523 31.1553 28.4052 28.6997C28.4052 27.9075 28.6261 26.8501 28.6955 26.0464C28.7786 25.083 28.9149 24.2216 28.998 23.2582C29.3989 18.6125 29.9659 12.2463 32.0847 8.24203V8.24198ZM46.508 23.2541C48.5717 23.7349 51.0738 25.7453 51.6593 28.2581H46.9496C46.9496 26.4501 46.508 24.9692 46.508 23.2541H46.508ZM26.0504 28.2581H21.3407C21.6852 26.7793 22.262 26.0457 23.2142 25.1276C23.8706 24.4945 25.522 23.48 26.4919 23.2541C26.4919 24.9692 26.0504 26.4501 26.0504 28.2581V28.2581ZM21.1935 23.5484H12.2157C10.5616 23.5484 9.4291 23.0371 8.56873 22.1914C8.11948 21.7497 7.77439 21.3343 7.50197 20.7561C6.55727 18.7513 7.33019 16.5058 8.87149 15.2002C10.4374 13.8737 11.6371 14.2763 12.8044 14.2763C13.1241 14.2763 13.36 12.7225 13.9309 11.5762C16.2513 6.91731 22.7301 5.3034 27.0455 9.60175C29.027 11.5755 28.0545 11.1639 27.4583 15.2427C27.2539 16.6415 27.0323 18.2142 26.9441 19.5853C26.8298 21.3622 25.9753 20.255 22.6332 22.486C21.7809 23.055 21.6148 23.5484 21.1935 23.5484ZM11.1854 11.7742C9.44657 11.7742 8.28376 12.6753 7.21164 13.3932C5.97704 13.1055 5.04713 11.4711 4.80471 10.0533C4.32951 7.27335 6.84683 4.12718 10.5603 4.89298C11.7788 5.14427 13.4072 6.44999 13.6875 7.65327C13.2464 8.31191 12.7791 8.77533 12.3012 9.50494C11.9671 10.0151 11.3213 11.1912 11.1854 11.7742V11.7742ZM39.7379 6.03432C37.9504 6.98006 36.8399 7.36781 34.763 6.74098C34.1712 6.56236 33.7813 6.30904 33.262 6.03432C35.0084 3.42626 35.9965 1.00619 37.9387 3.41805C38.8092 4.49904 39.0248 4.96953 39.7378 6.03432H39.7379ZM29.4354 8.38917C28.8483 8.2324 29.0282 8.15431 28.5364 7.6692L27.9279 7.10031C26.6509 5.91226 23.93 4.7097 21.9294 4.7097C16.9998 4.7097 17.2028 5.80822 15.6008 6.18146C15.3673 5.17948 14.2474 4.17531 13.4804 3.59213C9.14791 0.298107 2.3548 3.77393 2.3548 8.83064V10.0081C2.3548 12.1741 4.17624 14.5569 5.59269 15.3065C3.42774 19.3979 5.37902 24.0859 9.25047 25.4834C11.1986 26.1867 17.0867 25.9032 19.5746 25.9032C18.9841 28.4378 18.8387 26.352 18.8387 30.613H26.4919C27.1619 30.613 27.8476 31.2779 28.6996 31.3489C28.5022 32.196 28.1838 33.8579 28.1109 34.7339C33.9954 38.6743 39.0144 38.6678 44.8891 34.7339L44.3004 31.3489C45.1523 31.2779 45.838 30.613 46.5081 30.613H54.1613C54.1613 28.5864 54.2692 27.5727 53.3018 25.7325C51.27 21.8672 47.1384 21.0266 46.4979 20.6149C45.9858 20.2858 46.0876 19.8051 45.9623 18.7957C45.2242 12.8497 44.7183 8.73683 40.9168 3.3835C39.4701 1.34603 38.8083 0 36.2056 0C33.919 0 31.583 3.86762 30.6109 5.73802C30.3136 6.31003 29.4901 7.73163 29.4354 8.38917V8.38917Z" fill="#4F4F4F"/>
<path fill-rule="evenodd" clip-rule="evenodd" d="M47.0958 60.49C47.2254 59.7119 49.3138 54.7297 49.7685 53.5955C52.0428 47.9227 58.76 48.1118 60.867 53.4904C61.3326 54.679 61.7901 55.7997 62.2541 56.96C62.6082 57.8455 63.4387 59.6247 63.5813 60.49C64.4551 62.1498 66.8369 69.0111 67.7016 70.6452H42.9758L46.0242 63.0969C46.3665 62.2417 46.7074 61.2296 47.0957 60.49H47.0958ZM9.41858 58.1351C9.56238 56.7098 11.4788 51.6994 12.0402 50.0117C12.579 48.3916 12.787 47.4472 13.8326 46.3588C15.8578 44.2507 19.217 44.1673 21.4023 46.2997C22.5033 47.3741 22.6854 48.2185 23.2456 49.9019C23.8209 51.631 25.7566 56.6881 25.9041 58.1352L30.0885 70.6238L5.29836 70.6452L9.41853 58.1352L9.41858 58.1351ZM2.64918 70.6452H0V73H73V70.6452C70.4429 70.6452 70.4148 70.8932 70.0647 70.0483C68.5751 66.4546 63.261 52.2977 62.0449 50.5458C58.9099 46.0293 52.1169 45.8734 48.7556 50.3745C48.0018 51.3839 47.7022 52.28 47.2017 53.5303C46.7159 54.7441 46.3003 55.7861 45.8145 56.9999C44.8803 59.3339 44.0149 61.4988 43.0807 63.8328C42.6077 65.0145 42.212 66.0057 41.7354 67.1971C41.4897 67.8113 41.2888 68.3137 41.0625 68.8791C40.835 69.4475 40.6013 70.1261 40.3266 70.6452H32.6734C32.303 69.0551 25.0894 47.6702 24.5803 46.6536C21.6847 40.8697 13.566 41.0278 10.791 46.5551C9.94438 48.2413 4.92058 63.758 3.99252 66.543C3.56535 67.825 2.94554 69.3733 2.64923 70.6452L2.64918 70.6452Z" fill="#4F4F4F"/>
<path fill-rule="evenodd" clip-rule="evenodd" d="M29.4355 49.746C29.4355 52.2165 33.7582 52.6908 34.1331 49.8811C34.2928 48.6846 34.0045 47.0255 34.1774 45.8044C34.578 42.9741 37.784 43.0753 38.6052 44.9916C39.3189 46.657 38.6333 54.1858 38.8542 56.8111C39.104 59.7784 43.5645 59.3127 43.5645 56.8105V38.8549H29.4355V49.746V49.746Z" fill="#F2994A"/>
<path fill-rule="evenodd" clip-rule="evenodd" d="M9.41858 58.1351C12.6992 59.8657 14.097 58.4819 15.8362 55.8685C17.3183 53.6413 17.916 53.5095 19.4275 55.7803C20.639 57.6005 22.1468 59.652 24.7148 58.7129C25.1645 58.5484 25.432 58.2608 25.9041 58.1352C25.7566 56.6882 23.8209 51.631 23.2456 49.9019C22.6855 48.2185 22.5034 47.3741 21.4024 46.2997C19.217 44.1673 15.8579 44.2507 13.8326 46.3588C12.787 47.4472 12.579 48.3916 12.0402 50.0117C11.4788 51.6994 9.56243 56.7098 9.41863 58.1351H9.41858Z" fill="#F2994A"/>
<path fill-rule="evenodd" clip-rule="evenodd" d="M47.0958 60.49C52.8199 63.5063 53.057 56.5402 55.3387 56.5402C57.1253 56.5402 57.5942 60.9586 60.7879 61.2262C62.5749 61.3759 62.8033 60.6972 63.5814 60.49C63.4388 59.6248 62.6083 57.8456 62.2542 56.9601C61.7902 55.7998 61.3327 54.6791 60.867 53.4905C58.7601 48.1118 52.0428 47.9227 49.7685 53.5956C49.3139 54.7297 47.2254 59.7119 47.0958 60.49L47.0958 60.49Z" fill="#F2994A"/>
<path fill-rule="evenodd" clip-rule="evenodd" d="M31.7903 18.5444C31.7903 21.6005 33.9514 23.5484 36.0585 23.5484C37.5872 23.5484 38.6552 23.3922 39.8544 22.1931C41.6848 20.3626 41.6848 17.3149 39.8544 15.4844C36.9507 12.5807 31.7903 14.6427 31.7903 18.5444V18.5444Z" fill="#F2994A"/>
<path fill-rule="evenodd" clip-rule="evenodd" d="M15.4536 13.8347C15.7563 13.98 17.3814 14.3879 17.8085 14.4234C18.2648 13.4723 18.1033 13.3568 18.9456 12.617C20.6659 11.106 22.4772 12.1634 23.1068 12.2158C23.2966 11.4012 23.9473 10.9698 24.1371 10.1553C20.4979 8.22967 16.2986 10.2077 15.4536 13.8347V13.8347Z" fill="#4F4F4F"/>
</svg>
