<svg class="youTube" width="85" height="85" viewBox="0 0 85 85" fill="none" xmlns="http://www.w3.org/2000/svg">
  <path fill-rule="evenodd" clip-rule="evenodd" d="M49.4892 68.3095L24.7654 67.9498C22.684 67.7124 20.3254 65.6796 19.7292 62.9864C19.035 59.8506 19.3108 48.927 19.4908 45.0905C19.6088 42.574 20.4991 40.6018 22.5465 39.333C23.4723 38.7593 24.5763 38.4252 25.9394 38.3193C26.6303 38.2656 27.437 38.3263 28.141 38.3177C29.0823 38.3061 29.2198 38.1463 30.1613 38.1347L43.3879 37.9717C45.0111 37.9681 45.9745 38.1436 47.6247 38.1415L54.2414 38.1347C55.1828 38.1463 55.3204 38.306 56.2617 38.3177C58.1598 38.3411 58.7313 38.1968 60.2775 38.7085C64.1605 39.9938 64.7797 43.7462 64.7455 47.4602C64.7312 49.0095 64.9121 50.1696 64.9121 51.8696C64.9121 53.9811 64.8322 61.2511 64.397 63.2183C63.678 66.4685 60.6782 68.1419 57.2911 68.1458C54.5592 68.1489 52.3093 68.3094 49.4891 68.3094L49.4892 68.3095ZM48.1333 32.5486V21.0237H50.845V31.8707C50.845 34.6174 53.3873 32.5197 53.3873 31.8707V21.0237H56.099V35.5993H53.3873V34.2435C52.8983 34.374 48.1333 38.989 48.1333 32.5486V32.5486ZM37.7948 32.3791V24.4134C37.7948 19.2479 45.7605 19.4806 45.7605 24.4134V32.2096C45.7605 35.5482 42.6013 36.7287 40.0125 35.7543C38.9193 35.3428 37.7948 33.8559 37.7948 32.3791ZM27.4563 15.7697H30.507C31.1269 18.4305 31.9141 21.0456 32.5407 23.7355H32.8797C32.9002 22.812 34.4067 17.2174 34.7439 15.7697H37.7946L35.9914 21.7627C33.6619 29.68 34.2355 25.9659 34.2355 35.5993H31.1848C31.1848 25.443 31.668 30.1629 29.3919 22.1386L27.4561 15.7698L27.4563 15.7697ZM0 42.0396C0 54.7647 5.61355 65.0253 12.0756 71.4873C17.5242 76.9359 24.0548 80.8973 31.6253 82.7836C45.0525 86.1291 58.6899 82.9896 69.0321 74.2939L70.9724 72.5055C72.7767 70.9171 71.7629 71.7162 72.9168 70.5519C75.9415 67.4998 78.1773 63.8151 80.1111 59.9504C82.0562 56.063 84.0637 49.3053 84.0637 43.565C84.0637 35.7347 83.1631 30.4914 80.0547 24.0157C77.0052 17.6624 71.7617 11.3265 65.9296 7.46439C64.9289 6.80177 63.9432 6.08376 62.8219 5.48745C61.5311 4.80102 60.677 4.34223 59.3219 3.73347C48.3272 -1.20575 35.6173 -1.30268 24.6307 3.79195C9.85444 10.6439 0 25.2682 0 42.0396V42.0396Z" fill="white"/>
  <path fill-rule="evenodd" clip-rule="evenodd" d="M45.7606 60.0044V51.5303C45.7606 50.606 47.9639 50.0394 47.9639 51.6997C47.9639 53.7371 48.1738 59.2233 47.7944 60.8518C47.1312 61.0064 45.7606 60.9114 45.7606 60.0044H45.7606ZM42.8793 43.5645V62.7162C42.8793 63.498 43.8321 63.2246 45.7606 63.2246V62.2076C46.5878 62.7616 47.0564 63.3941 48.4723 63.3941C50.1757 63.3941 51.0145 61.887 51.0145 60.1739V51.6997C51.0145 49.8329 50.1507 48.1406 48.3028 48.1406C47.0393 48.1406 46.4619 49.0269 45.7606 49.4965V43.0561C43.8321 43.0561 42.8793 42.7827 42.8793 43.5645V43.5645Z" fill="white"/>
  <path fill-rule="evenodd" clip-rule="evenodd" d="M55.9296 52.5477C55.9296 51.8857 56.0595 51.2884 56.2685 50.8529C57.3415 50.6029 56.8903 50.6029 57.9633 50.8529C58.4313 51.8281 58.3023 52.4959 58.3023 53.734H55.9295V52.5477H55.9296ZM53.0483 51.8698V59.4965C53.0483 64.9111 61.1835 64.9408 61.1835 59.666V57.8017H58.3023C58.3023 60.4353 58.4536 60.8524 56.777 60.8524C55.602 60.8524 55.9296 57.2583 55.9296 56.1069H61.1835C61.1835 52.8327 62.0209 47.9717 57.2854 47.9717C55.9372 47.9717 55.0762 48.4113 54.3553 49.1092C53.705 49.7389 53.0483 50.6651 53.0483 51.8698V51.8698Z" fill="white"/>
  <path fill-rule="evenodd" clip-rule="evenodd" d="M32.3714 61.1913C32.3714 63.5229 34.2532 63.8958 36.0349 62.821C36.7166 62.4097 36.9113 62.0644 37.4559 61.6998V63.2251H40.3371V48.3105H37.4559V59.327C37.4559 59.8967 36.418 60.5144 36.1522 60.5782C36.119 60.5861 36.0679 60.5982 36.0352 60.6019C35.0439 60.7121 35.2147 60.1119 35.1624 59.9256C34.9706 59.2421 35.0831 49.7868 35.0831 48.3105H32.3714V61.1912V61.1913Z" fill="white"/>
  <path fill-rule="evenodd" clip-rule="evenodd" d="M22.7108 43.5651V46.1074H25.931V62.7167C25.931 63.5261 27.0657 63.2251 29.1512 63.2251V46.1073H32.3713V43.0566H23.2192C22.8286 43.0566 22.7108 43.1746 22.7108 43.565L22.7108 43.5651Z" fill="white"/>
  <path fill-rule="evenodd" clip-rule="evenodd" d="M40.5066 24.7518V31.8701C40.5066 34.225 43.0488 34.1289 43.0488 31.8701V24.7518C43.0488 22.5021 40.5066 22.5019 40.5066 24.7518V24.7518Z" fill="white"/>
</svg>
