<svg class='icone--instagram' width="40" height="40" viewBox="0 0 40 40" fill="none" xmlns="http://www.w3.org/2000/svg">
<path d="M19.9998 0C31.0453 0 39.9995 8.954 39.9995 19.9998C39.9995 31.0453 31.0453 39.9995 19.9998 39.9995C8.95422 39.9995 0 31.0453 0 19.9998C0 8.954 8.95422 0 19.9998 0ZM19.9998 7.40738C16.5797 7.40738 16.1509 7.42189 14.8078 7.48328C13.4677 7.54445 12.5522 7.75698 11.7512 8.0684C10.923 8.39031 10.2209 8.82072 9.52081 9.52081C8.82072 10.2209 8.39009 10.923 8.0684 11.7512C7.7572 12.552 7.54423 13.4673 7.48328 14.8076C7.42189 16.1511 7.40738 16.5795 7.40738 19.9995C7.40738 23.4194 7.42189 23.8485 7.48328 25.1915C7.54423 26.5316 7.75742 27.4471 8.0684 28.2479C8.39009 29.0761 8.82072 29.7782 9.52081 30.4781C10.2209 31.1781 10.9232 31.6088 11.7512 31.9309C12.5522 32.2421 13.4677 32.4551 14.8078 32.516C16.1509 32.5774 16.5797 32.5919 19.9998 32.5919C23.4196 32.5919 23.8482 32.5774 25.1915 32.516C26.5318 32.4549 27.4473 32.2419 28.2483 31.9309C29.0766 31.6088 29.7786 31.1784 30.4787 30.4781C31.1786 29.7782 31.6095 29.0759 31.9311 28.2479C32.2423 27.4471 32.4553 26.5316 32.5165 25.1915C32.5779 23.8482 32.5924 23.4194 32.5924 19.9995C32.5924 16.5797 32.5779 16.1511 32.5165 14.8076C32.4553 13.4673 32.2423 12.552 31.9311 11.7512C31.6095 10.923 31.1786 10.2209 30.4787 9.52081C29.7786 8.8205 29.0763 8.39009 28.2483 8.0684C27.4473 7.75698 26.532 7.54423 25.1915 7.48328C23.8482 7.42189 23.4196 7.40738 19.9998 7.40738V7.40738ZM28.2325 13.2777C28.2325 14.1124 27.5561 14.7889 26.7218 14.7889C25.8871 14.7889 25.2107 14.1124 25.2107 13.2777C25.2107 12.443 25.8871 11.7666 26.7218 11.7666C27.5561 11.7666 28.2325 12.443 28.2325 13.2777ZM19.9998 24.1972C17.6816 24.1972 15.8022 22.3179 15.8022 19.9995C15.8022 17.6814 17.6816 15.8019 19.9998 15.8019C22.3179 15.8019 24.1974 17.6814 24.1974 19.9995C24.1974 22.3177 22.3181 24.1972 19.9998 24.1972ZM19.9998 13.5334C16.4286 13.5334 13.5336 16.4284 13.5336 19.9995C13.5336 23.5707 16.4286 26.466 19.9998 26.466C23.571 26.466 26.466 23.571 26.466 19.9995C26.466 16.4284 23.571 13.5334 19.9998 13.5334V13.5334ZM19.9998 9.67619C23.362 9.67619 23.7603 9.68891 25.0883 9.74941C26.3159 9.80567 26.9825 10.0106 27.4264 10.1832C28.0141 10.4115 28.4336 10.6846 28.8743 11.125C29.315 11.5657 29.5878 11.9852 29.8162 12.5727C29.9885 13.0166 30.1937 13.6831 30.2499 14.911C30.3104 16.239 30.3231 16.6371 30.3231 19.9995C30.3231 23.362 30.3104 23.7601 30.2499 25.0881C30.1937 26.3157 29.9885 26.9825 29.8162 27.4261C29.5878 28.0139 29.3148 28.4336 28.8743 28.8741C28.4336 29.3148 28.0141 29.5876 27.4264 29.8159C26.9825 29.9883 26.3159 30.1937 25.0883 30.2495C23.7605 30.3102 23.3625 30.3229 19.9998 30.3229C16.6371 30.3229 16.239 30.3102 14.9112 30.2495C13.6838 30.1939 13.0168 29.9885 12.5732 29.8159C11.9854 29.5876 11.5659 29.3145 11.1252 28.8741C10.6846 28.4336 10.4118 28.0139 10.1834 27.4261C10.011 26.9825 9.80589 26.3157 9.74963 25.0881C9.68913 23.7603 9.67641 23.362 9.67641 19.9995C9.67641 16.6373 9.68913 16.239 9.74963 14.911C9.80589 13.6831 10.0108 13.0166 10.1834 12.5727C10.4118 11.9852 10.6846 11.5657 11.1252 11.125C11.5659 10.6846 11.9854 10.4115 12.5732 10.1832C13.0168 10.0106 13.6838 9.80567 14.9112 9.74941C16.2393 9.68891 16.6373 9.67619 19.9998 9.67619Z" fill="#F2994A"/>
</svg>
