<svg class='icone--ok' width="40" height="40" viewBox="0 0 40 40" fill="none" xmlns="http://www.w3.org/2000/svg">
<path fill-rule="evenodd" clip-rule="evenodd" d="M13.0425 23.0409C13.0425 22.4168 13.4176 21.7388 14.0114 21.4891C14.7186 21.1918 15.1417 21.306 15.8264 21.6489C20.6301 24.055 24.5268 21.3028 25.2154 21.3028C27.0543 21.3028 27.6585 23.8126 25.8094 24.6775C25.3295 24.902 24.2093 25.4277 23.6503 25.4742C23.8716 26.3026 26.9544 28.1599 26.9544 29.5587C26.9544 30.4488 26.1059 31.2968 25.2154 31.2968C24.2744 31.2968 23.3015 30.0356 22.4548 29.1893L19.9985 26.7777L16.3248 30.4059C15.9274 30.8035 15.5448 31.2967 14.7815 31.2967C13.8909 31.2967 13.0425 30.4487 13.0425 29.5586C13.0425 28.6163 14.0213 27.9285 14.5424 27.4077C14.8931 27.0572 16.2518 25.8288 16.3466 25.4741C15.7577 25.4251 14.0215 24.7539 13.4525 24.1083C13.2873 23.9209 13.0425 23.3217 13.0425 23.0407L13.0425 23.0409ZM17.39 12.7861V13.3075C17.39 14.4276 18.617 15.654 19.7375 15.654H20.2592C21.3798 15.654 22.6068 14.4276 22.6068 13.3075V12.7861C22.6068 11.666 21.3798 10.4396 20.2592 10.4396H19.7375C18.617 10.4396 17.39 11.666 17.39 12.7861ZM13.9119 13.0468C13.9119 12.1724 14.1975 11.2181 14.4695 10.5624C14.9872 9.31485 16.2645 8.03802 17.5127 7.52071C19.2843 6.78636 20.7125 6.78636 22.4841 7.52071C23.1887 7.8128 23.7851 8.27112 24.2808 8.76655C28.8809 13.3643 23.9363 21.2354 17.5127 18.5728C15.4183 17.7048 13.9119 15.3471 13.9119 13.0468V13.0468ZM6.19757e-05 19.3909C6.19757e-05 23.5194 0.431289 24.9499 1.8382 28.4168C2.1451 29.1733 3.13374 30.8361 3.62744 31.4952C3.83122 31.7672 3.92765 31.9269 4.14643 32.1931C4.86311 33.0653 4.90953 33.2057 5.84735 34.143C6.85495 35.1501 7.36334 35.5242 8.44729 36.3242C10.021 37.4857 12.2507 38.5797 14.153 39.1381C18.2411 40.3382 22.671 40.3182 26.7045 38.8687C28.2203 38.3241 30.2166 37.3222 31.5002 36.3618L32.8879 35.3156C34.0914 34.2369 34.227 34.0458 35.2805 32.9271C35.4877 32.707 35.6237 32.4744 35.8113 32.2409L36.8298 30.8256C37.0039 30.5399 37.1552 30.3241 37.2978 30.0767C38.1352 28.624 38.2774 28.1845 38.841 26.7525C40.3611 22.8901 40.4027 17.1657 38.8664 13.3074C38.7529 13.0221 38.6396 12.6915 38.5321 12.4248C38.3979 12.0914 38.2943 11.9159 38.1585 11.5815C37.9294 11.017 37.6325 10.5249 37.3287 9.97768C36.0745 7.71873 34.2441 5.79803 32.2463 4.19435C31.2841 3.42201 29.6014 2.33458 28.4827 1.87268C26.7584 1.16089 26.8133 1.10077 24.898 0.588849C21.8723 -0.21981 18.2129 -0.170974 15.1812 0.584449L12.4201 1.47473C11.0322 2.03369 10.4488 2.41112 9.22069 3.14368L7.10874 4.68278C5.3733 6.23825 3.8676 7.89393 2.69886 9.92159C1.07664 12.736 0 16.0758 0 19.3909L6.19757e-05 19.3909Z" fill="#F2994A"/>
</svg>
