<svg class='icone--telegram' width="40" height="40" viewBox="0 0 40 40" fill="none" xmlns="http://www.w3.org/2000/svg">
<path fill-rule="evenodd" clip-rule="evenodd" d="M29.4251 11.5361C29.5675 11.5923 29.6589 11.6518 29.7355 11.8769C29.7633 11.957 29.7794 12.1288 29.7773 12.3006C29.7761 12.4249 29.7607 12.5377 29.7495 12.7184C29.6357 14.5553 26.2296 28.2648 26.2296 28.2648C26.2296 28.2648 26.0256 29.0678 25.2954 29.0943C25.0294 29.1033 24.7061 29.0499 24.3196 28.7181C23.5501 28.0573 21.7673 26.7921 20.1108 25.6484C19.6105 26.0662 18.6113 26.9312 17.5783 27.9654C16.1143 29.4292 16.3029 27.9654 16.3029 27.9654L16.7524 23.1861L16.7636 23.192C16.7843 23.1445 16.8172 23.1032 16.8172 23.1032C16.8172 23.1032 25.4427 15.4379 25.6719 14.6322C25.6897 14.5699 25.6226 14.5403 25.5323 14.5671C24.9595 14.7774 15.0285 21.047 13.9326 21.7405C13.8685 21.7821 13.6891 21.7553 13.6891 21.7553L8.87123 20.1851C8.87123 20.1851 8.29618 19.951 8.48072 19.4237C8.519 19.3139 8.59608 19.2193 8.8258 19.0592C9.8937 18.3155 28.5854 11.5956 28.5854 11.5956C28.5854 11.5956 29.1135 11.4208 29.4251 11.5364V11.5361ZM19.9998 0C8.95418 0 0 8.95546 0 20.0013C0 31.0441 8.95418 40.0011 19.9998 40.0011C31.0453 40.0011 39.9995 31.0441 39.9995 20.0013C39.9995 8.95546 31.0453 0 19.9998 0V0Z" fill="#F2994A"/>
</svg>
