<svg class='icone--vk' width="40" height="40" viewBox="0 0 40 40" fill="none" xmlns="http://www.w3.org/2000/svg">
<path fill-rule="evenodd" clip-rule="evenodd" d="M6.98141 15.2009C6.98141 14.8257 7.48547 14.7852 7.86797 14.7852H11.1093C11.4406 14.7852 11.8404 15.0103 11.9803 15.2164C12.1162 15.4167 12.2582 15.9138 12.3524 16.1743C12.4696 16.4989 12.5908 16.8258 12.716 17.1408C12.8401 17.4528 12.9864 17.7632 13.1316 18.0554C13.3402 18.475 13.8553 19.2817 14.1606 19.6865C14.259 19.8169 14.3447 19.9347 14.4543 20.0578C14.6995 20.3331 14.8021 20.4743 15.1424 20.6997C15.6421 21.0307 16.1955 20.9067 16.3979 20.2695C16.6635 19.4331 16.6118 17.3126 16.377 16.6103C16.2075 16.1031 15.7896 15.8353 15.3105 15.6817C15.225 15.6544 15.1336 15.6466 15.0709 15.6165C15.092 15.3624 15.6547 15.0831 15.8562 15.0165C16.0317 14.9584 16.2157 14.9152 16.4161 14.8838C17.3011 14.7448 18.986 14.755 19.741 14.9078C20.7469 15.1115 20.8886 15.3824 20.8886 16.5588L20.8609 19.4409C20.8609 19.7767 20.9251 20.2111 21.027 20.4388C21.4849 21.462 22.4683 20.7651 22.9878 20.2382L23.3338 19.8361C23.773 19.344 24.318 18.4228 24.6195 17.8244L25.4703 15.6269C25.7232 14.8743 25.8804 14.8128 26.7066 14.8128C27.3601 14.8128 29.3599 14.854 29.738 14.7968C29.9523 14.7643 30.4869 14.7916 30.7203 14.8161C31.141 14.8605 31.3055 14.9672 31.3055 15.3393C31.3055 16.53 30.0091 18.4619 29.2712 19.4011C28.7871 20.017 28.0796 20.8585 27.6486 21.4639C27.1653 22.1429 27.2009 22.5494 27.7381 23.0925C28.1067 23.465 28.3629 23.657 28.6948 23.9645L29.1787 24.4227C29.2474 24.4907 29.2774 24.5011 29.3452 24.5609C29.4561 24.6584 29.5406 24.7648 29.6499 24.8659C29.7172 24.9281 29.7487 24.9377 29.8171 25.0035C30.2636 25.4335 31.2779 26.3992 31.2779 26.9232C31.2779 27.2241 31.2612 27.4094 30.8629 27.6166C30.6873 27.708 30.4081 27.8101 30.1421 27.8101H26.5683C25.141 27.8101 24.1627 26.6256 23.1093 25.8384C22.715 25.5438 22.3365 25.2328 21.7755 25.2328C21.1771 25.2328 20.9448 25.9436 20.893 26.4561C20.8672 26.7102 20.8971 27.2685 20.8556 27.4718C20.8053 27.7175 20.4579 27.8101 20.141 27.8101C17.9193 27.8101 17.1352 27.8582 15.1355 26.8589L14.1963 26.2742C13.8221 26.0034 13.3066 25.56 12.9726 25.2258C12.8483 25.1015 12.6951 24.9672 12.5859 24.8366C12.5155 24.7522 12.4997 24.7234 12.4185 24.6438L12.055 24.2315C11.0085 22.9051 10.3001 21.8577 9.45577 20.3467L7.64601 16.8361C7.51824 16.5766 6.98158 15.4222 6.98158 15.2006L6.98141 15.2009ZM0 19.9675L0.0393883 21.1475C0.0616653 21.2945 0.0770009 21.5759 0.082893 21.7136C0.141814 23.0846 0.526092 24.5745 0.898263 25.8864C0.948225 26.0628 1.0061 26.1986 1.05283 26.3692C1.27907 27.1968 1.76949 28.2463 2.15167 29.0111C2.29332 29.2946 2.43336 29.5484 2.59236 29.8173C3.20232 30.8488 3.73713 31.6424 4.47598 32.5889C4.65702 32.8209 4.84089 33.0576 5.04921 33.2626L7.11161 35.2733C7.1811 35.3322 7.19531 35.3544 7.27408 35.4156L8.14498 36.0964C8.62208 36.4539 9.12687 36.7907 9.63948 37.0956L10.4285 37.5534C10.5045 37.5988 10.5507 37.6146 10.6267 37.66C11.64 38.2651 13.2555 38.8841 14.4001 39.2062C15.0522 39.3897 15.7413 39.5618 16.4209 39.6789C18.4902 40.0355 20.4337 40.1024 22.5285 39.8427C24.2395 39.6307 25.8583 39.2126 27.4428 38.5787C28.4455 38.1776 29.3963 37.6907 30.3203 37.1339C31.2101 36.5977 32.0435 35.9976 32.8378 35.3291L33.332 34.9089C33.5591 34.7277 33.9324 34.3416 34.1382 34.1357C34.6535 33.6203 35.1428 33.0895 35.596 32.5178C35.6889 32.4006 35.7696 32.2993 35.8649 32.1771C36.6067 31.2268 37.2097 30.1988 37.797 29.1493C38.3476 28.1655 38.8859 26.7089 39.2044 25.6242C39.4968 24.6291 39.7181 23.6144 39.8406 22.5472C40.0019 21.1426 40.0638 19.5211 39.917 18.0874C39.7229 16.1921 39.2829 14.3254 38.5757 12.5563C38.3373 11.9601 38.074 11.4249 37.7881 10.8499C37.5855 10.4422 37.3536 10.0549 37.118 9.66353C36.5827 8.77422 35.7107 7.53083 35.011 6.78293C34.9021 6.66654 34.8193 6.56291 34.706 6.45063L34.0965 5.81324C33.8726 5.58917 33.4162 5.13734 33.1498 4.93119L32.4689 4.36523C31.4011 3.53105 30.2747 2.76798 29.0521 2.15738C28.7641 2.01355 28.5053 1.89167 28.2121 1.75058C27.1232 1.22675 25.6348 0.765308 24.4735 0.5021C21.8539 -0.0917118 19.2679 -0.154669 16.5667 0.291195C16.2157 0.349228 15.8605 0.436964 15.535 0.506217C14.8592 0.649887 14.2384 0.841421 13.5922 1.05693C13.2625 1.16686 12.9901 1.26299 12.6724 1.3839L11.3864 1.95422C10.8393 2.2297 10.2938 2.51228 9.76749 2.829L8.81483 3.4279C8.73847 3.47786 8.70005 3.51491 8.62168 3.56729L7.72551 4.22277C7.65715 4.27362 7.62107 4.29977 7.55602 4.35805C7.33405 4.55668 7.09038 4.71964 6.87778 4.92667C6.80941 4.99326 6.77858 5.00198 6.71094 5.06461C6.64726 5.12362 6.6094 5.17487 6.54225 5.22838C6.36476 5.37004 6.23263 5.54204 6.05902 5.68716L5.27198 6.47953C5.21088 6.55258 5.2041 6.57413 5.13234 6.64475C4.88891 6.88431 4.49438 7.36649 4.28194 7.65085C3.49563 8.70287 3.20498 9.16488 2.53707 10.2841C2.48994 10.3632 2.47154 10.3946 2.42892 10.4808C2.02115 11.3053 1.80113 11.6455 1.41265 12.6235C0.514953 14.8831 0 17.425 0 19.9676V19.9675Z" fill="#F2994A"/>
</svg>
