<svg class='icone--youtube' width="40" height="40" viewBox="0 0 40 40" fill="none" xmlns="http://www.w3.org/2000/svg">
<path d="M39.9993 19.9996C39.9993 31.0452 31.045 39.9993 19.9996 39.9993C8.95408 39.9993 0 31.045 0 19.9996C0 8.95408 8.95433 0 19.9996 0C31.0452 0 39.9993 8.95433 39.9993 19.9996ZM17.3328 23.9995V15.9995L24.2608 19.9994L17.3328 23.9993V23.9995ZM32.7753 13.5811C32.4686 12.434 31.5654 11.5303 30.4178 11.2236C28.3383 10.6663 19.9994 10.6663 19.9994 10.6663C19.9994 10.6663 11.6605 10.6663 9.58076 11.2236C8.43337 11.5303 7.52987 12.434 7.22343 13.5811C6.66621 15.6606 6.66621 19.9994 6.66621 19.9994C6.66621 19.9994 6.66621 24.3384 7.22343 26.4176C7.52987 27.5653 8.43337 28.4685 9.58076 28.7752C11.6605 29.3324 19.9994 29.3324 19.9994 29.3324C19.9994 29.3324 28.3383 29.3324 30.4178 28.7752C31.5654 28.4685 32.4686 27.5653 32.7753 26.4176C33.3326 24.3381 33.3326 19.9994 33.3326 19.9994C33.3326 19.9994 33.3326 15.6604 32.7753 13.5811Z" fill="#F2994A"/>
</svg>
