<svg class='icone--fb' width="40" height="40" viewBox="0 0 40 40" fill="none" xmlns="http://www.w3.org/2000/svg">
<path d="M39.9996 19.9998C39.9996 8.95383 31.0454 0 19.9998 0C8.95421 0 0 8.95421 0 19.9998C0 29.9824 7.31363 38.2564 16.875 39.7563V25.7808H11.7969V19.9998H16.875V15.5938C16.875 10.5813 19.8611 7.81245 24.4292 7.81245C26.6174 7.81245 28.9063 8.2029 28.9063 8.2029V13.125H26.3842C23.8997 13.125 23.1249 14.6665 23.1249 16.2482V19.9998H28.6719L27.785 25.7808H23.1249V39.7563C32.6859 38.256 40 29.9824 40 19.9998H39.9996Z" fill="#F2994A"/>
</svg>
