<svg class='icone--twitter' width="40" height="40" viewBox="0 0 40 40" fill="none" xmlns="http://www.w3.org/2000/svg">
<path fill-rule="evenodd" clip-rule="evenodd" d="M40 20C40 31.0456 31.0459 40 20 40C8.954 40 0 31.0456 0 20C0 8.95412 8.954 0 20 0C31.0459 0 40 8.95412 40 20ZM15.9584 31.5185C25.7274 31.5185 31.0696 23.4259 31.0696 16.4083C31.0696 16.1784 31.0636 15.9493 31.0548 15.7218C32.0918 14.9722 32.9925 14.0367 33.7037 12.9722C32.7525 13.3947 31.7274 13.6797 30.6548 13.808C31.751 13.1509 32.5925 12.1103 32.9896 10.8703C31.9614 11.4788 30.8267 11.9212 29.6177 12.1594C28.6459 11.1271 27.2681 10.4815 25.7393 10.4815C22.806 10.4815 20.4297 12.8598 20.4297 15.7917C20.4297 16.2086 20.4741 16.614 20.566 17.0026C16.1513 16.7807 12.2401 14.6676 9.62088 11.4542C9.16457 12.2385 8.90083 13.1507 8.90083 14.1232C8.90083 15.9659 9.83717 17.5923 11.2653 18.5439C10.3942 18.5169 9.57343 18.2775 8.85935 17.8793C8.85643 17.9015 8.85643 17.9237 8.85643 17.9471C8.85643 20.5193 10.6876 22.6666 13.1172 23.1537C12.6727 23.2749 12.2017 23.3404 11.7186 23.3404C11.3749 23.3404 11.0431 23.3066 10.7201 23.2447C11.3956 25.3546 13.3571 26.89 15.6801 26.9333C13.8639 28.3576 11.5735 29.2065 9.08453 29.2065C8.6579 29.2065 8.23419 29.1822 7.81937 29.133C10.169 30.639 12.9601 31.5185 15.9587 31.5185H15.9584Z" fill="#F2994A"/>
</svg>
