<svg class='svg-a-drop-decore @@color' width="19" height="34" viewBox="0 0 19 34" fill="none" xmlns="http://www.w3.org/2000/svg">
<path fill-rule="evenodd" clip-rule="evenodd" d="M2.70343 0.235457C3.4098 1.13019 4.63418 2.59003 5.34055 4.14404C6.04692 5.69806 6.1411 7.39335 5.90565 9.08864C5.67019 10.7839 5.10509 12.5263 4.06908 14.5042C3.08016 16.482 1.62033 18.6953 0.819772 20.8615C0.0192181 23.0277 -0.216239 25.1939 0.207584 27.0305C0.631407 28.867 1.62033 30.4681 2.75052 31.5983C3.88071 32.7285 5.10509 33.3878 6.37656 33.7174C7.88348 34.0942 10.2851 34.0942 11.7921 33.7174C13.0635 33.3878 14.2879 32.7285 15.4181 31.5983C16.5483 30.4681 17.5372 28.9141 17.961 27.0305C18.3849 25.1939 18.1494 23.0277 17.3489 20.8615C16.5483 18.6953 15.0885 16.482 14.0996 14.5042C13.1106 12.5263 12.4984 10.7839 12.263 9.08864C12.0275 7.39335 12.1688 5.69806 12.8281 4.14404C13.5345 2.59003 14.7588 1.17729 15.4652 0.235457L15.6536 0H2.51506L2.70343 0.235457ZM10.0497 32.3989C10.6148 32.3518 11.1328 32.3047 11.5566 32.2105C12.5455 31.9751 13.4874 31.4571 14.3821 30.5623C15.2768 29.6676 16.0303 28.4432 16.3599 27.0305C16.6896 25.5706 16.5012 23.9224 15.889 22.2271C15.2768 20.5319 14.1937 18.8366 13.3932 17.3296C14.0054 18.9307 14.853 20.6731 15.2768 22.3684C15.7478 24.2521 15.7007 26.0416 15.1827 27.5956C14.6646 29.1025 13.6757 30.3269 12.6397 31.1745C11.7921 31.8338 10.9444 32.2576 10.0497 32.446V32.3989Z" fill="#FFFFFF"/>
</svg>
