<svg width="88" height="88" viewBox="0 0 88 88" fill="none" xmlns="http://www.w3.org/2000/svg">
<path fill-rule="evenodd" clip-rule="evenodd" d="M40.4302 7.09271C61.8386 4.76624 78.7951 21.0522 80.7963 39.8524C83.0905 61.4061 66.9363 78.3942 48.0374 80.4058C26.4827 82.7002 9.49551 66.5447 7.48399 47.6469C5.32406 27.3549 19.9329 9.32017 40.4303 7.09261L40.4302 7.09271ZM40.6799 0.216658C17.6789 2.03243 -1.43579 22.0504 0.600066 47.3235C2.44556 70.2319 22.4954 89.3212 47.7138 87.2896C70.6223 85.4441 89.7116 65.3943 87.68 40.1759C85.8345 17.2671 65.8155 -1.76762 40.6799 0.216555V0.216658Z" fill="#92795B"/>
<path fill-rule="evenodd" clip-rule="evenodd" d="M37.8315 50.2878C35.6807 47.7979 32.4233 45.0657 30.4212 42.789C26.2139 38.005 21.9158 43.3417 24.8564 46.6446C26.3814 48.3575 28.1499 49.9419 29.8052 51.5972C35.5404 57.3324 37.408 60.8887 41.1946 56.8465L60.8155 37.2109C62.1021 35.9239 65.2886 33.9705 64.1603 30.9277C63.5149 29.1871 60.987 27.4901 57.8228 30.8039C54.5499 34.2315 51.2849 37.347 47.9256 40.7063C46.1186 42.5133 39.57 49.6393 37.8315 50.2878Z" fill="#92795B"/>
</svg>
