<svg width="100%" height="20" viewBox="0 0 68 21" fill="none" xmlns="http://www.w3.org/2000/svg">
<path fill-rule="evenodd" clip-rule="evenodd" d="M26.8411 1.63147C27.2347 1.25728 27.404 1.23913 27.7889 0.99102C28.2157 0.715846 28.2497 0.569994 28.221 0.00230626C26.6087 -0.0609772 27.0233 1.1991 25.1186 1.20072C22.3293 1.20299 23.3853 0.317022 22.0525 0.479971C21.9028 1.5946 22.9711 1.39949 22.7567 2.34072C22.1776 2.69011 16.4537 3.11195 15.281 3.23941C12.4948 3.54213 10.3055 3.43072 7.50234 3.35196C5.74482 3.30253 2.66832 2.92607 1.6079 3.65468C1.39228 3.80288 0.814705 4.45533 0.698833 4.75594C0.320105 5.73866 -0.157803 11.1297 0.050684 12.1272C1.54202 11.961 0.71277 8.99861 0.839256 8.08728C0.964608 8.86686 1.30185 9.9994 1.43684 10.8888C1.59177 11.9092 1.17253 12.9091 1.10284 13.9229C1.03478 14.9125 1.37445 19.4012 1.55247 20.3392C2.35077 20.73 2.93742 20.5312 4.13202 20.4295C3.86512 19.7224 2.73646 18.2689 2.6953 17.8129C2.6953 17.8122 3.11527 14.9621 3.60404 14.692C3.90466 14.8476 3.89202 14.9193 4.06299 15.4783C4.38645 16.5364 5.006 18.6342 5.5305 19.4486C5.92827 20.0661 5.93678 20.2293 6.91399 20.2316C7.51854 20.2326 7.95707 20.3035 8.34479 20.103C8.24497 19.8067 8.20737 19.7877 7.79801 19.5419C6.75922 18.9182 6.79576 19.0715 6.47651 18.0262C6.02486 16.5472 5.53366 15.8849 5.87066 14.9584L6.597 14.9842L7.0331 15.9122C7.20853 15.6358 7.34125 15.3389 7.63433 15.1074L8.21604 15.9382C8.63091 14.786 9.55204 13.8614 10.8505 13.7445C11.9276 13.6476 14.3435 13.286 15.2579 13.3829C15.6158 13.7864 16.0227 14.1754 16.1236 14.7578C16.4264 16.5052 16.4518 20.2383 17.5549 20.2383C20.2442 20.2383 18.6039 19.7284 18.1142 18.5698C17.868 17.9872 17.9136 16.4542 17.9345 15.7245C18.5941 16.0087 18.5169 16.0494 18.7351 16.7627C18.8851 17.2527 19.0348 17.6784 19.1945 18.1961C19.7168 19.8886 19.6723 20.5505 20.6256 20.5505C21.3391 20.5505 21.4734 20.6333 21.7927 20.4271C21.7914 19.69 21.7947 20.4996 21.2065 19.3761C20.3937 17.8238 19.8863 17.3354 20.0736 15.8297C20.2905 14.0859 20.0272 14.0573 20.874 13.4642C22.2824 12.4777 22.5121 11.7567 23.4854 9.80987C24.1012 8.57799 24.1423 8.33385 24.8631 7.99199C28.8974 6.07914 26.8984 7.27294 29.7524 6.62584C30.6782 4.60077 29.5311 4.85626 26.8412 1.63131L26.8411 1.63147Z" fill="white"/>
<path fill-rule="evenodd" clip-rule="evenodd" d="M63.8411 1.63147C64.2347 1.25728 64.404 1.23913 64.7889 0.99102C65.2157 0.715846 65.2497 0.569994 65.221 0.00230626C63.6087 -0.0609772 64.0233 1.1991 62.1186 1.20072C59.3293 1.20299 60.3853 0.317022 59.0525 0.479971C58.9028 1.5946 59.9711 1.39949 59.7567 2.34072C59.1776 2.69011 53.4537 3.11195 52.281 3.23941C49.4948 3.54213 47.3055 3.43072 44.5023 3.35196C42.7448 3.30253 39.6683 2.92607 38.6079 3.65468C38.3923 3.80288 37.8147 4.45533 37.6988 4.75594C37.3201 5.73866 36.8422 11.1297 37.0507 12.1272C38.542 11.961 37.7128 8.99861 37.8393 8.08728C37.9646 8.86686 38.3018 9.9994 38.4368 10.8888C38.5918 11.9092 38.1725 12.9091 38.1028 13.9229C38.0348 14.9125 38.3745 19.4012 38.5525 20.3392C39.3508 20.73 39.9374 20.5312 41.132 20.4295C40.8651 19.7224 39.7365 18.2689 39.6953 17.8129C39.6953 17.8122 40.1153 14.9621 40.604 14.692C40.9047 14.8476 40.892 14.9193 41.063 15.4783C41.3865 16.5364 42.006 18.6342 42.5305 19.4486C42.9283 20.0661 42.9368 20.2293 43.914 20.2316C44.5185 20.2326 44.9571 20.3035 45.3448 20.103C45.245 19.8067 45.2074 19.7877 44.798 19.5419C43.7592 18.9182 43.7958 19.0715 43.4765 18.0262C43.0249 16.5472 42.5337 15.8849 42.8707 14.9584L43.597 14.9842L44.0331 15.9122C44.2085 15.6358 44.3413 15.3389 44.6343 15.1074L45.216 15.9382C45.6309 14.786 46.552 13.8614 47.8505 13.7445C48.9276 13.6476 51.3435 13.286 52.2579 13.3829C52.6158 13.7864 53.0227 14.1754 53.1236 14.7578C53.4264 16.5052 53.4518 20.2383 54.5549 20.2383C57.2442 20.2383 55.6039 19.7284 55.1142 18.5698C54.868 17.9872 54.9136 16.4542 54.9345 15.7245C55.5941 16.0087 55.5169 16.0494 55.7351 16.7627C55.8851 17.2527 56.0348 17.6784 56.1945 18.1961C56.7168 19.8886 56.6723 20.5505 57.6256 20.5505C58.3391 20.5505 58.4734 20.6333 58.7927 20.4271C58.7914 19.69 58.7947 20.4996 58.2065 19.3761C57.3937 17.8238 56.8863 17.3354 57.0736 15.8297C57.2905 14.0859 57.0272 14.0573 57.874 13.4642C59.2824 12.4777 59.5121 11.7567 60.4854 9.80987C61.1012 8.57799 61.1423 8.33385 61.8631 7.99199C65.8974 6.07914 63.8984 7.27294 66.7524 6.62584C67.6782 4.60077 66.5311 4.85626 63.8412 1.63131L63.8411 1.63147Z" fill="white"/>
</svg>
