<svg width="228" height="89" viewBox="0 0 228 89" fill="none" xmlns="http://www.w3.org/2000/svg">
<path fill-rule="evenodd" clip-rule="evenodd" d="M124.251 88.875C124.941 86.6533 126.992 82.9718 127.983 80.798C128.948 78.6824 129.212 79.4148 130.878 78.0078C131.875 77.1653 132.715 75.9899 133.716 75.1484C133.995 75.7698 136.34 78.7676 137.766 81.5209C138.857 83.6276 139.973 86.3389 140.518 88.875H142.865C142.779 88.7097 142.716 88.4061 142.522 87.8713C140.31 81.7709 139.326 77.859 133.877 72.3107C131.615 70.0074 128.02 66.3785 124.534 65.1783L123.59 67.1222C124.492 67.5479 125.661 68.0119 126.418 68.9869L99.6543 69.3232L99.0931 88.875H101.241C101.441 85.2726 101.248 73.5674 101.958 71.292L114.547 71.3774L116.314 76.2764C115.44 76.899 114.689 77.2302 114.868 78.9195C116.61 79.3634 116.592 78.8675 117.344 78.2747C117.985 77.7694 117.052 78.2423 117.895 77.918L119.357 78.7236L117.337 88.8751H119.562C119.82 87.0587 120.891 80.8795 121.63 80.0044C122.66 81.4602 120.817 81.649 122.389 83.3977C125.636 83.275 122.056 80.6412 125.72 80.3927C124.77 83.1836 122.789 86.0314 121.832 88.8751H124.252L124.251 88.875ZM146.913 88.875H144.515C144.812 87.2761 143.249 74.0202 141.974 72.6122C140.959 71.4929 139.918 70.429 139.024 68.8331C134.684 61.0791 136.384 55.308 134.315 47.2066C133.667 48.6009 133.461 50.0158 132.012 50.8879C130.279 51.9304 129.163 50.9391 127.845 52.766C125.953 55.3879 125.333 57.9148 120.628 57.6683C117.247 57.4911 114.684 55.0358 114.071 52.115C113.123 47.6 115.917 45.5785 117.969 43.9474L89.8131 43.9045C88.9926 48.1828 87.842 49.8923 88.2765 52.6542C89.1248 58.047 86.833 57.2525 83.329 58.659C81.8921 69.9514 85.3885 69.8275 92.9866 69.8311L96.0319 88.8447L96.5903 88.8749H93.8012L92.6242 81.5021L91.271 88.8749H89.1325C89.4169 87.0662 92.3006 70.3827 90.9518 72.3057C90.8893 72.3948 90.7381 72.2024 90.65 72.178L88.69 71.9255C87.8295 71.8904 87.2339 71.8131 86.4045 71.8155L86.5799 88.8749H84.3946C84.3644 84.5706 84.7736 72.1192 83.9662 70.7506C83.3589 69.7215 81.5573 69.4909 81.1754 66.1831C80.9269 64.0337 81.0637 60.7943 81.0657 58.5426C73.1559 58.1794 75.2156 54.1988 75.2395 51.575C75.2463 50.8267 73.4686 45.4826 73.0523 40.3257C69.9866 40.9442 65.7987 41.3985 64.6611 36.1753L70.5143 36.1649C77.5238 36.1704 69.3118 33.4046 71.187 28.4107C72.6107 28.8688 71.555 28.8614 73.0163 30.6045C75.8201 33.9491 77.7232 30.8993 81.6138 30.8902C84.8779 30.8828 88.38 34.5836 91.288 29.6529C91.3728 29.509 91.5754 29.1313 91.6629 29.0163C92.264 28.2247 91.484 28.8386 92.3729 28.3359C93.9369 31.145 90.1393 34.7398 90.0046 35.7916C91.5044 36.7119 96.3035 36.1361 98.3859 36.1767C97.9209 38.6161 95.5776 41.128 92.3794 40.8086C90.4613 40.6172 90.2942 39.7307 90.1253 41.5085C93.1053 42.6897 127.672 39.5882 132.979 42.596C136.549 44.6189 135.986 42.9867 139.088 44.2182C140.892 44.9339 142.188 46.2496 142.904 48.1595C144.349 52.0172 143.318 58.7311 144.338 62.2534C145.404 65.9353 151.045 63.2334 147.859 72.5271C146.753 71.8767 145.988 71.1122 145.279 70.3225C141.337 65.9296 142.437 67.6568 141.897 59.2909C141.457 52.4552 142.377 46.0891 136.167 45.8372C139.051 56.3822 135.934 63.1825 144.066 71.5275C145.063 72.5511 145.108 75.1537 145.365 77.0311C145.888 80.8525 146.533 85.005 146.913 88.875H146.913ZM101.868 52.5097C98.7828 53.2692 99.2459 55.0612 98.041 55.9004C96.7869 56.7738 94.3004 55.5127 92.8229 58.1012C91.6266 60.1973 92.4851 62.2973 93.811 63.2855C96.5994 65.3646 97.7117 63.1053 99.4434 62.9973C101.518 62.868 102.284 64.7757 105.559 63.4396C111.845 60.8755 108.833 50.7947 101.868 52.5097H101.868ZM125.665 71.1627C130.626 71.1047 129.373 70.7091 131.892 73.4556C130.357 75.8296 127.861 78.8269 123.327 78.1712C120.117 77.7071 117.177 74.6777 117.011 71.2537C119.891 71.1926 122.783 71.1965 125.665 71.1627ZM75.2978 38.1458C74.753 31.7018 88.229 31.2742 87.9977 38.1458C85.8764 39.8645 83.9432 39.3416 83.8605 43.1687C83.8061 45.6822 83.713 49.534 83.973 51.9334C85.2637 52.3695 87.1743 52.4616 86.118 55.1186C85.4327 56.8422 77.8881 57.0546 77.2235 54.9054C76.2918 51.8915 78.3615 52.3612 79.5482 51.9334C79.808 49.6892 79.7644 45.1761 79.6483 42.8299C79.4884 39.595 77.5289 39.6133 75.2977 38.1458H75.2978Z" fill="#E0E0E0"/>
<path fill-rule="evenodd" clip-rule="evenodd" d="M215.22 61.3055C215.22 60.1934 216.056 59.3735 216.565 58.6098L218.387 56.2019C218.681 56.9418 219.444 57.9388 219.944 58.6895C220.459 59.4621 221.211 60.1251 221.211 61.3056L221.184 88.8743H223.203L223.2 84.348C224.304 84.151 227.13 84.8452 227.155 83.308C227.18 81.7655 224.559 82.3944 223.209 82.2282L223.2 78.3685C224.325 78.1753 227.12 78.8725 227.163 77.3139C227.205 75.7911 224.527 76.4069 223.208 76.2449L223.2 71.3968C224.684 71.0923 225.668 71.5684 227.019 71.0153C227.635 68.6938 225.258 69.3038 223.208 69.3038V65.3128C224.604 65.3128 225.973 65.4641 227.106 65.0316L226.99 63.6038C225.989 63.1502 224.503 63.4151 223.264 63.2867C223.098 62.1462 223.469 60.7229 222.988 59.7104C222.732 59.1715 221.894 58.0765 221.517 57.51C218.478 52.9472 218.579 52.006 216.369 55.3251C213.451 59.7089 213.237 58.8647 213.237 63.3141L208.242 63.3265C208.242 59.2286 208.307 60.1128 206.449 57.3257C204.986 55.1317 204.36 53.3738 202.791 53.4191C201.759 54.5831 200.754 56.3299 199.835 57.7094C196.842 62.2022 199.008 60.4246 198.144 63.3297L193.34 63.2935C193.154 62.1434 193.541 60.7711 193.072 59.7035C192.849 59.198 191.986 58.0508 191.612 57.4897C187.871 51.8762 188.659 51.9772 184.895 57.6255C182.042 61.9078 183.829 59.9853 183.234 63.3012C181.993 63.3803 180.485 63.1565 179.488 63.5978C178.766 65.9099 181.269 65.2999 183.276 65.2999V69.2909C181.238 69.2909 178.826 68.6834 179.47 71.0073C180.707 71.584 181.891 71.062 183.28 71.3991L183.234 76.2329C181.998 76.391 180.516 76.1031 179.519 76.5669C178.604 79.0483 181.701 78.0588 183.28 78.3723L183.238 82.2202C182.003 82.385 180.521 82.0925 179.524 82.5557C178.585 85.0329 181.71 84.0438 183.278 84.3556L183.264 88.8742H185.284C185.068 80.8677 185.273 69.5726 185.273 61.3055C185.273 60.089 186.076 59.388 186.618 58.5747C187.078 57.8852 187.816 56.9195 188.098 56.2026C188.743 56.5993 191.265 60.3101 191.265 61.3055L191.241 88.8742H193.265L193.261 84.2782L198.257 84.2665L198.263 88.5206L198.246 88.8743H200.25C200 80.4207 200.314 70.7779 200.242 62.0698C200.227 60.2123 200.581 60.1448 201.411 58.8995C201.983 58.042 202.576 56.9986 203.242 56.2717C203.941 57.0309 204.546 58.1071 205.151 59.0141C206.043 60.3498 206.255 60.2295 206.24 62.266C206.175 71.0232 206.459 80.2686 206.29 88.8743H208.245L208.235 88.5205L208.236 84.2666L212.507 84.2562L213.232 84.3172L213.213 88.8743H215.229C215.035 80.5907 215.22 69.7948 215.22 61.3056L215.22 61.3055ZM189.042 81.0723C189.601 79.4239 188.297 78.8156 187.564 79.6038C186.818 80.4066 187.503 81.5457 189.042 81.0723ZM217.44 81.0693C218.982 81.5525 219.663 80.4032 218.919 79.6042C218.185 78.8162 216.881 79.4248 217.44 81.0693ZM202.799 66.4338C201.62 67.016 202.55 68.7252 203.695 68.1477C204.742 67.6197 204.066 65.8082 202.799 66.4338ZM189.128 66.7008C188.05 65.9926 186.883 66.5276 187.367 67.7156C187.711 68.5577 189.519 68.7236 189.128 66.7008ZM217.762 66.5069C216.409 67.3325 217.86 68.8844 218.878 68.0603C219.599 67.4771 218.998 65.7527 217.762 66.5069ZM202.414 79.5587C202.19 80.4694 202.225 80.5281 202.679 81.1452L203.808 81.2026C204.302 80.4676 204.31 80.5356 204.069 79.5587C203.582 79.3567 202.896 79.1847 202.414 79.5587ZM208.248 78.2831L212.507 78.2729L213.236 78.3339L213.177 82.2682L208.294 82.2766L208.235 81.572L208.248 78.2831ZM193.261 78.295L198.257 78.2831L198.273 81.5739L198.175 82.2779L193.273 82.2384L193.261 78.2951V78.295ZM208.224 71.29L212.508 71.2755L213.227 71.3621L213.168 76.2777L208.294 76.2874L208.227 75.5886L208.224 71.29V71.29ZM193.253 71.3027L198.249 71.29L198.266 75.5905L198.162 76.287L193.265 76.2549L193.253 71.3027ZM208.224 65.3066L212.508 65.2922L213.222 65.3787L213.224 69.2366L212.506 69.297H208.227L208.224 65.3066V65.3066ZM193.253 65.3192L198.249 65.3066L198.248 69.297L193.976 69.3105L193.253 69.2284L193.253 65.3192H193.253Z" fill="#E0E0E0"/>
<path fill-rule="evenodd" clip-rule="evenodd" d="M29.7672 27.7061C35.7091 27.5666 36.1106 31.0354 37.2456 32.1004C37.9959 32.8044 43.6065 33.4942 42.2314 38.4499C40.2008 39.4632 15.8469 38.9165 15.5593 38.7473C14.6306 38.2009 14.7426 37.0807 15.7878 36.6891L39.8254 36.5951C38.7605 34.4337 37.8433 35.0275 35.5622 34.6632C34.8218 33.0231 34.9904 31.8828 33.2682 30.7711C31.2338 29.4579 30.2682 30.4529 28.2691 30.1345C27.5946 29.1836 26.7096 23.7543 21.2897 24.3133C16.9962 24.7563 16.4467 27.9075 16.1288 30.292C15.9411 31.6999 16.4502 30.9524 15.5323 31.7595C13.928 33.0994 11.1438 28.0663 7.98233 35.0078C5.57082 35.327 3.72053 34.027 2.61885 36.518C4.43609 36.6941 6.63173 36.6083 8.48602 36.5889C13.0003 36.5414 11.8344 38.2892 11.3037 38.6597C10.3954 39.2935 6.9828 38.9337 5.66698 38.9341C3.87641 38.9347 1.49715 39.414 0.215256 38.2001C-0.375284 37.3261 -0.184688 32.5565 6.55998 32.4404C7.81295 29.8572 9.83621 28.6061 13.8506 29.1205C14.91 20.4532 26.8998 19.256 29.7672 27.7061Z" fill="#E0E0E0"/>
<path fill-rule="evenodd" clip-rule="evenodd" d="M79.0571 84.183H83.7485V88.8744H86.1128C86.2384 87.3166 86.103 86.224 86.0899 83.8913C86.0899 81.826 85.3085 81.8103 83.8578 80.858C82.5931 80.0274 81.7896 79.4562 80.5159 78.6327C77.9924 77.0009 78.3565 76.5871 76.3152 71.6904C74.9728 68.4701 75.1093 69.1532 70.5063 66.6529C68.7317 65.689 64.9722 63.0879 62.9422 63.0879H44.7744C42.6078 63.0879 36.2121 67.29 33.9966 68.4229C32.6722 69.1001 32.592 69.0313 32.0069 70.2487C31.5322 71.2367 31.2351 72.0642 30.7827 73.1202C30.0806 74.7584 28.6593 77.4181 28.6593 79.2029V84.186H26.312V81.8417H23.9709V84.186H20.4513V81.8417H18.1089L18.1104 84.186H15.7554L15.7663 86.5271H18.109L18.1105 88.8744H31.0005V79.4959C31.0005 77.7984 32.1209 75.9476 32.7392 74.4916C34.0363 71.436 33.696 71.1943 35.3243 70.3384C46.0149 64.7204 41.5545 64.2271 52.6717 70.4293C53.7958 71.0563 53.6671 71.1692 54.1789 72.4339C55.007 74.4801 56.7887 77.8153 56.7902 79.496L56.807 88.8745H59.1311L59.1564 80.5751L63.8218 83.5382L63.8229 88.8746H79.0573V84.1831L79.0571 84.183ZM49.7544 88.8744H47.4163L47.4131 81.8386H45.0658V88.8744H42.7247V81.8386H40.3699L40.3775 88.8744H38.0532C38.0458 85.7073 37.8838 82.7962 38.2551 79.7582C41.4122 79.2039 46.2702 79.3208 49.4926 79.7175C50.036 82.7983 49.7817 85.5129 49.7545 88.8743L49.7544 88.8744ZM49.7574 74.8058H52.0985V72.4647H49.7574V74.8058ZM35.692 74.8058H38.0331V72.4647H35.692V74.8058ZM42.7247 70.1174H45.0673L45.0658 67.7763H42.7247V70.1174ZM66.1654 84.1843H76.7145V88.8727H66.1654V84.1843ZM26.3135 86.5286H28.6576V88.8726H26.3135V86.5286ZM20.453 86.5286H23.9693V88.8726H20.453V86.5286ZM66.1655 81.8424C64.9725 81.8424 62.8042 80.1411 62.0487 79.5334L76.7146 79.4936C77.9471 79.4936 80.0675 81.1786 80.8349 81.8045L66.1655 81.8425V81.8424ZM59.133 77.1533C58.0486 76.5694 56.7218 72.5965 56.2813 71.3518L72.612 71.2895C74.3046 71.2895 75.3164 74.9999 76.0497 77.0911L59.133 77.1532V77.1533ZM69.5973 68.8325C66.6032 69.3035 60.6972 68.9286 57.3722 68.9515C53.6973 68.9769 52.6906 67.8628 48.6773 65.5495C51.5723 65.0706 57.6403 65.4479 60.8935 65.426C64.4541 65.4018 65.7307 66.4967 69.5972 68.8325H69.5973Z" fill="#E0E0E0"/>
<path fill-rule="evenodd" clip-rule="evenodd" d="M187.228 57.6886C180.282 48.2727 182.731 53.4906 177.529 38.8302C176.576 36.1437 174.904 37.0919 171.062 34.2311L172.193 32.2497C174.101 32.6514 176.942 34.2156 178.738 33.9338C179.797 32.8142 179.886 30.7645 180.715 29.4147L182.767 29.9476C181.876 37.9528 180.727 34.1255 186.883 43.8749C188.048 45.7189 188.626 46.3228 189.861 47.6744C191.167 49.103 195.606 53.5031 196.174 54.6346C196.932 56.1451 197.53 57.7379 197.66 59.6395C197.779 61.3922 197.347 62.6296 197.158 63.9157H199.373C199.49 63.2207 199.698 62.3876 199.77 61.3495C199.97 58.484 199.366 56.6783 198.354 54.425C197.665 52.8914 198.024 52.8408 198.621 51.2911C199.025 50.2417 199.363 49.0737 199.917 48.2445C203.971 49.9007 205.909 50.0835 209.091 47.0833C210.88 45.3968 210.528 47.4731 212.696 44.1852C213.831 42.4646 216.989 43.9268 219.49 39.3995C220.971 36.7191 220.653 33.7905 219.249 31.3329C223.844 27.2934 222.335 20.6097 216.641 18.9239C216.93 12.8346 212.479 13.1683 211.955 11.8066C211.638 10.9823 211.701 8.16379 208.821 6.69841C207.4 5.97553 206.328 6.30771 205.384 5.93663C205.202 5.86507 201.087 2.4136 203.85 8.23954C206.13 8.58927 207.163 7.69508 208.759 9.2916C210.154 10.6872 209.47 12.1873 209.738 14.0176C211.506 14.701 212.746 14.2735 213.85 15.7829C215.163 17.5777 213.894 19.0527 214.489 20.4979C216.347 21.8672 218.798 20.6009 219.745 24.5625C220.505 27.7413 218.47 29.1467 216.609 30.4625C216.678 32.7279 219.3 33.4389 218.062 37.4195C217.367 39.6562 215.573 41.0921 212.855 41.3977C211.728 36.1858 203.953 38.4823 207.525 45.5265C205.582 48.0039 203.279 47.4504 200.665 46.223C201.006 44.4853 202.128 43.1341 201.642 41.5507C200.347 41.2109 200.134 41.3173 199.588 42.6514C199.21 43.5739 198.878 44.5899 198.518 45.5381C197.832 47.3475 197.266 49.74 196.246 51.1932C195.081 50.3549 194.395 49.172 193.311 48.1751C192.07 47.0328 191.285 46.4217 190.442 45.1723C191.795 42.5157 193.951 39.2521 195.541 36.6294C198.891 31.1032 197.293 33.6235 196.085 25.9011L198.255 25.4743C200.756 35.4986 200.814 31.0865 207.542 26.898C207.596 26.9367 207.673 26.9406 207.694 27.0262C207.715 27.1119 207.816 27.1287 207.845 27.1559C208.026 27.3246 208.097 27.391 208.274 27.5697C208.55 27.8481 208.715 28.0301 208.973 28.3011C208.017 29.7229 199.446 35.9522 201.957 38.4085C203.612 39.822 203.908 36.6493 204.589 35.5194C204.87 35.0531 207.153 32.9046 207.721 32.4367C208.381 31.8934 208.82 31.5654 209.373 30.9753C209.91 30.4016 210.393 29.7857 210.963 29.4774C211.726 29.0642 216 29.0278 214.502 27.3476C213.946 26.6559 214.992 26.7707 212.274 27.0208C208.355 27.3815 209.197 22.3874 209.047 21.7015L207.614 21.5379C206.2 23.6622 208.114 23.7436 205.377 25.8526C204.32 26.6669 202.696 28.0683 201.612 28.6343C201.136 27.9575 200.025 24.9917 200.086 24.0792C200.169 22.8364 201.901 21.7092 200.678 19.3589L199.324 19.2122C198.351 21.1425 199.185 23.5502 196.226 23.7807C192.48 24.0721 193.546 20.2272 191.502 21.2199C190.573 21.8116 190.849 22.5928 191.721 23.7761C192.124 24.3226 192.163 24.379 192.692 24.7967C193.685 25.581 193.378 24.8783 193.842 25.9103C194.13 26.5488 195.38 32.2398 195.297 32.7462C195.209 33.2842 189.901 41.9531 189.136 43.2159C188.717 42.8032 184.476 36.3728 184.269 35.7589C183.958 34.8428 184.524 31.691 184.842 30.5003C185.447 28.2353 187.741 29.5316 187.02 26.8114C184.796 26.3254 184.381 28.9742 181.629 27.3867C179.773 26.3161 180.507 22.5149 178.493 24.0976C177.321 25.5011 178.887 26.7782 178.832 27.9362C178.804 28.522 177.83 30.8438 177.597 31.6742L172.507 30.0748C171.965 28.8426 171.665 26.1884 170.079 27.5179C169.476 28.1058 169.532 27.4939 169.769 28.7393C169.853 29.1788 171.153 31.2459 169.177 32.8642C166.661 34.9249 165.646 32.0531 163.562 32.6166C162.724 34.4811 164.922 35.6005 166.869 35.6691C170.23 35.7875 168.585 35.3592 172.205 37.369C175.452 39.1719 175.1 38.2281 175.926 40.7151C176.514 42.4854 177.373 44.3347 177.725 46.222C175.115 47.4006 172.805 48.0539 170.85 45.5265C174.402 38.4432 166.63 36.2105 165.517 41.3977C164.169 41.2474 163.421 41.0731 162.454 40.3498C161.636 39.7374 160.906 38.3654 159.934 39.4403C158.436 40.9837 162.267 42.7828 164.497 43.3917C165.866 43.7655 165.024 43.2009 165.674 44.1897C168.004 47.7322 166.63 44.699 169.829 47.6521C173.061 50.6355 176.234 49.0648 178.456 48.2727C181.284 52.6504 180.017 57.0558 179.484 61.7364C179.38 62.6493 179.33 63.3537 179.271 63.9156H181.396C183.712 52.66 181.799 56.8686 185.763 58.4937C186.438 58.7704 186.078 57.5514 187.228 57.6885V57.6886ZM189.752 34.8702C188.112 34.078 188.181 31.8177 189.752 31.2329C190.531 31.5073 190.905 31.8651 190.897 33.1026C190.889 34.251 190.556 34.497 189.752 34.8702ZM188.723 29.4098C184.541 31.2543 186.742 38.4008 190.868 36.7686C194.789 35.2183 192.862 27.5849 188.723 29.4098ZM176.102 21.8367C175.483 20.7009 174.848 19.018 176.762 18.2753C178.174 19.1989 178.504 21.7717 176.102 21.8367ZM175.701 16.3923C171.463 18.2534 173.601 25.2402 177.653 23.839C181.697 22.4408 179.844 14.5725 175.701 16.3923ZM198.788 15.4578C197.166 14.9439 197.277 12.8446 198.506 11.8707C200.458 12.1942 200.329 14.7141 198.788 15.4578ZM198.091 9.76796C194.3 10.6606 194.772 18.2904 199.293 17.5307C201.079 17.2306 202.22 15.1503 201.979 13.0548C201.75 11.0685 200.306 9.24658 198.091 9.76796H198.091ZM180.715 3.39644C176.943 2.6441 174.751 3.4102 173.32 5.98471C170.996 6.23948 169.973 6.0429 168.422 7.53853C166.244 9.64014 167.255 10.5094 166.228 12.1183C165.065 13.1451 164.229 12.8705 162.912 14.4493C161.909 15.6523 161.637 16.9684 161.733 18.9241C156.074 20.6086 154.487 27.3096 159.123 31.3299C158.758 31.9676 156.665 37.4521 159.413 36.2058C160.224 35.8381 160.081 34.3053 160.527 33.2436C161.02 32.0688 161.712 31.9902 161.76 30.4729C159.936 29.1386 157.997 27.9033 158.578 24.785C159.342 20.6818 162.1 21.809 163.879 20.4911C164.481 19.0642 163.21 17.5693 164.523 15.7826C165.623 14.2845 166.864 14.6975 168.632 14.0153C168.872 12.3293 168.23 10.828 169.475 9.43751C171.06 7.66595 172.119 8.61248 174.518 8.23668C177.432 2.18104 180.236 6.67813 181.764 6.15562C183.082 5.10694 182.287 3.7084 184.184 2.68732C186.516 1.43149 187.512 2.66917 189.187 3.29256C190.833 2.67941 191.692 1.49913 193.982 2.60666C196.225 3.69138 195.24 5.07708 196.611 6.15442C197.267 6.3776 202.154 4.3034 199.841 3.23191C199.097 2.8873 198.344 3.25173 197.658 3.39378C196.523 2.00674 196.208 1.17825 194.411 0.47732C191.481 -0.66519 190.683 0.771526 189.186 0.773055C186.557 0.775316 185.18 -2.16083 180.715 3.39644ZM209.52 44.3132C208.362 43.5034 208.077 41.4008 209.801 40.6698C210.608 41.1174 210.978 41.483 210.914 42.6877C210.849 43.9227 210.486 44.1473 209.52 44.3132V44.3132ZM168.573 40.6693C170.296 41.4084 170.008 43.4949 168.853 44.3132C167.885 44.1481 167.523 43.9249 167.458 42.6884C167.394 41.4798 167.761 41.1159 168.573 40.6693V40.6693Z" fill="#E0E0E0"/>
<path fill-rule="evenodd" clip-rule="evenodd" d="M169.682 61.305C169.682 60.1929 170.518 59.373 171.027 58.6092L172.85 56.2013C173.143 56.9412 173.907 57.9383 174.407 58.689C174.922 59.4615 175.674 60.1246 175.674 61.305L175.646 88.8738H177.666L177.663 84.3474C178.767 84.1505 181.593 84.8447 181.618 83.3075C181.643 81.765 179.022 82.3939 177.672 82.2277L177.663 78.3679C178.788 78.1748 181.582 78.872 181.625 77.3134C181.668 75.7906 178.99 76.4064 177.67 76.2444L177.663 71.3962C179.147 71.0918 180.131 71.5679 181.482 71.0148C182.097 68.6933 179.721 69.3033 177.671 69.3033V65.3123C179.067 65.3123 180.435 65.4636 181.568 65.0311L181.453 63.6032C180.452 63.1496 178.965 63.4146 177.727 63.2861C177.56 62.1457 177.932 60.7224 177.451 59.7099C177.195 59.1709 176.357 58.076 175.98 57.5095C172.941 52.9467 173.042 52.0055 170.832 55.3246C167.914 59.7083 167.7 58.8642 167.7 63.3135L162.705 63.326C162.705 59.2281 162.77 60.1123 160.912 57.3251C159.449 55.1312 158.822 53.3732 157.254 53.4185C156.222 54.5826 155.216 56.3293 154.297 57.7089C151.305 62.2016 153.47 60.424 152.606 63.3292L149.948 63.3092V65.3129L152.712 65.306L152.71 69.2964L149.948 69.3052V71.2963L152.712 71.2894L152.729 75.5899L152.625 76.2864L149.948 76.2688V78.289L152.72 78.2824L152.736 81.5732L152.638 82.2772L149.948 82.2555V84.2723L152.72 84.2658L152.725 88.5199L152.709 88.8736H154.713C154.462 80.4201 154.777 70.7772 154.705 62.0692C154.689 60.2117 155.043 60.1441 155.874 58.8989C156.446 58.0413 157.039 56.998 157.705 56.2711C158.403 57.0302 159.008 58.1064 159.614 59.0134C160.505 60.3491 160.718 60.2288 160.703 62.2653C160.638 71.0226 160.921 80.2679 160.753 88.8736H162.708L162.697 88.5198L162.699 84.2659L166.97 84.2555L167.695 84.3165L167.676 88.8736H169.692C169.497 80.5901 169.682 69.7941 169.682 61.3049L169.682 61.305ZM171.903 81.0687C173.445 81.5519 174.126 80.4027 173.382 79.6036C172.648 78.8156 171.343 79.4242 171.903 81.0687ZM157.261 66.4332C156.083 67.0154 157.013 68.7246 158.158 68.1471C159.205 67.6191 158.529 65.8076 157.261 66.4332ZM172.225 66.5063C170.872 67.3319 172.323 68.8838 173.341 68.0597C174.062 67.4765 173.461 65.7521 172.225 66.5063ZM156.876 79.5581C156.652 80.4687 156.688 80.5275 157.142 81.1446L158.271 81.202C158.765 80.467 158.772 80.535 158.532 79.5581C158.045 79.3561 157.359 79.1841 156.876 79.5581ZM162.711 78.2825L166.97 78.2723L167.699 78.3333L167.64 82.2676L162.757 82.276L162.697 81.5714L162.711 78.2825ZM162.687 71.2894L166.971 71.2749L167.69 71.3615L167.631 76.2771L162.757 76.2868L162.69 75.588L162.687 71.2894V71.2894ZM162.687 65.306L166.971 65.2916L167.685 65.3781L167.687 69.236L166.969 69.2964H162.69L162.687 65.306V65.306Z" fill="#E0E0E0"/>
</svg>
