<svg width="330" height="85" viewBox="0 0 330 85" fill="none" xmlns="http://www.w3.org/2000/svg">
<path fill-rule="evenodd" clip-rule="evenodd" d="M330 80.6136C319.046 80.6122 281.465 82.2013 272.831 84.957H264.249C271.307 82.2611 278.186 80.3249 286.017 79.0403C289.765 78.4253 327.523 77.894 330 77.704V80.6136ZM330 72.7906C318.066 71.2316 265.978 78.6053 254.783 84.242L253.532 84.9572H247.732C252.067 82.6154 256.211 80.4047 261.323 78.2486C272.988 73.3294 315.833 70.0326 330 69.9967V72.7906ZM330 64.9067C315.106 64.9256 279.297 63.7477 259.986 73.9638C254.619 76.3281 246.467 80.8062 238.638 84.9572H233.07C234.598 84.1509 235.985 83.3998 237.126 82.7937C251.804 75.0017 259.587 69.7997 276.427 65.331C289.288 61.9193 320.309 63.2454 330 62.1264V64.9065V64.9067ZM330 57.1434C324.359 56.1301 280.525 57.4484 275.096 60.6893C263.852 63.7153 253.543 68.9483 243.683 74.6028C239.204 77.1715 230.053 81.8078 222.705 84.9572H215.362C224.462 82.3413 248.065 68.832 253.55 66.065C260.148 62.7366 267.744 59.8205 275.462 57.7644C288.118 54.3932 326.241 54.8405 330 54.2093V57.1434ZM330 49.0616C324.947 48.685 291.988 47.8357 278.067 51.873C271.274 53.5975 264.348 55.9621 258.477 58.8133C256.234 59.9026 225.324 77.5956 223.291 75.9959C222.759 75.577 222.326 74.8907 223.143 74.0096L254.649 57.4769C254.702 57.4371 254.834 57.4099 254.873 57.2809C254.911 57.1503 255.025 57.1497 255.094 57.077C252.479 56.987 249.856 57.0367 247.239 57.0369L241.571 56.8929C238.712 55.8419 241.032 52.2297 242.261 51.0745C243.745 49.6783 245.499 49.3188 247.979 49.4259C249.163 46.3399 252.139 44.9351 256.595 45.4338C257.924 36.2557 270.588 32.7453 275.406 43.7307C282.114 43.9896 281.885 46.3353 283.843 47.7442L283.843 42.0561L282.736 41.557C282.457 41.4602 282.17 41.4057 281.864 41.3176C272.599 38.6507 268.884 27.3024 269.736 18.1185C270.619 8.62164 277.979 -3.15004 288.892 0.776008C289.917 1.14472 291.537 1.80462 291.941 2.5724C292.816 4.23688 291.113 4.80167 289.828 4.34416C286.87 3.29135 285.899 1.91235 281.838 3.35581C268.722 8.02034 269.328 36.7981 283.871 38.884L283.664 35.0563C280.833 34.209 278.519 33.757 277.118 32.0673C276.133 30.8787 273.536 25.5087 277.788 26.2734C279.404 29.681 278.099 31.5653 283.845 32.1606V21.7113C277.219 20.7494 276.81 14.4206 279.626 14.7789C282.088 15.0917 279.031 17.9309 283.845 18.8934C283.845 17.6927 283.576 14.0798 284.192 13.3659C287.783 9.21137 286.352 22.2617 286.678 26.5135C291.229 25.5081 290.255 23.5903 292.092 20.6647L293.717 20.7243C295.168 23.1546 292.276 27.0237 289.603 28.4232C285.824 30.4018 286.604 26.8823 286.606 38.7696C295.514 36.9073 298.796 24.4586 296.795 15.3347C295.643 10.0728 293.033 8.38845 294.394 7.05122C297.106 5.17084 299.071 12.7921 299.573 15.1338C301.835 25.6872 297.39 39.9702 286.605 41.5836V47.3018C290.143 46.9104 293.358 46.4385 296.969 46.2812C298.609 46.2095 328.983 46.1025 330 46.1177V49.0614L330 49.0616ZM209.952 84.9572C209.952 82.5809 210.034 80.1331 210.356 78.7819C211.715 78.0159 213.66 77.5974 215.47 76.9683C217.459 76.277 218.808 75.2646 219.595 77.4242C219.623 79.2335 214.797 79.8474 212.791 80.8912V84.9573H209.952V84.9572ZM280.337 48.3195C279.089 46.7812 277.918 46.3952 275.371 46.676C272.044 47.0432 273.556 45.7763 272.166 43.2955C270.583 40.4693 266.692 38.5176 262.783 40.6384C257.78 43.3537 260.518 49.1788 257.687 48.8907C256.065 48.7264 255.038 47.0733 252.292 48.5769C250.4 49.6128 250.739 50.7483 249.45 52.3143C246.631 52.8312 245.167 50.9609 243.331 54.1264C245.969 54.5813 251.309 54.2778 254.239 54.2778C266.186 54.2778 260.98 53.9337 272.073 50.671C274.159 50.0574 278.669 49.3532 280.337 48.3193L280.337 48.3195Z" fill="#E0E0E0"/>
<path fill-rule="evenodd" clip-rule="evenodd" d="M248.779 12.8798C255.789 12.7151 256.263 16.8078 257.602 18.0643C258.487 18.8949 265.107 19.7088 263.484 25.5555C261.089 26.7511 232.355 26.1061 232.016 25.9065C230.92 25.2619 231.053 23.9403 232.286 23.4782L260.646 23.3673C259.389 20.8174 258.307 21.5179 255.616 21.088C254.742 19.1529 254.941 17.8077 252.909 16.496C250.509 14.9466 249.37 16.1206 247.011 15.7449C246.216 14.6229 245.172 8.21738 238.777 8.87683C233.711 9.39955 233.063 13.1173 232.688 15.9306C232.467 17.5917 233.067 16.7098 231.984 17.662C230.092 19.2428 226.807 13.3047 223.077 21.4944C220.232 21.8709 218.049 20.3372 216.749 23.2761C218.893 23.4837 221.483 23.3826 223.671 23.3596C228.997 23.3037 227.621 25.3658 226.995 25.8028C225.924 26.5505 221.898 26.1262 220.345 26.1266C218.232 26.1272 215.425 26.6928 213.913 25.2606C213.216 24.2294 213.441 18.6022 221.399 18.4652C222.877 15.4175 225.264 13.9415 230 14.5483C231.25 4.32243 245.396 2.90993 248.779 12.8795V12.8798Z" fill="#E0E0E0"/>
<path fill-rule="evenodd" clip-rule="evenodd" d="M213.808 63.1326C214.869 61.2268 215.385 60.7521 215.258 57.9041C215.152 58.0521 215.223 57.8939 215.045 58.2503L214.284 60.5123C214.117 61.1174 213.499 62.6447 213.808 63.1324V63.1326ZM166.656 64.0467C166.609 62.3136 165.228 59.2315 164.776 57.5897C164.024 54.8577 164.833 55.652 163.525 54.6877C161.159 52.9418 161.151 51.4616 160.212 49.7385C159.687 48.7736 159.009 47.9956 158.436 47.3791C157.344 46.2014 155.579 44.6478 153.082 44.6319C153.053 45.5484 153.29 46.3373 152.983 47.2296C152.751 47.9024 152.248 48.2995 152.07 48.9105C152.705 49.5151 153.491 49.9122 154.335 50.5186C164.058 57.5103 161.438 63.1103 166.656 64.0468V64.0467ZM147.585 38.4924C146.91 38.3285 146.109 37.4297 145.084 37.1962C143.603 36.8584 142.038 38.1485 141.026 38.0646C140.272 38.0023 139.852 37.2268 140.34 36.4847C140.601 36.0884 143.916 34.4998 146.215 35.4462C148.676 36.4593 146.629 36.418 150.233 36.607C154.468 36.8287 160.691 37.4385 164.517 37.0981C167.602 36.8239 169.046 35.2054 173.003 35.6606C176.125 36.0197 178.431 36.9749 181.861 36.9355C185.144 36.8973 188.102 36.4556 191.396 36.3627C194.765 36.2676 198.118 36.4602 201.569 36.3255C204.784 36.2 207.866 35.8594 211.106 35.7067C214.654 35.5397 217.386 34.9444 219.809 36.8745C221.973 38.5979 222.643 40.969 222.456 44.2429C222.275 47.4082 222.157 50.7818 222.08 53.9955C221.989 57.8388 221.767 60.1928 222.53 63.7361C223.149 66.6118 223.362 70.0839 222.771 73.1406C222.508 74.5055 222.132 75.8077 221.6 77.0322C221.313 77.692 221.102 78.3131 220.442 78.423C219.691 78.5481 219.183 77.9956 219.296 77.2695C219.331 77.0435 220.339 74.847 220.631 73.5288C220.854 72.5187 221.551 67.3435 220.801 66.6654C219.866 68.4801 221.051 72.2334 219.689 72.7352C217.933 72.8957 218.281 71.3151 218.32 69.8847C218.356 68.5788 218.518 67.398 218.717 66.2301C219.407 62.172 220.024 62.7825 219.976 59.0824C219.93 55.4252 220.13 51.0168 220.227 47.2825C219.123 47.801 218.048 50.8814 217.512 52.2926C216.982 53.6892 216.629 53.6055 216.986 55.3209C217.789 59.1853 217.249 62.0844 214.956 64.9988C213.992 66.224 213.63 65.7275 213.827 67.8172C214.046 70.1383 211.47 75.5535 211.74 78.7884C211.827 79.8282 212.827 81.6283 211.414 81.8428C210.12 82.0393 209.856 80.3097 209.734 79.259C209.493 77.1912 210.436 73.7816 210.935 71.8083C211.139 71.0013 211.84 69.0593 211.853 68.4537C211.879 67.247 211.492 66.0244 211.471 64.6466C211.397 59.8203 215.215 53.5753 215.575 51.4533C213.97 50.5458 212.416 51.4658 211.401 49.264C210.582 47.488 210.618 46.4414 208.464 45.9833C206.553 45.5768 205.249 45.2131 204.94 43.3255C204.561 41.0128 205.642 39.8786 205.964 38.1213L196.801 38.4789C194.444 38.5782 194.469 37.9011 192.905 39.295C192.066 40.043 191.276 40.8289 190.577 41.5749C186.516 45.9133 191.259 46.758 193.095 49.4399C195.985 53.6615 194.387 58.4545 190.92 58.1944C189.059 58.0547 186.965 55.7148 185.241 54.4394C182.582 52.4727 179.641 55.3589 178.384 52.3629C177.357 49.9159 178.524 46.7429 179.508 44.967C180.772 42.6829 183.093 42.1522 181.664 38.9442C176.943 38.9215 174.877 37.6442 171.894 37.6833C172.203 38.6939 172.851 39.4251 173.29 40.6031C174.614 44.1624 171.48 46.8714 170.851 49.4721C170.159 52.3356 172.247 53.7389 172.225 56.0643C172.213 57.2548 171.583 58.1874 170.815 58.6755C169.667 59.406 168.736 59.1324 167.43 58.9427C167.512 59.7294 168.342 62.0583 168.628 63.1309C169.735 67.2874 170.324 73.0243 170.318 77.3605C170.314 80.3735 169.12 80.4 169.062 82.0864L171.689 82.0946C172.431 82.096 173.357 81.9737 173.781 82.4286C174.208 82.8865 174.092 83.6808 173.564 83.9918C173.04 84.3006 169.892 84.1519 168.987 84.1514C168.172 84.1508 167.028 84.2898 166.664 83.6973C166.412 82.6803 167.266 80.5663 167.692 79.7002C168.494 78.0751 168.303 77.3416 168.225 75.2941C168.166 73.7508 168.096 71.9991 167.895 70.4705L167.285 66.6609C167.052 65.9827 166.383 66.2316 165.173 65.7483C161.3 64.2027 160.975 61.2657 159.474 58.7398C157.655 55.6798 155.057 53.4922 151.945 51.3206C148.549 48.9509 150.861 52.0986 144.51 52.1153C141.73 52.1227 138.823 52.574 137.364 51.6109C135.675 50.4956 135.912 49.2419 137.136 47.5804C139.303 44.6363 139.205 45.3402 140.863 42.079C141.29 41.2402 144.649 36.2 145.401 38.8121C145.656 39.6986 144.162 40.7576 143.048 42.3631C142.339 43.3853 142.707 43.5808 140.738 46.2455C140.118 47.0849 138.338 48.9641 138.299 49.8599C139.879 50.4597 141.345 50.062 143.238 50.0582C145.64 50.0536 146.689 50.2645 148.753 48.8522C149.552 48.3054 151.01 47.2906 151.1 46.2123C151.215 44.8532 150.583 43.4099 149.823 42.4806C148.651 41.0478 148.8 40.6184 148.719 38.738L147.585 38.4922L147.585 38.4924Z" fill="#E0E0E0"/>
<path fill-rule="evenodd" clip-rule="evenodd" d="M206.128 66.7749C205.882 65.0186 204.429 62.3327 203.476 61.0455C202.554 61.0557 200.923 62.2277 200.386 63.0563C200.621 65.6037 203.328 66.794 206.128 66.7749ZM211.83 84.9565H205.477L205.437 84.9283C205.132 83.7735 206.066 82.1906 206.356 81.0416C206.681 79.7567 206.841 78.2423 207.034 76.9282C207.249 75.4544 207.437 74.2395 207.624 72.7571C207.904 70.5408 207.66 70.5852 207.118 68.7313L206.04 68.8211C205.667 69.3578 205.8 70.1668 204.756 70.0914C203.846 70.0257 203.892 69.3965 203.757 68.5307C200.609 67.8131 199.67 66.792 198.503 64.3949C194.891 66.4113 192.136 67.3914 187.042 66.6401C183.724 66.1509 176.954 64.2888 175.192 64.3509C174.297 66.926 174.06 65.4827 173.551 69.9775C172.745 77.1058 173.985 76.7835 174.056 79.9238C174.088 81.3269 172.483 81.4936 172.116 80.4346C171.799 79.52 171.207 75.2667 171.2 74.1833C171.188 72.2305 171.459 69.3291 171.848 67.503C172.324 65.2698 173.129 64.2091 173.874 62.3698C175.078 59.4006 174.145 56.9524 175.674 56.8061C177.819 56.6008 176.203 61.0201 176.163 62.2618L183.239 63.8695C188.846 65.0757 192.36 65.6684 197.385 62.6804C198.291 62.1419 199.032 61.42 199.769 60.7862C200.185 60.4286 200.551 60.143 201.04 59.819C201.406 59.5759 201.972 59.3707 202.325 59.083C202.075 58.1818 201.469 57.0242 201.069 55.9514C200.151 53.4866 198.511 47.2827 199.039 44.9594C199.18 44.3389 199.826 43.9774 200.556 44.322C201.133 44.5947 201.039 45.2859 201.042 46.0436C201.061 49.9518 203.047 56.5502 205 59.6374C207.729 63.9521 207.156 63.6674 209.175 68.4831C210.439 71.5003 209.169 75.9405 208.672 79.6737C208.465 81.2269 208.017 82.0785 207.875 83.3163C209.208 83.3069 210.584 83.0403 211.904 83.2447C212.609 84.2233 212.417 84.7085 211.83 84.957V84.9565Z" fill="#E0E0E0"/>
<path fill-rule="evenodd" clip-rule="evenodd" d="M145.75 42.6938C147.161 43.6282 145.772 45.3488 144.528 44.6179C143.327 43.912 144.391 41.7936 145.75 42.6938Z" fill="#E0E0E0"/>
<path fill-rule="evenodd" clip-rule="evenodd" d="M103.46 79.1736H105.546V75.3092C113.695 74.0902 117.053 63.2986 115.344 55.3251C114.964 53.556 113.48 47.7978 111.431 49.2186C110.403 50.2287 112.374 51.5014 113.245 55.4771C114.757 62.3706 112.277 71.7763 105.547 73.1831C105.545 64.2017 104.956 66.8609 107.811 65.3659C109.831 64.3087 112.016 61.3853 110.919 59.5492L109.692 59.504C108.304 61.7143 109.04 63.1635 105.601 63.923C105.355 60.7107 106.436 50.8506 103.723 53.9895C103.257 54.5289 103.461 57.2587 103.461 58.1659C99.8236 57.4387 102.134 55.2935 100.273 55.0572C98.1454 54.7864 98.4546 59.5682 103.461 60.2951V68.19C99.1193 67.7401 100.105 66.3165 98.884 63.7418C95.672 63.1641 97.634 67.2213 98.3783 68.1194C99.4367 69.396 101.185 69.7374 103.324 70.3776L103.481 73.2696C92.4928 71.6938 92.0353 49.9506 101.944 46.4265C105.012 45.3358 105.746 46.378 107.981 47.1734C108.952 47.5191 110.239 47.0926 109.578 45.8348C109.273 45.2547 108.048 44.756 107.274 44.4774C99.0293 41.511 93.468 50.4053 92.8013 57.5805C92.5244 60.5625 92.8848 63.8467 93.9419 66.7826C94.8872 69.4084 96.3896 71.755 98.4913 73.3578C99.5073 74.1327 100.663 74.7338 101.964 75.1084C102.195 75.1748 102.413 75.216 102.623 75.2892L103.459 75.6663L103.46 79.1739L103.46 79.1736Z" fill="#E0E0E0"/>
<path fill-rule="evenodd" clip-rule="evenodd" d="M68.2288 79.1733H70.7487V74.5056C80.5913 73.0333 84.6476 59.9992 82.5832 50.3685C82.1246 48.2316 80.3323 41.2766 77.8573 42.9927C76.6151 44.213 78.9965 45.7501 80.0483 50.5518C81.874 58.878 78.8786 70.2382 70.7497 71.9377C70.7478 61.0897 70.0365 64.3013 73.4851 62.4958C75.9241 61.2186 78.5635 57.6879 77.2391 55.4699L75.7561 55.4155C74.0799 58.0853 74.9692 59.8354 70.816 60.7527C70.5179 56.8728 71.8239 44.9635 68.5471 48.7549C67.9845 49.4064 68.2306 52.7034 68.2306 53.7991C63.8372 52.9209 66.6273 50.3298 64.38 50.0445C61.8107 49.7174 62.1841 55.4929 68.2306 56.3707V65.9063C62.9868 65.3632 64.1776 63.6435 62.7025 60.534C58.8226 59.8362 61.1926 64.7365 62.0917 65.8213C63.3697 67.3633 65.4817 67.7754 68.0649 68.5488L68.2542 72.0418C54.9826 70.1381 54.4298 43.8767 66.3983 39.6198C70.1044 38.3026 70.9904 39.5612 73.69 40.5219C74.8629 40.9395 76.4173 40.4241 75.6183 38.9051C75.2497 38.2043 73.7711 37.6021 72.8358 37.2657C62.8775 33.6831 56.1606 44.4254 55.3554 53.0919C55.0208 56.6937 55.4563 60.6605 56.733 64.2062C57.8746 67.3776 59.6894 70.2122 62.2277 72.1482C63.4549 73.0841 64.8514 73.8101 66.4228 74.2625C66.7014 74.3427 66.964 74.3926 67.2183 74.4808L68.2284 74.9362L68.2288 79.1728V79.1733Z" fill="#E0E0E0"/>
<path fill-rule="evenodd" clip-rule="evenodd" d="M34.6973 79.174H36.2569V76.2846C42.3495 75.3734 44.8605 67.3051 43.5825 61.3436C43.2987 60.0208 42.1891 55.7156 40.6571 56.7779C39.8883 57.5332 41.3622 58.4848 42.0136 61.4572C43.1436 66.6111 41.2895 73.6431 36.2578 74.6951C36.2564 67.9801 35.8162 69.9683 37.9508 68.8507C39.4605 68.0602 41.0945 65.8745 40.2746 64.5017L39.3567 64.468C38.3191 66.1205 38.8694 67.2041 36.2985 67.7717C36.114 65.3701 36.9225 57.9981 34.8942 60.3452C34.546 60.7484 34.6982 62.7893 34.6982 63.4675C31.9786 62.9239 33.7058 61.32 32.3146 61.1433C30.7242 60.9411 30.9553 64.5161 34.6982 65.0594V70.9619C31.4522 70.6256 32.1894 69.5614 31.2764 67.6364C28.8748 67.2044 30.3417 70.2378 30.8983 70.9093C31.6896 71.8638 32.9967 72.1188 34.5957 72.5976L34.713 74.7598C26.4976 73.5816 26.1557 57.3256 33.5642 54.6905C35.8583 53.8751 36.4065 54.6541 38.0775 55.2488C38.8036 55.5073 39.7658 55.1883 39.2712 54.248C39.0431 53.8144 38.1278 53.4415 37.5487 53.2332C31.3845 51.0157 27.2268 57.6652 26.7281 63.0297C26.5211 65.2593 26.7908 67.7148 27.581 69.9098C28.2877 71.8728 29.4109 73.6275 30.9822 74.8257C31.7417 75.4052 32.6062 75.8546 33.579 76.1347C33.7514 76.1844 33.914 76.2151 34.0713 76.2698L34.6967 76.5518L34.6968 79.1741L34.6973 79.174Z" fill="#E0E0E0"/>
<path d="M0 84.9571C5.49872 82.787 10.931 80.6856 14.7447 79.9724C18.3974 79.2893 21.8081 78.8413 25.4131 78.5139C29.0086 78.1876 32.7551 77.9838 37.1119 77.7871C41.358 77.5953 46.2449 77.4075 51.5035 77.2303C56.8703 77.0499 62.6256 76.881 68.4791 76.7316C74.2048 76.5857 80.0089 76.4586 85.5535 76.4299C91.1118 76.4012 96.3725 76.4701 100.967 76.7159C110.048 77.2016 116.596 78.3608 124.223 79.7103L124.76 79.8055C132.808 81.2291 141.582 82.7553 150.363 84.2825L150.66 84.3342L150.554 84.9571H137.762C132.949 84.1174 128.362 83.3141 124.274 82.591L123.737 82.4958C110.229 80.1058 100.581 78.3919 86.9404 78.4625C81.454 78.4911 74.279 79.4041 68.5455 79.5502C62.7514 79.6979 57.0041 79.8668 51.5917 80.0489C46.4181 80.2232 41.5465 79.7234 37.2336 79.9181C32.1704 80.1465 20.1352 81.2462 15.2644 82.1573C12.8965 82.6003 9.88288 83.6573 6.61237 84.9572H0.000150251L0 84.9571Z" fill="#E0E0E0"/>
<path d="M19.1022 84.9572C20.7016 84.4354 22.1724 84.0252 23.441 83.7879C26.682 83.182 29.7081 82.7844 32.9066 82.494C36.0969 82.2043 39.4209 82.0237 43.2867 81.8493C47.0541 81.679 51.3901 81.5124 56.0559 81.3552C60.8178 81.1951 65.9243 81.0451 71.1179 80.9127C76.1981 80.7832 81.348 80.6705 86.2676 80.6451C91.1993 80.6194 95.867 80.6806 99.9437 80.8986C108 81.3295 113.811 82.3581 120.578 83.5555L121.055 83.6399C123.484 84.0697 125.988 84.5097 128.541 84.9572H114.032C105.001 83.4152 97.4461 82.3968 87.4982 82.4483C82.6302 82.4737 76.2641 83.2838 71.1769 83.4135C66.0358 83.5445 60.9366 83.6945 56.1343 83.856C51.5437 84.0106 47.2214 83.5671 43.3946 83.7399C40.2898 83.8797 34.2308 84.3891 29.3569 84.9572H19.1021H19.1022Z" fill="#E0E0E0"/>
</svg>
