<svg width="252" height="92" viewBox="0 0 252 92" fill="none" xmlns="http://www.w3.org/2000/svg">
<path fill-rule="evenodd" clip-rule="evenodd" d="M130.221 67.5964H123.691L123.706 62.1604H141.095V67.5964H134.611L134.553 64.4003L130.27 64.3521L130.221 67.5964ZM131.318 50.2118H133.457L133.475 46.9539H131.348L131.318 50.2118ZM131.315 56.7305H133.489L133.485 53.4727H131.315V56.7305ZM137.985 38.266C142.165 41.8506 145.883 46.0663 149.834 49.8445C151.175 51.1261 152.453 52.2973 153.699 53.5777C153.205 54.2152 152.792 54.7188 151.887 55.1448C149.586 52.1295 137.357 41.3487 136.43 39.4921L137.985 38.2659L137.985 38.266ZM111.97 52.7807C113.284 51.4035 114.785 50.2451 115.994 48.8692C117.421 47.2443 118.342 46.394 119.779 45.0176L127.615 37.4344L129.122 39.0276C127.77 40.4384 126.472 41.5643 125.073 42.9273C124.384 43.5991 123.955 44.2646 123.261 44.9303C122.551 45.6115 122.018 46.1143 121.306 46.7968C119.908 48.1368 114.434 53.7326 113.173 54.3748C112.72 53.7933 112.439 53.7154 111.97 52.7808L111.97 52.7807ZM145.235 39.163L156.875 50.5734L155.304 51.9912C154 50.9964 152.512 49.3818 151.253 48.1724L143.446 40.4449C142.157 39.2137 140.849 37.8183 139.549 36.7437C139.956 35.9829 140.433 35.4666 141.399 35.1193C142.358 36.4558 144.009 37.9882 145.235 39.163ZM121.889 59.9897C122.232 58.0709 125.06 46.3054 125.605 45.4932C126.143 44.6897 129.314 41.8881 130.263 40.9839C133.719 37.6925 130.797 38.712 129.677 36.0904C131.402 36.0875 134.859 35.796 136.121 36.3099C136.145 37.6701 134.054 37.8353 133.708 39.7916C134.072 40.8391 136.462 42.6739 137.275 43.5607C137.63 43.9484 137.835 44.2887 138.195 44.6737C138.516 45.0172 138.827 45.2213 139.101 45.5505C139.964 46.5872 142.673 58.5728 142.888 59.9896H121.889L121.889 59.9897ZM108.756 49.6756C109.502 48.6311 111.603 46.8384 112.676 45.8098L124.563 34.3049L126.038 35.6281C125.521 36.9285 123.219 38.6807 122.13 39.7268C119.884 41.8837 111.179 50.7406 110.212 51.2271L108.756 49.6756H108.756ZM135.71 29.643C136.59 30.9975 137.038 31.8854 137.421 33.8794C135.657 33.8826 135.178 32.0755 134.004 31.1847L135.71 29.6431L135.71 29.643ZM127.365 33.8573C127.895 31.628 128.201 31.265 129.152 29.5525L130.766 31.1556C130.259 31.7379 129.754 32.1664 129.159 32.7517C128.532 33.369 128.387 33.8653 127.365 33.8573ZM130.914 28.1003C132.215 27.3287 132.564 27.4438 133.955 28.1265L132.358 29.5773L130.914 28.1003ZM139.615 25.7839C142.832 22.2155 147.841 17.6092 151.51 14.093C153.486 12.1999 154.104 10.742 155.679 10.388C156.038 10.8998 156.46 11.3637 156.854 12.0734C154.014 14.0164 143.119 26.0658 140.968 27.2723C140.585 26.9484 139.965 26.1483 139.615 25.7839ZM111.598 12.4386C113.945 14.6778 123.639 23.8677 125.217 25.813L123.723 27.2315C121.44 25.5501 114.608 18.3132 111.761 15.5896C110.687 14.5615 108.573 12.8915 107.943 11.6978L109.461 10.4066C110.07 10.7722 109.522 10.3831 110.07 10.9065L111.598 12.4386V12.4386ZM136.456 22.7278C137.236 21.1815 142.757 16.7846 144.38 14.858C145.689 13.3039 150.962 8.05568 152.254 7.24624L153.633 8.72013C151.395 11.5683 148.289 14.1591 145.808 16.543L137.961 24.2093L136.456 22.7279V22.7278ZM112.759 7.24284L118.578 13.0983C120.14 14.7977 127.737 21.4782 128.391 22.777L126.781 24.1959L114.965 12.6376C114.07 11.7818 111.661 9.78031 111.101 8.64657L112.759 7.24276V7.24284ZM123.723 29.9479C125.195 29.3988 125.651 27.9552 127.002 27.3668L127.493 27.8765C127.21 28.9628 126.45 29.0749 125.606 32.0115C123.373 31.6804 124.618 31.0928 120.366 35.1642C119.51 35.9839 118.899 36.8344 118.029 37.6615C116.029 39.5631 106.099 48.7003 106.042 49.7246C106.004 50.4202 110.242 54.2678 111.698 55.8894C112.25 56.5038 113.058 57.4742 114.131 56.7132C115.09 56.0321 117.158 53.7936 118.165 52.8263C119.263 51.7715 121.14 49.746 122.255 49.0212C122.066 50.8781 120.262 57.3163 119.616 59.8886C119.123 61.8501 119.564 62.1547 121.536 62.1603V67.5963H119.409L119.139 69.7668L145.364 69.7691L145.395 67.5956L143.265 67.5963V62.1603C145.065 62.1523 145.695 62.0704 145.23 60.066C144.547 57.1281 142.785 51.3478 142.523 48.9873L149.501 55.5301C150.207 56.2385 150.926 57.5489 151.86 57.7417C152.763 57.9283 158.301 52.397 158.993 51.6117C160.361 50.0589 158.648 49.285 156.143 46.8458C155.323 46.0478 154.774 45.2686 153.936 44.4731L144.571 35.496C141.304 32.3766 142.18 31.6132 139.596 33.3436C138.393 28.8303 137.776 29.328 137.282 27.8811L137.961 27.4017C141.8 29.9634 139.14 32.2209 145.868 25.7696C146.712 24.9606 147.364 24.3319 148.21 23.5271C149.033 22.7444 149.605 21.9335 150.418 21.1544C151.646 19.9768 159.629 12.8464 159.547 11.7762C159.519 11.4098 153.24 4.47735 151.993 4.6466C151.27 4.74467 138.338 17.6831 135.839 20.073C133.741 22.0796 132.778 22.3833 135.021 24.418C135.715 25.0473 136.038 25.13 136.243 26.0754C134.16 27.3417 134.343 23.8718 130.295 26.0055C129.19 26.5874 129.441 26.5917 128.563 26.0369C128.919 24.6207 130.808 24.1147 131.032 22.8995C131.246 21.7376 129.251 20.3171 128.57 19.6647C126.513 17.6922 124.647 15.9012 122.589 13.9279C121.54 12.9215 120.612 12.0903 119.592 11.0658L116.736 8.06804C111.964 3.49214 113.492 3.33561 107.381 9.18957C103.039 13.3492 106.339 12.5317 113.078 19.8768C114.97 21.9398 122.271 29.472 123.723 29.9479Z" fill="#E0E0E0"/>
<path fill-rule="evenodd" clip-rule="evenodd" d="M191.883 91.6839C192.966 89.2109 197.777 84.292 199.493 82.7941C201.135 81.3609 202.051 80.5089 203.887 79.1218C205.493 77.9083 206.896 76.953 208.674 75.8439C219.981 68.7919 221.392 70.0206 235.644 70.2624L231.752 72.6947C226.09 75.9977 220.507 80.5506 216.3 85.4748C212.534 89.8821 213.136 91.3259 210.283 91.7295H251.067C247.702 91.4349 242.066 91.6956 239.33 91.6956C240.626 88.6148 244.726 85.1883 246.169 83.4794C247.774 81.5784 249.667 80.3407 251.069 79.3511V75.6495L250.975 75.6739C247.988 76.4507 238.264 87.1319 235.661 91.6955H215.606C216.709 89.4057 220.783 84.8402 222.333 83.4541C224.901 81.1565 227.459 79.1152 230.762 76.9394C244.949 67.5947 248.087 70.7173 251.069 70.3463V67.2966C247.979 66.7703 242.736 67.2188 240.144 67.2188C240.223 65.3558 239.948 65.8281 241.257 64.8473C241.473 64.6852 242.646 64.0097 243.014 63.7872C246.686 61.5715 245.078 60.2858 243.515 60.2174C242.14 60.1572 242.044 61.0426 240.205 61.8303C239.93 56.7858 243.01 60.5475 242.613 56.2863C240.844 55.0259 241.172 55.6937 240.818 55.5878C240.03 55.3509 240.27 55.3165 239.533 53.0463C236.904 52.8445 237.151 53.411 237.113 55.877C235.41 55.564 236.004 55.4304 234.651 56.1329C234.353 60.5989 237.191 56.7942 237.1 61.9007C235.243 61.1094 234.424 59.4374 232.52 60.5581C231.469 62.5859 233.045 63.1022 234.537 64.0038C236.422 65.1433 237.028 64.9808 237.123 67.2296L215.458 67.0034C215.572 63.5861 222.123 63.5905 220.063 60.8152C219.995 60.7333 219.909 59.3215 217.446 60.7668C216.256 61.4647 216.979 61.4651 215.458 61.7665C215.466 57.9975 216.136 60.1238 217.631 58.1131C218.979 56.3008 217.254 55.6381 215.458 55.7288C215.439 54.4094 215.352 53.9178 214.846 53.0869C212.23 52.7855 212.455 53.5979 212.421 55.7094L209.967 56.0517C209.811 58.5254 210.761 58.501 212.394 59.5464L212.429 61.9088C210.692 61.0003 209.781 59.5927 207.832 60.4753C206.805 62.3429 208.152 62.8744 209.698 63.8433C211.337 64.8706 212.341 65.0059 212.436 67.2215L190.774 67.0939C190.907 63.1528 197.073 64.3356 195.374 60.4082C193.07 59.6896 192.729 61.1299 190.772 61.844C190.772 57.5127 193.543 59.2961 193.387 57.0353C192.7 55.5543 192.412 55.5596 190.772 55.8098C190.756 54.5982 190.601 53.8607 190.163 53.0306L188.36 53.1293C187.921 53.8575 187.767 54.595 187.751 55.8081C186.09 55.5898 182.746 56.2164 187.71 59.624L187.751 61.8406C185.8 61.1294 185.459 59.6911 183.148 60.4063C181.448 64.3347 187.616 63.1145 187.751 67.2075L166.088 67.185C166.184 65.0392 167.207 64.854 168.835 63.8528C170.375 62.9055 171.655 62.5283 170.689 60.4784C168.747 59.5897 167.841 61.006 166.075 61.91L166.165 59.5537C167.771 58.5243 168.709 58.5096 168.567 55.9019L166.088 55.882C166.067 53.6235 166.288 52.7697 163.675 53.0853C163.167 53.9158 163.084 54.407 163.065 55.7272C161.609 55.6548 160.011 55.8362 160.602 57.611C160.918 58.5611 162.144 59.0506 163.027 59.6938L163.065 61.7647C161.467 61.4513 162.059 61.2321 160.812 60.5924C158.387 59.3488 158.466 60.8086 158.462 60.8136C156.388 63.5913 162.951 63.5435 163.065 67.0016C160.317 67.6341 115.771 67.0797 112.862 67.154C110.618 67.2112 99.0977 66.6226 110.921 69.9265C113.724 70.7098 161.491 70.1563 164.54 70.2962C163.664 71.1711 156.845 74.7323 152.563 78.242C147.698 82.2283 151.354 82.724 151.986 82.4973C152.725 82.2326 156.296 79.1708 157.472 78.3041C167.966 70.5632 174.545 69.1691 188.254 70.3362C186.998 71.5018 182.866 73.5405 181.234 74.6269C175.953 78.1407 175.573 79.016 171.979 82.3178C169.298 84.7815 166.249 88.4458 164.463 91.6897C161.673 91.7042 155.671 91.3824 152.138 91.7294H198.456C196.556 91.704 194.383 91.685 191.883 91.6838V91.6839ZM168.157 91.6441C172.431 83.9368 187.99 72.3634 196.039 70.4432C197.873 70.0057 209.809 70.09 211.979 70.3809C209.225 72.5939 203.719 74.511 198.343 79.6406C196.381 81.5121 194.148 83.5822 192.562 85.5495C191.85 86.4339 188.515 91.4957 187.447 91.6988L168.157 91.6441Z" fill="#E0E0E0"/>
<path fill-rule="evenodd" clip-rule="evenodd" d="M178.664 39.6078C179.625 38.6448 183.859 35.2517 185.449 35.1845C187.083 35.1153 191.427 38.3579 192.16 39.2547C190.104 40.7502 187.625 41.9965 185.512 43.6346C183.277 42.7776 180.819 40.7624 178.664 39.6078H178.664ZM251.069 53.3712V57.0871C251.002 57.0652 250.935 57.04 250.867 57.0107L232.636 42.5013C229.481 39.9093 230.177 40.8136 226.253 42.1814C224.161 42.9109 220.822 43.8262 218.382 43.7121C217.391 42.19 216.354 41.7083 215.1 40.6694C209.814 36.2937 208.813 32.3909 203.61 35.6703C198.581 38.8405 193.219 42.0922 188.335 45.3693C190.17 47.4638 192.452 46.4631 192.223 49.7854C190.309 50.9495 188.823 49.4504 186.949 48.257L171.724 38.8649C165.591 34.9674 167.14 35.2976 161.037 39.0905L151.888 44.549C150.142 44.6677 148.47 43.0695 152.064 41.0265L161.819 35.0359C169.547 30.2107 168.636 34.8583 175.746 37.6459C178.438 36.4121 182.042 32.208 185.451 32.1098C188.988 32.008 192.416 35.9796 195.112 37.3344C202.825 33.6164 205.784 27.0413 213.442 35.0717L218.274 39.515C221.899 43.0955 228.15 35.8117 232.523 38.5704L248.223 51.1272C248.767 51.5601 249.994 52.4594 251.069 53.3711L251.069 53.3712Z" fill="#E0E0E0"/>
<path fill-rule="evenodd" clip-rule="evenodd" d="M210.684 18.0616C210.186 15.2878 211.372 13.6188 213.821 13.2069C217.183 12.642 217.958 15.8829 219.131 11.6655C220.348 7.28577 223.11 4.16082 227.609 3.22409C232.577 2.18989 237.435 4.95827 238.469 8.83308C239.403 12.3287 237.098 14.2883 237.683 15.6691C238.357 17.262 241.518 16.0704 243.61 18.2705C238.376 18.3583 213.987 18.932 210.684 18.0616L210.684 18.0616ZM216.419 10.1619C210.633 9.97141 207.151 12.2931 207.579 18.2615L201.437 18.4263C200.624 21.8746 203.166 21.3453 206.004 21.3181C212.23 21.2583 243.025 21.6312 245.147 21.2421C250.23 20.3097 246.264 14.6765 241.314 13.8934C242.608 6.22226 238.8 1.02595 231.427 0.10476C223.967 -0.827605 217.842 4.62167 216.419 10.1619H216.419Z" fill="#E0E0E0"/>
<path fill-rule="evenodd" clip-rule="evenodd" d="M72.9021 79.2904L69.4619 91.3135H96.9451L79.6874 91.208L87.1335 70.7909C89.3875 71.3454 92.4211 76.5904 93.7536 79.2948C95.5044 82.8484 96.7493 86.8931 97.2893 91.3134H105.811C105.573 91.2764 105.25 91.2401 104.655 91.077C103.935 84.3905 102.981 76.5343 101.847 69.9599C101.426 67.5164 101.938 69.0013 100.737 67.8776C95.281 62.7701 96.0305 62.494 93.3866 55.3288C93.2903 51.5565 97.6268 46.3584 95.1842 40.3472C96.1493 38.7545 94.84 39.667 95.9681 40.0015C98.6023 40.782 100.013 54.4792 100.407 56.9257C101.656 64.6789 99.7579 63.702 105.98 68.7015C107.126 69.6227 107.823 70.3753 108.806 71.293C113.563 62.9606 104.412 60.9864 103.351 58.3961C100.453 51.3168 104.029 39.9203 94.525 36.1627C91.6704 35.034 91.5926 33.4548 88.0977 32.471C85.7531 31.8107 70.2901 31.5197 68.6775 32.4209C64.9351 31.6017 51.5265 32.3625 46.7499 32.4099C39.1567 32.485 33.8383 31.4908 27.9329 35.2564C23.0441 38.374 20.468 41.0686 17.6211 46.7352C16.3592 49.2471 15.0775 51.5152 13.8526 53.8648C12.6573 56.1569 11.2636 58.9422 10.0805 60.8429C8.12211 59.3284 5.55489 57.5548 2.34349 57.6601C1.61969 57.6838 0.292927 57.5805 0.0692724 59.0624C0.0560248 59.1489 0.0120635 59.2991 0 59.4067L0.384328 62.9281C1.57558 69.6513 1.38441 68.202 0.423257 75.0978C-0.159933 79.2822 1.61384 78.6833 1.01192 83.3753C0.584671 86.7065 0.13366 88.1039 0.828382 91.3133H14.2628C17.1798 87.5954 24.664 79.25 27.9433 74.8151C29.0349 73.3387 30.542 71.9343 31.1273 70.4133C31.7128 70.9274 31.9265 70.7595 32.0061 73.0175L32.0256 91.3025C12.1412 91.2404 32.7168 91.3132 39.8221 91.3132L38.7324 91.2473C38.9281 89.7153 40.0551 82.289 41.243 81.0898C40.97 83.624 41.8483 87.4386 42.4213 89.9871C42.3041 90.7591 42.7179 91.1539 42.4438 91.3132L51.9771 91.3008L52.6828 70.0146L62.2853 69.966L63.2486 73.4397C61.1882 75.4237 60.312 74.8914 60.186 76.3093C60.0206 78.1699 60.1828 76.9162 60.6185 77.3751C61.9148 78.4638 63.211 76.5273 65.0887 75.8006C66.4523 77.6994 66.833 77.064 68.3397 78.3512C67.7814 80.4741 66.8391 82.0707 68.2738 83.2956C70.5984 84.1517 70.0977 79.5845 71.222 78.8456C73.0046 77.6735 72.8613 79.2254 72.9021 79.2901V79.2904ZM65.3251 69.6605C67.9208 70.0002 69.4356 68.4777 70.9627 67.7331C71.9559 69.2564 74.058 73.6261 74.0296 75.4935C69.4228 77.2612 65.3495 74.5938 65.3251 69.6605ZM14.8902 57.0583C15.5513 56.6754 17.7241 55.3277 18.5502 55.2109C20.2713 54.9678 21.0823 55.897 22.7697 56.2306C26.0845 56.8858 28.7359 55.1467 30.089 53.5308C32.6735 50.4446 32.4657 45.1504 28.9485 42.413L26.3365 40.9929C25.4927 40.4454 25.9136 40.8511 25.3689 40.1277C27.2767 39.5294 29.9307 36.5338 33.4069 35.5047C35.9213 34.7601 42.8358 34.9976 45.9428 34.9806C51.6426 34.949 66.4164 35.4828 71.0627 34.5216L69.1218 36.5002C63.2529 42.5065 68.1188 51.3392 75.4113 51.086C77.6533 51.0081 79.4677 50.1082 80.7189 48.8949C82.0122 47.641 82.8783 45.3261 83.6451 44.5442C85.0859 43.0756 86.8349 44.3167 88.7909 42.4461C90.5649 40.7496 90.2538 39.9163 90.9658 37.2778L91.8139 38.1805C91.8701 38.2346 91.9924 38.3366 92.0791 38.4179C92.2871 40.8666 93.23 42.2959 93.0697 45.9931C92.9435 48.9016 87.679 62.1713 86.4454 65.5223C85.0052 69.4341 78.2069 88.9305 76.9559 91.0348L72.3665 90.9976C72.3805 89.1388 75.4793 79.5887 76.2394 77.0972C77.2612 73.7498 76.1716 72.6287 74.9236 69.895C74.0866 68.0616 73.2494 65.6393 72.1731 63.8807C67.4697 63.7773 71.3826 67.3581 62.8991 67.376C59.7282 67.3825 53.0606 66.8547 50.7304 67.7404C49.4281 68.804 49.4514 88.1646 49.4116 91.2233L45.1469 91.2443C44.7163 87.3461 42.555 70.5737 41.1291 68.6249C39.2022 67.8939 36.197 68.5051 33.6304 67.9651C30.8218 67.3743 30.3617 67.6374 28.77 69.574C27.1598 71.5334 12.878 90.2302 10.7822 90.7922C9.02783 91.2626 4.71504 90.9925 3.37836 90.5727C2.63331 88.2568 3.47539 85.0992 3.76979 82.4492C4.21029 78.4871 2.62991 78.8162 2.97027 75.6776C4.23871 63.9801 4.32775 72.1957 2.62132 60.3378C4.55821 60.5382 6.12024 61.0113 7.3243 62.0119C9.4451 63.7739 7.60819 64.0965 11.3365 64.1129L14.89 57.0582L14.8902 57.0583ZM51.5115 44.9902C48.274 46.0766 48.6288 48.4474 46.9983 49.1169C45.6928 49.653 44.9289 48.99 43.2986 49.7874C42.6151 50.1219 41.3575 51.2535 41.0137 51.9735C39.7915 54.5323 41.2424 57.2237 43.0531 58.1933C46.3447 59.9563 47.3816 57.362 49.5113 57.4198C51.979 57.4867 52.692 59.4228 56.35 58.0173C64.2398 54.9862 60.3448 42.026 51.5115 44.9901V44.9902Z" fill="#E0E0E0"/>
</svg>
