<svg width="248" height="97" viewBox="0 0 248 97" fill="none" xmlns="http://www.w3.org/2000/svg">
<path fill-rule="evenodd" clip-rule="evenodd" d="M135.437 96.8753C136.189 94.4536 138.424 90.4407 139.505 88.0712C140.557 85.7652 140.845 86.5634 142.66 85.0299C143.748 84.1114 144.663 82.8303 145.754 81.913C146.058 82.5904 148.614 85.858 150.168 88.8592C151.358 91.1556 152.574 94.1109 153.168 96.8753H155.726C155.633 96.6952 155.564 96.3642 155.352 95.7812C152.941 89.1317 151.869 84.8676 145.929 78.8198C143.464 76.3091 139.545 72.3536 135.745 71.0453L134.716 73.1643C135.7 73.6283 136.974 74.134 137.799 75.1968L108.626 75.5634L108.014 96.8753H110.355C110.573 92.9487 110.363 80.1897 111.137 77.7095L124.86 77.8026L126.785 83.1425C125.833 83.8212 125.014 84.1823 125.209 86.0236C127.108 86.5075 127.089 85.9669 127.908 85.3208C128.606 84.7699 127.589 85.2854 128.508 84.9319L130.102 85.8101L127.9 96.8754H130.325C130.607 94.8956 131.774 88.16 132.58 87.2061C133.703 88.793 131.694 88.9988 133.407 90.905C136.947 90.7712 133.044 87.9003 137.038 87.6294C136.002 90.6716 133.843 93.7757 132.8 96.8755H135.437L135.437 96.8753ZM160.139 96.8753H157.525C157.848 95.1325 156.145 80.6833 154.755 79.1485C153.649 77.9285 152.514 76.7688 151.54 75.0292C146.809 66.5771 148.662 60.2865 146.407 51.4558C145.7 52.9755 145.476 54.5179 143.896 55.4685C142.008 56.6047 140.791 55.5243 139.354 57.5156C137.292 60.3735 136.616 63.1279 131.488 62.8593C127.803 62.6662 125.009 59.9898 124.34 56.806C123.307 51.8845 126.353 49.681 128.59 47.9031L97.8985 47.8564C97.0041 52.5198 95.7499 54.3832 96.2236 57.3937C97.1483 63.272 94.6501 62.406 90.8307 63.9391C89.2644 76.2482 93.0756 76.1131 101.358 76.117L104.677 96.8423L105.286 96.8753H102.246L100.963 88.8387L99.4876 96.8753H97.1567C97.4666 94.9037 100.61 76.7183 99.1398 78.8144C99.0716 78.9115 98.9068 78.7018 98.8108 78.6752L96.6743 78.3999C95.7363 78.3617 95.0871 78.2774 94.183 78.2801L94.3742 96.8752H91.9923C91.9593 92.1834 92.4054 78.6111 91.5252 77.1193C90.8632 75.9975 88.8995 75.7462 88.4833 72.1406C88.2124 69.7977 88.3614 66.2667 88.3637 63.8122C79.7417 63.4163 81.9869 59.0774 82.0129 56.2174C82.0203 55.4017 80.0826 49.5766 79.6289 43.9554C76.2872 44.6295 71.7222 45.1248 70.4822 39.4313L76.8624 39.42C84.5029 39.426 75.5516 36.4112 77.5956 30.9677C79.1475 31.4671 77.9968 31.459 79.5896 33.359C82.6458 37.0047 84.7203 33.6803 88.961 33.6704C92.519 33.6624 96.3364 37.6963 99.5062 32.3217C99.5986 32.1649 99.8195 31.7532 99.9148 31.6279C100.57 30.765 99.7199 31.4342 100.689 30.8862C102.394 33.9482 98.2541 37.8666 98.1073 39.0131C99.7421 40.0162 104.973 39.3886 107.243 39.4329C106.736 42.0919 104.182 44.8299 100.696 44.4818C98.6051 44.2731 98.4229 43.3068 98.2389 45.2447C101.487 46.5322 139.165 43.1515 144.951 46.4301C148.842 48.6351 148.228 46.856 151.61 48.1983C153.576 48.9784 154.989 50.4126 155.769 52.4945C157.344 56.6994 156.22 64.0178 157.332 67.8572C158.494 71.8705 164.643 68.9253 161.169 79.0557C159.965 78.3467 159.13 77.5135 158.357 76.6527C154.06 71.8643 155.259 73.747 154.672 64.6279C154.191 57.1768 155.194 50.2377 148.426 49.963C151.569 61.4573 148.171 68.8699 157.036 77.9662C158.123 79.0818 158.172 81.9188 158.452 83.9652C159.022 88.1307 159.724 92.657 160.139 96.8753H160.139ZM111.039 57.2363C107.676 58.0642 108.18 60.0174 106.867 60.9322C105.5 61.8842 102.79 60.5096 101.179 63.3311C99.8753 65.616 100.811 67.9049 102.256 68.9821C105.296 71.2484 106.508 68.7858 108.396 68.668C110.657 68.5271 111.492 70.6065 115.062 69.1501C121.914 66.3551 118.631 55.3668 111.039 57.2363H111.039ZM136.979 77.5685C142.385 77.5053 141.02 77.074 143.766 80.0678C142.093 82.6555 139.371 85.9226 134.43 85.208C130.93 84.702 127.725 81.3999 127.545 77.6677C130.684 77.601 133.836 77.6054 136.979 77.5685ZM82.0764 41.5793C81.4826 34.5551 96.1718 34.089 95.9196 41.5793C93.6074 43.4527 91.5002 42.8827 91.41 47.0543C91.3507 49.7941 91.2492 53.9927 91.5327 56.6081C92.9396 57.0834 95.0222 57.1838 93.8708 60.08C93.1238 61.9587 84.9 62.1903 84.1756 59.8476C83.1599 56.5623 85.416 57.0743 86.7095 56.6081C86.9927 54.1619 86.9452 49.2424 86.8186 46.685C86.6443 43.1589 84.5085 43.1788 82.0764 41.5793H82.0764Z" fill="#E0E0E0"/>
<path fill-rule="evenodd" clip-rule="evenodd" d="M234.595 66.8244C234.595 65.6122 235.506 64.7185 236.061 63.886L238.047 61.2613C238.367 62.0678 239.199 63.1547 239.745 63.9729C240.306 64.815 241.126 65.5377 241.126 66.8245L241.096 96.8751H243.297L243.294 91.9413C244.497 91.7266 247.578 92.4833 247.605 90.8077C247.632 89.1264 244.776 89.8118 243.303 89.6307L243.294 85.4235C244.52 85.2129 247.566 85.9729 247.613 84.274C247.659 82.6141 244.741 83.2853 243.302 83.1088L243.294 77.8242C244.911 77.4923 245.984 78.0112 247.457 77.4083C248.127 74.8779 245.537 75.5428 243.302 75.5428V71.1925C244.824 71.1925 246.316 71.3574 247.551 70.886L247.425 69.3296C246.334 68.8351 244.713 69.1239 243.364 68.9839C243.182 67.7408 243.587 66.1894 243.063 65.0857C242.784 64.4982 241.87 63.3047 241.459 62.6872C238.147 57.7137 238.256 56.6877 235.848 60.3056C232.667 65.084 232.434 64.1639 232.434 69.0138L226.989 69.0274C226.989 64.5606 227.06 65.5243 225.034 62.4863C223.44 60.0948 222.757 58.1786 221.048 58.228C219.923 59.4968 218.827 61.4009 217.825 62.9046C214.563 67.8018 216.923 65.8642 215.981 69.0308L210.746 68.9913C210.542 67.7378 210.965 66.2419 210.453 65.0782C210.211 64.5272 209.269 63.2767 208.862 62.6651C204.785 56.5462 205.643 56.6564 201.54 62.8132C198.43 67.4809 200.379 65.3854 199.73 68.9997C198.377 69.086 196.734 68.8421 195.647 69.3231C194.859 71.8433 197.588 71.1784 199.775 71.1784V75.5287C197.554 75.5287 194.925 74.8665 195.627 77.3996C196.975 78.0282 198.265 77.4592 199.78 77.8267L199.73 83.0956C198.383 83.2679 196.767 82.9542 195.68 83.4598C194.683 86.1645 198.059 85.0859 199.78 85.4276L199.734 89.6219C198.388 89.8016 196.773 89.4827 195.686 89.9877C194.662 92.6879 198.068 91.6097 199.777 91.9496L199.762 96.875H201.964C201.729 88.1477 201.952 75.8358 201.952 66.8244C201.952 65.4984 202.827 64.7343 203.418 63.8477C203.919 63.0962 204.724 62.0435 205.031 61.2621C205.735 61.6946 208.483 65.7394 208.483 66.8244L208.457 96.875H210.664L210.66 91.8652L216.105 91.8525L216.111 96.4895L216.093 96.8751H218.278C218.005 87.6605 218.348 77.1496 218.269 67.6575C218.252 65.6328 218.638 65.5592 219.543 64.2018C220.167 63.2671 220.813 62.1298 221.539 61.3375C222.301 62.165 222.96 63.338 223.62 64.3267C224.592 65.7827 224.823 65.6515 224.807 67.8714C224.736 77.417 225.045 87.4946 224.861 96.8751H226.993L226.981 96.4894L226.983 91.8526L231.639 91.8412L232.428 91.9077L232.408 96.8751H234.605C234.393 87.8458 234.595 76.078 234.595 66.8245L234.595 66.8244ZM206.061 88.3707C206.67 86.5739 205.248 85.9108 204.45 86.77C203.637 87.6451 204.383 88.8867 206.061 88.3707ZM237.015 88.3674C238.696 88.8942 239.438 87.6414 238.627 86.7705C237.828 85.9115 236.405 86.5749 237.015 88.3674ZM221.056 72.4144C219.771 73.049 220.784 74.912 222.033 74.2826C223.174 73.7071 222.437 71.7324 221.056 72.4144ZM206.154 72.7054C204.979 71.9335 203.707 72.5166 204.235 73.8116C204.61 74.7294 206.58 74.9104 206.154 72.7054ZM237.366 72.494C235.891 73.394 237.473 75.0856 238.582 74.1873C239.368 73.5516 238.714 71.6719 237.366 72.494ZM220.636 86.7209C220.392 87.7135 220.43 87.7775 220.925 88.4502L222.156 88.5128C222.694 87.7116 222.703 87.7857 222.441 86.7209C221.909 86.5007 221.162 86.3131 220.636 86.7209ZM226.996 85.3304L231.638 85.3193L232.432 85.3858L232.369 89.6743L227.046 89.6834L226.981 88.9154L226.996 85.3304ZM210.659 85.3434L216.105 85.3304L216.123 88.9175L216.016 89.6848L210.672 89.6418L210.659 85.3435V85.3434ZM226.969 77.7078L231.639 77.6919L232.423 77.7864L232.359 83.1445L227.046 83.155L226.973 82.3934L226.969 77.7077V77.7078ZM210.651 77.7216L216.096 77.7078L216.115 82.3955L216.002 83.1546L210.664 83.1196L210.651 77.7216ZM226.969 71.1857L231.639 71.17L232.418 71.2643L232.42 75.4695L231.637 75.5354H226.973L226.969 71.1857V71.1857ZM210.651 71.1994L216.096 71.1857L216.095 75.5353L211.439 75.5501L210.651 75.4606L210.651 71.1994H210.651Z" fill="#E0E0E0"/>
<path fill-rule="evenodd" clip-rule="evenodd" d="M32.447 30.1997C38.9239 30.0476 39.3615 33.8288 40.5987 34.9897C41.4165 35.757 47.5322 36.509 46.0333 41.9107C43.8199 43.0153 17.2735 42.4194 16.96 42.2349C15.9477 41.6394 16.0698 40.4183 17.2091 39.9914L43.4107 39.8889C42.2499 37.533 41.2501 38.1802 38.7637 37.7831C37.9566 35.9954 38.1405 34.7525 36.2631 33.5407C34.0456 32.1092 32.9931 33.1938 30.8141 32.8468C30.0788 31.8102 29.1142 25.8922 23.2063 26.5015C18.5263 26.9844 17.9273 30.4193 17.5808 33.0185C17.3762 34.5531 17.9311 33.7383 16.9306 34.6181C15.1819 36.0785 12.147 30.5924 8.70094 38.1588C6.07234 38.5067 4.05547 37.0897 2.85461 39.805C4.83545 39.9969 7.22876 39.9033 9.24997 39.8822C14.1707 39.8305 12.8998 41.7356 12.3213 42.1395C11.3312 42.8303 7.61143 42.4381 6.17716 42.4386C4.22538 42.4392 1.63194 42.9617 0.234635 41.6384C-0.409069 40.6858 -0.201315 35.4868 7.15054 35.3602C8.51631 32.5445 10.7217 31.1808 15.0975 31.7415C16.2523 22.2939 29.3215 20.9889 32.447 30.1997Z" fill="#E0E0E0"/>
<path fill-rule="evenodd" clip-rule="evenodd" d="M86.1744 91.7612H91.2881V96.875H93.8652C94.0021 95.177 93.8545 93.986 93.8403 91.4434C93.8403 89.1921 92.9886 89.175 91.4072 88.1369C90.0287 87.2316 89.1528 86.6089 87.7644 85.7113C85.0137 83.9326 85.4106 83.4816 83.1856 78.1441C81.7223 74.6339 81.8711 75.3784 76.8537 72.653C74.9194 71.6024 70.8214 68.7671 68.6086 68.7671H48.8053C46.4437 68.7671 39.4722 73.3475 37.0572 74.5824C35.6136 75.3205 35.5261 75.2456 34.8885 76.5725C34.371 77.6495 34.0471 78.5515 33.554 79.7026C32.7887 81.4883 31.2395 84.3874 31.2395 86.3328V91.7646H28.6808V89.2093H26.129V91.7646H22.2925V89.2093H19.7392L19.7409 91.7646H17.1738L17.1858 94.3164H19.7393L19.741 96.8751H33.7914V86.6523C33.7914 84.8019 35.0127 82.7845 35.6866 81.1975C37.1005 77.8667 36.7296 77.6032 38.5044 76.6704C50.1574 70.5466 45.2956 70.0089 57.4136 76.7694C58.6388 77.4528 58.4986 77.5759 59.0564 78.9544C59.9591 81.1849 61.9012 84.8203 61.9029 86.6524L61.9212 96.8751H64.4545L64.4821 87.8286L69.5674 91.0585L69.5687 96.8752H86.1745V91.7615L86.1744 91.7612ZM54.2336 96.875H51.6851L51.6816 89.2059H49.1229V96.875H46.5711V89.2059H44.0043L44.0125 96.875H41.479C41.471 93.4228 41.2944 90.2497 41.6991 86.9381C45.1404 86.334 50.4357 86.4613 53.9483 86.8938C54.5406 90.2519 54.2634 93.211 54.2338 96.8749L54.2336 96.875ZM54.2369 81.5399H56.7887V78.9881H54.2369V81.5399ZM38.9053 81.5399H41.4571V78.9881H38.9053V81.5399ZM46.5711 76.4294H49.1246L49.1229 73.8776H46.5711V76.4294ZM72.122 91.7627H83.6208V96.8732H72.122V91.7627ZM28.6825 94.318H31.2376V96.8731H28.6825V94.318ZM22.2944 94.318H26.1272V96.8731H22.2944V94.318ZM72.1221 89.21C70.8218 89.21 68.4583 87.3556 67.6347 86.6932L83.6209 86.6497C84.9644 86.6497 87.2757 88.4865 88.1122 89.1687L72.1221 89.2101V89.21ZM64.4565 84.0987C63.2746 83.4622 61.8283 79.1317 61.3481 77.775L79.149 77.707C80.994 77.707 82.0968 81.7514 82.8962 84.0309L64.4565 84.0986V84.0987ZM75.8629 75.0288C72.5992 75.5422 66.1615 75.1336 62.5372 75.1585C58.5315 75.1863 57.4341 73.9718 53.0595 71.4503C56.2151 70.9283 62.8295 71.3395 66.3755 71.3157C70.2567 71.2894 71.6482 72.4828 75.8628 75.0288H75.8629Z" fill="#E0E0E0"/>
<path fill-rule="evenodd" clip-rule="evenodd" d="M204.084 62.882C196.512 52.6185 199.181 58.3062 193.511 42.3259C192.472 39.3976 190.65 40.4311 186.462 37.3128L187.695 35.153C189.774 35.5909 192.871 37.2959 194.829 36.9887C195.983 35.7683 196.08 33.5341 196.984 32.0627L199.221 32.6436C198.249 41.3695 196.997 37.1977 203.707 47.8247C204.977 49.8348 205.607 50.493 206.953 51.9663C208.377 53.5235 213.215 58.3197 213.834 59.5531C214.661 61.1996 215.313 62.9358 215.454 65.0086C215.583 66.919 215.113 68.2679 214.907 69.6697H217.321C217.449 68.9122 217.675 68.0041 217.754 66.8725C217.972 63.749 217.314 61.7808 216.21 59.3246C215.46 57.653 215.851 57.5978 216.502 55.9086C216.942 54.7648 217.311 53.4916 217.915 52.5878C222.334 54.393 224.446 54.5922 227.914 51.322C229.864 49.4836 229.481 51.7469 231.844 48.163C233.081 46.2875 236.524 47.8813 239.25 42.9465C240.864 40.0247 240.518 36.8325 238.987 34.1537C243.996 29.7505 242.351 22.4651 236.144 20.6275C236.459 13.9901 231.607 14.3538 231.036 12.8695C230.69 11.971 230.759 8.89874 227.62 7.30144C226.071 6.51348 224.903 6.87556 223.873 6.47108C223.675 6.39308 219.189 2.63089 222.202 8.9813C224.687 9.36252 225.813 8.38783 227.553 10.1281C229.073 11.6493 228.328 13.2845 228.62 15.2795C230.547 16.0245 231.898 15.5585 233.102 17.2038C234.533 19.1601 233.149 20.7679 233.798 22.3432C235.824 23.8358 238.495 22.4555 239.528 26.7738C240.356 30.2388 238.138 31.7706 236.109 33.205C236.184 35.6742 239.043 36.4493 237.693 40.7882C236.935 43.2262 234.98 44.7914 232.018 45.1245C230.789 39.4434 222.314 41.9467 226.207 49.6251C224.089 52.3255 221.579 51.7222 218.73 50.3842C219.102 48.4901 220.324 47.0173 219.795 45.2913C218.383 44.9209 218.151 45.0369 217.556 46.4911C217.144 47.4967 216.782 48.6041 216.39 49.6377C215.641 51.61 215.025 54.2179 213.913 55.8019C212.643 54.8881 211.895 53.5987 210.714 52.5121C209.361 51.2669 208.506 50.6008 207.587 49.239C209.062 46.3432 211.411 42.7858 213.144 39.927C216.796 33.9032 215.054 36.6504 213.737 28.2328L216.103 27.7676C218.829 38.6944 218.892 33.885 226.226 29.3195C226.284 29.3616 226.368 29.366 226.391 29.4592C226.415 29.5527 226.524 29.571 226.556 29.6006C226.753 29.7845 226.831 29.8569 227.024 30.0517C227.325 30.3551 227.504 30.5535 227.785 30.8489C226.744 32.3987 217.402 39.1889 220.138 41.8663C221.942 43.407 222.264 39.9486 223.007 38.717C223.313 38.2088 225.802 35.8669 226.421 35.3569C227.14 34.7646 227.619 34.4071 228.222 33.7638C228.807 33.1385 229.334 32.4672 229.954 32.1311C230.786 31.6807 235.445 31.641 233.812 29.8096C233.207 29.0556 234.346 29.1808 231.384 29.4533C227.112 29.8465 228.03 24.4028 227.866 23.6552L226.304 23.4769C224.763 25.7924 226.85 25.8811 223.866 28.18C222.714 29.0676 220.943 30.5952 219.762 31.2121C219.243 30.4744 218.032 27.2416 218.099 26.2469C218.189 24.8923 220.077 23.6636 218.744 21.1016L217.268 20.9417C216.207 23.0459 217.117 25.6703 213.891 25.9215C209.808 26.2392 210.97 22.0481 208.742 23.1303C207.73 23.7752 208.03 24.6267 208.981 25.9165C209.419 26.5122 209.463 26.5738 210.039 27.0291C211.121 27.884 210.787 27.118 211.293 28.2429C211.606 28.9389 212.969 35.1422 212.878 35.6942C212.782 36.2807 206.997 45.7299 206.163 47.1064C205.706 46.6566 201.084 39.6473 200.857 38.9781C200.519 37.9795 201.136 34.544 201.482 33.2461C202.142 30.7772 204.642 32.1902 203.856 29.2251C201.433 28.6953 200.98 31.5826 197.98 29.8522C195.957 28.6852 196.757 24.5418 194.561 26.267C193.284 27.7968 194.991 29.189 194.931 30.4512C194.901 31.0897 193.839 33.6205 193.585 34.5256L188.037 32.7823C187.446 31.4392 187.119 28.5461 185.39 29.9952C184.733 30.636 184.794 29.969 185.052 31.3266C185.144 31.8056 186.561 34.0588 184.407 35.8228C181.665 38.069 180.559 34.9388 178.286 35.553C177.374 37.5853 179.769 38.8055 181.891 38.8802C185.555 39.0092 183.762 38.5424 187.708 40.7332C191.247 42.6984 190.863 41.6696 191.763 44.3805C192.404 46.3101 193.341 48.3259 193.725 50.3832C190.879 51.6678 188.361 52.38 186.23 49.6251C190.102 41.9041 181.631 39.4704 180.418 45.1245C178.948 44.9607 178.133 44.7707 177.079 43.9823C176.187 43.3147 175.392 41.8193 174.331 42.9909C172.699 44.6733 176.875 46.6344 179.306 47.298C180.798 47.7056 179.88 47.0901 180.589 48.1679C183.128 52.0293 181.63 48.7231 185.118 51.942C188.641 55.194 192.1 53.4819 194.522 52.6184C197.604 57.3903 196.223 62.1922 195.642 67.2942C195.529 68.2893 195.474 69.0571 195.409 69.6696H197.726C200.251 57.4008 198.166 61.9882 202.486 63.7597C203.222 64.0612 202.829 62.7325 204.084 62.882V62.882ZM206.834 38.0094C205.047 37.1459 205.122 34.6821 206.834 34.0447C207.684 34.3438 208.092 34.7338 208.082 36.0827C208.073 37.3344 207.711 37.6027 206.834 38.0094ZM205.713 32.0574C201.154 34.0679 203.553 41.8578 208.051 40.0787C212.325 38.3888 210.224 30.0682 205.713 32.0574ZM191.955 23.8025C191.281 22.5645 190.589 20.7301 192.675 19.9205C194.214 20.9273 194.574 23.7317 191.955 23.8025ZM191.518 17.868C186.899 19.8967 189.229 27.5124 193.646 25.9851C198.054 24.461 196.035 15.8844 191.518 17.868ZM216.684 16.8494C214.916 16.2892 215.037 14.0009 216.376 12.9394C218.504 13.2919 218.363 16.0387 216.684 16.8494ZM215.924 10.6473C211.792 11.6203 212.307 19.937 217.234 19.1089C219.181 18.7818 220.425 16.5142 220.162 14.23C219.913 12.065 218.338 10.079 215.924 10.6473H215.924ZM196.984 3.7022C192.873 2.88213 190.483 3.71721 188.923 6.52349C186.39 6.80119 185.275 6.58691 183.585 8.21719C181.21 10.508 182.312 11.4555 181.193 13.2093C179.925 14.3285 179.014 14.0292 177.578 15.7501C176.485 17.0615 176.189 18.496 176.292 20.6277C170.124 22.4639 168.395 29.7682 173.448 34.1504C173.05 34.8455 170.768 40.8238 173.764 39.4653C174.648 39.0645 174.492 37.3937 174.978 36.2364C175.516 34.9559 176.27 34.8702 176.322 33.2163C174.334 31.7618 172.22 30.4153 172.853 27.0163C173.687 22.5437 176.693 23.7724 178.632 22.3358C179.288 20.7804 177.903 19.151 179.334 17.2035C180.534 15.5705 181.886 16.0207 183.813 15.277C184.075 13.4392 183.375 11.8028 184.732 10.2871C186.46 8.35608 187.614 9.38782 190.229 8.97819C193.405 2.37739 196.462 7.27933 198.127 6.70978C199.564 5.5667 198.698 4.04225 200.765 2.92925C203.307 1.56037 204.392 2.90946 206.218 3.58898C208.013 2.92063 208.949 1.63409 211.445 2.84132C213.89 4.02369 212.817 5.53415 214.311 6.70848C215.026 6.95175 220.352 4.69081 217.831 3.52287C217.02 3.14723 216.2 3.54447 215.453 3.69931C214.215 2.1874 213.871 1.28433 211.912 0.520291C208.719 -0.725074 207.849 0.840983 206.217 0.84265C203.351 0.845115 201.851 -2.35536 196.984 3.7022ZM228.382 48.3025C227.12 47.4199 226.809 45.128 228.688 44.3312C229.568 44.819 229.971 45.2175 229.902 46.5306C229.831 47.8768 229.435 48.1216 228.382 48.3026V48.3025ZM183.748 44.3305C185.627 45.1362 185.313 47.4106 184.054 48.3025C182.999 48.1226 182.604 47.8793 182.533 46.5314C182.463 45.214 182.863 44.8174 183.748 44.3306V44.3305Z" fill="#E0E0E0"/>
<path fill-rule="evenodd" clip-rule="evenodd" d="M184.958 66.8243C184.958 65.612 185.869 64.7183 186.424 63.8858L188.411 61.2611C188.731 62.0677 189.563 63.1545 190.108 63.9727C190.67 64.8149 191.489 65.5376 191.489 66.8243L191.459 96.875H193.66L193.657 91.9411C194.86 91.7264 197.941 92.4831 197.968 90.8075C197.995 89.1262 195.139 89.8117 193.667 89.6305L193.657 85.4233C194.883 85.2127 197.929 85.9727 197.976 84.2739C198.022 82.6139 195.104 83.2852 193.665 83.1086L193.657 77.824C195.274 77.4921 196.348 78.0111 197.82 77.4082C198.491 74.8777 195.9 75.5426 193.665 75.5426V71.1923C195.187 71.1923 196.679 71.3572 197.914 70.8858L197.788 69.3294C196.697 68.835 195.077 69.1237 193.727 68.9838C193.545 67.7407 193.95 66.1892 193.426 65.0855C193.147 64.4981 192.234 63.3045 191.822 62.6871C188.51 57.7135 188.62 56.6876 186.211 60.3054C183.03 65.0839 182.797 64.1637 182.797 69.0136L177.352 69.0272C177.352 64.5604 177.423 65.5242 175.398 62.4861C173.803 60.0946 173.12 58.1785 171.411 58.2278C170.286 59.4967 169.19 61.4007 168.188 62.9044C164.926 67.8016 167.287 65.864 166.345 69.0307L163.447 69.0089V71.193L166.46 71.1854L166.458 75.5351L163.447 75.5447V77.7151L166.46 77.7075L166.478 82.3951L166.365 83.1543L163.447 83.1352V85.3373L166.468 85.3301L166.486 88.9172L166.379 89.6845L163.447 89.6608V91.8592L166.468 91.8522L166.475 96.4892L166.456 96.8748H168.641C168.368 87.6602 168.711 77.1492 168.632 67.6572C168.615 65.6325 169.001 65.5589 169.906 64.2015C170.53 63.2668 171.176 62.1295 171.902 61.3372C172.664 62.1646 173.323 63.3377 173.983 64.3264C174.955 65.7824 175.186 65.6512 175.17 67.8711C175.099 77.4167 175.408 87.4943 175.224 96.8748H177.356L177.344 96.4891L177.346 91.8522L182.002 91.8409L182.791 91.9074L182.771 96.8748H184.968C184.756 87.8455 184.958 76.0776 184.958 66.8242L184.958 66.8243ZM187.378 88.3672C189.059 88.894 189.801 87.6412 188.991 86.7702C188.191 85.9112 186.769 86.5747 187.378 88.3672ZM171.419 72.4141C170.134 73.0488 171.148 74.9118 172.396 74.2824C173.537 73.7068 172.801 71.7322 171.419 72.4141ZM187.729 72.4938C186.255 73.3937 187.836 75.0853 188.946 74.1871C189.731 73.5514 189.077 71.6717 187.729 72.4938ZM170.999 86.7207C170.755 87.7132 170.794 87.7773 171.289 88.45L172.519 88.5125C173.058 87.7114 173.066 87.7854 172.804 86.7207C172.273 86.5004 171.525 86.3129 170.999 86.7207ZM177.359 85.3302L182.002 85.3191L182.796 85.3855L182.732 89.6741L177.409 89.6831L177.344 88.9151L177.359 85.3302ZM177.333 77.7076L182.002 77.6917L182.786 77.7861L182.722 83.1443L177.409 83.1548L177.336 82.3931L177.333 77.7075V77.7076ZM177.333 71.1854L182.002 71.1698L182.781 71.2641L182.783 75.4692L182.001 75.5351H177.336L177.333 71.1855V71.1854Z" fill="#E0E0E0"/>
</svg>
