<svg width="238" height="87" viewBox="0 0 238 87" fill="none" xmlns="http://www.w3.org/2000/svg">
<path fill-rule="evenodd" clip-rule="evenodd" d="M114.261 63.9121H120.435L120.421 58.7723H103.98V63.9121H110.111L110.165 60.8902L114.214 60.8446L114.261 63.9121ZM113.224 47.4751H111.202L111.185 44.3947H113.196L113.224 47.4751ZM113.227 53.6384H111.172L111.175 50.5583H113.227V53.6384ZM106.92 36.1804C102.968 39.5696 99.4532 43.5555 95.7168 47.1278C94.4492 48.3395 93.2414 49.4468 92.0626 50.6575C92.53 51.2603 92.92 51.7364 93.7765 52.1391C95.9518 49.2882 107.514 39.0951 108.391 37.3397L106.92 36.1803L106.92 36.1804ZM131.517 49.9039C130.275 48.6018 128.855 47.5065 127.713 46.2057C126.364 44.6693 125.493 43.8654 124.134 42.564L116.725 35.3941L115.301 36.9005C116.579 38.2344 117.806 39.299 119.128 40.5876C119.78 41.2228 120.186 41.852 120.842 42.4814C121.513 43.1255 122.017 43.6009 122.69 44.2462C124.012 45.5132 129.187 50.8039 130.38 51.4111C130.808 50.8613 131.074 50.7877 131.517 49.904L131.517 49.9039ZM100.066 37.0285L89.0595 47.8169L90.5452 49.1575C91.7787 48.2169 93.1856 46.6903 94.3759 45.5468L101.757 38.2405C102.976 37.0764 104.212 35.7571 105.441 34.7411C105.057 34.0217 104.606 33.5336 103.692 33.2053C102.786 34.4689 101.225 35.9177 100.066 37.0285ZM122.139 56.72C121.815 54.9058 119.141 43.7816 118.626 43.0137C118.117 42.254 115.119 39.605 114.221 38.7501C110.954 35.6381 113.717 36.602 114.776 34.1234C113.144 34.1206 109.876 33.845 108.683 34.3309C108.66 35.617 110.637 35.7732 110.965 37.6228C110.62 38.6132 108.36 40.348 107.592 41.1865C107.256 41.5531 107.062 41.8748 106.722 42.2388C106.418 42.5636 106.124 42.7565 105.865 43.0678C105.05 44.048 102.488 55.3803 102.285 56.7199H122.139L122.139 56.72ZM134.556 46.9681C133.851 45.9805 131.864 44.2855 130.849 43.313L119.611 32.4352L118.216 33.6863C118.705 34.9158 120.881 36.5724 121.911 37.5616C124.035 39.6009 132.265 47.975 133.179 48.435L134.556 46.9681H134.556ZM109.071 28.0274C108.239 29.3081 107.816 30.1476 107.453 32.0329C109.121 32.0359 109.574 30.3273 110.685 29.485L109.071 28.0275L109.071 28.0274ZM116.961 32.012C116.46 29.9043 116.171 29.561 115.272 27.9418L113.745 29.4575C114.225 30.0082 114.702 30.4133 115.265 30.9667C115.858 31.5503 115.995 32.0195 116.961 32.012ZM113.606 26.5688C112.376 25.8393 112.046 25.9481 110.73 26.5936L112.241 27.9653L113.606 26.5688ZM105.379 24.3787C102.338 21.0048 97.602 16.6495 94.1322 13.325C92.2639 11.5351 91.6802 10.1566 90.191 9.82195C89.8517 10.3059 89.4519 10.7445 89.08 11.4155C91.7654 13.2525 102.066 24.6452 104.1 25.786C104.462 25.4797 105.048 24.7232 105.379 24.3787ZM131.869 11.7607C129.65 13.878 120.484 22.5669 118.992 24.4062L120.405 25.7474C122.563 24.1576 129.023 17.3152 131.715 14.7401C132.731 13.768 134.729 12.189 135.324 11.0604L133.89 9.83958C133.314 10.1853 133.832 9.81733 133.313 10.3122L131.869 11.7608V11.7607ZM108.366 21.4891C107.629 20.0272 102.408 15.8699 100.874 14.0483C99.6363 12.579 94.651 7.61676 93.4288 6.85145L92.1252 8.245C94.2409 10.9379 97.1775 13.3875 99.5236 15.6415L106.943 22.8899L108.366 21.4892V21.4891ZM130.771 6.84823L125.269 12.3845C123.793 13.9913 116.61 20.3077 115.991 21.5357L117.513 22.8772L128.685 11.9489C129.532 11.1398 131.809 9.24739 132.339 8.17544L130.771 6.84816V6.84823ZM120.405 28.3157C119.013 27.7965 118.582 26.4316 117.304 25.8752L116.84 26.3572C117.108 27.3843 117.827 27.4903 118.625 30.2668C120.736 29.9538 119.559 29.3982 123.579 33.2477C124.388 34.0227 124.966 34.8269 125.788 35.6089C127.68 37.4068 137.068 46.0459 137.122 47.0144C137.158 47.6721 133.151 51.31 131.774 52.8432C131.252 53.4241 130.488 54.3416 129.475 53.622C128.568 52.9781 126.612 50.8617 125.66 49.9471C124.622 48.9497 122.847 47.0347 121.792 46.3493C121.971 48.105 123.678 54.1923 124.288 56.6244C124.754 58.479 124.338 58.767 122.473 58.7723V63.912H124.484L124.739 65.9641L99.9435 65.9663L99.9138 63.9114L101.928 63.912V58.7723C100.227 58.7647 99.6301 58.6873 100.071 56.7921C100.716 54.0144 102.382 48.5491 102.63 46.3173L96.0319 52.5035C95.3645 53.1733 94.6845 54.4122 93.8014 54.5945C92.9476 54.771 87.7113 49.5411 87.0573 48.7987C85.7636 47.3305 87.3838 46.5988 89.7524 44.2926C90.5275 43.538 91.0462 42.8013 91.8389 42.0492L100.693 33.5614C103.782 30.612 102.954 29.8903 105.397 31.5263C106.535 27.259 107.118 27.7296 107.585 26.3616L106.943 25.9083C103.314 28.3304 105.829 30.4648 99.4673 24.3651C98.6694 23.6002 98.0521 23.0058 97.2522 22.2449C96.4744 21.5048 95.9339 20.7381 95.1654 20.0015C94.0037 18.8881 86.456 12.1463 86.5336 11.1345C86.5602 10.788 92.4969 4.23348 93.6757 4.39351C94.3592 4.48622 106.586 16.7194 108.949 18.9791C110.933 20.8762 111.844 21.1634 109.722 23.0872C109.066 23.6822 108.761 23.7604 108.567 24.6543C110.536 25.8516 110.364 22.5708 114.192 24.5882C115.235 25.1384 114.999 25.1424 115.829 24.6179C115.492 23.2788 113.706 22.8005 113.494 21.6515C113.292 20.5529 115.178 19.2099 115.822 18.593C117.767 16.7281 119.532 15.0347 121.477 13.1689C122.469 12.2173 123.346 11.4315 124.311 10.4629L127.011 7.62845C131.523 3.30197 130.078 3.15397 135.856 8.68885C139.962 12.6217 136.841 11.8488 130.47 18.7936C128.681 20.7441 121.777 27.8658 120.405 28.3157Z" fill="#E0E0E0"/>
<path fill-rule="evenodd" clip-rule="evenodd" d="M55.9603 86.6881C54.9357 84.3499 50.3875 79.6991 48.7649 78.2829C47.2118 76.9278 46.3458 76.1223 44.6104 74.8107C43.0921 73.6634 41.765 72.7601 40.0838 71.7115C29.3934 65.0439 28.059 66.2057 14.5842 66.4343L18.2645 68.734C23.6171 71.857 28.8959 76.1617 32.8739 80.8175C36.4344 84.9845 35.8658 86.3496 38.5627 86.7313H0.00195312C3.18378 86.4527 8.51215 86.6992 11.0991 86.6992C9.87331 83.7864 5.9971 80.5466 4.63322 78.9308C3.11575 77.1335 1.32526 75.9632 -7.62939e-05 75.0276V71.5277L0.0892792 71.5508C2.91333 72.2853 12.1067 82.3843 14.5682 86.6991H33.5298C32.4873 84.5341 28.635 80.2174 27.1698 78.9069C24.7416 76.7345 22.323 74.8045 19.1997 72.7473C5.78677 63.9119 2.81921 66.8644 -7.62939e-05 66.5135V63.6302C2.92131 63.1325 7.87874 63.5565 10.3295 63.5565C10.2545 61.7951 10.5148 62.2416 9.27684 61.3143C9.07243 61.1611 7.9639 60.5224 7.61584 60.312C4.14369 58.217 5.66415 57.0014 7.14246 56.9368C8.44203 56.8799 8.533 57.717 10.2716 58.4618C10.5317 53.6922 7.62004 57.2489 7.99475 53.22C9.66764 52.0282 9.35724 52.6596 9.69173 52.5596C10.4375 52.3355 10.2103 52.303 10.907 50.1566C13.3928 49.9657 13.1595 50.5014 13.1952 52.833C14.8052 52.537 14.2438 52.4107 15.5229 53.0749C15.8051 57.2975 13.1215 53.7002 13.2075 58.5283C14.9631 57.7801 15.7372 56.1993 17.5379 57.2589C18.5318 59.1762 17.0412 59.6643 15.6308 60.5168C13.849 61.5942 13.2759 61.4406 13.1862 63.5668L33.67 63.3528C33.562 60.1218 27.368 60.126 29.3163 57.502C29.38 57.4246 29.4616 56.0897 31.7904 57.4562C32.9154 58.1161 32.2315 58.1165 33.67 58.4014C33.6625 54.8379 33.0288 56.8483 31.6153 54.9472C30.341 53.2337 31.9719 52.6071 33.67 52.6928C33.6879 51.4454 33.77 50.9805 34.2483 50.1949C36.7223 49.91 36.5094 50.6781 36.5412 52.6745L38.8617 52.9981C39.0089 55.337 38.1111 55.3139 36.5673 56.3023L36.5341 58.536C38.1766 57.677 39.0372 56.3461 40.88 57.1806C41.8513 58.9465 40.5777 59.4489 39.1157 60.3651C37.566 61.3363 36.6172 61.4643 36.5271 63.5591L57.0088 63.4385C56.8826 59.7122 51.053 60.8305 52.6588 57.1172C54.8376 56.4378 55.1602 57.7995 57.0106 58.4747C57.0106 54.3795 54.3906 56.0657 54.5377 53.9281C55.1878 52.5279 55.4599 52.5328 57.0106 52.7694C57.0257 51.6239 57.1723 50.9266 57.5858 50.1417L59.291 50.2351C59.7063 50.9236 59.8515 51.6209 59.8669 52.7678C61.4375 52.5615 64.5989 53.1539 59.9059 56.3757L59.8669 58.4715C61.7109 57.7991 62.0333 56.4392 64.2184 57.1154C65.8259 60.8297 59.9944 59.6759 59.8669 63.5459L80.3489 63.5246C80.2584 61.4957 79.2905 61.3206 77.7518 60.374C76.2954 59.4783 75.0851 59.1217 75.9987 57.1836C77.8352 56.3433 78.6918 57.6824 80.3608 58.5371L80.276 56.3092C78.7574 55.336 77.8708 55.322 78.0046 52.8565L80.3491 52.8376C80.3686 50.7023 80.1597 49.895 82.6307 50.1934C83.1102 50.9786 83.1894 51.4431 83.2071 52.6913C84.5842 52.6229 86.0947 52.7944 85.5361 54.4725C85.2372 55.3707 84.0781 55.8336 83.2432 56.4417L83.2071 58.3997C84.7182 58.1035 84.1581 57.8961 85.3373 57.2913C87.6299 56.1155 87.5555 57.4957 87.5594 57.5005C89.5203 60.1268 83.3148 60.0816 83.2071 63.3512C85.8052 63.9492 127.923 63.4251 130.674 63.4953C132.795 63.5494 143.688 62.9929 132.509 66.1166C129.858 66.8573 84.6956 66.3339 81.8126 66.4662C82.6404 67.2934 89.0877 70.6605 93.1369 73.9789C97.7366 77.7479 94.2796 78.2166 93.6826 78.0023C92.9833 77.752 89.6067 74.8571 88.4955 74.0376C78.5728 66.7187 72.353 65.4006 59.391 66.504C60.5784 67.6061 64.4851 69.5337 66.0287 70.5608C71.0212 73.8832 71.3808 74.7108 74.7785 77.8325C77.3134 80.1619 80.1963 83.6265 81.8849 86.6936C84.5233 86.7073 90.1983 86.4031 93.5387 86.7312H49.7456C51.5418 86.7071 53.596 86.6892 55.9603 86.688V86.6881ZM78.393 86.6505C74.3513 79.3633 59.6404 68.4208 52.0304 66.6052C50.2968 66.1915 39.0111 66.2713 36.9595 66.5463C39.5629 68.6387 44.7687 70.4512 49.8524 75.3013C51.7074 77.0707 53.8187 79.028 55.3177 80.8881C55.9912 81.7243 59.1447 86.5102 60.1545 86.7022L78.393 86.6505Z" fill="#E0E0E0"/>
<path fill-rule="evenodd" clip-rule="evenodd" d="M68.4584 37.4452C67.55 36.5346 63.5463 33.3265 62.0431 33.263C60.4984 33.1975 56.3909 36.2634 55.6978 37.1113C57.6423 38.5253 59.986 39.7037 61.9837 41.2525C64.0971 40.4422 66.4206 38.5369 68.4585 37.4452H68.4584ZM0.000190735 50.4584V53.9717C0.0632324 53.951 0.126907 53.9272 0.19101 53.8995L17.4285 40.1809C20.4116 37.7302 19.7533 38.5852 23.4637 39.8785C25.4417 40.5682 28.5989 41.4336 30.9054 41.3257C31.8424 39.8866 32.8228 39.4312 34.009 38.4489C39.0065 34.3117 39.9525 30.6217 44.8721 33.7223C49.6271 36.7197 54.6968 39.7941 59.315 42.8926C57.5799 44.873 55.4225 43.9268 55.6386 47.068C57.4485 48.1686 58.8531 46.7512 60.6253 45.623L75.0201 36.7428C80.819 33.0577 79.3547 33.3699 85.125 36.9561L93.7749 42.1171C95.4255 42.2293 97.0065 40.7182 93.6089 38.7866L84.3855 33.1225C77.0786 28.5603 77.9396 32.9546 71.2177 35.5902C68.672 34.4237 65.2645 30.4487 62.0417 30.3559C58.6969 30.2596 55.4557 34.0148 52.9068 35.2956C45.6144 31.7803 42.817 25.5636 35.5758 33.1563L31.0075 37.3574C27.5801 40.7428 21.6701 33.856 17.5353 36.4643L2.69078 48.3367C2.17639 48.746 1.01672 49.5963 5.34058e-05 50.4583L0.000190735 50.4584Z" fill="#E0E0E0"/>
<path fill-rule="evenodd" clip-rule="evenodd" d="M38.1833 17.0771C38.6548 14.4545 37.5334 12.8765 35.2174 12.4871C32.0393 11.9529 31.3061 15.0172 30.1977 11.0296C29.0465 6.88864 26.4348 3.93402 22.1813 3.04835C17.4846 2.07052 12.8913 4.688 11.9129 8.35161C11.0304 11.6567 13.2099 13.5095 12.6567 14.815C12.0187 16.3211 9.03032 15.1945 7.05255 17.2747C12.0008 17.3577 35.0612 17.9001 38.1834 17.0771L38.1833 17.0771ZM32.7613 9.60801C38.2319 9.42789 41.5244 11.623 41.1193 17.2661L46.927 17.422C47.6955 20.6822 45.2923 20.1818 42.6089 20.1561C36.7218 20.0996 7.60516 20.4522 5.59912 20.0842C0.793312 19.2027 4.54305 13.8765 9.22353 13.1361C8.00016 5.88311 11.6001 0.970027 18.5711 0.0990495C25.6249 -0.782494 31.4161 4.36976 32.7613 9.60801H32.7613Z" fill="#E0E0E0"/>
<path fill-rule="evenodd" clip-rule="evenodd" d="M168.455 74.9684L171.708 86.3361H145.723L162.04 86.2364L155 66.9322C152.869 67.4565 150 72.4156 148.741 74.9726C147.085 78.3325 145.908 82.1567 145.398 86.3361H137.34C137.566 86.3011 137.871 86.2668 138.433 86.1126C139.114 79.7905 140.016 72.3626 141.088 66.1465C141.487 63.8362 141.003 65.2401 142.138 64.1777C147.296 59.3486 146.588 59.0875 149.088 52.3129C149.179 48.7462 145.078 43.8315 147.388 38.1479C146.475 36.642 147.713 37.5048 146.647 37.821C144.156 38.559 142.823 51.5096 142.45 53.8228C141.268 61.1534 143.064 60.2297 137.181 64.9567C136.097 65.8277 135.438 66.5393 134.508 67.4069C130.011 59.5287 138.663 57.6621 139.666 55.213C142.406 48.5195 139.026 37.7442 148.011 34.1915C150.71 33.1243 150.784 31.6312 154.088 30.701C156.305 30.0767 170.925 29.8015 172.45 30.6536C175.988 29.8791 188.666 30.5985 193.182 30.6433C200.362 30.7143 205.39 29.7742 210.974 33.3346C215.596 36.2823 218.032 38.83 220.723 44.1877C221.916 46.5627 223.128 48.7072 224.286 50.9287C225.417 53.0959 226.734 55.7293 227.853 57.5264C229.705 56.0945 232.132 54.4176 235.168 54.5171C235.853 54.5395 237.107 54.4419 237.318 55.843C237.331 55.9248 237.373 56.0668 237.384 56.1685L237.021 59.498C235.894 65.8547 236.075 64.4845 236.984 71.0044C237.535 74.9607 235.858 74.3944 236.427 78.8306C236.831 81.9803 237.258 83.3015 236.601 86.3359H223.899C221.141 82.8207 214.064 74.9302 210.964 70.7371C209.932 69.3411 208.507 68.0133 207.953 66.5752C207.4 67.0613 207.198 66.9025 207.122 69.0374L207.104 86.3257C225.905 86.267 206.45 86.3359 199.732 86.3359L200.763 86.2736C200.578 84.8251 199.512 77.8035 198.389 76.6697C198.647 79.0658 197.817 82.6725 197.275 85.0821C197.386 85.812 196.994 86.1853 197.254 86.3359L188.24 86.3241L187.573 66.1982L178.494 66.1522L177.583 69.4366C179.531 71.3125 180.359 70.8092 180.479 72.1498C180.635 73.909 180.482 72.7236 180.07 73.1575C178.844 74.1869 177.618 72.3559 175.843 71.6688C174.554 73.4641 174.194 72.8634 172.769 74.0804C173.297 76.0876 174.188 77.5971 172.831 78.7553C170.634 79.5647 171.107 75.2465 170.044 74.5478C168.359 73.4396 168.494 74.907 168.455 74.9681V74.9684ZM175.62 65.8634C173.165 66.1846 171.733 64.7451 170.289 64.0411C169.35 65.4814 167.363 69.6128 167.389 71.3785C171.745 73.0498 175.596 70.5278 175.62 65.8634ZM223.305 53.9481C222.68 53.5861 220.626 52.3118 219.845 52.2014C218.218 51.9715 217.451 52.8501 215.855 53.1655C212.721 53.785 210.214 52.1407 208.935 50.6129C206.491 47.6949 206.688 42.6893 210.013 40.1011L212.483 38.7585C213.281 38.2407 212.883 38.6243 213.398 37.9404C211.594 37.3746 209.085 34.5424 205.798 33.5693C203.421 32.8653 196.883 33.0899 193.945 33.0738C188.556 33.044 174.588 33.5486 170.195 32.6398L172.03 34.5106C177.579 40.1895 172.978 48.5407 166.083 48.3014C163.963 48.2277 162.248 47.3768 161.065 46.2297C159.842 45.0441 159.023 42.8554 158.298 42.1161C156.936 40.7276 155.282 41.901 153.433 40.1324C151.755 38.5284 152.05 37.7405 151.376 35.2458L150.575 36.0993C150.521 36.1504 150.406 36.2469 150.324 36.3237C150.127 38.639 149.236 39.9904 149.387 43.486C149.507 46.236 154.484 58.7824 155.65 61.9507C157.012 65.6494 163.44 84.083 164.623 86.0727L168.962 86.0375C168.949 84.28 166.019 75.2504 165.3 72.8948C164.334 69.7298 165.364 68.6699 166.544 66.0851C167.336 64.3517 168.127 62.0614 169.145 60.3986C173.592 60.3009 169.892 63.6865 177.913 63.7035C180.911 63.7096 187.215 63.2106 189.419 64.048C190.65 65.0536 190.628 83.3589 190.666 86.2508L194.698 86.2707C195.105 82.585 197.148 66.7269 198.497 64.8842C200.319 64.1931 203.16 64.771 205.587 64.2604C208.242 63.7019 208.677 63.9505 210.182 65.7816C211.705 67.6342 225.208 85.3119 227.189 85.8432C228.848 86.288 232.926 86.0327 234.19 85.6357C234.894 83.446 234.098 80.4606 233.82 77.955C233.403 74.2089 234.897 74.52 234.576 71.5525C233.376 60.4927 233.292 68.2604 234.905 57.0489C233.074 57.2383 231.597 57.6857 230.459 58.6317C228.454 60.2976 230.19 60.6027 226.665 60.6182L223.306 53.948L223.305 53.9481ZM188.68 42.5378C191.741 43.565 191.406 45.8066 192.947 46.4396C194.182 46.9464 194.904 46.3196 196.445 47.0736C197.092 47.3898 198.281 48.4597 198.606 49.1405C199.761 51.5598 198.389 54.1045 196.678 55.0213C193.565 56.6882 192.585 54.2352 190.571 54.2899C188.238 54.3532 187.564 56.1837 184.105 54.8549C176.646 51.989 180.328 39.7352 188.68 42.5377V42.5378Z" fill="#E0E0E0"/>
</svg>
