<svg width="16" height="16" viewBox="0 0 16 16" fill="none" xmlns="http://www.w3.org/2000/svg">
<path fill-rule="evenodd" clip-rule="evenodd" d="M7.24955 8.39167C6.79165 8.01863 5.69947 6.82048 5.37172 6.63333C4.48887 6.12925 3.38883 7.20829 4.33505 8.13897C4.95224 8.74604 5.542 9.30317 6.16522 9.90465C7.8377 11.5188 7.99372 12.0502 9.31567 10.7743L12.0752 8.11146C12.9442 7.23787 11.9021 6.06467 10.9734 6.65549C10.6169 6.88232 9.60622 8.01123 9.13057 8.3921C9.03246 7.03636 9.11415 3.55168 9.12046 1.83851C9.12176 1.49217 9.10616 1.19745 8.92644 0.962028C8.79499 0.789874 8.53358 0.608907 8.19028 0.608887C7.32082 0.608786 7.25846 1.3731 7.26044 1.89484C7.26671 3.55928 7.34715 7.10248 7.24955 8.39165V8.39167Z" fill="white"/>
<path fill-rule="evenodd" clip-rule="evenodd" d="M0.99563 14.2362C1.04205 14.5205 1.24272 14.7362 1.40458 14.8387C1.66369 15.003 1.94121 14.9858 2.27309 14.9846L12.407 14.9841C13.5856 14.9841 15.5973 15.3255 15.3753 13.9064C15.2755 13.2686 14.7805 13.1402 14.0962 13.1428L8.01576 13.1432C6.29122 13.1432 3.57729 13.0837 1.93265 13.1429C1.34959 13.1639 0.890109 13.5899 0.99563 14.2362Z" fill="white"/>
</svg>
