<svg width="37" height="36" viewBox="0 0 37 36" fill="none" xmlns="http://www.w3.org/2000/svg">
<path d="M0 17.28C0 9.13412 0 5.0611 2.60087 2.53058C5.20189 0 9.38785 0 17.76 0H19.24C27.6122 0 31.7982 0 34.3991 2.53058C37 5.0611 37 9.13412 37 17.28V18.72C37 26.8659 37 30.9388 34.3991 33.4695C31.8592 35.9407 27.8067 35.9987 19.8211 36H17.179C9.19333 35.9987 5.14092 35.9407 2.60089 33.4695C2.52724e-05 30.9388 2.52029e-05 26.8659 2.52029e-05 18.72V17.28H0ZM18.1009 5.72182C18.0375 10.6935 17.6891 13.4878 15.7742 15.3526C13.8593 17.2172 10.9898 17.5568 5.88451 17.6182V18.3533C10.9898 18.4152 13.8593 18.7545 15.7742 20.6193C17.6891 22.4837 18.0375 25.2781 18.1009 30.2497H18.8557C18.9192 25.2781 19.2677 22.4837 21.1824 20.6193C23.0973 18.7545 25.9668 18.4152 31.0721 18.3533V17.6182C25.9668 17.5566 23.0973 17.2172 21.1824 15.3526C19.2677 13.4877 18.9192 10.6935 18.8557 5.72182H18.1009Z" fill="white"/>
</svg>
