<svg width="24" height="24" viewBox="0 0 24 24" fill="none" xmlns="http://www.w3.org/2000/svg">
<path fill-rule="evenodd" clip-rule="evenodd" d="M8.62562 12.5609H15.3712C15.4927 12.7513 15.4111 12.345 15.4698 12.838L15.4502 17.9813H8.54657L8.52787 13.1202C8.52617 12.7615 8.50492 12.7505 8.62562 12.5618V12.5609ZM10.8968 1.1889C17.2258 0.466402 22.194 5.31816 22.8077 10.838C23.5183 17.224 18.7193 22.1812 13.1663 22.8059C6.78793 23.5241 1.80528 18.7183 1.18818 13.1593C0.474188 6.7181 5.2962 1.82894 10.8959 1.1889H10.8968ZM0.0457917 13.0293C0.577037 19.23 6.06119 24.5348 12.9597 23.9568C19.2403 23.4307 24.5298 17.9541 23.9552 11.0148C23.4359 4.74611 17.9381 -0.53829 10.9869 0.0439553C4.7386 0.567551 -0.549203 6.07805 0.0457917 13.0293ZM6.02209 9.28932L17.9806 9.30293L17.973 14.7029L16.5739 14.7072L16.5714 12.6536C16.8595 12.4725 17.0337 12.589 17.1961 12.311C17.8557 11.1848 15.6678 11.4356 15.559 11.4356H8.43522C7.96772 11.4356 7.08883 11.3055 6.83638 11.6226C6.39184 12.1802 6.95963 12.4615 7.28433 12.5915L7.41183 14.7089L6.01444 14.6927L6.02209 9.28848V9.28932ZM8.52957 6.01515L15.4451 6.0296L15.372 8.16479L8.54572 8.14608L8.52957 6.016V6.01515ZM7.42373 8.16564C4.40965 8.16564 4.89075 7.90129 4.89075 11.9983C4.89075 16.0918 4.40965 15.8309 7.42373 15.8309C7.42373 16.8832 7.07183 18.8432 8.09522 19.0753L15.899 19.0744C16.4949 18.9393 16.5765 18.4879 16.5739 17.8122C16.5714 17.1518 16.5714 16.4913 16.5714 15.83C19.5829 15.83 19.1043 16.091 19.1043 11.9974C19.1043 7.90044 19.5829 8.16479 16.5722 8.16479C16.5722 4.21487 17.1162 4.89061 11.9984 4.89061C8.47347 4.89061 7.42288 4.37807 7.42118 6.1826C7.42033 6.84305 7.42373 7.50434 7.42373 8.16479V8.16564Z" fill="white"/>
</svg>
