<svg width="37" height="37" viewBox="0 0 37 37" fill="none" xmlns="http://www.w3.org/2000/svg">
<path d="M0.00683594 17.4843C0.00683594 9.24212 0.00683594 5.12109 2.56728 2.56045C5.12792 0 9.24895 0 17.4911 0H18.9482C27.1904 0 31.3114 0 33.872 2.56045C36.4325 5.12109 36.4325 9.24212 36.4325 17.4843V18.9414C36.4325 27.1836 36.4325 31.3046 33.872 33.8652C31.3114 36.4257 27.1904 36.4257 18.9482 36.4257H17.4911C9.24895 36.4257 5.12792 36.4257 2.56728 33.8652C0.00683594 31.3046 0.00683594 27.1836 0.00683594 18.9414V17.4843H0.00683594ZM19.7524 19.8679H23.0429L23.6689 15.7608H19.7524V13.0956C19.7524 11.9719 20.2995 10.8766 22.0539 10.8766H23.8346V7.3801C23.8346 7.3801 22.2185 7.10255 20.6734 7.10255C17.4475 7.10255 15.3391 9.06955 15.3391 12.6305V15.7607H11.7535V19.8678H15.3391V29.7965H19.7524V19.8678V19.8679Z" fill="#ffffff"/>
</svg>
