<svg width="28" height="32" viewBox="0 0 28 32" fill="none" xmlns="http://www.w3.org/2000/svg">
<path fill-rule="evenodd" clip-rule="evenodd" d="M18.1922 22.7635C20.7819 22.9884 28.9192 25.0349 25.1519 27.5576C20.3682 30.7608 7.69683 30.7889 2.84455 27.5585C-0.934858 25.0424 7.22593 22.9875 9.8054 22.7634C10.4091 23.7648 11.1262 24.8179 11.765 25.851C13.3151 28.3585 13.8043 29.7591 15.3138 27.2956L18.1922 22.7634V22.7635ZM13.9988 25.7997C13.3624 25.1999 6.55803 14.3442 6.15739 13.3028C3.89929 7.43318 8.53542 1.86315 13.9988 1.86305C19.4634 1.86294 24.1676 7.50903 21.8075 13.3948C21.3237 14.6012 20.5591 15.6074 19.9276 16.6153L15.953 22.8368C15.4942 23.5185 14.47 25.3578 13.9988 25.7997ZM8.63443 21.0216C6.04835 21.6241 4.50259 21.8308 2.34315 23.029C-1.02635 24.8986 -0.813666 27.9619 3.3181 29.9466C4.17905 30.3602 5.4657 30.7661 6.49067 31.0072C12.0567 32.3163 22.9582 32.383 27.1178 28.2817C28.8144 26.6088 27.9209 24.2816 25.6561 23.0275C23.4979 21.8324 21.9447 21.6231 19.3631 21.0216C20.9197 17.533 25.4106 14.3248 23.9996 8.02552C23.0363 3.72463 19.1442 -0.000209605 13.9987 8.84652e-09C8.84607 0.000209623 4.9694 3.7234 3.9991 8.02517C3.0165 12.3817 4.78805 15.0746 6.87619 18.18C7.37598 18.9232 8.30324 20.2758 8.63446 21.0216L8.63443 21.0216Z" fill="#007DB6"/>
<path fill-rule="evenodd" clip-rule="evenodd" d="M11.2762 10.9335C10.4952 7.16194 16.0371 6.25264 16.7245 9.70966C17.4719 13.4682 11.9848 14.355 11.2762 10.9335ZM12.9152 5.80661C6.82032 7.35192 9.19678 16.3489 15.1589 14.8226C21.0775 13.3074 18.8315 4.30662 12.9152 5.80661Z" fill="#007DB6"/>
</svg>
