<svg width="13" height="17" viewBox="0 0 13 17" fill="none" xmlns="http://www.w3.org/2000/svg">
<path fill-rule="evenodd" clip-rule="evenodd" d="M2.62692 3.67337L2.62556 4.47688L2.44516 4.55073C1.25871 5.03748 1.25916 6.35328 1.25962 7.41224H1.26098V7.43546H1.25962C1.26007 8.52229 1.25962 9.60958 1.25962 10.6964V11.9077C1.25962 12.7015 1.29415 13.3238 1.46092 13.811C1.61632 14.2662 1.89851 14.6141 2.39926 14.8983C3.37533 15.4515 4.62812 15.4506 5.8841 15.4496H6.19264C7.48224 15.4506 8.73685 15.451 9.72518 14.8774C10.2078 14.5974 10.4804 14.2495 10.6313 13.7957C10.7935 13.309 10.8276 12.6903 10.8276 11.9077V10.6123C10.8276 9.53248 10.8271 8.45308 10.8276 7.37322V7.33235C10.828 6.6719 10.8285 6.03466 10.5754 5.53212C10.4786 5.33984 10.3236 5.14198 10.1391 4.97338C9.96602 4.81547 9.77063 4.68728 9.57841 4.61854L9.38574 4.5498L9.38438 3.67059L2.62692 3.67291V3.67337ZM1.48818 0.0766308C1.10921 0.291674 1.13147 0.775636 1.17419 1.36457C1.22054 2.00366 1.57179 1.96 2.05392 1.95628C3.32716 1.94699 10.3827 2.0162 10.6235 1.90705C10.9925 1.73938 10.948 1.07475 10.9135 0.621901C10.8698 0.0455123 10.5277 0.0120716 10.0337 0.0157872C8.77048 0.0255408 1.7222 -0.0557389 1.48864 0.0770953L1.48818 0.0766308ZM1.1442 3.91907C1.24371 3.83872 1.32732 3.77091 1.3664 3.70356L1.40412 2.38126L10.6367 2.38312L10.6435 3.77555C10.6608 3.79042 10.7062 3.80063 10.7753 3.8559C11.0384 4.06491 11.4451 4.38817 11.7636 5.08439C11.9268 5.44109 12.0086 5.82101 12.049 6.21441C12.0876 6.58922 12.0881 6.9789 12.0881 7.37322C12.0876 7.92546 12.0885 7.49584 12.0885 9.85806C12.0885 11.6964 12.0881 12.0517 12.0881 12.3429C12.0895 14.4065 11.3629 15.51 10.2137 16.1027C9.10492 16.6744 7.62765 16.7376 6.04405 16.7376C5.29564 16.7376 4.51498 16.7315 3.76975 16.6363C3.00635 16.5392 2.28385 16.3479 1.6754 15.9763C1.07149 15.6071 0.650259 15.1612 0.378525 14.563C0.114515 13.9824 -0.000903487 13.2667 5.32314e-06 12.3429C0.000459728 11.5046 0.000914133 10.6657 0.000914133 9.82694C0.000914133 8.98813 0.000459728 8.14979 5.32314e-06 7.31099C-0.0018123 4.84659 0.686157 4.2897 1.1442 3.91907V3.91907Z" fill="#007DB6"/>
</svg>
