<svg width="31" height="32" viewBox="0 0 31 32" fill="none" xmlns="http://www.w3.org/2000/svg">
<path fill-rule="evenodd" clip-rule="evenodd" d="M14.1165 23.6385C13.8484 21.5285 16.9834 21.3164 17.1489 23.2455C17.3231 25.2764 14.3495 25.4722 14.1165 23.6385ZM14.0119 17.2281C14.0089 16.9509 14.0093 16.6626 14.0119 16.3685V11.1167C14.0119 10.2054 14.7586 9.45988 15.6713 9.45988C16.584 9.45988 17.3307 10.2054 17.3307 11.1167V19.039C17.3307 19.9503 16.584 20.6958 15.6713 20.6958C14.7586 20.6958 14.0119 19.9503 14.0119 19.039V17.2279V17.2281ZM6.42901 1.95866C2.75561 2.08803 0.30983 4.67347 0.288099 8.41249C0.263533 12.6231 0.289314 16.8424 0.289314 21.0539C0.289314 24.6232 -0.318082 28.2618 3.56939 30.3624C5.75939 31.5458 12.6587 31.0567 15.6293 31.0567C18.5456 31.0567 25.4655 31.4948 27.5985 30.4138C31.5564 28.4078 30.9693 24.5627 30.9693 21.1974C30.9693 16.9854 30.9825 12.7713 30.9709 8.55939C30.9605 4.72644 28.6027 2.09207 24.8291 1.95852C24.5617 0.017791 22.7952 0.252145 22.1881 0.892947C21.0573 2.08641 23.6207 1.95677 17.1574 1.95677C16.8865 -0.104709 14.3693 -0.102149 14.0993 1.95677H9.73284C9.03717 1.58819 9.50203 0.560485 8.11258 0.440006C7.05314 0.347962 6.55521 1.04334 6.42914 1.95852L6.42901 1.95866Z" fill="#007DB6"/>
</svg>
