<svg width="39" height="31" viewBox="0 0 39 31" fill="none" xmlns="http://www.w3.org/2000/svg">
<path fill-rule="evenodd" clip-rule="evenodd" d="M20.8921 30.9013C21.4131 30.6377 21.3981 29.655 21.5251 29.0525C21.9376 27.0968 22.5779 24.7796 23.556 23.1464C23.912 22.5519 24.0476 21.9936 24.9947 21.911C27.4187 21.6993 29.172 21.7015 31.5416 20.5271C37.2297 17.708 34.5518 12.9544 37.6348 8.10106C38.0252 7.48641 38.49 7.03869 37.7598 6.35968C36.6761 5.89165 32.8943 6.84421 31.6783 7.17362C25.3365 8.89164 22.2911 11.3877 22.4202 19.1601C22.9434 18.9027 26.2303 14.8787 29.9694 14.189L29.1764 14.6583C26.8312 15.9224 23.9302 18.7389 22.675 21.0967C22.105 22.1672 21.6758 23.424 21.1537 24.4126C20.896 23.9035 20.6446 22.9287 20.3972 22.3073C19.2912 19.5295 17.6581 17.1047 15.6636 14.9857C13.5544 12.7449 12.6706 12.4894 10.513 10.9819C13.0773 11.4974 16.2731 14.1426 18.005 15.8895L20.0695 18.0408C20.3563 14.4291 20.2059 11.5324 18.7473 8.55357C17.5276 6.06251 15.4563 4.67312 12.758 3.35472C10.204 2.10687 7.40217 1.21272 4.34149 0.585647C-0.721919 -0.45176 0.0700032 0.40292 1.44798 3.01582C4.65504 9.09673 0.79384 16.0957 9.60017 19.8449C11.6687 20.7254 14.1622 21.2149 16.4631 21.4175C17.4566 21.505 17.2382 21.44 17.9377 22.7025C18.6233 23.94 19.2217 25.0656 19.7443 26.4779C20.0129 27.2036 20.769 30.7339 20.8923 30.9014L20.8921 30.9013Z" fill="#007DB6"/>
</svg>
