<svg width="37" height="33" viewBox="0 0 37 33" fill="none" xmlns="http://www.w3.org/2000/svg">
<path fill-rule="evenodd" clip-rule="evenodd" d="M14.976 10.5025C18.8229 11.484 21.0183 5.50125 18.5922 3.02564C17.9489 2.36928 16.828 2.02353 15.6298 1.70069C13.0931 1.01733 10.6802 0.221323 9.11702 2.28314C5.29499 7.32433 2.42324 13.7675 0.912736 20.2277C-0.507763 26.3028 0.939425 27.6084 7.23108 30.144C11.6735 31.9343 16.8068 32.9145 22.1493 32.6124C24.7392 32.4659 27.2194 32.0253 29.5839 31.3841C31.0372 30.99 34.9761 29.6512 35.8422 28.9276C36.8862 28.0556 36.8399 27.1526 36.8375 25.4939L36.8394 16.769C36.8435 15.1407 36.6131 14.5063 35.584 13.7379C32.9425 11.7658 28.684 11.4504 25.5238 13.4398C24.4392 14.1226 23.4324 14.7698 23.5842 15.7778C23.7811 15.9082 29.6633 18.685 27.7465 19.5554C27.1355 19.66 26.5341 18.9423 26.0427 18.5829C21.7093 15.4137 15.8662 15.9369 15.4168 17.1543C15.2053 17.7271 15.165 22.1058 13.7578 20.741C13.2811 20.23 14.0585 18.8628 14.1166 18.0545C14.2719 15.8923 13.2228 11.59 13.688 8.68971C15.2725 8.01932 14.6141 9.50696 14.976 10.5024V10.5025Z" fill="#007DB6"/>
</svg>
