<svg width="20" height="20" viewBox="0 0 20 20" fill="none" xmlns="http://www.w3.org/2000/svg">
<path fill-rule="evenodd" clip-rule="evenodd" d="M17.7944 12.1569L17.7784 12.3137C17.713 12.7078 17.1805 14.1557 16.9691 14.3136C16.9598 14.3867 16.9069 14.5038 16.8473 14.5391L16.6402 14.8787C16.6158 14.9047 16.6176 14.9016 16.5919 14.9228L16.5482 14.9899C16.4734 15.1836 15.9824 15.7101 15.8439 15.8492C15.7256 15.9681 15.5808 16.1029 15.4482 16.2164C15.2765 16.3634 15.161 16.4348 15.0024 16.5615L14.9218 16.6032C14.917 16.6087 14.9093 16.6094 14.9066 16.619L14.5319 16.8556C14.4934 16.923 14.2997 17.0044 14.1959 17.0606C14.0954 17.1151 13.9253 17.2283 13.8064 17.226C13.6189 17.4162 12.3426 17.7603 12.1604 17.7804L12.0378 17.7895C11.9171 17.9025 10.739 17.9919 10.4821 18.0075C8.32481 18.138 5.90014 17.7162 4.23093 16.3375C4.08458 16.2166 3.86818 16.0461 3.7557 15.9146C3.55409 15.6787 3.42378 15.5791 3.14017 15.2233C2.85995 14.8716 2.46439 14.2217 2.28685 13.7935C2.24656 13.6869 2.17615 13.5852 2.17366 13.4772C2.09486 13.3987 2.00235 13.0986 1.96723 12.9909C1.82142 12.5453 1.59182 11.7142 1.57827 11.2867L17.9727 11.2748C17.9611 11.5133 17.9098 11.7119 17.8684 11.938C17.8648 11.9574 17.8488 12.0421 17.8458 12.0515L17.7946 12.1567L17.7944 12.1569ZM9.02251 8.61388C9.19293 8.87178 9.12038 8.84935 9.43607 9.01293C9.94233 9.06668 10.2037 8.8401 10.2398 8.36398L10.2168 8.15058C10.0521 8.02456 10.1286 7.97544 9.9081 7.87719C9.76175 7.81204 9.57761 7.79229 9.42128 7.84337C9.1022 7.94785 9.00415 8.21768 9.02234 8.61388H9.02251ZM6.87682 8.33711L7.43833 8.30276C7.56062 8.29475 8.14566 8.30916 8.17846 8.25541L8.25565 7.81133C8.26082 7.78855 8.26616 7.76612 8.27383 7.74405C8.29682 7.67695 8.27686 7.71931 8.30271 7.68425C8.28809 7.41157 8.63231 6.99419 8.81039 6.96215C8.8644 6.88954 8.94515 6.86088 9.04444 6.82938C9.77655 6.59746 10.2512 7.0839 10.5965 7.66432C10.9748 7.60131 11.8846 7.22024 12.0217 8.27819L13.5125 8.27125C13.6742 7.22184 14.8491 7.38274 14.9986 8.11551C15.0557 8.40261 14.9836 8.75217 15.0312 9.03339L15.8042 9.0325C16.2199 9.05938 16.4997 9.34719 16.5213 9.78041L16.1946 9.77898L15.7457 9.77969L15.4058 9.77934H14.9362L14.5899 9.77916H14.1476L13.2451 9.77364C13.7731 9.4538 13.4351 9.03713 13.1419 9.03411C12.8611 9.03126 12.5128 9.44561 13.0385 9.78058L11.3896 9.77845L10.9342 9.7788L10.5915 9.77916L10.1402 9.77934L9.78599 9.77863L9.33963 9.77827L9.00754 9.77916L7.98808 9.7724C8.13764 9.69088 8.29201 9.60722 8.25707 9.35306C8.23123 9.16421 8.07685 9.02841 7.88451 9.0309C7.41801 9.03713 7.40054 9.74196 7.81624 9.77382L6.93475 9.7788L6.58572 9.77916L6.13437 9.77898L5.78534 9.77863L5.2274 9.77827H5.17053L4.53094 9.77898H4.18316H3.73823L3.37886 9.77827L3.00879 9.77774C3.02002 9.34808 3.32538 9.03856 3.7901 9.03233C4.11774 9.06169 4.37764 9.36979 4.59084 9.38705C4.69565 9.28596 4.85929 9.19483 4.99406 9.0964C5.07588 9.0366 5.12971 8.99833 5.2028 8.95081C5.30066 8.88727 5.32651 8.88905 5.36216 8.76801C5.32009 8.71195 5.34451 8.7657 5.32276 8.66407C5.31581 8.63096 5.31332 8.58611 5.3094 8.55194C5.25824 8.26146 5.22882 8.10911 5.38872 7.85832C5.63775 7.46746 6.25434 7.413 6.57378 7.79549C6.62262 7.85387 6.87094 8.26431 6.87611 8.33693L6.87682 8.33711ZM15.617 0.557812C15.5526 0.739716 14.8655 2.01517 14.6644 2.37631L14.6 2.46103L14.5483 2.58366C14.4792 2.73068 14.3981 2.87076 14.3145 3.03255C14.2449 3.16711 14.1528 3.38496 14.0569 3.46737C14.0428 3.5601 13.8014 3.99244 13.7328 4.11186C13.6699 4.22133 13.4478 4.68587 13.3939 4.71969C13.3494 4.87365 13.2681 5.00002 13.1875 5.14401L12.9948 5.47471C12.992 5.47827 12.9825 5.49483 12.9804 5.49038C12.9782 5.48575 12.9708 5.50106 12.9654 5.50586C12.9563 5.5888 12.8971 5.70717 12.8417 5.75344C12.7811 5.95848 12.6 6.21407 12.5114 6.40203C12.0262 6.14573 12.2791 6.24576 11.7943 6.09091L11.691 6.04463L11.1998 6.02754C11.1053 5.86486 11.0047 5.89779 10.9522 5.778C10.8167 5.73422 10.6447 5.59521 10.466 5.51725C10.0839 5.35012 9.64909 5.25276 9.21824 5.28872C9.00647 5.30634 8.72215 5.38964 8.57847 5.3891C8.54853 5.4231 8.59113 5.3891 8.53409 5.42256C8.52553 5.42755 8.48952 5.44428 8.47847 5.44891L8.17436 5.58204C8.05546 5.64505 7.92016 5.72674 7.82248 5.80114C7.69574 5.89761 7.62301 5.98038 7.50768 6.08414C7.37719 6.20161 7.3435 6.28527 7.23066 6.39366C6.95044 6.29025 6.8852 6.15836 6.37698 6.06456C5.94596 5.985 5.7078 6.06652 5.32383 6.12811L5.15217 6.17438C5.08871 6.24807 4.77997 6.33689 4.34056 6.75818C4.2181 6.87565 4.25678 6.91339 4.11489 7.0095C4.10669 7.07856 3.92522 7.41015 3.86301 7.53047C2.84872 7.56571 2.87528 7.76986 2.6619 7.78499L2.12446 8.20789C2.11287 8.25061 2.13337 8.20735 2.1036 8.25452C2.07419 8.30115 2.08916 8.27446 2.06955 8.29706C2.02641 8.34636 2.03158 8.33426 1.99237 8.38481C1.94388 8.4471 1.91162 8.48715 1.86669 8.55852C1.79093 8.67884 1.72373 8.81785 1.65439 8.96967C1.56865 9.28311 1.51285 9.4134 1.51071 9.78076L0.984494 9.78041L0.527975 9.77969L0.00193514 9.78486C-0.00590823 10.3744 0.0076394 10.9097 0.0883904 11.4716C0.125468 11.7303 0.171102 11.9796 0.228145 12.2333C0.278235 12.4563 0.355956 12.7184 0.397134 12.9358C0.439024 13.0586 0.499454 13.1919 0.49375 13.3099L0.576461 13.487C0.755254 13.9793 0.832618 14.1224 1.02585 14.588C1.19805 15.0026 1.62248 15.609 1.67667 15.7636C1.73995 15.7869 1.83229 15.9518 1.87846 16.0212C2.03747 16.2606 2.52019 16.7762 2.55406 16.8615L2.66672 16.9638L2.93945 17.2326C2.99275 17.2516 3.57476 17.7138 3.61327 17.7863C3.68938 17.7991 3.71541 17.8203 3.76158 17.8813C3.91292 17.9417 4.22095 18.1663 4.37996 18.2553C4.47836 18.3103 4.9511 18.5383 5.01723 18.6073C5.10422 18.615 5.25574 18.6734 5.32419 18.7301C5.61689 18.8156 5.89176 18.943 6.21263 19.0375C7.87275 19.5274 9.72539 19.6363 11.447 19.4261C12.492 19.2985 12.6051 19.1817 13.3879 19.0288C13.4355 18.9945 14.0389 18.7908 14.087 18.7917C14.1553 18.7189 14.2275 18.7132 14.3326 18.6666C14.441 18.6185 14.4729 18.5863 14.5783 18.5796C14.6204 18.5247 14.7868 18.4491 14.8482 18.4165L16.4122 17.3691C17.3666 16.598 18.0531 15.3649 18.1675 15.2729C18.1761 15.1941 18.26 15.0264 18.3089 15.002C18.3568 14.8379 18.4468 14.7164 18.5198 14.5503L18.7365 14.1235L19.0233 13.3078C19.1126 12.9141 19.2282 12.6035 19.3216 12.145C19.3351 12.0782 19.3481 12.0131 19.3622 11.9403L19.3977 11.8059C19.3995 11.8011 19.4062 11.7972 19.4075 11.7867C19.4089 11.7762 19.4135 11.7737 19.418 11.768C19.3989 11.6461 19.4332 11.5024 19.4556 11.3859C19.4927 10.8255 19.5262 10.3635 19.5282 9.78094L19.4048 9.77952H18.9494L18.603 9.78023L18.1308 9.77952L18.0253 9.77133C17.9893 9.21743 17.8547 8.73242 17.4866 8.32589C17.3841 8.21287 17.3949 8.24829 17.3773 8.16179C17.2687 8.1326 17.2375 8.06318 17.1418 7.99021C16.6919 7.64705 16.4673 7.72732 16.3938 7.53901C16.0864 6.75071 15.8341 6.77669 15.776 6.58019C15.7022 6.56026 15.737 6.57663 15.6646 6.52733C15.1368 6.16637 15.3243 6.34187 14.9697 6.15213L14.9311 6.12757L14.546 6.06884C14.5109 6.06029 14.5118 6.05922 14.4799 6.04748L14.4293 6.02185L14.5605 5.79972C14.6024 5.65858 14.712 5.4934 14.7836 5.35155C14.8182 5.2832 14.8539 5.21699 14.8967 5.13814C14.9371 5.06374 14.9672 4.98507 15.0305 4.92776C15.0364 4.86137 15.3721 4.2393 15.419 4.17541C15.4621 4.0542 15.5835 3.85378 15.6434 3.73667C15.7134 3.59979 15.7815 3.42448 15.8819 3.341C15.8937 3.24934 16.1999 2.67533 16.2525 2.62549C16.3131 2.45498 16.7126 1.74303 16.8555 1.46626L16.9643 1.31106C16.9668 1.23043 17.0664 1.05155 17.1169 1.00937C17.1598 0.874808 17.2256 0.811267 17.2584 0.694329C17.1964 0.641823 17.2008 0.662825 17.1493 0.600351L16.9563 0.508866C16.8627 0.4811 16.258 0.185819 16.1692 0.084722L15.9329 0C15.8846 0.0793824 15.6676 0.512426 15.617 0.558524V0.557812Z" fill="#007DB6"/>
</svg>
