<svg width="35" height="41" viewBox="0 0 35 41" fill="none" xmlns="http://www.w3.org/2000/svg">
<path fill-rule="evenodd" clip-rule="evenodd" d="M31.0372 13.799C32.9316 13.799 34.4674 15.3347 34.4674 17.2292C34.4674 19.1237 32.9316 20.6594 31.0372 20.6594C29.4839 20.6594 28.172 19.627 27.7497 18.211L23.6694 18.611C23.687 18.7922 23.6962 18.9758 23.6962 19.1616C23.6962 20.3317 23.339 21.4182 22.7278 22.3183L25.9866 26.2957C26.3863 26.1272 26.8256 26.034 27.2866 26.034C29.1369 26.034 30.6368 27.5339 30.6368 29.3843C30.6368 31.2346 29.1369 32.7345 27.2866 32.7345C25.4363 32.7345 23.9364 31.2346 23.9364 29.3843C23.9364 28.4712 24.3017 27.6436 24.8941 27.0394L21.8522 23.3268C20.8532 24.2344 19.5264 24.7876 18.0703 24.7876C17.4799 24.7876 16.9108 24.6964 16.3762 24.5278L11.4756 33.8408C12.419 34.5615 13.0276 35.6981 13.0276 36.977C13.0276 39.1556 11.2614 40.9218 9.08271 40.9218C6.90405 40.9218 5.13793 39.1556 5.13793 36.977C5.13793 34.7982 6.90405 33.0321 9.08271 33.0321C9.51233 33.0321 9.92577 33.101 10.3129 33.228L15.1759 23.9865C13.5394 23.0027 12.4444 21.2102 12.4444 19.1616C12.4444 17.6502 13.0405 16.2781 14.0102 15.2674L8.18416 9.44124C7.35428 10.0731 6.31845 10.4484 5.19486 10.4484C2.46666 10.4484 0.255127 8.23686 0.255127 5.50868C0.255127 2.78043 2.46669 0.568848 5.19486 0.568848C7.92309 0.568848 10.1347 2.78043 10.1347 5.50868C10.1347 6.63842 9.75513 7.67932 9.11704 8.51155L15.0317 14.4262C15.908 13.8626 16.9509 13.5357 18.0703 13.5357C18.8799 13.5357 19.6496 13.707 20.3451 14.0149L23.2874 8.78152C22.3266 8.04821 21.7065 6.89117 21.7065 5.5891C21.7065 3.37223 23.5035 1.57526 25.7203 1.57526C27.9372 1.57526 29.7341 3.37227 29.7341 5.5891C29.7341 7.80591 27.9371 9.60292 25.7203 9.60292C25.2764 9.60292 24.8493 9.53072 24.4501 9.39764L21.4775 14.6849C22.3495 15.3495 23.0215 16.263 23.3875 17.3195L27.6224 16.9044C27.786 15.1623 29.2523 13.7989 31.0372 13.7989L31.0372 13.799ZM29.6536 29.0439C29.6607 27.9918 28.8883 27.1597 28.0168 26.984C27.925 26.9655 27.8412 26.9496 27.7453 26.9447C27.506 26.9324 27.5113 26.8904 27.5403 27.6489C28.0405 27.7576 28.206 27.7528 28.5126 28.0641C28.7488 28.3041 28.8912 28.5865 28.9288 29.0493L29.6536 29.0438V29.0439ZM8.85303 4.72049C8.86294 3.26413 7.79355 2.1121 6.58719 1.86879C6.46012 1.84317 6.34401 1.82129 6.21133 1.81445C5.87994 1.79739 5.88732 1.73919 5.92744 2.7893C6.61993 2.9398 6.84905 2.93312 7.27347 3.36419C7.60056 3.69632 7.79763 4.08743 7.84959 4.72816L8.85299 4.72053L8.85303 4.72049ZM22.2229 18.9165C22.2367 16.8748 20.7377 15.2598 19.0464 14.9187C18.8683 14.8828 18.7055 14.8521 18.5195 14.8425C18.055 14.8186 18.0653 14.737 18.1215 16.2091C19.0924 16.4201 19.4135 16.4108 20.0085 17.015C20.4671 17.4806 20.7434 18.0289 20.8162 18.9271L22.2229 18.9165V18.9165Z" fill="#007DB6"/>
</svg>
