<svg width="11" height="22" viewBox="0 0 11 22" fill="none" xmlns="http://www.w3.org/2000/svg">
<path fill-rule="evenodd" clip-rule="evenodd" d="M1.50263 10.1768C3.77237 9.26549 4.5333 11.8061 7.47593 11.2619C8.37395 11.0958 8.70297 10.7575 9.35403 10.5327C9.47464 11.8544 9.49456 17.0927 9.43135 18.8299C9.40876 19.4512 9.15468 19.6604 8.54074 19.6731L1.94022 19.6525C1.0492 19.4922 1.36732 17.7168 1.36732 16.8556C1.36732 14.9201 1.19951 11.9821 1.50275 10.1768H1.50263ZM1.90239 8.66287C2.32475 7.1322 2.84619 7.19121 3.31622 4.14849L7.47545 4.15539C7.99333 7.38611 8.82891 7.87338 9.03846 9.15376C8.506 9.34716 8.11335 9.69659 7.41485 9.88261C5.22249 10.4666 5.00873 8.4997 1.90239 8.66287V8.66287ZM2.43184 1.50013C2.74871 1.31447 8.08512 1.37142 8.33588 1.47081C8.85352 1.67588 8.87457 2.44771 8.39932 2.68989C8.10837 2.83813 2.74598 2.8316 2.45431 2.71631C1.92671 2.50786 1.89178 1.81656 2.4319 1.50013H2.43184ZM1.96993 4.05854C1.76649 5.92993 0.995896 7.0449 0.476118 8.63826C-0.103311 10.4144 0.0252993 12.349 0.0252993 14.3125C0.0252993 22.0174 -0.895667 21.0334 8.37567 21.04C11.5195 21.0423 10.7708 18.0978 10.7708 14.3125C10.7708 12.4209 10.8904 10.4251 10.3421 8.69842C9.82359 7.06534 9.03319 5.96693 8.82607 4.05854C9.20075 3.72096 9.67642 3.66709 9.98582 2.74968C10.2394 1.99756 9.994 1.21775 9.60455 0.754901C8.75681 -0.252464 6.97898 0.0392324 5.39806 0.0392324C3.81708 0.0392324 2.03931 -0.252464 1.19157 0.754901C0.816707 1.20034 0.562391 1.93275 0.790321 2.68917C1.00829 3.41275 1.32439 3.59678 1.76732 3.90522L1.97005 4.05854H1.96993Z" fill="#007DB6"/>
</svg>
