<svg width="31" height="34" viewBox="0 0 31 34" fill="none" xmlns="http://www.w3.org/2000/svg">
<path fill-rule="evenodd" clip-rule="evenodd" d="M28.424 15.9444L26.012 15.9633C25.887 14.3646 25.4132 13.3884 24.627 12.5596C23.6067 11.484 23.0559 11.5008 21.3912 11.1252C21.2948 8.50494 21.2772 8.64997 22.0735 8.69261C22.3926 8.70973 22.6718 8.76438 22.9769 8.82834C25.8772 9.4355 28.4477 12.3101 28.424 15.9441V15.9444ZM1.68121 14.7183C2.59329 14.4216 3.92741 12.6308 7.72268 12.0302C8.72473 11.8717 9.59226 11.996 10.4954 11.8801C10.9868 11.1141 10.9559 10.3478 12.5203 8.31396C12.7829 7.97284 13.1772 7.65154 13.3502 7.25878C12.8107 5.86278 11.2813 4.8109 9.33567 4.69439L9.31571 2.20027C11.4008 1.95404 13.6178 3.36445 14.84 4.94482C15.0561 5.22438 15.1316 5.42047 15.3303 5.65979C15.6225 5.63036 16.6502 5.0253 17.1287 4.84903C16.9407 3.39418 13.9531 1.09674 12.1046 0.481471C5.56036 -1.69676 -0.924281 4.15329 0.334348 11.2123C0.618415 12.8052 1.12725 13.6001 1.68121 14.7183V14.7183ZM17.6928 27.309C15.4755 26.7688 12.8558 24.3435 11.9073 22.8331C10.1705 20.0678 9.82715 18.4538 9.90757 14.4409C1.70059 14.119 -2.27577 23.1336 1.80588 29.2437C4.67606 33.5395 10.4771 34.8821 15.0072 31.288C15.7466 30.7013 17.5374 28.6264 17.6928 27.309V27.309ZM20.2922 6.60627C14.9687 7.42964 11.6088 12.2599 12.3418 17.1638C13.0829 22.1226 17.0196 25.8842 22.486 25.3755C27.0762 24.9482 31.0702 20.3657 30.4139 14.7931C29.8585 10.0751 25.5379 5.79522 20.2922 6.60627V6.60627Z" fill="#007DB6"/>
</svg>
