<svg width="19" height="35" viewBox="0 0 19 35" fill="none" xmlns="http://www.w3.org/2000/svg">
<path fill-rule="evenodd" clip-rule="evenodd" d="M8.30875 22.5446C8.30875 20.8707 8.30875 19.1966 8.30875 17.5226C8.30875 16.1457 7.8793 13.6916 9.55089 13.692C11.2216 13.6922 10.793 16.1455 10.793 17.5226C10.793 19.1966 10.793 20.8707 10.793 22.5446C14.8104 24.1926 13.5992 29.7263 9.55089 29.7236C5.5396 29.7209 4.25596 24.2621 8.30875 22.5446V22.5446ZM8.52213 0.205255C6.48987 0.583246 5.3154 1.53552 4.46054 2.73297C3.27028 4.40017 3.34449 5.72662 3.34449 8.06657V17.7927C3.34449 18.3192 3.37156 18.9076 3.35419 19.4245C3.32622 20.2534 3.27028 20.0721 2.82639 20.5605C0.821874 22.7652 0.188287 27.3412 2.05093 30.3833C3.49562 32.7428 6.43416 35.1722 10.6879 34.6025C14.2515 34.1251 16.8463 31.6194 17.8094 28.7085C18.4004 26.9226 18.376 24.9245 17.7384 23.1582C17.4167 22.2676 17.1312 21.7539 16.6239 21.0268C15.8279 19.8864 15.7449 20.5053 15.7568 18.6039C15.7706 16.4149 15.8647 7.16366 15.728 5.69185C15.4201 2.37158 12.3004 -0.497113 8.52258 0.20548L8.52213 0.205255Z" fill="#007DB6"/>
</svg>
