<svg width="33" height="35" viewBox="0 0 33 35" fill="none" xmlns="http://www.w3.org/2000/svg">
<path fill-rule="evenodd" clip-rule="evenodd" d="M26.2298 11.011L26.1799 19.7961C25.6276 20.0912 25.011 20.3896 24.3739 20.7339C21.7446 22.1543 22.4506 22.3364 22.4506 13.056C18.4471 10.8567 14.2162 8.83315 10.1376 6.6801C6.37293 4.69277 7.7983 4.67112 3.8505 6.6319C-0.372121 8.72926 0.295234 7.5999 0.295234 12.3801C0.295234 15.5015 0.295234 18.6229 0.295234 21.7443C0.295234 27.3004 -0.339807 26.0359 3.42864 27.9175L12.7975 32.6327C16.8049 34.6354 15.6563 34.7273 19.2138 32.969L28.5324 28.3309C31.2208 27.004 32.5409 26.8715 32.5711 25.3119L32.5666 13.699C32.5666 7.63717 33.3232 8.79852 29.869 7.08892L17.3898 0.86573C16.0056 0.164735 15.2672 0.941892 14.0411 1.54941C13.1171 2.00724 11.7088 2.508 10.9496 3.20352L26.2297 11.0111L26.2298 11.011Z" fill="#007DB6"/>
</svg>
