<svg width="21" height="17" viewBox="0 0 21 17" fill="none" xmlns="http://www.w3.org/2000/svg">
<path fill-rule="evenodd" clip-rule="evenodd" d="M12.6334 10.2276L12.6261 15.8985C13.0302 15.8046 13.4797 15.6586 13.9121 15.5184C14.0988 15.4578 14.2824 15.3983 14.4572 15.3444L19.1091 13.9224C19.1774 13.9006 19.2545 13.88 19.3355 13.8582C19.5923 13.7893 19.8923 13.7086 19.8923 13.6267L19.8938 8.44903C19.5518 8.51978 17.4205 9.02958 15.5463 9.48815C14.1318 9.83435 12.8671 10.1509 12.6331 10.2274L12.6334 10.2276ZM10.5166 7.79954C9.88481 7.93246 9.02134 8.11401 8.68841 8.21909C8.99927 8.3338 9.91052 8.64203 10.7293 8.90967C11.4687 9.15131 12.1291 9.35862 12.1958 9.35758C12.2233 9.35732 14.7174 8.76246 16.5864 8.29973C17.4398 8.08852 18.1604 7.90541 18.452 7.82035C17.9072 7.65232 15.8247 7.12275 15.0106 6.91596L14.7761 6.8564C14.6052 6.8127 14.472 6.77395 14.3686 6.74377C14.217 6.69956 14.1331 6.67511 14.0669 6.67693C13.9895 6.67927 13.9202 6.72115 13.7654 6.81478C13.7324 6.83481 13.6958 6.85692 13.6483 6.88501C12.9881 7.27673 12.5677 7.36283 11.9166 7.496C11.7011 7.54022 11.4596 7.58938 11.1667 7.65935C11.0498 7.68718 10.8072 7.73816 10.5164 7.79928L10.5166 7.79954ZM6.51116 9.93943L6.20576 9.94438C5.82454 9.95192 5.30697 9.90978 4.84784 9.77713C4.55828 9.69363 4.29132 9.57372 4.09473 9.40752C3.89295 9.23715 3.76466 9.01892 3.75947 8.74191C3.75739 8.64125 3.77194 8.53278 3.80544 8.41677C3.88776 8.13092 4.01553 7.99228 4.13472 7.86275C4.18459 7.80865 4.23315 7.75611 4.2747 7.69498L0.9561 6.58875C0.927534 7.61539 0.941557 9.1638 0.952464 10.3998C0.954802 10.6532 0.956879 10.8935 0.958437 11.1146L9.05744 14.6934C9.11846 14.7207 9.23143 14.7722 9.37582 14.8383C10.038 15.1405 11.3762 15.751 11.6949 15.8475L11.6962 10.1998L7.4567 8.81968L7.44657 11.652C7.44631 11.7022 7.44735 11.7542 7.44813 11.806C7.45436 12.1449 7.46059 12.4879 7.15078 12.5969C7.07937 12.6222 7.01444 12.6336 6.95601 12.6336C6.85369 12.6336 6.77033 12.5993 6.70437 12.5418C6.64049 12.4861 6.594 12.4089 6.5631 12.3204C6.52934 12.2247 6.51402 12.1155 6.51402 12.007C6.51376 11.962 6.51532 11.8385 6.51765 11.6715C6.52441 11.1544 6.53661 10.2193 6.51142 9.93839L6.51116 9.93943ZM5.55809 8.97392C5.88245 9.01502 6.22862 9.01684 6.52467 9.00565C6.52467 8.90317 6.52389 8.80953 6.52337 8.7237C6.51999 8.25655 6.51817 8.01959 6.63374 7.86483C6.75345 7.7046 6.9812 7.65414 7.44371 7.55166C7.51643 7.53554 7.59537 7.51811 7.69172 7.49626L11.9608 6.5206C12.0319 6.50474 12.1036 6.48965 12.1732 6.47535C12.4578 6.4163 12.7069 6.3648 12.9424 6.22278C12.9842 6.19755 13.045 6.1627 13.1151 6.12238C13.3099 6.01054 13.5789 5.85603 13.6919 5.76604C13.622 5.62714 13.5073 5.40969 13.3821 5.17352C13.1556 4.74564 12.8965 4.25534 12.8079 4.04596C12.6183 4.12113 12.0834 4.40985 11.5881 4.67697C11.2272 4.87179 10.8872 5.05517 10.7145 5.13762C10.3465 5.31345 9.9809 5.51582 9.61603 5.71792C9.27739 5.90545 8.93902 6.09273 8.60038 6.25816C8.22928 6.43945 7.87402 6.63375 7.52162 6.82623C7.17389 7.01637 6.82876 7.20468 6.48208 7.37453C6.22186 7.50198 5.77468 7.73244 5.39397 7.98968C5.03715 8.2308 4.73981 8.49299 4.72007 8.70549C4.9273 8.85219 5.23166 8.93282 5.55835 8.97418L5.55809 8.97392ZM4.68319 5.72728C3.93242 5.84251 2.83341 6.01158 2.43271 6.09039C2.74018 6.2142 3.12504 6.33671 3.48524 6.45168C3.65326 6.50526 3.81634 6.55702 3.95865 6.60488C4.25704 6.70502 4.47258 6.78461 4.63671 6.84496C4.85719 6.92611 4.98444 6.97319 5.07948 6.98567C5.20128 7.00154 5.28334 6.9581 5.47733 6.85536L5.54225 6.82103L5.79857 6.68707C6.45507 6.34425 7.98387 5.54573 8.37237 5.31215C7.89739 5.19667 7.67588 5.2375 7.25336 5.31527C7.16013 5.33244 7.05729 5.35143 6.94614 5.3699C6.67451 5.41515 6.41871 5.45495 6.16292 5.49423C5.89855 5.53506 5.63444 5.5759 5.38098 5.6183C5.26542 5.63754 5.00677 5.67734 4.68293 5.72702L4.68319 5.72728ZM13.7179 3.5554L13.6929 3.5697L13.6337 3.61314L14.0671 4.4434C14.4907 4.32141 17.139 3.27266 18.2858 2.81852C18.4666 2.74699 18.6019 2.69341 18.726 2.64451C18.7502 2.63488 18.7735 2.625 18.7959 2.61434C19.0239 2.50691 19.1729 2.34174 19.2381 2.13652C19.3041 1.9287 19.2854 1.67795 19.1776 1.40276C19.1628 1.36479 19.1465 1.32707 19.1291 1.28988C18.9468 0.901799 18.7782 0.890355 18.504 1.01937C18.4237 1.05708 18.3315 1.10806 18.2277 1.16529C18.1199 1.22485 17.9994 1.29118 17.8618 1.35959C17.3107 1.63296 16.7259 1.94899 16.1486 2.26111C15.7653 2.46842 15.3851 2.6739 15.0257 2.86118C14.9389 2.90643 14.8532 2.95195 14.7688 2.99669C14.6104 3.08071 14.4575 3.16212 14.2991 3.23989C14.2224 3.27761 14.1508 3.31844 14.0752 3.36136C14.0349 3.38425 13.9934 3.40792 13.9454 3.43419C13.9064 3.45552 13.875 3.47164 13.8443 3.48751C13.8186 3.50078 13.7934 3.51378 13.7656 3.52887L13.7179 3.5554ZM17.9012 3.96923C16.9175 4.3573 14.9413 5.1371 14.5014 5.27886C14.532 5.36157 14.5704 5.43024 14.6094 5.50021C14.6424 5.55951 14.6759 5.6196 14.7068 5.69035C14.7335 5.75173 14.7501 5.79803 14.7626 5.83262C14.7766 5.87164 14.7839 5.89141 14.7919 5.89817C14.8026 5.90675 14.8304 5.91274 14.887 5.92522C14.9262 5.93381 14.9774 5.94473 15.0436 5.96164C15.0849 6.00299 18.9099 6.93859 19.3581 7.08815C19.602 7.15526 19.8081 7.20338 19.9793 7.24318C20.4213 7.34592 20.6381 7.39638 20.7485 7.6055C20.8505 7.7985 20.8446 8.11375 20.8326 8.73306C20.8272 9.02568 20.8202 9.38749 20.8225 9.83617C20.8256 10.4087 20.8241 10.9822 20.8225 11.5552C20.8217 11.8905 20.8207 12.2258 20.8207 12.5608C20.8207 12.721 20.8217 12.8817 20.8228 13.0425C20.8246 13.3304 20.8264 13.6184 20.8225 13.9053C20.8157 14.4039 20.6202 14.4551 20.2553 14.5506C20.1894 14.5678 20.1177 14.5867 20.0419 14.6096L12.7344 16.8445C12.669 16.865 12.6118 16.8837 12.5607 16.9006C12.1665 17.0299 12.0945 17.0536 11.6105 16.8468C10.8171 16.5076 10.0225 16.1518 9.22935 15.7962C8.76347 15.5876 8.2981 15.379 7.8104 15.1639C7.31205 14.9444 6.8189 14.7217 6.32678 14.4996C5.57056 14.1581 4.81693 13.8179 4.04331 13.4883L3.86465 13.4124C3.29306 13.1692 2.6898 12.9127 2.15484 12.6534C1.62688 12.3974 1.228 12.2403 0.927534 12.1222C0.484241 11.9477 0.250259 11.8556 0.123789 11.6509C-0.0151461 11.4259 -0.00761505 11.0839 0.00848582 10.36C0.0152378 10.0515 0.0238076 9.67283 0.0232882 9.20437L0.0225092 8.65789C0.0217301 7.93194 0.0206913 7.20572 0.0230285 6.47977C0.0232882 6.40772 0.0230285 6.34113 0.0227689 6.27975C0.0206913 5.87788 0.0199123 5.68775 0.186634 5.5655C0.327387 5.46197 0.580067 5.4253 1.05946 5.35611C1.22826 5.33166 1.42562 5.30305 1.64688 5.26793L7.49851 4.33728C8.02049 4.25768 8.08723 4.27459 8.46975 4.37213C8.52948 4.38748 8.59596 4.40438 8.65569 4.41895C8.86423 4.47019 9.02056 4.51467 9.14521 4.5503C9.37738 4.61637 9.49839 4.65096 9.61915 4.63432C9.75315 4.61585 9.90247 4.53314 10.2149 4.36043C10.3216 4.30138 10.447 4.23193 10.6003 4.14948L15.9613 1.30886C16.2265 1.16581 16.496 1.02691 16.7648 0.888014C17.0941 0.718165 17.4229 0.548576 17.7467 0.369623C18.1246 0.161018 18.4687 0.010677 18.7938 0.000532906C19.1246 -0.00961122 19.4306 0.124083 19.7235 0.48615C19.9375 0.750938 20.1076 1.1385 20.1694 1.55102C20.2231 1.91101 20.1953 2.29076 20.0432 2.62604C19.7591 3.25211 19.2755 3.43705 18.6071 3.69221C18.5338 3.72031 18.4575 3.74944 18.4087 3.76842C18.3388 3.79548 18.1511 3.86961 17.8997 3.96897L17.9012 3.96923Z" fill="#007DB6"/>
</svg>
