<svg width="25" height="34" viewBox="0 0 25 34" fill="none" xmlns="http://www.w3.org/2000/svg">
<path fill-rule="evenodd" clip-rule="evenodd" d="M10.8273 3.9654C15.9237 3.03266 19.9971 6.80441 20.6713 11.007C21.4912 16.117 17.8576 20.018 13.7038 20.7671C8.55439 21.6957 4.53695 17.9111 3.83418 13.7472C2.96705 8.60961 6.62096 4.73527 10.8273 3.96544V3.9654ZM12.9742 26.74C13.3737 27.8899 14.8074 33.0147 15.2542 33.6274C16.3471 32.7693 17.3937 31.8839 18.5293 30.984C19.5063 30.2098 22.3014 31.0423 23.7987 30.8463L21.0838 22.5648C20.2541 22.711 20.0673 23.4035 19.7165 23.998C19.4158 24.5075 18.9219 25.1454 18.7495 25.6764C15.6816 25.4875 15.6944 24.5503 12.9742 26.74V26.74ZM9.24832 33.6274C9.71483 32.9756 11.1144 27.9191 11.5269 26.7389C8.86858 24.5507 8.72329 25.496 5.75217 25.6764C5.58001 25.1469 5.04077 24.4314 4.73622 23.913C4.41277 23.3624 4.21903 22.6997 3.35842 22.5446L0.705406 30.8475C2.20615 31.0624 4.98702 30.2039 5.97308 30.9824C7.1098 31.8798 8.16511 32.7575 9.24832 33.6275V33.6274ZM10.982 5.95688C7.80062 6.6048 5.07 9.60662 5.82 13.6051C6.4095 16.7481 9.60426 19.6157 13.5647 18.7784C16.6706 18.1217 19.4239 15.0885 18.6861 11.1492C18.0903 7.96749 14.9717 5.1443 10.982 5.95688V5.95688ZM6.84469 1.21263C6.45583 1.7242 5.63882 3.29126 5.34182 3.56048C4.89312 3.96719 3.19462 4.32294 2.57805 4.61871C2.28489 5.47459 2.53937 7.0834 2.01458 7.74569C1.73747 8.09544 0.491776 9.24365 0.137207 9.53313C0.298976 10.2397 1.02398 11.7863 1.04382 12.3216C1.05983 12.753 0.317774 14.5207 0.154872 15.0809C0.577549 15.7198 1.47325 16.3053 1.98444 16.9076C2.48661 17.4993 2.26991 18.9735 2.51287 19.8043C2.7623 20.6572 4.58668 20.4314 5.35939 21.1819C5.70612 21.5186 6.42282 22.9314 6.84464 23.5115C7.81762 23.5728 9.21464 22.9868 10.0248 23.3687C10.4288 23.5593 11.5714 24.4517 12.2502 24.7607L14.48 23.3709C15.2821 22.9879 16.6929 23.5682 17.6558 23.5114C18.0753 22.9346 18.7993 21.5142 19.142 21.1828C19.9298 20.4209 21.7538 20.6706 21.9881 19.8041C22.1953 19.0376 22.0756 17.5006 22.4566 16.9801C22.9045 16.3681 23.9069 15.7541 24.3461 15.0809C24.1831 14.5275 23.4408 12.7463 23.4565 12.3216C23.4764 11.7843 24.2014 10.2435 24.3629 9.53242C20.9536 6.70664 22.6359 6.83652 21.9275 4.61606C21.3112 4.32681 19.6111 3.96426 19.1602 3.55887C18.8608 3.28974 18.0485 1.72429 17.6558 1.21206C16.6862 1.15354 15.3125 1.72595 14.5086 1.3556C14.0913 1.16341 12.525 -0.000708154 12.2531 3.23244e-07C11.9698 0.000708801 10.4602 1.10565 10.0773 1.31139C9.24837 1.75679 7.85149 1.1415 6.8446 1.21258L6.84469 1.21263Z" fill="#007DB6"/>
</svg>
