<svg width="17" height="19" viewBox="0 0 17 19" fill="none" xmlns="http://www.w3.org/2000/svg">
<path fill-rule="evenodd" clip-rule="evenodd" d="M3.34792 15.9358H13.0613C13.0256 18.2188 12.7076 17.792 8.21913 17.792C3.72675 17.792 3.43103 18.2144 3.34792 15.9358V15.9358ZM3.1411 11.7207C3.4605 11.5731 3.79343 11.2794 4.17227 11.0715C6.30273 9.9038 8.81154 9.66394 11.1097 10.5374C12.4916 11.0628 12.7221 11.4522 13.3029 11.7198L13.0981 14.8307L3.29186 14.8311L3.1411 11.7202V11.7207ZM2.93719 7.05218L13.5315 7.05364L13.3648 10.4219C13.0319 10.2898 12.6434 10.0024 12.2597 9.82563C10.0234 8.79433 7.71273 8.6171 5.34018 9.36922C4.0046 9.79261 3.63543 10.2029 3.07007 10.4229L2.93719 7.05267V7.05218ZM1.56295 4.72738C1.71468 4.67348 14.6438 4.60793 14.9671 4.74534C15.3769 4.91965 15.4957 5.68391 14.9372 5.89269C14.5656 6.03204 8.15389 5.94659 7.19231 5.94659C6.59748 5.94659 1.79489 6.03447 1.44891 5.86987C0.928982 5.62224 1.00968 4.92451 1.56295 4.72689V4.72738ZM10.4622 3.57808C10.5791 3.3324 10.653 3.29841 10.8473 3.10662C11.8601 2.10833 12.9976 0.495339 13.8838 1.40963C14.6564 2.2069 13.6209 2.98669 13.2802 3.33919C13.0768 3.54944 13.0971 3.57323 12.7009 3.58342L10.4622 3.5776V3.57808ZM14.6719 7.10413C14.9057 6.99003 16.3989 6.88272 16.4274 5.33285C16.4501 4.08985 15.56 3.72763 14.6294 3.54992C16.5989 1.42176 13.5721 -1.13416 11.8881 0.541466C11.6132 0.81483 9.05314 3.47903 8.85938 3.54604C8.63227 3.62421 3.29138 3.57808 2.7903 3.57808C1.36822 3.57808 0.388757 3.60964 0.0669411 4.87644C-0.402736 6.72541 1.75285 7.10025 1.75817 7.1051C1.87317 7.22358 2.15101 14.0373 2.18725 14.7738C2.25152 16.0761 2.12492 17.3657 2.82605 18.1984C3.5296 19.034 4.8217 18.8966 6.1655 18.8966C7.51075 18.8966 8.85551 18.8966 10.2008 18.8966C11.5252 18.8966 12.8458 19.0476 13.5793 18.2377C14.3095 17.4322 14.1843 16.1567 14.2481 14.8467C14.2979 13.827 14.5168 7.50471 14.6724 7.10413H14.6719Z" fill="#007DB6"/>
</svg>
