<svg width="16" height="19" viewBox="0 0 16 19" fill="none" xmlns="http://www.w3.org/2000/svg">
<path fill-rule="evenodd" clip-rule="evenodd" d="M13.2412 16.5159L12.0722 17.4146L14.2676 17.4158C14.1499 17.3008 14.0068 17.167 13.8599 17.0347C13.6283 16.8256 13.3928 16.6255 13.2412 16.5159ZM7.34505 4.7627H2.59966C2.45547 5.46394 2.12668 8.18286 1.9238 9.86266C1.86162 10.3776 1.81187 10.7888 1.77456 11.0734C1.74736 11.2817 1.70655 11.5726 1.65525 11.9413C1.4275 13.5725 0.995326 16.6652 1.00699 17.3807C1.57985 17.4729 3.56156 17.4436 4.76637 17.4254C5.13986 17.42 5.44495 17.4154 5.56543 17.4154C5.67347 17.4154 5.95019 17.4212 6.29997 17.4285C7.59417 17.4555 9.97308 17.5053 10.2238 17.3626C10.3497 17.1967 10.7815 13.5447 10.9859 11.8152C11.031 11.4341 11.0644 11.149 11.0862 10.9839C11.1721 10.3302 11.2611 9.69681 11.3508 9.05729C11.5564 7.59194 11.7667 6.09575 11.9031 4.6628C11.024 4.84023 9.50204 4.80552 8.32327 4.77852C7.96805 4.77042 7.64625 4.76309 7.34543 4.76309L7.34505 4.7627ZM11.7542 13.3268C11.5953 14.4658 11.4328 15.6288 11.3217 16.7558C11.5211 16.6123 11.743 16.4318 11.9598 16.2552C12.2529 16.0164 12.537 15.785 12.7647 15.6469L12.7632 8.06483C12.7616 7.77863 12.7643 7.59002 12.865 7.45193C12.982 7.2907 13.165 7.25444 13.5012 7.31654L13.6108 7.33698L13.6501 7.43959C13.8331 7.91942 13.7908 9.78745 13.7484 11.6532C13.7053 13.5602 13.6617 15.4656 13.8215 15.7159L14.9738 16.713C14.8906 15.704 14.7488 14.6351 14.61 13.5887C14.5327 13.0063 14.4565 12.4304 14.3955 11.9135L13.7651 6.56131C13.7426 6.36845 13.708 6.08032 13.6738 5.79219C13.5992 5.16694 13.5253 4.54632 13.4511 3.87401C13.3967 3.38184 13.3465 2.95639 13.2354 2.61387C13.132 2.2945 12.9727 2.04185 12.6975 1.86288C12.343 1.63222 11.9851 1.54813 11.6606 1.58632C11.3213 1.62605 11.0147 1.79962 10.7834 2.0785C10.4398 2.49276 10.4527 2.92013 10.6326 3.24452C10.7135 3.39071 10.8273 3.51684 10.9567 3.61249C11.0842 3.70661 11.2265 3.77141 11.3675 3.7961C11.6035 3.83737 11.8394 3.75907 11.9851 3.50527C12.0349 3.41886 12.0609 3.32359 12.0659 3.23141C12.0706 3.14616 12.0578 3.06555 12.0286 2.9992H12.0279C12.0034 2.94289 11.9684 2.89815 11.9249 2.87346C11.9008 2.85996 11.8732 2.85147 11.8425 2.84993H11.8417C11.7682 2.84607 11.7601 2.87539 11.7515 2.90779C11.7309 2.98455 11.7096 3.06478 11.6392 3.14693C11.4818 3.33015 11.3147 3.38299 11.1651 3.35059C11.0193 3.31858 10.9074 3.20633 10.8471 3.05282C10.7974 2.92669 10.7815 2.76777 10.8133 2.60886C10.8732 2.31224 11.0943 2.00714 11.563 1.90724C11.8312 1.85015 12.0613 1.88294 12.254 1.96278C12.5055 2.06731 12.6882 2.25091 12.8098 2.41908C13.1281 2.85919 13.0749 3.23218 13.0037 3.72705L12.9839 3.86553L11.9614 11.8179C11.893 12.3374 11.8242 12.83 11.755 13.3268H11.7542ZM2.36453 3.78722C2.40534 3.79147 2.44576 3.79378 2.4854 3.79455L9.82967 3.79108C9.65478 3.47788 9.51992 3.22061 9.55723 2.63277C9.59182 2.09161 9.75971 1.85208 9.92838 1.61062L9.95598 1.57089C8.92606 1.54891 7.87671 1.55701 6.83397 1.56511C6.24478 1.56973 5.6587 1.57436 5.22264 1.57436C5.00189 1.57436 4.73878 1.56472 4.46828 1.55469C3.14182 1.50571 1.61055 1.449 1.48735 2.6509C1.48269 2.6968 1.47997 2.74 1.47919 2.7805C1.47336 3.07596 1.55731 3.31511 1.71005 3.48444C1.86279 3.65377 2.08781 3.75907 2.36414 3.78722H2.36453ZM1.0167 9.45727C1.246 7.8253 1.47764 6.17945 1.62338 4.57525C1.49707 4.52279 1.37814 4.45413 1.26893 4.37197C0.963068 4.14209 0.728714 3.80535 0.603181 3.42195C0.478036 3.04048 0.459381 2.61117 0.584526 2.19421C0.652927 1.96587 0.764469 1.74176 0.92498 1.53155C1.67235 0.552597 2.506 0.569568 3.78815 0.595797C3.9848 0.599654 4.19389 0.604283 4.47061 0.604283H8.78304C9.26768 0.604283 9.65167 0.597726 10.0053 0.59194C12.9563 0.542182 14.0356 0.524053 14.4301 3.84431L15.7663 15.2276C15.7962 15.4818 15.8358 15.7371 15.8735 15.9813C15.9376 16.394 15.9963 16.7743 15.9998 17.1138C16.0076 17.8786 15.7507 18.3774 14.7426 18.3874L1.9378 18.3851C0.383595 18.3855 0.000388647 18.1386 0 17.3167C0 17.0528 0.0466377 16.7389 0.104935 16.3477C0.134472 16.1483 0.167118 15.9292 0.19238 15.7352C0.27283 15.1181 0.352503 14.4971 0.432176 13.8761C0.522731 13.169 0.597739 12.5777 0.668862 12.0169C0.779626 11.1432 0.898164 10.302 1.0167 9.45727V9.45727Z" fill="#007DB6"/>
</svg>
