<svg width="30" height="30" viewBox="0 0 30 30" fill="none" xmlns="http://www.w3.org/2000/svg">
<path fill-rule="evenodd" clip-rule="evenodd" d="M15.8125 0.336941C15.8125 2.58952 16.2588 5.11695 14.6169 5.11771C13.5913 5.11822 13.4162 4.31984 13.4186 3.37242C13.4212 2.36051 13.4213 1.34872 13.4213 0.336814C12.3633 0.336814 11.3052 0.337576 10.2471 0.336814C7.3253 0.334529 8.04395 0.077204 8.04395 7.52251C8.04395 8.57047 8.04395 9.61844 8.04395 10.6664C8.04395 14.1524 7.30338 13.5104 14.6168 13.5104C21.9309 13.5104 21.1896 14.1533 21.1896 10.6664C21.1896 8.37027 21.3251 2.84114 21.185 1.24894C21.0831 0.0902791 20.1089 0.335925 18.9865 0.336814C17.9285 0.337703 16.8704 0.336814 15.8123 0.336814L15.8125 0.336941Z" fill="#007DB6"/>
<path fill-rule="evenodd" clip-rule="evenodd" d="M5.65282 15.9069C4.6072 15.9069 3.56158 15.9077 2.51595 15.9069C1.4336 15.9062 0.381387 15.6495 0.278395 16.84C0.139047 18.4525 0.275482 23.9618 0.275482 26.274C0.275482 27.1777 0.0545509 28.5608 0.740653 28.9502C1.22293 29.2239 5.93228 29.0805 6.8858 29.0805C14.0538 29.0805 13.4214 29.7998 13.4214 26.1616C13.4214 25.1136 13.4214 24.0657 13.4214 23.0177C13.4214 15.5394 14.1701 15.906 11.0315 15.9069C10.2251 15.9072 8.77005 15.8236 8.04417 15.9572C8.04417 18.1722 8.49629 20.7556 6.77457 20.6855C5.2164 20.6222 5.65294 18.1492 5.65294 15.9068L5.65282 15.9069Z" fill="#007DB6"/>
<path fill-rule="evenodd" clip-rule="evenodd" d="M21.1898 15.9577C20.4445 15.8205 18.9213 15.9078 18.0903 15.9073C16.9265 15.9065 15.9281 15.6464 15.8179 16.8368C15.6766 18.3617 15.8124 24.0129 15.8124 26.2743C15.8124 29.7664 15.1623 29.0809 22.46 29.0809C29.5839 29.0809 28.9582 29.7483 28.9582 26.162C28.9582 25.114 28.9582 24.0661 28.9582 23.0181C28.9582 15.601 29.7149 15.9063 26.6057 15.9073C25.5975 15.9077 24.5892 15.9073 23.581 15.9073C23.581 18.2029 24.0386 20.7434 22.3509 20.6863C20.7608 20.6325 21.1898 18.1426 21.1898 15.9576V15.9577Z" fill="#007DB6"/>
</svg>
