<svg width="12" height="22" viewBox="0 0 12 22" fill="none" xmlns="http://www.w3.org/2000/svg">
<path fill-rule="evenodd" clip-rule="evenodd" d="M1.54554 10.1768C3.88016 9.26545 4.6628 11.806 7.68949 11.2619C8.61316 11.0958 8.9516 10.7575 9.62123 10.5327C9.7453 11.8543 9.76576 17.0926 9.70078 18.8298C9.67753 19.4512 9.41618 19.6603 8.7847 19.6731L1.99557 19.6524C1.07912 19.4921 1.40627 17.7167 1.40627 16.8555C1.40627 14.92 1.23366 11.982 1.54554 10.1768V10.1768ZM1.95675 8.66279C2.3912 7.13211 2.92751 7.19112 3.41094 4.14839L7.68902 4.1553C8.22169 7.38603 9.08116 7.87328 9.2967 9.15367C8.74899 9.34709 8.34518 9.69646 7.62668 9.88254C5.37169 10.4666 5.15181 8.49962 1.95674 8.66279H1.95675ZM2.50131 1.50006C2.82725 1.31443 8.31611 1.37135 8.57406 1.47071C9.1065 1.67578 9.12812 2.44762 8.6393 2.68979C8.34001 2.83805 2.82443 2.83149 2.5244 2.71623C1.98173 2.50778 1.94582 1.81647 2.50131 1.50006V1.50006ZM2.02623 4.05849C1.81696 5.92987 1.02434 7.04486 0.489722 8.63821C-0.106243 10.4143 0.0260204 12.3489 0.0260204 14.3125C0.0260204 22.0174 -0.921233 21.0334 8.61495 21.0401C11.8486 21.0423 11.0785 18.0978 11.0785 14.3125C11.0785 12.4209 11.2016 10.4251 10.6376 8.69839C10.1042 7.06533 9.2913 5.9669 9.07825 4.05849C9.46365 3.7209 9.95292 3.66707 10.2711 2.74963C10.532 1.99753 10.2796 1.21771 9.87896 0.75488C9.00699 -0.252469 7.17837 0.0392384 5.55225 0.0392384C3.9261 0.0392384 2.09751 -0.252476 1.22554 0.75488C0.839956 1.20034 0.578413 1.9327 0.812834 2.68913C1.03705 3.41275 1.36219 3.59678 1.81772 3.90521L2.02622 4.05849H2.02623Z" fill="#007DB6"/>
<path d="M8.32509 14.5601C8.65646 14.5601 8.92509 14.2938 8.92509 13.9653C8.92509 13.6369 8.65646 13.3706 8.32509 13.3706C7.99373 13.3706 7.7251 13.6369 7.7251 13.9653C7.7251 14.2938 7.99373 14.5601 8.32509 14.5601Z" fill="#007DB6" stroke="#007DB6" stroke-width="0.755874" stroke-miterlimit="22.9256"/>
<path d="M2.84244 12.9194C3.29947 12.9194 3.66998 12.5521 3.66998 12.0991C3.66998 11.6461 3.29947 11.2788 2.84244 11.2788C2.3854 11.2788 2.01489 11.6461 2.01489 12.0991C2.01489 12.5521 2.3854 12.9194 2.84244 12.9194Z" fill="#007DB6" stroke="#007DB6" stroke-width="0.755874" stroke-miterlimit="22.9256"/>
<path d="M4.43557 18.1082C4.78985 18.1082 5.07706 17.8235 5.07706 17.4723C5.07706 17.1211 4.78985 16.8364 4.43557 16.8364C4.08128 16.8364 3.79407 17.1211 3.79407 17.4723C3.79407 17.8235 4.08128 18.1082 4.43557 18.1082Z" fill="#007DB6" stroke="#007DB6" stroke-width="0.755874" stroke-miterlimit="22.9256"/>
</svg>
