<svg width="37" height="37" viewBox="0 0 37 37" fill="none" xmlns="http://www.w3.org/2000/svg">
<path fill-rule="evenodd" clip-rule="evenodd" d="M18.2129 14.8271C16.343 14.8271 14.8272 16.3429 14.8272 18.2127C14.8272 20.0826 16.343 21.5984 18.2129 21.5984C20.0827 21.5984 21.5984 20.0826 21.5984 18.2127C21.5984 16.3429 20.0826 14.8271 18.2129 14.8271ZM2.56051 2.56043C0 5.1211 0 9.2421 0 17.4843V18.9413C0 27.1836 0 31.3045 2.56051 33.8652C5.12118 36.4256 9.2421 36.4256 17.4843 36.4256H18.9413C27.1836 36.4256 31.3046 36.4256 33.8651 33.8652C36.4256 31.3045 36.4256 27.1836 36.4256 18.9413V17.4843C36.4256 9.2421 36.4256 5.1211 33.8651 2.56043C31.3045 0 27.1835 0 18.9413 0H17.4843C9.2421 0 5.12118 0 2.56051 2.56043ZM24.8659 8.58922C25.5338 8.8488 26.1003 9.19609 26.665 9.76062C27.2295 10.3253 27.5768 10.8918 27.8364 11.5597C28.0875 12.2057 28.2593 12.944 28.3086 14.0251C28.3579 15.1084 28.3698 15.4544 28.3698 18.2128C28.3698 20.9712 28.3579 21.317 28.3086 22.4005C28.2593 23.4815 28.0875 24.2199 27.8364 24.8659C27.5769 25.5338 27.2295 26.1001 26.665 26.6648C26.1003 27.2295 25.5338 27.5768 24.8659 27.8364C24.22 28.0875 23.4816 28.2591 22.4005 28.3086C21.3171 28.3579 20.9712 28.3696 18.2129 28.3696C15.4544 28.3696 15.1084 28.3579 14.0251 28.3086C12.9441 28.2592 12.2057 28.0875 11.5597 27.8364C10.8919 27.5769 10.3255 27.2295 9.76062 26.6648C9.19617 26.1001 8.84879 25.5337 8.58922 24.8659C8.33816 24.2199 8.16638 23.4816 8.11703 22.4005C8.06775 21.317 8.05605 20.9712 8.05605 18.2128C8.05605 15.4544 8.06775 15.1084 8.11703 14.0251C8.16638 12.9441 8.33816 12.2057 8.58922 11.5597C8.84879 10.8918 9.19609 10.3253 9.76062 9.76062C10.3255 9.19609 10.8918 8.8488 11.5597 8.58922C12.2057 8.33816 12.9441 8.16638 14.0251 8.11703C15.1084 8.0676 15.4544 8.05589 18.2129 8.05589C20.9712 8.05589 21.3171 8.0676 22.4005 8.11703C23.4816 8.16638 24.22 8.33816 24.8659 8.58922ZM14.1086 9.94529C13.1182 9.99043 12.5805 10.1559 12.2227 10.295C11.7485 10.4791 11.4101 10.6993 11.0548 11.0546C10.6994 11.41 10.4793 11.7484 10.295 12.2226C10.1559 12.5804 9.99035 13.1182 9.94529 14.1084C9.8965 15.1795 9.88599 15.5008 9.88599 18.2127C9.88599 20.9248 9.8965 21.246 9.94529 22.3169C9.99035 23.3072 10.1559 23.8451 10.295 24.2029C10.4793 24.6769 10.6994 25.0154 11.0548 25.3707C11.4101 25.7262 11.7485 25.9462 12.2227 26.1306C12.5805 26.2697 13.1182 26.435 14.1086 26.4802C15.1794 26.529 15.5006 26.5395 18.2129 26.5395C20.925 26.5395 21.2463 26.529 22.3171 26.4802C23.3072 26.435 23.8451 26.2696 24.2029 26.1306C24.6771 25.9462 25.0155 25.7262 25.3708 25.3707C25.7262 25.0154 25.9463 24.6769 26.1306 24.2029C26.2697 23.8451 26.4353 23.3071 26.4803 22.3169C26.5291 21.2459 26.5396 20.9248 26.5396 18.2127C26.5396 15.5008 26.5291 15.1795 26.4803 14.1084C26.4353 13.1182 26.2697 12.5804 26.1306 12.2226C25.9463 11.7483 25.7262 11.41 25.3708 11.0546C25.0155 10.6993 24.6771 10.4791 24.2029 10.295C23.8451 10.1558 23.3072 9.99035 22.3171 9.94529C21.246 9.89634 20.9248 9.88599 18.2129 9.88599C15.5008 9.88599 15.1796 9.89634 14.1086 9.94529ZM22.4158 12.7911C22.4158 12.118 22.9615 11.5723 23.6346 11.5723C24.3077 11.5723 24.8534 12.1181 24.8534 12.7911C24.8534 13.4642 24.3077 14.0099 23.6346 14.0099C22.9615 14.0099 22.4158 13.4642 22.4158 12.7911ZM18.2129 12.9971C21.0934 12.9971 23.4285 15.3323 23.4285 18.2128C23.4285 21.0934 21.0933 23.4284 18.2129 23.4284C15.3323 23.4284 12.9971 21.0934 12.9971 18.2128C12.9971 15.3323 15.3323 12.9971 18.2129 12.9971Z" fill="white"/>
</svg>
