<svg width="22" height="22" viewBox="0 0 22 22" fill="none" xmlns="http://www.w3.org/2000/svg">
<path fill-rule="evenodd" clip-rule="evenodd" d="M11.718 18.5558L13.0031 18.545L13.0056 19.921L11.7145 19.8785L11.718 18.5558ZM15.2489 14.8898C15.8348 13.4661 16.9508 11.2049 16.4932 9.35602L15.9487 9.74034C14.5467 11.1322 14.393 13.1304 15.2489 14.8898ZM6.73138 14.8902C7.18388 13.969 7.42172 12.8436 7.15018 11.7154C6.97336 10.9807 6.19846 9.55822 5.48749 9.35515C5.02668 11.1944 6.14731 13.4769 6.73138 14.8902ZM0.891701 7.70578C1.29798 8.36914 2.76043 9.85227 4.11179 9.69311C4.41446 8.76621 4.13761 7.99225 5.10274 5.94099C3.26824 5.04461 1.46223 6.83296 0.891701 7.70578ZM16.8783 5.94133C17.8519 8.03271 17.5634 8.76545 17.8689 9.69327C19.2237 9.85158 20.6844 8.37008 21.0891 7.70576C20.5261 6.83547 18.7053 5.04274 16.8783 5.94133ZM15.5497 2.8915C15.8788 3.55463 16.1617 3.77945 16.2804 4.73313C17.8696 4.31648 18.6309 4.19774 20.0363 5.00401C20.8983 4.16777 22.1418 1.79427 21.9631 0.000342714C20.7538 0.767656 17.1418 2.53222 15.5497 2.8915ZM1.94573 5.00401C3.37048 4.19786 4.08993 4.31767 5.69995 4.73139C5.82027 3.77323 6.10193 3.55691 6.43169 2.89116C4.74787 2.50617 1.32724 0.799506 0.0172324 0C-0.160819 1.79413 1.07974 4.17087 1.94573 5.00401ZM8.98333 18.54L10.2648 18.5796L10.2661 19.904L8.97392 19.9156L8.98333 18.54ZM16.2204 7.88555C15.8872 6.5061 15.1352 5.6527 15.0372 5.12072C14.9541 4.66977 14.9545 4.49901 14.7599 4.10969C14.049 2.68733 12.9477 2.69933 10.9903 2.69933C9.01427 2.69933 7.89362 2.69165 7.19217 4.16692C6.76442 5.06659 7.35535 4.37767 6.5027 6.05347C6.22764 6.59411 5.92285 7.21189 5.76022 7.88452C6.85574 8.59348 7.79503 9.50099 8.30947 11.0763C9.4475 14.5611 6.08148 17.7601 6.92362 20.3711C7.14109 21.0453 7.7038 21.5683 8.32144 21.8117C8.94678 22.0582 13.0397 22.0757 13.7195 21.7866C14.3208 21.5309 14.8664 21.0141 15.0772 20.3035C15.8566 17.6763 12.5149 14.5862 13.6939 11.0116C14.2066 9.45698 15.1543 8.59284 16.2204 7.88555Z" fill="#007DB6"/>
</svg>
