<svg width="24" height="24" viewBox="0 0 24 24" fill="none" xmlns="http://www.w3.org/2000/svg">
<path fill-rule="evenodd" clip-rule="evenodd" d="M11.0635 14.9834C12.5331 15.7918 11.833 15.4537 12.9373 14.9834C13.3446 15.1787 16.4265 17.3277 16.668 17.5913H7.33387L11.0635 14.9834ZM10.8987 1.19014C17.2264 0.46678 22.1937 5.31929 22.8078 10.8385C23.5184 17.2238 18.7191 22.1813 13.1682 22.806C6.79117 23.5241 1.80921 18.7178 1.19302 13.1597C0.478165 6.71772 5.30057 1.83057 10.8987 1.19014ZM10.8116 0.0688784C4.6088 0.725049 -0.672326 6.19069 0.0698245 13.2427C0.715401 19.3855 6.23272 24.6611 13.2196 23.9325C19.3836 23.29 24.6689 17.7708 23.931 10.7692C23.2843 4.63268 17.7859 -0.669182 10.8116 0.0688784ZM13.987 14.2485C14.5181 13.7655 15.3191 13.3015 15.9468 12.8553C16.373 12.5529 17.5602 11.6668 17.9812 11.502L17.9801 17.0422L14.2127 14.471C14.0615 14.3493 14.0584 14.3377 13.9859 14.2485H13.987ZM6.02382 17.0422L6.01648 11.502L9.88469 14.3881L6.02382 17.0422ZM7.45459 6.40276H16.5011L16.5042 10.9676C16.3772 11.2574 16.2544 11.2826 15.9751 11.4768L11.9988 14.196L9.67894 12.6306C9.2895 12.3597 8.89585 12.0826 8.5169 11.8243C8.18309 11.5965 7.66348 11.3445 7.49133 10.9676L7.45249 6.40276H7.45459ZM6.36183 9.08414C6.07841 9.23847 5.87056 9.42325 5.58399 9.61117C4.53008 10.3041 4.89328 10.4353 4.89328 13.123C4.89328 14.3388 4.73687 17.7603 5.02344 18.597C5.79603 18.8343 18.1848 18.8354 18.9731 18.5981C19.2597 17.7571 19.1044 14.428 19.1044 13.2164C19.1044 10.8154 19.476 10.2946 18.4724 9.64582C18.146 9.4348 17.9434 9.24582 17.6358 9.08309C17.5424 6.58019 18.0714 5.29305 16.7834 5.27415L7.30658 5.2752C5.90835 5.2773 6.46261 6.32612 6.36078 9.08414H6.36183Z" fill="white"/>
</svg>
