<svg width="31" height="23" viewBox="0 0 31 23" fill="none" xmlns="http://www.w3.org/2000/svg">
<path fill-rule="evenodd" clip-rule="evenodd" d="M11.5194 12.7057C12.0739 13.0654 12.7201 13.8183 13.2231 14.3128C15.2535 16.3092 14.8891 16.3519 16.8855 14.3594C17.3578 13.8881 18.107 12.9327 18.7051 12.7219C19.8308 14.1163 26.6064 20.2932 26.9205 21.1078L3.15041 21.1084C3.25744 20.8171 11.0376 12.9339 11.5194 12.7057ZM19.9002 11.4513C20.1419 10.9971 27.8033 3.33575 28.2574 3.09411L28.2578 19.8084C27.6198 19.4691 24.7773 16.4335 24.0262 15.6824C23.2751 14.9313 20.2395 12.0888 19.9002 11.4512L19.9002 11.4513ZM1.80433 19.8084L1.80387 3.08475C2.19113 3.28756 2.24764 3.52755 2.83425 4.10032C4.14699 5.38205 9.9803 10.9845 10.2278 11.4873C9.17319 12.5415 2.35788 19.5138 1.80433 19.8084V19.8084ZM14.9786 13.6963C14.7422 13.4097 14.5033 13.2283 14.261 12.9235C13.9475 12.529 13.8529 12.445 13.5317 12.1316L3.49305 2.27806C3.2019 1.96105 3.34714 2.19322 3.17086 1.7943L26.8995 1.79472C26.7259 2.20499 26.8354 2.02388 26.5214 2.34899C26.3955 2.47932 26.3066 2.553 26.168 2.69023L21.0182 7.84063C19.9947 8.86413 19.0568 9.80161 18.034 10.8259C17.4577 11.403 15.5624 13.4919 14.9786 13.6963ZM0.0977782 20.6981C0.520195 23.1957 3.17306 22.8629 4.61351 22.8629H24.2777C26.5203 22.8629 28.6861 23.2573 29.6668 21.5225C30.2546 20.4826 30.0127 16.7955 30.0127 15.3138C30.0127 13.3246 30.1391 3.31627 29.964 2.23781C29.5526 -0.295976 26.9313 0.0395986 25.4482 0.0395986H5.784C3.52426 0.0395986 1.38693 -0.360135 0.395343 1.38047C-0.192236 2.41188 0.0490752 6.11273 0.0490752 7.58862C0.0490752 9.55281 -0.0778182 19.6598 0.0977782 20.6981Z" fill="#007DB6"/>
</svg>
