<svg width="36" height="37" viewBox="0 0 36 37" fill="none" xmlns="http://www.w3.org/2000/svg">
<path d="M0 17.4844C0 9.24226 0 5.12101 2.51478 2.5605C5.02967 0 9.07709 0 17.172 0H18.603C26.698 0 30.7454 0 33.2603 2.5605C35.7751 5.12101 35.7751 9.24214 35.7751 17.4844V18.9414C35.7751 27.1836 35.7751 31.3046 33.2603 33.8652C30.7454 36.4257 26.698 36.4257 18.603 36.4257H17.172C9.07709 36.4257 5.02955 36.4257 2.51478 33.8652C0 31.3046 0 27.1836 0 18.9414V17.4844H0ZM20.0922 23.3432C21.2072 23.0852 22.2715 22.6381 23.268 22.0015C24.0115 21.5201 24.2479 20.5222 23.7748 19.7483C23.3018 18.9913 22.322 18.7506 21.5619 19.2323C19.3319 20.6598 16.4432 20.6598 14.2134 19.2323C13.47 18.7506 12.4734 18.9743 12.0003 19.7483C11.5275 20.5051 11.7469 21.5198 12.5071 22.0015C13.4869 22.6381 14.5681 23.085 15.683 23.3432L12.6254 26.4564C12.0002 27.0928 12.0002 28.1249 12.6254 28.7611C12.9464 29.0709 13.3518 29.2429 13.7573 29.2429C14.1627 29.2429 14.5849 29.088 14.8892 28.7611L17.8961 25.6997L20.9031 28.7611C21.5283 29.3977 22.5418 29.3977 23.1667 28.7611C23.7919 28.1249 23.7919 27.0928 23.1667 26.4564L20.0922 23.3432ZM17.8792 10.959C19.1293 10.959 20.1428 11.9909 20.1428 13.2638C20.1428 14.5365 19.1293 15.5686 17.8792 15.5686C16.629 15.5686 15.6155 14.5364 15.6155 13.2638C15.6155 11.9909 16.629 10.959 17.8792 10.959ZM17.8792 18.8194C20.8861 18.8194 23.3356 16.3254 23.3356 13.2638C23.3356 10.202 20.8861 7.70811 17.8792 7.70811C14.8722 7.70811 12.4227 10.202 12.4227 13.2638C12.4227 16.3254 14.8723 18.8194 17.8792 18.8194Z" fill="white"/>
</svg>
