<svg width="31" height="31" viewBox="0 0 31 31" fill="none" xmlns="http://www.w3.org/2000/svg">
<path fill-rule="evenodd" clip-rule="evenodd" d="M5.24694 3.58064C6.26884 3.09554 7.08044 4.24217 7.51462 4.67184C11.4705 8.5863 11.3683 8.17138 9.12424 10.4165C7.81064 11.7308 6.73273 11.8874 8.6658 14.802C10.4295 17.4613 12.9837 20.1195 15.7776 21.6791C18.0569 22.9515 17.8763 22.5958 20.001 20.4706C22.1634 18.3076 22.0035 19.5251 25.6981 23.0411C26.0271 23.3541 26.3368 23.4976 26.4664 24.0362C26.7328 25.1441 25.3034 25.8483 24.3712 26.9537C23.8805 27.5356 23.3263 28.1587 22.1955 28.3193C20.4771 28.5633 17.9166 27.6112 16.6087 26.9613C10.7254 24.0371 5.38837 19.0208 2.83777 12.8753C2.23357 11.4195 1.33097 8.96054 1.90432 7.19258C2.21113 6.24641 4.5171 3.92712 5.24694 3.58067V3.58064ZM19.9385 6.70621C19.2549 6.29335 17.6335 5.57406 16.6639 5.47639C15.9035 5.39978 15.3276 5.82116 15.5989 6.57423C15.8074 7.15313 16.4347 7.1522 17.0793 7.32868C22.1921 8.72842 22.5805 13.5049 23.3226 14.4389C26.2173 14.7944 23.5353 9.97 21.7833 8.15125C21.5042 7.86155 21.5412 7.87102 21.2399 7.63681C20.8081 7.3011 20.4689 7.02662 19.9385 6.70621ZM28.233 12.9881C28.3496 13.5442 28.3921 13.9853 28.8388 14.1559C29.4191 14.3775 29.8857 14.1046 30.0003 13.6647C30.2854 12.5698 28.7897 9.20635 28.3217 8.31319C26.1108 4.09351 21.7294 0.889333 17.0634 0.0462488C16.3526 -0.0821613 16.3087 0.0634708 15.8488 0.400661C15.5933 2.26289 16.9528 1.28544 20.4918 2.98136C24.4164 4.86213 27.3321 8.69219 28.2329 12.9881L28.233 12.9881ZM9.4063 12.6887C9.94493 11.4279 12.0506 10.6507 12.3428 8.79563C12.6462 6.86871 10.5374 5.3582 9.74533 4.55664C9.1492 3.95338 8.65864 3.43685 8.04125 2.85094C5.32772 0.275848 3.60538 2.60486 1.71658 4.53673C0.466156 5.81569 -0.242365 6.93861 0.0758995 9.51972C0.294787 11.295 1.05698 13.2279 1.77231 14.6415C2.79756 16.6675 4.36334 19.1584 5.86691 20.7742L7.50399 22.5465C9.56778 24.7119 12.1151 26.6107 15.3966 28.2843C17.4339 29.3235 21.1117 30.6949 23.5013 29.7318C24.7931 29.2111 26.2489 27.6314 27.1812 26.5932C28.6733 24.9317 28.5272 23.4679 27.0584 21.9155C26.4849 21.3095 25.9503 20.7991 25.361 20.2046C24.5706 19.4074 23.1157 17.3931 21.1974 17.6702C19.5344 17.9105 18.4335 19.867 17.3766 20.5728C15.3559 19.5644 14.286 18.6268 12.8088 17.124C12.4426 16.7515 12.1428 16.5382 11.8157 16.1201C11.1973 15.3298 10.655 14.7929 10.0844 13.8551C9.87253 13.5069 9.65455 13.0428 9.4063 12.6887Z" fill="#007DB6"/>
</svg>
