<svg width="24" height="24" viewBox="0 0 24 24" fill="none" xmlns="http://www.w3.org/2000/svg">
<path fill-rule="evenodd" clip-rule="evenodd" d="M10.898 1.19041C17.2249 0.466847 22.1936 5.31994 22.8069 10.8386C23.5165 17.2246 18.719 22.181 13.1671 22.8062C6.78883 23.5244 1.80842 18.7178 1.19146 13.1599C0.476555 6.72019 5.29749 1.83097 10.898 1.19051V1.19041ZM10.8113 0.068987C4.60911 0.725343 -0.675082 6.18813 0.0703802 13.2512C0.718092 19.389 6.23546 24.6611 13.2197 23.9325C19.3829 23.2895 24.669 17.7711 23.931 10.7694C23.2843 4.63457 17.7874 -0.669336 10.8114 0.0688837L10.8113 0.068987Z" fill="white"/>
<path fill-rule="evenodd" clip-rule="evenodd" d="M8.83931 10.9969C8.70791 11.9032 9.82673 13.0916 10.3681 13.6308C10.9616 14.2221 12.1628 15.39 13.1564 15.1272C14.4226 14.7923 13.7239 13.404 15.7726 13.9447C16.5063 14.1383 17.2544 14.3235 17.9808 14.5415C17.9827 14.8747 18.101 17.6117 17.8643 17.8741C16.974 18.5785 7.96338 17.2865 6.26828 9.11058C6.1695 8.63426 5.77675 6.31203 6.15856 6.0682C6.35881 5.94029 8.99993 6.01451 9.45606 6.0173C9.6818 6.76461 9.87823 7.55444 10.0723 8.30061C10.1776 8.70539 10.3911 9.05318 10.1469 9.39127C9.64454 10.0868 8.951 10.2262 8.83931 10.9971V10.9969ZM12.8771 14.0502C11.9928 13.8544 10.1429 12.0047 9.94832 11.1206C12.1211 9.58566 11.3385 8.6227 10.6938 6.27363C10.2521 4.66443 10.287 4.89165 8.53202 4.89216C7.55958 4.89237 5.99753 4.62809 5.33558 5.2412C4.27839 6.22036 5.20624 9.88266 5.68364 11.0988C6.44283 13.0332 7.3807 14.3093 8.5344 15.4647C9.65383 16.5858 10.9614 17.5568 12.8346 18.2875C14.0177 18.7489 17.6951 19.723 18.7102 18.7112C19.3457 18.0778 19.1056 16.568 19.1057 15.5609C19.1059 13.8061 19.3915 13.7568 17.7984 13.3256C15.3186 12.6544 14.4435 11.8721 12.8771 14.0503V14.0502Z" fill="white"/>
</svg>
