<svg width="22" height="29" viewBox="0 0 22 29" fill="none" xmlns="http://www.w3.org/2000/svg">
<path fill-rule="evenodd" clip-rule="evenodd" d="M20.2086 8.46002C20.2086 11.5621 20.2086 14.6641 20.2086 17.7661C20.2086 28.0999 21.1892 27.0722 15.6674 27.0722C14.1352 27.0722 12.6029 27.0722 11.0707 27.0722C0.740143 27.0722 1.70851 28.0822 1.70851 22.475L1.70807 4.08793C1.70118 2.06863 1.99711 1.72494 4.00714 1.73245C5.3435 1.73745 12.4608 1.63845 13.1454 1.78899C13.1454 2.92904 13.1461 4.06909 13.1454 5.20913C13.1436 8.41837 13.7741 8.46013 16.7886 8.46004C17.9286 8.46001 19.0686 8.46004 20.2086 8.46004L20.2086 8.46002ZM4.33879 20.3061C3.75313 20.5451 3.04436 21.931 5.35115 21.916C7.00891 21.9052 10.2738 22.4247 9.43246 20.6458C9.19651 20.1469 8.58327 20.2277 7.93242 20.2317C7.21586 20.2359 4.81385 20.1122 4.33878 20.3061L4.33879 20.3061ZM4.33879 15.8214C3.88732 16.0057 3.57723 16.5065 3.92824 17.0554C4.21885 17.5099 4.93236 17.4328 5.57666 17.4299C7.37234 17.4221 16.864 17.5138 17.279 17.3561C17.7031 17.195 17.9749 16.6273 17.6528 16.122C17.3627 15.6671 16.6474 15.7451 16.0041 15.7479C14.2005 15.7558 4.75585 15.6512 4.33879 15.8214ZM4.33879 11.3368C3.88732 11.521 3.57723 12.0218 3.92824 12.5708C4.21885 13.0253 4.93236 12.9481 5.57666 12.9453C7.37234 12.9374 16.864 13.0292 17.279 12.8715C17.7031 12.7103 17.9749 12.1426 17.6528 11.6374C17.3627 11.1825 16.6474 11.2604 16.0041 11.2632C14.2005 11.2711 4.75585 11.1666 4.33879 11.3368ZM15.4432 6.7792C14.8918 6.7792 14.8359 6.81895 14.8157 6.2269L14.826 2.66095C15.3763 2.86223 16.5125 4.20595 17.0711 4.70092C17.8392 5.38157 18.4952 6.03317 19.2347 6.75779L15.4432 6.77921L15.4432 6.7792ZM2.47992 0.14278C0.561205 0.593055 0.0235396 1.88012 0.0275761 4.08794L0.027834 23.0356C0.027834 25.3847 -0.295415 26.8626 1.26125 28.1352C2.40064 29.0666 5.19364 28.7531 6.9224 28.7531C8.77294 28.7531 18.5344 28.8848 19.5119 28.6656C21.5999 28.1974 21.8927 26.4233 21.8896 24.7173L21.8893 12.1603C21.8893 10.2719 22.249 7.74055 21.2397 6.36516L18.0362 3.28812C17.2854 2.61844 15.5803 0.733056 14.7067 0.34005C13.6205 -0.148648 10.1561 0.0522031 8.71623 0.0522031C7.32922 0.0522031 3.56698 -0.11232 2.47991 0.14278H2.47992Z" fill="#007DB6"/>
</svg>
