<svg width="37" height="37" viewBox="0 0 37 37" fill="none" xmlns="http://www.w3.org/2000/svg">
<path fill-rule="evenodd" clip-rule="evenodd" d="M10.7235 11.3857C10.8515 17.8904 13.7203 20.6458 15.9928 21.2138V11.3857H19.6572V16.9958C21.9011 16.7543 24.2585 14.1979 25.0538 11.3857H28.718C28.1075 14.8512 25.551 17.4076 23.733 18.4585C25.551 19.3107 28.4625 21.5404 29.5704 25.5741H25.5368C24.6704 22.8755 22.5118 20.7877 19.6572 20.5038V25.5741H19.2167C11.4478 25.5741 7.01675 20.2481 6.83213 11.3857H10.7235ZM2.80384 2.56044C0.243408 5.12111 0.243408 9.24214 0.243408 17.4843V18.9413C0.243408 27.1836 0.243408 31.3045 2.80384 33.8652C5.36452 36.4256 9.48554 36.4256 17.7278 36.4256H19.1848C27.4269 36.4256 31.5479 36.4256 34.1086 33.8652C36.669 31.3045 36.669 27.1836 36.669 18.9413V17.4843C36.669 9.24214 36.669 5.12111 34.1086 2.56044C31.5479 0 27.4269 0 19.1848 0H17.7278C9.48554 0 5.36452 0 2.80384 2.56044Z" fill="white"/>
</svg>
