<svg width="37" height="37" viewBox="0 0 37 37" fill="none" xmlns="http://www.w3.org/2000/svg">
<path d="M0 17.4843C0 9.24214 0 5.12111 2.56048 2.56048C5.12111 0 9.24207 0 17.4843 0H18.9413C27.1835 0 31.3045 0 33.8651 2.56048C36.4256 5.12111 36.4256 9.24214 36.4256 17.4843V18.9414C36.4256 27.1836 36.4256 31.3046 33.8651 33.8652C31.3045 36.4257 27.1835 36.4257 18.9413 36.4257H17.4843C9.24207 36.4257 5.12104 36.4257 2.56048 33.8652C0 31.3046 0 27.1836 0 18.9414V17.4843H0ZM16.0767 21.2431V15.0133L21.4718 18.1283L16.0767 21.2431ZM28.1025 13.1298C27.8636 12.2363 27.1601 11.5327 26.2666 11.294C24.6471 10.8599 18.1533 10.8599 18.1533 10.8599C18.1533 10.8599 11.6595 10.8599 10.0398 11.294C9.14663 11.5327 8.44274 12.2363 8.20395 13.1298C7.77001 14.7494 7.77001 18.1281 7.77001 18.1281C7.77001 18.1281 7.77001 21.5071 8.20395 23.1266C8.44267 24.02 9.14663 24.7236 10.0398 24.9625C11.6595 25.3964 18.1533 25.3964 18.1533 25.3964C18.1533 25.3964 24.6471 25.3964 26.2666 24.9625C27.1601 24.7236 27.8635 24.02 28.1025 23.1266C28.5365 21.5071 28.5365 18.1281 28.5365 18.1281C28.5365 18.1281 28.5365 14.7494 28.1025 13.1298Z" fill="white"/>
</svg>
