<svg width="24" height="24" viewBox="0 0 24 24" fill="none" xmlns="http://www.w3.org/2000/svg">
<path fill-rule="evenodd" clip-rule="evenodd" d="M1.45368 11.6293C1.45368 9.10504 2.32785 7.02419 3.83491 5.10677C4.48751 4.27646 5.33407 3.60295 6.21467 3.03464C8.41519 1.61453 11.3365 1.09796 13.9013 1.72558C14.5686 1.88887 15.2552 2.08802 15.8094 2.36144C16.3722 2.63905 16.5207 2.69683 17.0442 3.03464C18.4494 3.94152 19.3172 4.80931 20.2241 6.21456C20.3137 6.35339 20.3802 6.45656 20.4688 6.60586C20.9684 7.44849 21.2921 8.3722 21.5332 9.35739C21.8837 10.7897 21.8837 12.4689 21.5332 13.9012C21.3699 14.5685 21.1707 15.2551 20.8973 15.8093C20.6197 16.3721 20.5619 16.5206 20.2241 17.0441L19.1317 18.4956C18.6785 19.0632 17.6702 19.82 17.0442 20.224C15.7787 21.0407 14.3455 21.542 12.8145 21.7181C10.6956 21.9619 8.42633 21.5479 6.60599 20.4687L5.46156 19.7051C5.06973 19.3813 4.45044 18.9006 4.12716 18.4956C2.87818 16.9311 2.26176 16.0918 1.72571 13.9012C1.58373 13.321 1.4537 12.2503 1.4537 11.6293H1.45368ZM0 11.3113C0 13.4129 0.285733 14.8514 1.05975 16.5206C1.63885 17.7694 2.48286 18.9502 3.3957 19.863C5.35222 21.8196 8.30602 23.2587 11.3114 23.2587C13.413 23.2587 14.8515 22.973 16.5207 22.199C20.415 20.3931 23.2588 16.3022 23.2588 11.9473C23.2588 9.84568 22.9731 8.40725 22.1991 6.73807C21.6144 5.4771 20.7849 4.31737 19.8631 3.39559C19.3721 2.90458 18.8995 2.53022 18.3265 2.11572C16.6437 0.89827 14.2569 -0.00012207 11.9474 -0.00012207C9.8458 -0.00012207 8.40737 0.285611 6.73819 1.05963C2.84317 2.86582 1.04576e-05 6.95651 1.04576e-05 11.3113L0 11.3113Z" fill="white"/>
<path fill-rule="evenodd" clip-rule="evenodd" d="M10.9026 14.1734C10.6962 14.0351 8.99561 12.2891 8.66528 11.9588C8.38681 11.6803 7.87365 11.0331 7.39851 11.0207C7.11167 11.0131 6.8516 11.1721 6.7351 11.4147C6.58731 11.7225 6.66566 11.9947 6.84524 12.2343C7.10442 12.5799 8.62642 14.055 9.05142 14.48C9.41159 14.8401 10.9969 16.581 11.4023 16.581C12.2936 16.581 12.1769 16.5105 13.0945 15.5929C13.6042 15.0832 16.1708 12.5634 16.4201 12.2408C16.6089 11.9965 16.6692 11.7602 16.5378 11.4461C16.4308 11.1903 16.1647 11.0127 15.8603 11.0207C15.3852 11.0331 14.872 11.6803 14.5936 11.9588C14.2632 12.2891 12.5627 14.0351 12.3563 14.1733C12.3563 13.7781 12.3939 6.54599 12.3379 6.33272C12.1655 5.67548 11.1604 5.61844 10.9317 6.29806C10.8403 6.56952 10.9026 13.7013 10.9026 14.1733V14.1734Z" fill="white"/>
</svg>
