<svg width="65" height="65" viewBox="0 0 65 65" fill="none" xmlns="http://www.w3.org/2000/svg">
<path fill-rule="evenodd" clip-rule="evenodd" d="M19.1699 50.7813C19.1699 49.3316 20.259 48.1153 21.5821 48.1153H43.418C46.3987 48.1153 47.1035 53.4473 42.6563 53.4473H22.3438C20.58 53.4473 19.17 52.4792 19.17 50.7813H19.1699ZM31.0975 0H34.036C36.2088 0.0979962 38.391 0.41438 40.5507 0.962925C42.3548 1.42118 44.7453 2.24194 46.3384 3.04638L50.1713 5.18024C51.9049 6.26435 54.1095 8.08894 55.5102 9.48973C58.2538 12.2333 60.2979 15.2062 61.9971 18.7451C63.8079 22.5165 64.8521 27.0601 65 31.6274V33.8789C64.8883 37.2573 64.2715 40.5812 63.0958 43.545C62.7202 44.4919 62.3903 45.4562 61.955 46.3398C58.3978 53.5615 53.3108 58.6093 46.2549 61.9971C41.4661 64.2964 37.1904 65 31.3575 65C23.4798 65 15.0754 61.0959 9.48976 55.5103C6.7498 52.7703 4.70005 49.7896 3.00293 46.2549C0.706234 41.4717 0 37.1843 0 31.3575C0 25.4305 2.55552 18.2881 5.947 13.6912C7.05627 12.1877 8.17629 10.8029 9.48972 9.48981C15.2387 3.74227 23.0014 0.366743 31.0975 8.37217e-05V0ZM32.7539 44.4336C30.7928 44.4336 30.3447 43.4844 28.5327 41.6723L20.2802 33.421C18.0419 31.2109 19.518 28.754 21.5408 28.5212C23.066 28.3456 23.8571 29.3796 24.7241 30.2465C25.5079 31.0303 29.3145 34.9451 29.834 35.293V13.33C29.834 11.6142 29.5634 10.0327 31.0455 9.08255C32.3473 8.24788 33.9574 8.66147 34.768 9.91947C35.3134 10.7658 35.166 11.8724 35.166 13.2031L35.166 35.293L40.5933 29.9292C41.7802 28.7419 41.8038 28.5645 43.545 28.5645C44.5333 28.5645 45.8301 29.8374 45.8301 31.2304C45.8301 32.727 43.9814 34.1581 43.1323 35.0073L34.8806 43.2596C34.3558 43.7894 33.7555 44.4336 32.7539 44.4336Z" fill="#4F4F4F"/>
</svg>
