<svg width="24" height="24" viewBox="0 0 24 24" fill="none" xmlns="http://www.w3.org/2000/svg">
<path fill-rule="evenodd" clip-rule="evenodd" d="M6.01797 8.63655C6.24031 8.7542 7.19188 9.54321 7.41598 9.71923C7.90205 10.101 8.34951 10.4557 8.82624 10.8356L10.9228 12.506C11.8808 13.2897 11.7931 13.1678 13.2618 11.9756C13.599 11.7019 17.2806 8.75402 17.5026 8.63656V14.7464C17.5028 15.0106 17.5913 15.4814 17.3188 15.4814H6.20173C5.93504 15.4814 6.01755 15.0509 6.01795 14.7923L6.01797 8.63656V8.63655ZM7.1205 8.03935H16.4001L14.0971 9.87085C13.5923 10.273 12.1953 11.4231 11.7603 11.7144L7.27121 8.16426C7.21221 8.11864 7.1675 8.0802 7.12051 8.03935H7.1205ZM4.86951 8.36091V15.1598C4.86951 15.3809 4.91127 15.6142 4.97816 15.7862C5.19578 16.3458 5.75336 16.6298 6.33954 16.6298H17.181C18.058 16.6298 18.6511 16.0368 18.6511 15.1598V8.36091C18.6511 8.13985 18.6093 7.90654 18.5424 7.73454C18.4221 7.42514 18.1168 7.11983 17.8074 6.99953C17.6354 6.93264 17.4021 6.89087 17.181 6.89087H6.33954C5.46063 6.89087 4.86951 7.47847 4.86951 8.36091Z" fill="white"/>
<path fill-rule="evenodd" clip-rule="evenodd" d="M1.45368 11.6294C1.45368 9.10517 2.32785 7.02431 3.83491 5.10689C4.48751 4.27659 5.33407 3.60307 6.21467 3.03477C8.41519 1.61465 11.3365 1.09808 13.9013 1.7257C14.5686 1.88899 15.2552 2.08814 15.8094 2.36156C16.3722 2.63918 16.5207 2.69695 17.0442 3.03477C18.4494 3.94164 19.3172 4.80943 20.2241 6.21468C20.3137 6.35351 20.3802 6.45668 20.4688 6.60599C20.9684 7.44861 21.2921 8.37232 21.5332 9.35751C21.8837 10.7899 21.8837 12.469 21.5332 13.9014C21.3699 14.5686 21.1707 15.2552 20.8973 15.8094C20.6197 16.3722 20.5619 16.5207 20.2241 17.0442L19.1317 18.4957C18.6785 19.0634 17.6702 19.8201 17.0442 20.2241C15.7787 21.0408 14.3455 21.5421 12.8145 21.7183C10.6956 21.9621 8.42633 21.5481 6.60599 20.4688L5.46156 19.7053C5.06973 19.3814 4.45044 18.9007 4.12716 18.4957C2.87818 16.9313 2.26176 16.0919 1.72571 13.9014C1.58373 13.3211 1.4537 12.2505 1.4537 11.6294H1.45368ZM0 11.3114C0 13.4131 0.285733 14.8515 1.05975 16.5207C1.63885 17.7695 2.48286 18.9503 3.3957 19.8632C5.35222 21.8197 8.30602 23.2589 11.3114 23.2589C13.413 23.2589 14.8515 22.9731 16.5207 22.1991C20.415 20.3932 23.2588 16.3023 23.2588 11.9474C23.2588 9.8458 22.9731 8.40737 22.1991 6.73819C21.6144 5.47722 20.7849 4.3175 19.8631 3.39571C19.3721 2.9047 18.8995 2.53034 18.3265 2.11585C16.6437 0.898392 14.2569 0 11.9474 0C9.8458 0 8.40737 0.285733 6.73819 1.05975C2.84317 2.86594 1.04576e-05 6.95663 1.04576e-05 11.3114L0 11.3114Z" fill="white"/>
</svg>
