<svg width="40" height="40" viewBox="0 0 40 40" fill="none" xmlns="http://www.w3.org/2000/svg">
<path d="M20 0C25.5232 0 30.5222 2.23937 34.1414 5.85859C37.7606 9.4778 40 14.4788 40 20C40 25.5232 37.7606 30.5222 34.1414 34.1414C30.5222 37.7606 25.5212 40 20 40C14.4768 40 9.4778 37.7606 5.85859 34.1414C2.23937 30.5222 0 25.5212 0 20C0 14.4768 2.23937 9.4778 5.85859 5.85859C9.4778 2.23937 14.4788 0 20 0V0ZM24.9762 28.6983C25.5956 28.6983 26.0987 29.2014 26.0987 29.8209C26.0987 30.4403 25.5956 30.9434 24.9762 30.9434C24.3568 30.9434 23.8536 30.4403 23.8536 29.8209C23.8536 29.2014 24.3568 28.6983 24.9762 28.6983ZM16.7086 29.8209C17.8864 29.8209 18.8431 30.7757 18.8431 31.9554C18.8431 33.1332 17.8883 34.09 16.7086 34.09C15.5308 34.09 14.574 33.1351 14.574 31.9554C14.574 30.7776 15.5289 29.8209 16.7086 29.8209ZM14.574 22.3518C15.0162 22.3518 15.3745 22.7101 15.3745 23.1523C15.3745 23.5944 15.0162 23.9527 14.574 23.9527C14.1319 23.9527 13.7736 23.5944 13.7736 23.1523C13.7736 22.7101 14.1319 22.3518 14.574 22.3518ZM15.0391 9.31199C15.4812 9.31199 15.8395 9.67029 15.8395 10.1124C15.8395 10.5546 15.4812 10.9129 15.0391 10.9129C14.5969 10.9129 14.2386 10.5546 14.2386 10.1124C14.2386 9.67029 14.5969 9.31199 15.0391 9.31199ZM6.33695 17.2594C7.34134 17.2594 8.15514 18.0732 8.15514 19.0776C8.15514 20.082 7.34134 20.8958 6.33695 20.8958C5.33257 20.8958 4.51877 20.082 4.51877 19.0776C4.51877 18.0732 5.33257 17.2594 6.33695 17.2594ZM21.2445 19.5102L35.3669 30.1372C37.2899 27.2289 38.4086 23.745 38.4086 19.9981C38.4086 15.6604 36.9087 11.6733 34.3987 8.52868L21.2445 19.5102ZM34.4349 31.4237L19.9485 20.5203C19.6474 20.6194 19.3044 20.5317 19.089 20.2744C18.8069 19.9371 18.8527 19.4359 19.1881 19.1538L19.2053 19.1405V1.60663C14.4387 1.80865 10.141 3.82504 6.98685 6.98113C3.65733 10.3126 1.5952 14.9133 1.5952 19.9962C1.5952 25.0791 3.65542 29.6817 6.98685 33.0112C10.3183 36.3408 14.919 38.4029 20.0019 38.4029C25.0848 38.4029 29.6874 36.3427 33.017 33.0112C33.5182 32.51 33.9928 31.9783 34.433 31.4199L34.4349 31.4237ZM20.7985 1.60854V17.8121L33.3543 7.3299C33.2438 7.21365 33.1313 7.09739 33.017 6.98304C29.8609 3.82695 25.5632 1.81246 20.7985 1.60854Z" fill="#2B2A29"/>
</svg>
