<svg width="40" height="40" viewBox="0 0 40 40" fill="none" xmlns="http://www.w3.org/2000/svg">
<path d="M20 0C25.5232 0 30.5222 2.23937 34.1414 5.85859C37.7606 9.4778 40 14.4788 40 20C40 25.5232 37.7606 30.5222 34.1414 34.1414C30.5222 37.7606 25.5212 40 20 40C14.4768 40 9.4778 37.7606 5.85859 34.1414C2.23937 30.5222 0 25.5212 0 20C0 14.4768 2.23937 9.4778 5.85859 5.85859C9.4778 2.23937 14.4788 0 20 0V0ZM1.63331 18.7669H7.84639C7.9474 16.0415 8.37621 13.461 9.06994 11.1397C7.86545 10.3526 6.73909 9.43206 5.71755 8.38765C3.38289 11.2579 1.89442 14.8447 1.63331 18.7669ZM9.43968 18.7669H19.2014V14.3777C16.659 14.2767 14.1795 13.6916 11.8925 12.6758C11.4141 12.4624 10.9415 12.2318 10.4803 11.9821C9.89518 14.0576 9.53116 16.3484 9.43777 18.7669H9.43968ZM20.7966 18.7669H30.5584C30.465 16.3465 30.101 14.0557 29.5159 11.9802C29.028 12.2451 28.5287 12.4871 28.0198 12.7101C25.7538 13.7031 23.3047 14.2748 20.7947 14.3758V18.765L20.7966 18.7669ZM32.1536 18.7669H38.3667C38.1075 14.8447 36.619 11.2579 34.2844 8.38956C33.2609 9.43206 32.1365 10.3526 30.9301 11.1397C31.6238 13.461 32.0545 16.0415 32.1536 18.7669ZM38.4029 20.3602H32.1746C32.1441 23.1123 31.7801 25.7328 31.1435 28.1056C32.4204 28.9632 33.604 29.9733 34.6674 31.1206C36.9449 28.1208 38.3248 24.3987 38.4029 20.3583V20.3602ZM30.5813 20.3602H20.7966V24.7284C23.4686 24.8351 26.0663 25.4755 28.4448 26.5828C28.8794 26.7848 29.3063 27.004 29.7256 27.2365C30.2516 25.1191 30.5546 22.7978 30.5813 20.3602ZM19.2034 20.3602H9.41871C9.4454 22.7978 9.74843 25.1191 10.2744 27.2365C10.6937 27.004 11.1206 26.7848 11.5552 26.5828C13.9337 25.4755 16.5294 24.8351 19.2034 24.7284V20.3602ZM7.82542 20.3602H1.5971C1.67524 24.4006 3.05317 28.1208 5.33257 31.1225C6.39604 29.9733 7.57957 28.9651 8.85649 28.1075C8.21994 25.7347 7.85401 23.1142 7.82542 20.3621V20.3602ZM33.6459 32.3537C32.7444 31.3589 31.7419 30.4726 30.6613 29.7065C30.1334 31.2769 29.4835 32.7139 28.7307 33.9832C27.9417 35.3135 27.0421 36.4608 26.0511 37.3871C28.7002 36.4646 31.073 34.9552 33.0151 33.0151C33.2304 32.7997 33.4401 32.5786 33.644 32.3537H33.6459ZM29.2796 28.8146C28.7898 28.5287 28.2866 28.2657 27.7721 28.0255C25.6013 27.0154 23.2342 26.4284 20.7966 26.3217V38.3514C23.3257 38.016 25.628 36.0987 27.3623 33.1713C28.1208 31.8925 28.7688 30.425 29.2796 28.8127V28.8146ZM19.2034 26.3236C16.7658 26.4284 14.3968 27.0173 12.2279 28.0274C11.7134 28.2676 11.2102 28.5306 10.7204 28.8165C11.2331 30.4288 11.8792 31.8963 12.6377 33.1751C14.372 36.1025 16.6743 38.0198 19.2034 38.3553V26.3255V26.3236ZM9.33867 29.7065C8.25805 30.4726 7.25557 31.3589 6.35411 32.3537C6.55803 32.5786 6.76768 32.7997 6.98304 33.0151C8.9251 34.9571 11.2979 36.4666 13.947 37.3871C12.9579 36.4608 12.0564 35.3116 11.2674 33.9832C10.5146 32.7139 9.86469 31.275 9.33676 29.7046L9.33867 29.7065ZM6.77339 7.1984C7.63674 8.08843 8.58205 8.88508 9.59215 9.5769C10.0705 8.28473 10.6327 7.08977 11.2693 6.01677C12.0583 4.68649 12.9579 3.53917 13.9489 2.61292C11.2998 3.53535 8.92701 5.04479 6.98494 6.98494C6.91443 7.05546 6.84391 7.12788 6.77339 7.2003V7.1984ZM10.972 10.4345C11.4808 10.7204 12.003 10.9815 12.5348 11.2178C14.6217 12.1422 16.8801 12.6796 19.2034 12.7806V1.64475C16.6743 1.98018 14.372 3.89747 12.6377 6.82485C11.9992 7.90356 11.4389 9.11378 10.972 10.4345ZM20.7966 12.7825C23.0913 12.6834 25.323 12.1593 27.3871 11.256C27.9474 11.0101 28.4944 10.7376 29.028 10.4364C28.5611 9.11568 28.0008 7.90356 27.3623 6.82676C25.628 3.89937 23.3257 1.98208 20.7966 1.64666V12.7825ZM30.4079 9.5769C31.416 8.88508 32.3613 8.09034 33.2247 7.1984C33.1561 7.12598 33.0856 7.05546 33.0151 6.98494C31.073 5.04288 28.7002 3.53345 26.0511 2.61292C27.0402 3.53917 27.9417 4.68839 28.7307 6.01677C29.3673 7.08977 29.9314 8.28473 30.4079 9.5769Z" fill="#2B2A29"/>
</svg>
