<svg width="26" height="26" viewBox="0 0 26 26" fill="none" xmlns="http://www.w3.org/2000/svg">
<path d="M1.218 1.22071C0.913504 1.32227 0.609003 1.4746 0.355251 1.77926C0.152252 2.08392 1.90735e-06 2.43936 1.90735e-06 2.74403C1.90735e-06 7.00932 1.06575 10.9192 3.19726 14.5243C5.22727 18.028 8.01852 20.8207 11.5203 22.8518C15.1235 24.9845 19.0313 26 23.2436 26C23.5988 26 23.9033 25.8984 24.2078 25.6446C24.5123 25.4415 24.7153 25.1368 24.7661 24.7813L25.9333 19.6528C26.0348 19.2974 26.0348 18.942 25.8318 18.5865C25.6796 18.2819 25.4258 18.028 25.0198 17.8249L19.5388 15.4891C19.2343 15.3876 18.8791 15.3368 18.5238 15.4383C18.2193 15.5399 17.9148 15.6922 17.6611 15.9461L15.428 18.6881C13.7025 17.8249 12.1293 16.7078 10.7083 15.286C9.33803 13.915 8.22153 12.3409 7.30802 10.5637L10.0485 8.32952C10.353 8.12641 10.5053 7.82175 10.6068 7.46631C10.7083 7.16165 10.6575 6.80621 10.5053 6.45077L8.17078 0.966825C8.01852 0.611384 7.76477 0.357498 7.40952 0.154389C7.10502 0.00205741 6.74977 -0.0487198 6.34377 0.0528346L1.218 1.22071ZM23.1928 24.3751C19.3358 24.3751 15.6818 23.4104 12.3323 21.43C9.08428 19.5513 6.49602 16.9617 4.56751 13.6611C2.63901 10.3606 1.62401 6.75543 1.62401 2.79481L6.69902 1.62693L9.03353 7.11087L5.32877 10.1067C6.54677 12.7471 7.96778 14.8798 9.54103 16.4539C11.165 18.0788 13.2458 19.4497 15.8848 20.6684L18.8791 16.9617L24.3601 19.2974L23.1928 24.3751Z" fill="#F2994A"/>
</svg>
