<svg width="22" height="23" viewBox="0 0 22 23" fill="none" xmlns="http://www.w3.org/2000/svg">
<path fill-rule="evenodd" clip-rule="evenodd" d="M2.41041 9.21994C2.41041 8.12793 2.67898 7.22014 3.00747 6.4322C3.28047 5.77522 4.00626 4.71207 4.59887 4.23931C4.85634 4.03289 4.79419 4.01735 5.30468 3.65335C6.2391 2.98971 7.20904 2.65012 8.35654 2.47478C8.523 2.45036 8.60513 2.45924 8.77825 2.45036C9.25989 2.42817 8.83374 2.36824 9.54177 2.4437C9.95904 2.4881 10.0722 2.43261 10.6937 2.58354C11.7347 2.83656 12.7246 3.28935 13.5303 3.9774C14.0674 4.43684 13.9631 4.40355 14.3781 4.82082C14.5202 4.96287 14.6312 5.12934 14.7532 5.29358L15.3703 6.36784C16.6243 8.9092 15.8719 12.1253 14.0674 13.9276C12.638 15.3569 11.071 15.9873 9.00242 15.9873C8.52078 15.9873 7.95258 15.8963 7.55751 15.7831C6.73406 15.5478 5.95057 15.2482 5.26695 14.7333C3.54459 13.437 2.41041 11.5149 2.41041 9.21772V9.21994ZM20.9657 22.8035H20.7326C20.4219 22.7702 20.0757 22.6059 19.7205 22.2375C19.6251 22.1398 19.6229 22.1132 19.5408 22.0155L16.1582 18.4954C15.883 18.1979 15.5167 17.8939 15.2238 17.5609C15.004 17.3123 14.751 16.9772 14.478 16.793L12.1231 17.956C11.7435 18.0936 11.1065 18.2357 10.6915 18.3067C9.31982 18.5398 8.38761 18.4465 7.08031 18.1757C6.57869 18.0714 5.864 17.8317 5.4201 17.6075C4.89185 17.3412 4.4768 17.1392 3.99072 16.8085L3.35371 16.3313C3.23386 16.2292 3.18503 16.1515 3.05408 16.0517C2.65012 15.7387 2.46812 15.4502 2.21509 15.1971L1.48265 14.2383C1.40718 14.1118 1.35613 14.0252 1.28289 13.9031C1.12974 13.6523 1.0232 13.4459 0.890032 13.1818C0.126513 11.6614 0 10.4962 0 8.7272C0 7.57304 0.42615 6.17696 0.905569 5.22478C1.19855 4.64548 1.29843 4.39911 1.73124 3.82203C2.23285 3.15395 2.14851 3.32264 2.48144 2.92534C2.58354 2.80327 2.59685 2.74778 2.73002 2.63902C3.50908 1.99536 3.58454 1.81114 4.63438 1.20299C4.8519 1.07647 5.11824 0.958838 5.34463 0.845642C6.63196 0.199758 7.8749 0 9.48628 0C11.0977 0 12.6646 0.552663 13.9542 1.32284C14.1362 1.4316 14.2782 1.5115 14.4425 1.6358C14.8398 1.93543 14.9929 2.02643 15.3525 2.37268C15.4568 2.47256 15.4946 2.48144 15.5989 2.57244C15.8164 2.76332 15.9118 2.932 16.1782 3.19391C16.5311 3.54237 17.2391 4.66324 17.4744 5.14931L17.7385 5.73083C17.8273 5.93503 17.8828 6.10371 17.9538 6.31679C18.4332 7.74839 18.5087 9.12893 18.3023 10.6404C18.2446 11.0599 18.1114 11.6015 17.9871 11.9722C17.6186 13.0664 17.4566 13.315 16.9261 14.2072C16.7153 14.5601 16.4734 14.8176 16.2559 15.1394C16.5178 15.3148 16.8107 15.7187 17.0016 15.9074L19.068 18.027C19.4231 18.4709 21.0523 20.0379 21.2942 20.342C21.8158 20.9968 22 20.8791 22 21.7292C22 22.1598 21.5716 22.7324 20.959 22.799L20.9657 22.8035Z" fill="black"/>
</svg>
