<svg width="85" height="85" viewBox="0 0 85 85" fill="none" xmlns="http://www.w3.org/2000/svg">
<circle cx="42.5" cy="42.5" r="42.5" fill="white"/>
<path d="M66.8708 29.2C67.1661 28 66.8708 27 65.0992 27H59.292C57.8156 27 57.1266 27.8 56.7329 28.7C56.7329 28.7 53.7801 36 49.6462 40.8C48.2682 42.1 47.6776 42.6 46.8902 42.6C46.595 42.6 46.0044 42.1 46.0044 40.9V29.2C46.0044 27.7 45.6107 27 44.3311 27H35.2759C34.2916 27 33.7995 27.7 33.7995 28.4C33.7995 29.8 35.8664 30.1 36.0633 34.1V42.8C36.0633 44.7 35.768 45.1 34.9806 45.1C33.0121 45.1 28.2876 37.7 25.4332 29.3C24.8427 27.7 24.2521 27 22.7757 27H16.9685C15.3937 27 15 27.8 15 28.7C15 30.3 16.9685 38 24.1537 48.3C28.9766 55.3 35.768 59 41.8705 59C45.5123 59 46.0044 58.2 46.0044 56.8C46.0044 50.1 45.7091 49.4 47.4808 49.4C48.3666 49.4 49.843 49.9 53.288 53.3C57.225 57.3 57.914 59 60.0794 59H65.8866C67.5598 59 68.3472 58.2 67.8551 56.5C66.7724 53.1 59.3904 45.9 58.9967 45.4C58.1109 44.3 58.4061 43.8 58.9967 42.8C58.9967 42.8 66.0834 32.6 66.8708 29.2Z" fill="#404855"/>
</svg>
